<?xml version="1.0" encoding="utf-8"?>
<!-- Generator: Adobe Illustrator 16.0.0, SVG Export Plug-In . SVG Version: 6.00 Build 0)  -->
<!DOCTYPE svg PUBLIC "-//W3C//DTD SVG 1.1//EN" "http://www.w3.org/Graphics/SVG/1.1/DTD/svg11.dtd">
<svg version="1.1" xmlns="http://www.w3.org/2000/svg" xmlns:xlink="http://www.w3.org/1999/xlink" x="0px" y="0px" width="374px"
	 height="448px" viewBox="0 0 374 448" enable-background="new 0 0 374 448" xml:space="preserve">
<g id="Layer_1" display="none">
	<g display="inline" opacity="0.1">
		<g>
			<g>
				<g>
					<path fill="#0074BC" d="M256.271,318.878c0,4.901-1.871,9.804-5.609,13.538c-3.735,3.738-8.639,5.609-13.537,5.609h-99.556
						c-4.898,0-9.801-1.871-13.537-5.609c-3.74-3.734-5.609-8.637-5.609-13.538V127.425c0-4.9,1.87-9.8,5.609-13.538
						c3.736-3.738,8.639-5.609,13.537-5.609h99.556c4.898,0,9.802,1.871,13.537,5.609c3.738,3.738,5.609,8.637,5.609,13.538V318.878
						z"/>
					<rect x="126.083" y="146.567" fill="#FFFFFF" width="122.53" height="153.167"/>
					
						<line fill="none" stroke="#FFFFFF" stroke-width="0.75" stroke-miterlimit="10" x1="172.031" y1="127.425" x2="202.665" y2="127.425"/>
					
						<line fill="none" stroke="#FFFFFF" stroke-width="0.75" stroke-linecap="round" stroke-miterlimit="10" x1="179.688" y1="318.878" x2="195.007" y2="318.878"/>
				</g>
				<g>
					
						<line fill="none" stroke="#4D4D4D" stroke-width="0.75" stroke-miterlimit="10" x1="168.202" y1="280.589" x2="175.86" y2="280.589"/>
					
						<line fill="none" stroke="#4D4D4D" stroke-width="0.75" stroke-miterlimit="10" x1="183.52" y1="280.589" x2="191.176" y2="280.589"/>
					
						<line fill="none" stroke="#4D4D4D" stroke-width="0.75" stroke-miterlimit="10" x1="198.835" y1="280.589" x2="206.492" y2="280.589"/>
				</g>
			</g>
		</g>
	</g>
	<g display="inline" opacity="0.05">
		<g>
			<g>
				<g>
					<path fill="#0074BC" d="M240.477,302.333c0,4.897-1.871,9.8-5.608,13.535c-3.736,3.739-8.638,5.61-13.537,5.61h-99.556
						c-4.898,0-9.801-1.871-13.537-5.61c-3.74-3.735-5.609-8.638-5.609-13.535V110.878c0-4.9,1.869-9.8,5.609-13.537
						c3.736-3.739,8.639-5.61,13.537-5.61h99.556c4.899,0,9.801,1.871,13.537,5.61c3.737,3.737,5.608,8.637,5.608,13.537V302.333z"
						/>
					<rect x="110.287" y="130.021" fill="#FFFFFF" width="122.529" height="153.167"/>
					
						<line fill="none" stroke="#FFFFFF" stroke-width="0.75" stroke-miterlimit="10" x1="156.235" y1="110.878" x2="186.869" y2="110.878"/>
					
						<line fill="none" stroke="#FFFFFF" stroke-width="0.75" stroke-linecap="round" stroke-miterlimit="10" x1="163.894" y1="302.333" x2="179.213" y2="302.333"/>
				</g>
				<g>
					
						<line fill="none" stroke="#4D4D4D" stroke-width="0.75" stroke-miterlimit="10" x1="152.407" y1="264.041" x2="160.065" y2="264.041"/>
					
						<line fill="none" stroke="#4D4D4D" stroke-width="0.75" stroke-miterlimit="10" x1="167.724" y1="264.041" x2="175.381" y2="264.041"/>
					
						<line fill="none" stroke="#4D4D4D" stroke-width="0.75" stroke-miterlimit="10" x1="183.04" y1="264.041" x2="190.697" y2="264.041"/>
				</g>
			</g>
		</g>
	</g>
	<g display="inline">
		<g>
			<path fill="#D8E1E5" d="M223.764,243.141c0,6.252-19.008,11.326-42.472,11.326c-23.462,0-42.472-5.074-42.472-11.326
				c0-6.255,19.009-11.326,42.472-11.326C204.756,231.814,223.764,236.886,223.764,243.141z"/>
			<g>
				<g>
					
						<line fill="none" stroke="#FFFFFF" stroke-width="2" stroke-miterlimit="10" x1="174.213" y1="243.141" x2="177.045" y2="243.141"/>
					
						<line fill="none" stroke="#FFFFFF" stroke-width="2" stroke-miterlimit="10" x1="179.876" y1="243.141" x2="182.707" y2="243.141"/>
					
						<line fill="none" stroke="#FFFFFF" stroke-width="2" stroke-miterlimit="10" x1="185.54" y1="243.141" x2="188.371" y2="243.141"/>
				</g>
			</g>
			<g>
				<g>
					<path fill="none" stroke="#4D4D4D" stroke-width="2" stroke-miterlimit="10" d="M164.302,219.073
						c4.729,3.553,10.619,5.663,16.99,5.663c15.644,0,28.315-12.671,28.315-28.314"/>
					
						<line fill="none" stroke="#4D4D4D" stroke-width="2" stroke-miterlimit="10" x1="181.292" y1="220.489" x2="181.292" y2="228.982"/>
				</g>
				<polygon fill="#383B3D" points="206.775,234.646 201.111,234.646 185.54,204.916 177.045,204.916 161.472,234.646 
					155.809,234.646 171.382,193.591 181.292,196.422 191.203,193.591 				"/>
				<g>
					<polygon fill="#FFFFFF" points="155.809,234.646 151.562,244.557 158.64,234.646 					"/>
					<polygon fill="#FFFFFF" points="206.775,234.646 211.021,244.557 203.943,234.646 					"/>
				</g>
				<path fill="#4D4D4D" d="M183.295,167.521c-0.555-0.553-1.279-0.83-2.003-0.83s-1.449,0.276-2.003,0.83
					c-0.554,0.554-0.83,1.278-0.83,2.002v8.494h5.663v-8.494C184.122,168.799,183.846,168.074,183.295,167.521z"/>
				<g>
					<path fill="#0C78BA" d="M181.292,175.186c-7.037,0-12.742,5.704-12.742,12.742c0,7.038,5.705,12.742,12.742,12.742
						s12.741-5.705,12.741-12.742C194.033,180.891,188.329,175.186,181.292,175.186z M181.292,196.422
						c-4.692,0-8.494-3.802-8.494-8.495c0-4.692,3.802-8.494,8.494-8.494s8.495,3.801,8.495,8.494
						C189.787,192.62,185.984,196.422,181.292,196.422z"/>
					<circle fill="none" stroke="#4D4D4D" stroke-width="2" stroke-miterlimit="10" cx="181.292" cy="187.927" r="8.495"/>
				</g>
			</g>
		</g>
	</g>
	<g display="inline">
		<text transform="matrix(1.1569 0 0 1 182.917 592.7344)" fill="#AD6B2E" font-family="'EdwardianScriptITC'" font-size="74.4924">C</text>
		
			<text transform="matrix(1.1569 0 0 1 251.5908 592.7344)" fill="#AD6B2E" font-family="'EdwardianScriptITC'" font-size="56.8544">rew</text>
		<g>
			<g>
				<path fill="#148E97" d="M158.321,260.176c0,0-2.188-3.049,0.252-7.33c2.44-4.283-1.183-6.92-1.183-6.92l2.7,0.045
					c0,0,3.095,2.943-0.134,6.967c-3.227,4.025-1.636,7.246-1.636,7.246"/>
				<circle fill="#148E97" cx="158.545" cy="260.438" r="0.786"/>
			</g>
			<text transform="matrix(1.0027 0 0 1 147.0879 261.4434)" fill="#626366" font-family="'Occidental'" font-size="22.0759">T</text>
		</g>
	</g>
	<circle display="inline" fill="#ABCBD6" cx="181.292" cy="187.927" r="4.248"/>
</g>
<g id="Layer_3">
	<g>
		<g>
			<g>
				<polygon fill="#0EB5E2" points="255.495,103.467 202.034,103.467 171.962,153.587 255.495,153.587 				"/>
				<polygon fill="#0EB5E2" points="255.495,153.587 171.962,153.587 202.034,203.707 255.495,203.707 				"/>
				<polygon fill="#4989B8" points="285.563,153.587 255.495,103.467 225.423,153.587 255.495,203.707 				"/>
			</g>
			<g opacity="0.1">
				<polygon fill="#0EB5E2" points="233.532,103.467 180.072,103.467 150.001,153.587 233.532,153.587 				"/>
				<polygon fill="#0EB5E2" points="233.532,153.587 150.001,153.587 180.072,203.707 233.532,203.707 				"/>
				<polygon fill="#4989B8" points="263.602,153.587 233.532,103.467 203.461,153.587 233.532,203.707 				"/>
			</g>
			<g>
				<polygon fill="#88BED8" points="140.561,174.963 87.101,174.963 57.03,225.082 140.561,225.082 				"/>
				<polygon fill="#88BED8" points="140.561,225.082 57.03,225.082 87.101,275.2 140.561,275.2 				"/>
				<polygon fill="#B9DBED" points="170.632,225.082 140.561,174.963 110.49,225.082 140.561,275.2 				"/>
			</g>
			<g opacity="0.3">
				<polygon fill="#88BED8" points="144.97,203.076 91.507,203.076 61.438,253.195 144.97,253.195 				"/>
				<polygon fill="#88BED8" points="144.97,253.195 61.438,253.195 91.507,303.314 144.97,303.314 				"/>
				<polygon fill="#B9DBED" points="175.04,253.195 144.97,203.076 114.898,253.195 144.97,303.314 				"/>
			</g>
			<g>
				<polygon fill="none" stroke="#4D4D4D" stroke-width="2" stroke-miterlimit="10" points="282.224,296.576 255.494,249.796 
					202.032,249.796 175.301,296.576 202.032,343.354 255.494,343.354 				"/>
				<polyline fill="none" stroke="#4D4D4D" stroke-width="2" stroke-miterlimit="10" points="255.494,249.796 228.763,296.576 
					255.494,343.354 				"/>
				
					<line fill="none" stroke="#4D4D4D" stroke-width="2" stroke-miterlimit="10" x1="228.763" y1="296.576" x2="175.301" y2="296.576"/>
			</g>
			<g opacity="0.1">
				<polygon fill="none" stroke="#4D4D4D" stroke-width="2" stroke-miterlimit="10" points="308.1,276.007 281.37,229.228 
					227.908,229.228 201.178,276.007 227.908,322.783 281.37,322.783 				"/>
				<polyline fill="none" stroke="#4D4D4D" stroke-width="2" stroke-miterlimit="10" points="281.37,229.228 254.639,276.007 
					281.37,322.783 				"/>
				
					<line fill="none" stroke="#4D4D4D" stroke-width="2" stroke-miterlimit="10" x1="254.639" y1="276.007" x2="201.178" y2="276.007"/>
			</g>
			<g>
				
					<line fill="none" stroke="#0CE9F4" stroke-width="2" stroke-miterlimit="10" x1="219.447" y1="228.755" x2="212.764" y2="228.755"/>
				
					<line fill="none" stroke="#0CE9F4" stroke-width="2" stroke-miterlimit="10" x1="168.556" y1="184.337" x2="164.657" y2="178.909"/>
				
					<line fill="none" stroke="#0CE9F4" stroke-width="2" stroke-miterlimit="10" x1="175.712" y1="253.211" x2="172.194" y2="258.891"/>
				
					<line fill="none" stroke="#0CE9F4" stroke-width="2" stroke-miterlimit="10" x1="256.178" y1="228.755" x2="249.495" y2="228.755"/>
				
					<line fill="none" stroke="#0CE9F4" stroke-width="2" stroke-miterlimit="10" x1="166.163" y1="268.639" x2="162.644" y2="274.32"/>
				
					<line fill="none" stroke="#0CE9F4" stroke-width="2" stroke-miterlimit="10" x1="151.47" y1="290.678" x2="147.951" y2="296.359"/>
			</g>
		</g>
	</g>
	<g id="Layer_2_2_">
		<g>
			<g>
				<g>
					<path fill="#148E97" d="M197.92,235.641c0,0-2.366-3.297,0.272-7.924c2.637-4.629-1.281-7.482-1.281-7.482l2.919,0.051
						c0,0,3.347,3.18-0.144,7.532c-3.49,4.347-1.773,7.834-1.773,7.834"/>
					<circle fill="#148E97" cx="198.162" cy="235.926" r="0.85"/>
				</g>
				<text transform="matrix(1.0027 0 0 1 185.7759 237.0127)" fill="#626366" font-family="'Occidental'" font-size="23.8668">T</text>
			</g>
		</g>
	</g>
</g>
<g id="Layer_2" display="none">
	<g display="inline">
		<g>
			<g>
				<path opacity="0.5" fill="#E4E8EA" stroke="#024B68" stroke-miterlimit="10" enable-background="new    " d="M700.688,295.143
					h-301.07V109.244c0-5.006,1.896-10.013,5.688-13.836c3.789-3.822,8.765-5.732,13.733-5.732h262.225
					c4.973,0,9.946,1.91,13.733,5.732c3.793,3.823,5.69,8.83,5.69,13.836V295.143L700.688,295.143z"/>
				<path fill="#8DA9B7" d="M701.312,314.156c0,4.994-1.905,9.986-5.719,13.797c-3.807,3.812-8.806,5.719-13.797,5.719H418.338
					c-4.992,0-9.991-1.906-13.798-5.719c-3.812-3.811-5.717-8.803-5.717-13.797v-19.516h302.487v19.516H701.312z"/>
				<polygon fill="#46839B" points="593.977,372.703 506.158,372.703 511.037,333.672 589.098,333.672 				"/>
				<polygon fill="#46839B" points="603.735,371.389 496.4,371.389 491.521,381.146 608.613,381.146 				"/>
			</g>
			<g opacity="0.5">
				<rect x="437.854" y="148.276" fill="#FFFFFF" width="29.273" height="29.273"/>
				<rect x="633.007" y="128.76" fill="#FFFFFF" width="29.274" height="48.789"/>
				<rect x="437.854" y="187.306" fill="#FFFFFF" width="29.273" height="29.273"/>
				<rect x="437.854" y="226.338" fill="#FFFFFF" width="29.273" height="29.273"/>
				<g>
					
						<line fill="none" stroke="#4D4D4D" stroke-width="2" stroke-miterlimit="10" x1="437.854" y1="133.639" x2="447.611" y2="133.639"/>
					
						<line fill="none" stroke="#4D4D4D" stroke-width="2" stroke-miterlimit="10" x1="457.369" y1="133.639" x2="467.127" y2="133.639"/>
					
						<line fill="none" stroke="#4D4D4D" stroke-width="2" stroke-miterlimit="10" x1="476.885" y1="133.639" x2="486.642" y2="133.639"/>
				</g>
				<g>
					
						<line fill="none" stroke="#4D4D4D" stroke-width="2" stroke-miterlimit="10" x1="633.007" y1="192.185" x2="662.281" y2="192.185"/>
					
						<line fill="none" stroke="#4D4D4D" stroke-width="2" stroke-miterlimit="10" x1="633.007" y1="211.701" x2="662.281" y2="211.701"/>
					
						<line fill="none" stroke="#4D4D4D" stroke-width="2" stroke-miterlimit="10" x1="633.007" y1="231.215" x2="662.281" y2="231.215"/>
					
						<line fill="none" stroke="#4D4D4D" stroke-width="2" stroke-miterlimit="10" x1="633.007" y1="250.732" x2="662.281" y2="250.732"/>
				</g>
			</g>
			<g opacity="0.3">
				<path opacity="0.5" fill="#E4E8EA" stroke="#024B68" stroke-miterlimit="10" enable-background="new    " d="M724.877,294.656
					H389.311V87.458c0-5.579,2.115-11.16,6.345-15.421c4.224-4.26,9.768-6.389,15.308-6.389H703.23
					c5.541,0,11.085,2.129,15.306,6.389c4.229,4.261,6.343,9.842,6.343,15.421v207.198H724.877z"/>
				<path fill="#8DA9B7" d="M725.572,315.848c0,5.566-2.124,11.131-6.373,15.379c-4.241,4.248-9.813,6.373-15.378,6.373H410.178
					c-5.563,0-11.135-2.125-15.378-6.373c-4.248-4.248-6.373-9.812-6.373-15.379v-21.752h337.146L725.572,315.848L725.572,315.848z"
					/>
				<polygon fill="#46839B" points="605.94,381.104 508.06,381.104 513.498,337.6 600.504,337.6 				"/>
				<polygon fill="#46839B" points="616.817,379.639 497.185,379.639 491.746,390.514 622.254,390.514 				"/>
			</g>
		</g>
	</g>
	<g id="Layer_2_3_" display="inline">
		<g>
			<g>
				<g>
					<path fill="#148E97" d="M558.232,208.483c0,0-2.188-3.049,0.252-7.332c2.438-4.281-1.185-6.918-1.185-6.918l2.7,0.045
						c0,0,3.095,2.943-0.134,6.967c-3.228,4.023-1.638,7.246-1.638,7.246"/>
					<circle fill="#148E97" cx="558.457" cy="208.747" r="0.785"/>
				</g>
				<text transform="matrix(1.0027 0 0 1 547 209.75)" fill="#626366" font-family="'Occidental'" font-size="22.0759">T</text>
			</g>
		</g>
	</g>
	<g display="inline">
		<g>
			<g>
				
					<rect x="551.069" y="160.302" transform="matrix(-0.7069 -0.7074 0.7074 -0.7069 829.2083 668.2405)" fill="none" stroke="#009EFF" stroke-width="2" stroke-miterlimit="10" width="4" height="4"/>
				
					<rect x="590.694" y="199.884" transform="matrix(-0.707 -0.7072 0.7072 -0.707 868.9905 763.7596)" fill="none" stroke="#009EFF" stroke-width="2" stroke-miterlimit="10" width="4" height="4"/>
				
					<rect x="511.498" y="199.884" transform="matrix(-0.707 -0.7072 0.7072 -0.707 733.7986 707.755)" fill="none" stroke="#009EFF" stroke-width="2" stroke-miterlimit="10" width="4" height="4"/>
				
					<rect x="551.097" y="239.482" transform="matrix(-0.7071 -0.7071 0.7071 -0.7071 773.4416 803.3339)" fill="none" stroke="#009EFF" stroke-width="2" stroke-miterlimit="10" width="4" height="4"/>
				
					<line fill="none" stroke="#009EFF" stroke-width="2" stroke-miterlimit="10" stroke-dasharray="2" x1="556.634" y1="165.827" x2="589.161" y2="198.354"/>
				
					<line fill="none" stroke="#009EFF" stroke-width="2" stroke-miterlimit="10" stroke-dasharray="2" x1="517.036" y1="205.424" x2="549.562" y2="237.951"/>
				
					<line fill="none" stroke="#009EFF" stroke-width="2" stroke-miterlimit="10" stroke-dasharray="2" x1="589.161" y1="205.424" x2="556.634" y2="237.951"/>
				
					<line fill="none" stroke="#009EFF" stroke-width="2" stroke-miterlimit="10" stroke-dasharray="2" x1="549.562" y1="165.827" x2="517.036" y2="198.354"/>
			</g>
		</g>
	</g>
</g>
</svg>
