<?xml version="1.0" encoding="utf-8"?>
<!-- Generator: Adobe Illustrator 16.0.0, SVG Export Plug-In . SVG Version: 6.00 Build 0)  -->
<!DOCTYPE svg PUBLIC "-//W3C//DTD SVG 1.1//EN" "http://www.w3.org/Graphics/SVG/1.1/DTD/svg11.dtd">
<svg version="1.1" xmlns="http://www.w3.org/2000/svg" xmlns:xlink="http://www.w3.org/1999/xlink" x="0px" y="0px" width="35px"
	 height="35px" viewBox="7.5 7.5 35 35" enable-background="new 7.5 7.5 35 35" xml:space="preserve">
<g id="Layer_4" display="none">
	<circle display="inline" fill="#DDDD0A" stroke="#00CFFF" stroke-miterlimit="10" cx="24.084" cy="24.282" r="20.282"/>
</g>
<g id="Layer_3">
	<g>
		<circle opacity="0.27" fill="#66E2B6" enable-background="new    " cx="25.222" cy="25.221" r="17.154"/>
		<circle fill="#0DA1CE" cx="25.222" cy="25.221" r="13.798"/>
	</g>
</g>
<g id="Layer_2">
	<g id="Settings_1_">
		<path fill="#00FFF8" d="M15.966,20.157h18.342c0.337,0,0.611-0.273,0.611-0.611c0-0.338-0.274-0.611-0.611-0.611H15.966
			c-0.338,0-0.612,0.273-0.612,0.611C15.354,19.884,15.628,20.157,15.966,20.157z"/>
		<path fill="#00FFF8" d="M34.309,31.163H15.966c-0.338,0-0.612,0.273-0.612,0.611c0,0.336,0.274,0.611,0.612,0.611h18.342
			c0.337,0,0.611-0.275,0.611-0.611C34.92,31.437,34.646,31.163,34.309,31.163z"/>
		<path fill="#00FFF8" d="M32.475,23.214c-1.139,0-2.087,0.781-2.36,1.834H15.966c-0.338,0-0.612,0.273-0.612,0.611
			c0,0.337,0.274,0.61,0.612,0.61h14.148c0.273,1.055,1.222,1.835,2.36,1.835c1.351,0,2.445-1.094,2.445-2.445
			C34.92,24.309,33.825,23.214,32.475,23.214z M32.475,26.884c-0.675,0-1.223-0.549-1.223-1.224c0-0.674,0.548-1.223,1.223-1.223
			c0.676,0,1.223,0.547,1.223,1.223C33.697,26.335,33.15,26.884,32.475,26.884z"/>
	</g>
</g>
</svg>
