<?xml version="1.0" encoding="utf-8"?>
<!-- Generator: Adobe Illustrator 16.0.0, SVG Export Plug-In . SVG Version: 6.00 Build 0)  -->
<!DOCTYPE svg PUBLIC "-//W3C//DTD SVG 1.1//EN" "http://www.w3.org/Graphics/SVG/1.1/DTD/svg11.dtd">
<svg version="1.1" id="Layer_1" xmlns="http://www.w3.org/2000/svg" xmlns:xlink="http://www.w3.org/1999/xlink" x="0px" y="0px"
	 width="374px" height="448px" viewBox="0 0 374 448" enable-background="new 0 0 374 448" xml:space="preserve">
<g id="Layer_3" display="none">
	<g display="inline" opacity="0.1">
		<g>
			<path fill="#8CF2F2" d="M413.882,230.486l-52.987,30.007c0,0-1.043,0.715-2.157,0.735c-1.236,0.022-2.223-0.438-2.223-0.438
				l-5.872-3.64c-2.172-1.347-3.49-3.717-3.495-6.271l-0.21-142.728c-0.009-6.332,3.653-12.184,9.6-15.337l52.322-30.177
				c1.26-0.728,2.81-0.738,4.08-0.028c2.213,1.233,4.431,2.45,6.579,3.783c0.592,0.366,1.181,0.731,1.771,1.097l1.924,3.187
				l0.212,145.442C423.388,220.945,420.379,227.336,413.882,230.486z"/>
			<path fill="#05A795" d="M358.642,261.374c-1.209,0-2.146-0.435-2.187-0.454l-5.889-3.648c-2.229-1.381-3.562-3.771-3.563-6.391
				l-0.209-142.728c-0.008-6.369,3.699-12.293,9.675-15.463l52.316-30.174c1.297-0.749,2.915-0.76,4.224-0.03l0.831,0.463
				c1.902,1.06,3.87,2.155,5.754,3.324l1.797,1.114l0.021,0.029l1.941,3.221v0.04l0.214,145.443
				c-0.035,4.909-3.023,11.295-9.619,14.493l-52.981,30.005c-0.034,0.024-1.082,0.731-2.227,0.755
				C358.706,261.373,358.675,261.374,358.642,261.374z M356.592,260.669c0.001,0,0.912,0.419,2.052,0.419
				c0.03,0,0.062,0,0.091-0.001c1.059-0.021,2.069-0.704,2.082-0.71l53.004-30.018c6.485-3.146,9.428-9.42,9.463-14.241
				l-0.213-145.4l-1.887-3.124l-1.737-1.078c-1.878-1.165-3.845-2.259-5.742-3.316l-0.833-0.465c-1.22-0.68-2.73-0.669-3.941,0.028
				l-52.32,30.177c-5.89,3.123-9.538,8.951-9.527,15.213l0.208,142.728c0.004,2.521,1.285,4.82,3.429,6.148L356.592,260.669
				L356.592,260.669z"/>
		</g>
		<path opacity="0.3" fill="#0AC9E8" enable-background="new    " d="M142.617,227.688l97.107-56.983
			c2.715-1.594,4.389-4.534,4.392-7.721l0.909-100.031c0-0.04-0.635-1.032-0.635-1.032l-4.311-2.45
			c-0.551-0.421-1.296-0.469-1.895-0.121l-96.066,55.647c-3.277,1.921-5.295,5.472-5.298,9.314l-0.074,98.843
			C136.747,225.729,141.707,228.348,142.617,227.688z"/>
		<g>
			<path fill="#E1E1E1" d="M414.896,230.01l-54.174,30.613c-2.954,1.671-6.654-0.398-6.661-3.721l-0.193-145.944
				c-0.008-6.062,3.322-11.664,8.729-14.683l52.48-29.302c3.625-2.025,8.146,0.517,8.151,4.581l0.191,144.027
				C423.432,221.523,420.183,227.021,414.896,230.01z"/>
			<path fill="#E1E1E1" d="M358.497,261.359c-0.81,0-1.618-0.215-2.354-0.644c-1.39-0.812-2.221-2.235-2.223-3.813l-0.195-145.944
				c-0.009-6.098,3.364-11.771,8.804-14.808l52.479-29.302c1.785-0.996,3.902-0.974,5.664,0.06c1.688,0.99,2.697,2.726,2.701,4.646
				l0.192,144.025c0.008,5.976-3.286,11.555-8.6,14.556l-0.071-0.125l0.071,0.125l-54.174,30.613
				C360.073,261.156,359.284,261.359,358.497,261.359z M417.789,66.402c-0.905,0-1.812,0.231-2.641,0.695l-52.481,29.302
				c-5.348,2.986-8.664,8.564-8.656,14.559l0.196,145.944c0.002,1.477,0.781,2.811,2.081,3.568c1.362,0.793,2.995,0.805,4.365,0.028
				l54.173-30.614c5.223-2.949,8.464-8.432,8.455-14.306l-0.193-144.027c-0.002-1.817-0.959-3.462-2.561-4.4
				C419.673,66.653,418.731,66.402,417.789,66.402z"/>
		</g>
		<g>
			<path fill="#F8F8F8" d="M421.275,213.781c0.007,5.757-3.056,11.08-8.031,13.976l-52.418,30.466
				c-2.156,1.254-4.855-0.299-4.859-2.793l-0.188-142.973c-0.006-5.872,3.13-11.298,8.221-14.221l4.223-2.425l35.772-20.544
				l10.954-6.291c2.729-1.569,6.139,0.399,6.141,3.55L421.275,213.781z"/>
			<path fill="#05A795" d="M359.2,258.811c-0.577,0-1.154-0.15-1.684-0.455c-1.06-0.606-1.69-1.7-1.691-2.924l-0.188-142.975
				c-0.007-5.907,3.17-11.404,8.292-14.344l50.948-29.259c1.327-0.764,2.911-0.761,4.237,0.005c1.325,0.766,2.116,2.136,2.117,3.667
				l0.187,141.253c0.005,5.789-3.1,11.189-8.103,14.1l-52.418,30.467C360.367,258.654,359.783,258.811,359.2,258.811z
				 M416.993,68.568c-0.679,0-1.356,0.178-1.976,0.533L364.07,98.359c-5.031,2.89-8.155,8.291-8.148,14.098l0.188,142.973
				c0,1.12,0.581,2.121,1.551,2.68s2.127,0.554,3.096-0.01l52.418-30.466c4.914-2.858,7.965-8.168,7.959-13.853L420.95,72.526
				c-0.003-1.428-0.741-2.707-1.979-3.421C418.353,68.747,417.672,68.568,416.993,68.568z"/>
		</g>
		<g>
			<path fill="#F0F1F3" d="M415.176,208.109l-0.022-1.684c-0.003-0.246-0.267-0.391-0.479-0.266l-50.186,29.754
				c-0.104,0.062-0.167,0.176-0.166,0.296l0.028,2.033L415.176,208.109z"/>
			<path fill="#F0F1F3" d="M415.185,212.844l-0.022-1.685c-0.004-0.245-0.269-0.392-0.479-0.267l-50.185,29.756
				c-0.105,0.062-0.168,0.176-0.167,0.295l0.029,2.033L415.185,212.844z"/>
			<path fill="#F0F1F3" d="M415.19,217.146l-0.024-1.686c-0.004-0.244-0.265-0.393-0.478-0.268L364.5,244.949
				c-0.104,0.062-0.168,0.175-0.166,0.295l0.03,2.033L415.19,217.146z"/>
			<path fill="#F0F1F3" d="M415.196,221.307l-0.024-1.686c-0.003-0.245-0.264-0.391-0.477-0.266l-50.188,29.754
				c-0.104,0.062-0.166,0.176-0.165,0.295l0.029,2.033L415.196,221.307z"/>
		</g>
		<g>
			<path fill="#F0F1F3" d="M415.176,151.707l-0.022-1.684c-0.003-0.247-0.267-0.392-0.479-0.266l-50.186,29.754
				c-0.104,0.062-0.167,0.175-0.166,0.296l0.028,2.032L415.176,151.707z"/>
			<path fill="#F0F1F3" d="M415.185,156.439l-0.022-1.685c-0.004-0.245-0.269-0.391-0.479-0.265l-50.185,29.755
				c-0.105,0.062-0.168,0.174-0.167,0.294l0.029,2.033L415.185,156.439z"/>
			<path fill="#F0F1F3" d="M415.19,160.743l-0.024-1.685c-0.004-0.246-0.265-0.392-0.478-0.267L364.5,188.546
				c-0.104,0.062-0.168,0.176-0.166,0.295l0.03,2.033L415.19,160.743z"/>
			<path fill="#F0F1F3" d="M415.196,164.902l-0.024-1.685c-0.003-0.247-0.264-0.394-0.477-0.267l-50.188,29.754
				c-0.104,0.062-0.166,0.175-0.165,0.295l0.029,2.033L415.196,164.902z"/>
		</g>
		
			<linearGradient id="SVGID_1_" gradientUnits="userSpaceOnUse" x1="582.042" y1="821.7812" x2="625.6246" y2="708.5514" gradientTransform="matrix(1 0 0 1 -196.6846 -615)">
			<stop  offset="0" style="stop-color:#9CFFDB"/>
			<stop  offset="1" style="stop-color:#60FFBC"/>
		</linearGradient>
		<path fill="url(#SVGID_1_)" d="M427.076,200.843l-50.96,29.827c-1.693,0.991-3.826-0.23-3.826-2.195v-93.403
			c0-4.354,2.309-8.381,6.067-10.58l49.771-29.132c1.513-0.885,3.414,0.206,3.414,1.958v95.737
			C431.542,196.259,429.842,199.225,427.076,200.843z"/>
		
			<linearGradient id="SVGID_2_" gradientUnits="userSpaceOnUse" x1="593.9355" y1="845.0439" x2="609.8882" y2="719.702" gradientTransform="matrix(1 0 0 1 -196.6846 -615)">
			<stop  offset="0" style="stop-color:#81F55F"/>
			<stop  offset="1" style="stop-color:#8AA3C2"/>
		</linearGradient>
		<path opacity="0.53" fill="url(#SVGID_2_)" enable-background="new    " d="M430.495,203.406l-50.96,29.826
			c-1.694,0.992-3.826-0.229-3.826-2.192v-93.405c0-4.354,2.309-8.381,6.066-10.581l49.771-29.132
			c1.512-0.885,3.414,0.205,3.414,1.958v95.737C434.961,198.823,433.26,201.787,430.495,203.406z"/>
		
			<path opacity="0.91" fill="#FFFFFF" stroke="#F3F3F3" stroke-width="1.3511" stroke-miterlimit="10" enable-background="new    " d="
			M433.629,206.396l-50.96,29.827c-1.695,0.991-3.826-0.229-3.826-2.193v-93.403c0-4.354,2.311-8.38,6.065-10.58l49.771-29.132
			c1.515-0.885,3.413,0.206,3.413,1.958v95.737C438.094,201.814,436.395,204.779,433.629,206.396z"/>
		<g>
			<g>
				<path fill="#FFFFFF" d="M350.259,138.843L350.259,138.843c-0.782-0.271-1.429-1.093-1.437-1.83l-0.12-11.162
					c-0.009-0.736,0.624-1.117,1.407-0.847l0,0c0.78,0.271,1.43,1.092,1.438,1.829l0.121,11.162
					C351.675,138.731,351.041,139.113,350.259,138.843z"/>
				<path fill="#05A795" d="M350.745,139.071c-0.17,0-0.353-0.032-0.533-0.095l0,0c-0.836-0.289-1.521-1.168-1.532-1.961
					l-0.12-11.163c-0.005-0.374,0.143-0.686,0.408-0.879c0.309-0.221,0.739-0.259,1.188-0.104c0.836,0.289,1.522,1.168,1.533,1.962
					l0.118,11.162c0.004,0.375-0.142,0.687-0.407,0.88C351.219,139.004,350.992,139.071,350.745,139.071z M349.623,125.061
					c-0.188,0-0.355,0.048-0.487,0.144c-0.19,0.138-0.295,0.367-0.292,0.646l0.12,11.163c0.008,0.671,0.622,1.447,1.341,1.696l0,0
					c0.361,0.124,0.698,0.1,0.93-0.065c0.191-0.137,0.296-0.367,0.292-0.645l-0.121-11.163c-0.007-0.67-0.621-1.447-1.34-1.696
					C349.909,125.086,349.762,125.061,349.623,125.061z"/>
			</g>
			<g>
				<path fill="#FFFFFF" d="M350.364,148.528L350.364,148.528c-0.783-0.27-1.432-1.092-1.438-1.828l-0.048-4.428
					c-0.008-0.735,0.627-1.117,1.408-0.847l0,0c0.782,0.27,1.429,1.093,1.437,1.829l0.05,4.429
					C351.78,148.417,351.146,148.798,350.364,148.528z"/>
				<path fill="#05A795" d="M350.85,148.757c-0.17,0-0.351-0.03-0.53-0.093l0,0c-0.837-0.289-1.524-1.169-1.532-1.962l-0.049-4.428
					c-0.003-0.373,0.143-0.686,0.408-0.879c0.307-0.221,0.739-0.258,1.188-0.104c0.836,0.289,1.523,1.169,1.533,1.962l0.047,4.429
					c0.005,0.374-0.141,0.687-0.408,0.879C351.323,148.691,351.098,148.757,350.85,148.757z M349.802,141.481
					c-0.188,0-0.355,0.049-0.489,0.144c-0.188,0.138-0.294,0.367-0.288,0.646l0.045,4.428c0.009,0.67,0.622,1.447,1.343,1.695l0,0
					c0.361,0.125,0.698,0.1,0.928-0.066c0.191-0.137,0.295-0.366,0.292-0.644l-0.049-4.428c-0.006-0.671-0.62-1.447-1.341-1.696
					C350.089,141.507,349.939,141.481,349.802,141.481z"/>
			</g>
		</g>
		<g>
			
				<linearGradient id="SVGID_3_" gradientUnits="userSpaceOnUse" x1="584.3242" y1="764.5215" x2="598.293" y2="764.5215" gradientTransform="matrix(1 0 0 1 -196.6846 -615)">
				<stop  offset="0" style="stop-color:#EEEBC2;stop-opacity:0.3"/>
				<stop  offset="0.5642" style="stop-color:#F8F6C1;stop-opacity:0.4128"/>
				<stop  offset="1" style="stop-color:#FFFFC0;stop-opacity:0.5"/>
			</linearGradient>
			<path fill="url(#SVGID_3_)" stroke="#608989" stroke-width="0.6756" stroke-miterlimit="10" d="M401.472,146.543l-13.432,7.43
				c-0.171,0.094-0.382-0.029-0.385-0.225l-0.016-1.018c-0.001-0.098,0.052-0.186,0.137-0.231l13.431-7.429
				c0.172-0.094,0.383,0.028,0.385,0.225l0.017,1.018C401.607,146.408,401.555,146.496,401.472,146.543z"/>
			
				<linearGradient id="SVGID_4_" gradientUnits="userSpaceOnUse" x1="594.21" y1="742.2285" x2="620.001" y2="742.2285" gradientTransform="matrix(1 0 0 1 -196.6846 -615)">
				<stop  offset="0" style="stop-color:#EEEBC2;stop-opacity:0.3"/>
				<stop  offset="0.5642" style="stop-color:#F8F6C1;stop-opacity:0.4128"/>
				<stop  offset="1" style="stop-color:#FFFFC0;stop-opacity:0.5"/>
			</linearGradient>
			<path fill="url(#SVGID_4_)" stroke="#608989" stroke-width="0.6756" stroke-miterlimit="10" d="M423.181,121.586l-25.24,13.961
				c-0.173,0.095-0.385-0.027-0.388-0.224l-0.027-2.222c-0.001-0.097,0.05-0.185,0.135-0.231l25.242-13.961
				c0.171-0.095,0.383,0.027,0.385,0.224l0.029,2.223C423.315,121.451,423.265,121.54,423.181,121.586z"/>
			
				<linearGradient id="SVGID_5_" gradientUnits="userSpaceOnUse" x1="584.3652" y1="764.1777" x2="610.7041" y2="764.1777" gradientTransform="matrix(1 0 0 1 -196.6846 -615)">
				<stop  offset="0" style="stop-color:#EEEBC2;stop-opacity:0.3"/>
				<stop  offset="0.5642" style="stop-color:#F8F6C1;stop-opacity:0.4128"/>
				<stop  offset="1" style="stop-color:#FFFFC0;stop-opacity:0.5"/>
			</linearGradient>
			<path fill="url(#SVGID_5_)" stroke="#608989" stroke-width="0.6756" stroke-miterlimit="10" d="M413.885,142.779l-25.804,14.272
				c-0.173,0.096-0.384-0.025-0.386-0.224l-0.015-1.019c-0.002-0.096,0.052-0.186,0.136-0.229l25.804-14.273
				c0.173-0.096,0.384,0.027,0.386,0.224l0.014,1.018C414.021,142.644,413.97,142.733,413.885,142.779z"/>
			
				<linearGradient id="SVGID_6_" gradientUnits="userSpaceOnUse" x1="584.6318" y1="784.5332" x2="610.9727" y2="784.5332" gradientTransform="matrix(1 0 0 1 -196.6846 -615)">
				<stop  offset="0" style="stop-color:#EEEBC2;stop-opacity:0.3"/>
				<stop  offset="0.5642" style="stop-color:#F8F6C1;stop-opacity:0.4128"/>
				<stop  offset="1" style="stop-color:#FFFFC0;stop-opacity:0.5"/>
			</linearGradient>
			<path fill="url(#SVGID_6_)" stroke="#608989" stroke-width="0.6756" stroke-miterlimit="10" d="M414.153,163.134l-25.808,14.271
				c-0.171,0.097-0.382-0.025-0.385-0.223l-0.014-1.019c-0.001-0.097,0.05-0.185,0.134-0.229l25.805-14.272
				c0.172-0.095,0.386,0.026,0.389,0.224l0.014,1.018C414.288,162.999,414.236,163.089,414.153,163.134z"/>
			
				<linearGradient id="SVGID_7_" gradientUnits="userSpaceOnUse" x1="584.4102" y1="766.5449" x2="625.6006" y2="766.5449" gradientTransform="matrix(1 0 0 1 -196.6846 -615)">
				<stop  offset="0" style="stop-color:#EEEBC2;stop-opacity:0.3"/>
				<stop  offset="0.5642" style="stop-color:#F8F6C1;stop-opacity:0.4128"/>
				<stop  offset="1" style="stop-color:#FFFFC0;stop-opacity:0.5"/>
			</linearGradient>
			<path fill="url(#SVGID_7_)" stroke="#608989" stroke-width="0.6756" stroke-miterlimit="10" d="M428.782,144.027l-40.577,22.444
				c-0.172,0.096-0.383-0.029-0.387-0.224l-0.093-6.955c-0.001-0.097,0.053-0.185,0.136-0.231l40.578-22.442
				c0.172-0.094,0.383,0.028,0.385,0.224l0.092,6.954C428.917,143.893,428.865,143.981,428.782,144.027z"/>
			
				<linearGradient id="SVGID_8_" gradientUnits="userSpaceOnUse" x1="585.0127" y1="816.8799" x2="598.9795" y2="816.8799" gradientTransform="matrix(1 0 0 1 -196.6846 -615)">
				<stop  offset="0" style="stop-color:#EEEBC2;stop-opacity:0.3"/>
				<stop  offset="0.5642" style="stop-color:#F8F6C1;stop-opacity:0.4128"/>
				<stop  offset="1" style="stop-color:#FFFFC0;stop-opacity:0.5"/>
			</linearGradient>
			<path fill="url(#SVGID_8_)" stroke="#608989" stroke-width="0.6756" stroke-miterlimit="10" d="M402.16,198.902l-13.434,7.428
				c-0.172,0.096-0.383-0.025-0.385-0.223l-0.014-1.018c-0.002-0.097,0.05-0.188,0.133-0.23l13.433-7.43
				c0.174-0.096,0.385,0.026,0.387,0.223l0.015,1.02C402.296,198.768,402.243,198.855,402.16,198.902z"/>
			
				<linearGradient id="SVGID_9_" gradientUnits="userSpaceOnUse" x1="585.0625" y1="815.957" x2="626.252" y2="815.957" gradientTransform="matrix(1 0 0 1 -196.6846 -615)">
				<stop  offset="0" style="stop-color:#EEEBC2;stop-opacity:0.3"/>
				<stop  offset="0.5642" style="stop-color:#F8F6C1;stop-opacity:0.4128"/>
				<stop  offset="1" style="stop-color:#FFFFC0;stop-opacity:0.5"/>
			</linearGradient>
			<path fill="url(#SVGID_9_)" stroke="#608989" stroke-width="0.6756" stroke-miterlimit="10" d="M429.432,193.439l-40.578,22.443
				c-0.172,0.096-0.383-0.027-0.385-0.224l-0.091-6.955c-0.002-0.097,0.05-0.185,0.133-0.231l40.578-22.441
				c0.171-0.096,0.383,0.027,0.385,0.225l0.094,6.954C429.566,193.305,429.515,193.395,429.432,193.439z"/>
			
				<linearGradient id="SVGID_10_" gradientUnits="userSpaceOnUse" x1="584.6865" y1="796.124" x2="611.4492" y2="796.124" gradientTransform="matrix(1 0 0 1 -196.6846 -615)">
				<stop  offset="0" style="stop-color:#EEEBC2;stop-opacity:0.3"/>
				<stop  offset="0.5642" style="stop-color:#F8F6C1;stop-opacity:0.4128"/>
				<stop  offset="1" style="stop-color:#FFFFC0;stop-opacity:0.5"/>
			</linearGradient>
			<path fill="url(#SVGID_10_)" stroke="#608989" stroke-width="0.6756" stroke-miterlimit="10" d="M414.632,182.294l-26.03,14.396
				c-0.172,0.096-0.383-0.026-0.385-0.223l-0.215-16.285c-0.002-0.096,0.051-0.185,0.134-0.23l26.03-14.396
				c0.172-0.094,0.383,0.028,0.386,0.225l0.213,16.285C414.767,182.156,414.715,182.246,414.632,182.294z"/>
			
				<linearGradient id="SVGID_11_" gradientUnits="userSpaceOnUse" x1="614.3604" y1="783.8936" x2="625.9951" y2="783.8936" gradientTransform="matrix(1 0 0 1 -196.6846 -615)">
				<stop  offset="0" style="stop-color:#EEEBC2;stop-opacity:0.3"/>
				<stop  offset="0.5642" style="stop-color:#F8F6C1;stop-opacity:0.4128"/>
				<stop  offset="1" style="stop-color:#FFFFC0;stop-opacity:0.5"/>
			</linearGradient>
			<path fill="url(#SVGID_11_)" stroke="#608989" stroke-width="0.6756" stroke-miterlimit="10" d="M429.176,174.248l-10.899,6.027
				c-0.17,0.097-0.384-0.026-0.386-0.224l-0.215-16.282c-0.001-0.097,0.051-0.187,0.135-0.23l10.9-6.028
				c0.172-0.097,0.384,0.026,0.386,0.224l0.214,16.283C429.312,174.111,429.261,174.202,429.176,174.248z"/>
		</g>
		<g>
			
				<linearGradient id="SVGID_12_" gradientUnits="userSpaceOnUse" x1="345.3311" y1="783.8115" x2="415.4089" y2="749.0575" gradientTransform="matrix(1 0 0 1 -196.6846 -615)">
				<stop  offset="0" style="stop-color:#FFFFFF"/>
				<stop  offset="1" style="stop-color:#D1FFC0"/>
			</linearGradient>
			<path fill="url(#SVGID_12_)" d="M145.769,230.327l98.65-56.966c2.758-1.594,4.458-4.535,4.461-7.721l0.032-100.662
				c0-0.04-0.646-1.032-0.646-1.032l-3.486-1.821c-0.562-0.421-1.317-0.468-1.926-0.121l-97.611,55.648
				c-3.328,1.921-5.379,5.471-5.382,9.314l-0.075,98.845C139.785,228.387,144.308,230.879,145.769,230.327z"/>
			<path fill="#05A795" d="M145.282,230.545c-0.851,0-2.109-0.477-3.252-1.266c-1.518-1.049-2.387-2.312-2.387-3.469l0.075-98.845
				c0.003-3.88,2.093-7.497,5.454-9.438l97.611-55.647c0.658-0.377,1.475-0.326,2.082,0.131l3.501,1.825l0.021,0.032
				c0.668,1.028,0.668,1.06,0.668,1.11l-0.031,100.661c-0.004,3.228-1.74,6.232-4.535,7.844l-98.659,56.973l-0.01,0.005
				C145.667,230.518,145.487,230.545,145.282,230.545z M243.721,61.917c-0.275,0-0.55,0.07-0.797,0.212l-97.611,55.647
				c-3.273,1.889-5.308,5.411-5.311,9.19l-0.075,98.845c0,1.061,0.826,2.238,2.265,3.232c1.317,0.909,2.824,1.404,3.516,1.152
				l98.64-56.958c2.705-1.564,4.387-4.478,4.391-7.6l0.031-100.631c-0.063-0.116-0.375-0.604-0.602-0.955l-3.456-1.803
				C244.414,62.03,244.066,61.917,243.721,61.917z"/>
		</g>
		<g>
			<path fill="#FFFFFF" d="M145.927,230.229l98.462-56.846c2.758-1.594,4.459-4.537,4.461-7.724l0.075-100.354
				c0.001-1.304-1.409-2.12-2.538-1.468l-97.655,56.38c-3.329,1.921-5.38,5.471-5.383,9.314l-0.075,99.164
				C143.274,230.057,144.747,230.909,145.927,230.229z"/>
			<path fill="#05A795" d="M145.042,230.611c-0.328,0-0.656-0.088-0.956-0.262c-0.598-0.345-0.956-0.964-0.954-1.654l0.075-99.164
				c0.003-3.88,2.093-7.497,5.454-9.438l97.653-56.381c0.576-0.332,1.262-0.332,1.836,0c0.574,0.333,0.918,0.927,0.918,1.591
				l-0.076,100.354c-0.002,3.228-1.739,6.232-4.533,7.847l-98.46,56.848C145.699,230.523,145.371,230.611,145.042,230.611z
				 M247.232,63.75c-0.267,0-0.532,0.07-0.775,0.21l-97.653,56.38c-3.273,1.89-5.309,5.412-5.312,9.191l-0.075,99.164
				c0,0.589,0.303,1.115,0.813,1.41c0.51,0.293,1.117,0.293,1.626,0l98.46-56.849c2.707-1.562,4.389-4.474,4.391-7.6l0.076-100.354
				c0-0.561-0.29-1.063-0.774-1.345C247.766,63.82,247.499,63.75,247.232,63.75z"/>
		</g>
		<g>
			
				<linearGradient id="SVGID_13_" gradientUnits="userSpaceOnUse" x1="352.7285" y1="735.3086" x2="433.8311" y2="735.3086" gradientTransform="matrix(1 0 0 1 -196.6846 -615)">
				<stop  offset="0" style="stop-color:#FFFFFF"/>
				<stop  offset="1" style="stop-color:#FFFFFF;stop-opacity:0.3"/>
			</linearGradient>
			
				<polygon opacity="0.53" fill="url(#SVGID_13_)" stroke="#DD1B85" stroke-width="0.6756" stroke-miterlimit="10" enable-background="new    " points="
				237.146,102.228 156.153,149.594 156.044,138.389 237.037,91.023 			"/>
			
				<linearGradient id="SVGID_14_" gradientUnits="userSpaceOnUse" x1="353.2441" y1="784.3271" x2="434.2656" y2="784.3271" gradientTransform="matrix(1 0 0 1 -196.6846 -615)">
				<stop  offset="0" style="stop-color:#FFFFFF"/>
				<stop  offset="1" style="stop-color:#FFFFFF;stop-opacity:0.3"/>
			</linearGradient>
			<polygon fill="url(#SVGID_14_)" stroke="#DD1B85" stroke-width="0.6756" stroke-miterlimit="10" points="237.581,147.099 
				156.588,194.465 156.56,191.555 237.552,144.189 			"/>
			
				<linearGradient id="SVGID_15_" gradientUnits="userSpaceOnUse" x1="353.2988" y1="789.8457" x2="434.3184" y2="789.8457" gradientTransform="matrix(1 0 0 1 -196.6846 -615)">
				<stop  offset="0" style="stop-color:#FFFFFF"/>
				<stop  offset="1" style="stop-color:#FFFFFF;stop-opacity:0.3"/>
			</linearGradient>
			<polygon fill="url(#SVGID_15_)" stroke="#DD1B85" stroke-width="0.6756" stroke-miterlimit="10" points="237.634,152.617 
				156.642,199.982 156.614,197.074 237.605,149.708 			"/>
			
				<linearGradient id="SVGID_16_" gradientUnits="userSpaceOnUse" x1="353.3555" y1="812.7578" x2="391.7783" y2="812.7578" gradientTransform="matrix(1 0 0 1 -196.6846 -615)">
				<stop  offset="0" style="stop-color:#FFFFFF"/>
				<stop  offset="1" style="stop-color:#FFFFFF;stop-opacity:0.3"/>
			</linearGradient>
			<polygon fill="url(#SVGID_16_)" stroke="#DD1B85" stroke-width="0.6756" stroke-miterlimit="10" points="195.094,192.386 
				156.786,214.789 156.671,203.131 194.98,180.727 			"/>
			
				<linearGradient id="SVGID_17_" gradientUnits="userSpaceOnUse" x1="396.04" y1="787.7969" x2="434.4639" y2="787.7969" gradientTransform="matrix(1 0 0 1 -196.6846 -615)">
				<stop  offset="0" style="stop-color:#FFFFFF"/>
				<stop  offset="1" style="stop-color:#FFFFFF;stop-opacity:0.3"/>
			</linearGradient>
			<polygon fill="url(#SVGID_17_)" stroke="#DD1B85" stroke-width="0.6756" stroke-miterlimit="10" points="237.779,167.423 
				199.471,189.827 199.355,178.168 237.665,155.766 			"/>
			
				<linearGradient id="SVGID_18_" gradientUnits="userSpaceOnUse" x1="353.0703" y1="786.9326" x2="378.2256" y2="786.9326" gradientTransform="matrix(1 0 0 1 -196.6846 -615)">
				<stop  offset="0" style="stop-color:#FFFFFF"/>
				<stop  offset="1" style="stop-color:#FFFFFF;stop-opacity:0.3"/>
			</linearGradient>
			<polygon fill="url(#SVGID_18_)" stroke="#DD1B85" stroke-width="0.6756" stroke-miterlimit="10" points="181.541,170.212 
				156.496,184.859 156.386,173.652 181.433,159.006 			"/>
			
				<linearGradient id="SVGID_19_" gradientUnits="userSpaceOnUse" x1="407.7061" y1="754.5977" x2="434.1729" y2="754.5977" gradientTransform="matrix(1 0 0 1 -196.6846 -615)">
				<stop  offset="0" style="stop-color:#FFFFFF"/>
				<stop  offset="1" style="stop-color:#FFFFFF;stop-opacity:0.3"/>
			</linearGradient>
			<polygon fill="url(#SVGID_19_)" stroke="#DD1B85" stroke-width="0.6756" stroke-miterlimit="10" points="237.488,137.492 
				211.132,152.906 211.021,141.701 237.379,126.288 			"/>
			
				<linearGradient id="SVGID_20_" gradientUnits="userSpaceOnUse" x1="383.9648" y1="770.7637" x2="402.624" y2="770.7637" gradientTransform="matrix(1 0 0 1 -196.6846 -615)">
				<stop  offset="0" style="stop-color:#FFFFFF"/>
				<stop  offset="1" style="stop-color:#FFFFFF;stop-opacity:0.3"/>
			</linearGradient>
			<polygon fill="url(#SVGID_20_)" stroke="#DD1B85" stroke-width="0.6756" stroke-miterlimit="10" points="205.939,155.941 
				187.389,166.79 187.28,155.586 205.83,144.738 			"/>
			
				<linearGradient id="SVGID_21_" gradientUnits="userSpaceOnUse" x1="352.8789" y1="771.167" x2="367.4961" y2="771.167" gradientTransform="matrix(1 0 0 1 -196.6846 -615)">
				<stop  offset="0" style="stop-color:#FFFFFF"/>
				<stop  offset="1" style="stop-color:#FFFFFF;stop-opacity:0.3"/>
			</linearGradient>
			<polygon fill="url(#SVGID_21_)" stroke="#DD1B85" stroke-width="0.6756" stroke-miterlimit="10" points="170.811,158.398 
				156.321,166.873 156.194,153.936 170.685,145.461 			"/>
			
				<linearGradient id="SVGID_22_" gradientUnits="userSpaceOnUse" x1="372.377" y1="741.1064" x2="433.9023" y2="741.1064" gradientTransform="matrix(1 0 0 1 -196.6846 -615)">
				<stop  offset="0" style="stop-color:#FFFFFF"/>
				<stop  offset="1" style="stop-color:#FFFFFF;stop-opacity:0.3"/>
			</linearGradient>
			<polygon fill="url(#SVGID_22_)" stroke="#DD1B85" stroke-width="0.6756" stroke-miterlimit="10" points="237.218,109.681 
				175.723,145.645 175.692,142.532 237.188,106.568 			"/>
			
				<linearGradient id="SVGID_23_" gradientUnits="userSpaceOnUse" x1="372.416" y1="754.3047" x2="406.0869" y2="754.3047" gradientTransform="matrix(1 0 0 1 -196.6846 -615)">
				<stop  offset="0" style="stop-color:#FFFFFF"/>
				<stop  offset="1" style="stop-color:#FFFFFF;stop-opacity:0.3"/>
			</linearGradient>
			<polygon fill="url(#SVGID_23_)" stroke="#DD1B85" stroke-width="0.6756" stroke-miterlimit="10" points="209.402,131.024 
				175.762,150.697 175.731,147.586 209.372,127.913 			"/>
			
				<linearGradient id="SVGID_24_" gradientUnits="userSpaceOnUse" x1="372.4629" y1="759.2168" x2="406.1348" y2="759.2168" gradientTransform="matrix(1 0 0 1 -196.6846 -615)">
				<stop  offset="0" style="stop-color:#FFFFFF"/>
				<stop  offset="1" style="stop-color:#FFFFFF;stop-opacity:0.3"/>
			</linearGradient>
			<polygon fill="url(#SVGID_24_)" stroke="#DD1B85" stroke-width="0.6756" stroke-miterlimit="10" points="209.45,135.937 
				175.81,155.609 175.779,152.498 209.419,132.825 			"/>
		</g>
		<g>
			
				<linearGradient id="SVGID_25_" gradientUnits="userSpaceOnUse" x1="340.0312" y1="715.959" x2="445.6094" y2="715.959" gradientTransform="matrix(1 0 0 1 -196.6846 -615)">
				<stop  offset="0" style="stop-color:#FFFFFF"/>
				<stop  offset="1" style="stop-color:#FBEBCC;stop-opacity:0.3"/>
			</linearGradient>
			<path fill="url(#SVGID_25_)" d="M248.925,65.305l-0.009,11.819l-105.57,61.187l0.005-8.78c0.003-3.842,2.054-7.392,5.38-9.315
				l97.656-56.378C247.516,63.186,248.928,64,248.925,65.305z"/>
			<path fill="#05A795" d="M143.203,138.558l0.006-9.027c0.002-3.88,2.091-7.496,5.452-9.438l97.655-56.378
				c0.574-0.332,1.262-0.332,1.836,0c0.574,0.333,0.918,0.927,0.916,1.59l-0.008,11.901l-0.072,0.041L143.203,138.558z
				 M247.234,63.751c-0.267,0-0.533,0.069-0.775,0.21l-97.655,56.378c-3.273,1.891-5.307,5.414-5.311,9.192l-0.004,8.532
				l105.287-61.021l0.009-11.737c0.001-0.561-0.288-1.062-0.774-1.343C247.768,63.82,247.501,63.751,247.234,63.751z"/>
		</g>
		<g>
			
				<rect x="312.889" y="77.051" transform="matrix(0.5105 0.8599 -0.8599 0.5105 219.5295 -231.439)" fill="#05A795" width="0.285" height="0.073"/>
		</g>
		<g>
			
				<rect x="207.278" y="138.3" transform="matrix(0.4939 0.8695 -0.8695 0.4939 225.2437 -110.3512)" fill="#05A795" width="0.285" height="0.046"/>
		</g>
		<g>
			<path fill="#05A795" d="M380.188,92.931c-0.058,0-0.112-0.014-0.164-0.043c-0.134-0.072-0.211-0.226-0.221-0.422
				c-0.014-0.326,0.167-0.689,0.412-0.827l12.499-7.072c0.128-0.072,0.267-0.078,0.378-0.016c0.131,0.072,0.21,0.226,0.219,0.421
				c0.016,0.326-0.168,0.689-0.411,0.828l-12.5,7.071C380.329,92.911,380.258,92.931,380.188,92.931z M392.924,84.792
				c-0.021,0-0.047,0.011-0.067,0.021l-12.497,7.072c-0.152,0.086-0.279,0.351-0.271,0.567c0.005,0.11,0.043,0.168,0.073,0.186
				c0.029,0.016,0.066,0,0.098-0.015l12.499-7.072c0.153-0.086,0.277-0.352,0.271-0.567c-0.005-0.111-0.043-0.168-0.072-0.186
				C392.946,84.794,392.936,84.792,392.924,84.792z"/>
		</g>
		<g>
			<g>
				<path fill="#6887E0" d="M172.398,125.745c-0.117,0-0.233-0.016-0.335-0.051l-2.86-0.95c-0.263-0.087-0.327-0.259-0.142-0.383
					c0.184-0.124,0.548-0.155,0.812-0.067l2.859,0.95c0.264,0.087,0.327,0.259,0.142,0.383
					C172.761,125.704,172.581,125.745,172.398,125.745z"/>
			</g>
			<g>
				<path fill="#6887E0" d="M307.507,167.923c-0.176,0-0.351,0-0.523-0.002c-0.321-0.002-0.578-0.129-0.571-0.28
					s0.271-0.271,0.595-0.271c2.315,0.022,4.604-0.106,6.826-0.382c0.312-0.038,0.63,0.051,0.712,0.197
					c0.081,0.146-0.104,0.295-0.416,0.334C311.969,167.788,309.742,167.923,307.507,167.923z M300.046,167.398
					c-0.058,0-0.114-0.004-0.172-0.014c-2.303-0.33-4.5-0.811-6.526-1.429c-0.271-0.081-0.35-0.253-0.175-0.381
					c0.175-0.128,0.534-0.163,0.804-0.081c1.939,0.589,4.036,1.049,6.238,1.365c0.31,0.043,0.481,0.197,0.387,0.344
					C300.525,167.32,300.296,167.398,300.046,167.398z M320.477,166.254c-0.199,0-0.395-0.049-0.504-0.135
					c-0.162-0.133-0.067-0.301,0.208-0.378l0.111-0.03l5.95-1.674c0.273-0.078,0.633-0.035,0.798,0.097
					c0.165,0.13,0.074,0.298-0.203,0.376l-6.068,1.707C320.678,166.243,320.576,166.254,320.477,166.254z M287.874,164.092
					c-0.113,0-0.229-0.016-0.333-0.05l-5.775-1.917c-0.263-0.089-0.324-0.259-0.14-0.384c0.185-0.124,0.548-0.154,0.812-0.067
					l5.773,1.918c0.264,0.088,0.327,0.258,0.143,0.383C288.239,164.053,288.059,164.092,287.874,164.092z M332.604,162.844
					c-0.197,0-0.393-0.049-0.502-0.135c-0.165-0.131-0.072-0.301,0.202-0.377l6.063-1.706c0.275-0.079,0.634-0.036,0.8,0.095
					c0.164,0.131,0.073,0.301-0.203,0.377l-6.062,1.707C332.808,162.832,332.705,162.844,332.604,162.844z M276.327,160.257
					c-0.115,0-0.231-0.016-0.335-0.049l-5.773-1.918c-0.264-0.088-0.326-0.26-0.141-0.384s0.547-0.153,0.812-0.067l5.771,1.918
					c0.263,0.089,0.327,0.259,0.143,0.384C276.691,160.217,276.511,160.257,276.327,160.257z M344.731,159.432
					c-0.197,0-0.395-0.048-0.501-0.135c-0.166-0.131-0.074-0.3,0.199-0.377l6.064-1.707c0.275-0.077,0.633-0.035,0.8,0.098
					c0.165,0.129,0.072,0.299-0.203,0.377l-6.062,1.705C344.938,159.419,344.833,159.432,344.731,159.432z M264.779,156.423
					c-0.115,0-0.232-0.019-0.334-0.05l-5.773-1.918c-0.264-0.087-0.328-0.26-0.143-0.383c0.186-0.125,0.549-0.154,0.812-0.067
					l5.774,1.917c0.264,0.087,0.326,0.26,0.143,0.385C265.143,156.382,264.963,156.423,264.779,156.423z M356.86,156.02
					c-0.198,0-0.396-0.049-0.501-0.134c-0.166-0.131-0.075-0.301,0.199-0.378l6.064-1.707c0.275-0.076,0.634-0.033,0.8,0.098
					c0.163,0.131,0.072,0.299-0.205,0.377l-6.062,1.705C357.064,156.007,356.959,156.02,356.86,156.02z M368.988,152.607
					c-0.199,0-0.395-0.049-0.502-0.135c-0.165-0.131-0.074-0.301,0.203-0.377l6.062-1.708c0.277-0.077,0.634-0.034,0.8,0.097
					c0.164,0.13,0.073,0.299-0.204,0.376l-6.062,1.705C369.191,152.596,369.089,152.607,368.988,152.607z M253.23,152.588
					c-0.113,0-0.23-0.016-0.334-0.05l-5.774-1.918c-0.263-0.087-0.325-0.259-0.142-0.383c0.186-0.125,0.549-0.154,0.812-0.067
					l5.773,1.917c0.264,0.087,0.326,0.259,0.142,0.384C253.596,152.547,253.415,152.588,253.23,152.588z M241.684,148.752
					c-0.115,0-0.232-0.016-0.334-0.049l-5.773-1.917c-0.264-0.087-0.327-0.26-0.143-0.384c0.187-0.125,0.549-0.154,0.813-0.067
					l5.772,1.917c0.265,0.087,0.328,0.26,0.143,0.384C242.048,148.712,241.868,148.752,241.684,148.752z M230.135,144.918
					c-0.113,0-0.23-0.016-0.334-0.05l-5.773-1.918c-0.264-0.086-0.326-0.258-0.143-0.383c0.186-0.125,0.551-0.154,0.813-0.066
					l5.772,1.917c0.264,0.087,0.327,0.258,0.141,0.383C230.5,144.878,230.318,144.918,230.135,144.918z M218.588,141.083
					c-0.115,0-0.232-0.016-0.335-0.05l-5.774-1.917c-0.263-0.087-0.326-0.259-0.141-0.384c0.186-0.124,0.549-0.154,0.811-0.066
					l5.774,1.918c0.265,0.086,0.327,0.258,0.142,0.383C218.952,141.043,218.771,141.083,218.588,141.083z M207.041,137.249
					c-0.116,0-0.232-0.017-0.335-0.051l-5.772-1.917c-0.265-0.087-0.326-0.259-0.143-0.383s0.548-0.154,0.812-0.067l5.772,1.917
					c0.263,0.087,0.327,0.259,0.142,0.383C207.404,137.208,207.225,137.249,207.041,137.249z M195.493,133.414
					c-0.116,0-0.234-0.016-0.334-0.05l-5.775-1.917c-0.262-0.087-0.325-0.259-0.141-0.383c0.187-0.125,0.548-0.155,0.812-0.067
					l5.773,1.917c0.264,0.087,0.326,0.259,0.143,0.383C195.857,133.373,195.677,133.414,195.493,133.414z M183.945,129.579
					c-0.116,0-0.233-0.016-0.334-0.05l-5.773-1.918c-0.263-0.087-0.327-0.259-0.142-0.383c0.185-0.125,0.548-0.155,0.812-0.067
					l5.773,1.917c0.264,0.087,0.327,0.26,0.142,0.384C184.309,129.539,184.128,129.579,183.945,129.579z"/>
			</g>
			<g>
				<path fill="#6887E0" d="M381.121,149.194c-0.199,0-0.394-0.047-0.5-0.134c-0.165-0.13-0.075-0.3,0.201-0.378l3.003-0.844
					c0.275-0.078,0.634-0.035,0.799,0.095c0.166,0.131,0.075,0.3-0.203,0.377l-3.002,0.845
					C381.326,149.181,381.223,149.194,381.121,149.194z"/>
			</g>
		</g>
		<g>
			<circle opacity="0.27" fill="#66E2B6" enable-background="new    " cx="392.23" cy="144.957" r="1.614"/>
			<circle fill="#0CD18B" cx="392.231" cy="144.957" r="1.139"/>
		</g>
		<g>
			<circle opacity="0.27" fill="#66E2B6" enable-background="new    " cx="158.854" cy="121.55" r="4.295"/>
			<circle fill="#0CD18B" cx="158.854" cy="121.55" r="3.032"/>
		</g>
		<g>
			<path fill="#F0F1F3" d="M415.176,85.048l-0.022-1.684c-0.003-0.247-0.267-0.392-0.479-0.266l-50.186,29.754
				c-0.104,0.062-0.167,0.174-0.166,0.294l0.028,2.034L415.176,85.048z"/>
			<path fill="#F0F1F3" d="M415.185,89.781l-0.022-1.684c-0.004-0.246-0.269-0.392-0.479-0.266l-50.185,29.755
				c-0.105,0.061-0.168,0.174-0.167,0.294l0.029,2.033L415.185,89.781z"/>
			<path fill="#F0F1F3" d="M415.19,94.084l-0.024-1.684c-0.004-0.246-0.265-0.392-0.478-0.266L364.5,121.888
				c-0.104,0.061-0.168,0.175-0.166,0.295l0.03,2.033L415.19,94.084z"/>
			<path fill="#F0F1F3" d="M415.196,98.243l-0.024-1.684c-0.003-0.246-0.264-0.392-0.477-0.266l-50.188,29.755
				c-0.104,0.061-0.166,0.174-0.165,0.294l0.029,2.033L415.196,98.243z"/>
		</g>
		<g>
			<g>
				<path fill="#6887E0" d="M137.064,113.218c-0.115,0-0.233-0.017-0.334-0.05l-5.773-1.917c-0.264-0.088-0.327-0.259-0.142-0.383
					c0.186-0.124,0.548-0.154,0.812-0.067 M125.517,109.383c-0.116,0-0.233-0.017-0.335-0.05l-5.774-1.917
					c-0.264-0.087-0.327-0.259-0.142-0.383c0.186-0.125,0.549-0.155,0.812-0.067l5.774,1.917c0.264,0.088,0.327,0.259,0.143,0.384
					C125.879,109.342,125.7,109.383,125.517,109.383z M113.968,105.548c-0.114,0-0.232-0.016-0.334-0.05l-5.774-1.917
					c-0.263-0.087-0.326-0.259-0.142-0.384c0.185-0.124,0.549-0.154,0.812-0.066l5.775,1.917c0.263,0.087,0.326,0.259,0.142,0.383
					C114.332,105.507,114.152,105.548,113.968,105.548z M102.421,101.712c-0.116,0-0.233-0.015-0.335-0.049l-5.774-1.917
					c-0.263-0.088-0.326-0.26-0.142-0.384c0.186-0.125,0.549-0.154,0.812-0.067l5.774,1.918c0.263,0.087,0.326,0.259,0.141,0.383
					C102.785,101.672,102.604,101.712,102.421,101.712z M90.873,97.878c-0.115,0-0.232-0.016-0.334-0.05l-5.773-1.917
					c-0.263-0.088-0.327-0.259-0.143-0.384c0.185-0.124,0.548-0.154,0.812-0.066l5.774,1.917c0.263,0.087,0.327,0.259,0.142,0.383
					C91.237,97.838,91.056,97.878,90.873,97.878z"/>
			</g>
		</g>
		<g>
			<circle opacity="0.27" fill="#66E2B6" enable-background="new    " cx="65.384" cy="87.049" r="7.067"/>
			<circle fill="#0CD18B" cx="65.385" cy="87.049" r="4.989"/>
		</g>
	</g>
	
		<rect x="-44.517" y="-32.017" display="inline" fill="#0356DB" stroke="#231F20" stroke-miterlimit="10" width="584.971" height="359.982"/>
</g>
<g id="Layer_1_1_">
	<g>
		<g>
			
				<linearGradient id="SVGID_26_" gradientUnits="userSpaceOnUse" x1="518.7373" y1="845.623" x2="604.9014" y2="845.623" gradientTransform="matrix(1 0 0 1 -258 -615)">
				<stop  offset="0" style="stop-color:#FFFF90"/>
				<stop  offset="0.1733" style="stop-color:#F0FF95"/>
				<stop  offset="0.7222" style="stop-color:#C3FFA5"/>
				<stop  offset="1" style="stop-color:#B2FFAB"/>
			</linearGradient>
			<path fill="url(#SVGID_26_)" d="M336.151,308.159l-59.688,33.801c0,0-1.176,0.806-2.434,0.828
				c-1.393,0.026-2.499-0.494-2.499-0.494l-6.618-4.102c-2.444-1.518-3.936-4.188-3.938-7.063l-0.238-160.78
				c-0.009-7.134,4.117-13.724,10.814-17.275l58.938-33.994c1.421-0.82,3.168-0.831,4.599-0.032c2.491,1.39,4.992,2.759,7.414,4.262
				c0.663,0.412,1.325,0.824,1.991,1.234l2.166,3.591l0.242,163.839C346.861,297.408,343.47,304.608,336.151,308.159z"/>
			<path fill="#05A795" d="M273.927,342.95c-1.362,0-2.419-0.49-2.465-0.511l-6.635-4.109c-2.508-1.556-4.009-4.248-4.013-7.201
				l-0.234-160.777c-0.01-7.174,4.167-13.849,10.9-17.419l58.931-33.99c1.463-0.844,3.284-0.855,4.758-0.034l0.938,0.522
				c2.141,1.194,4.356,2.428,6.482,3.744l2.022,1.254l0.021,0.033l2.192,3.628v0.044l0.236,163.838
				c-0.04,5.531-3.406,12.723-10.836,16.328l-59.681,33.797c-0.037,0.027-1.219,0.824-2.51,0.85
				C273.998,342.947,273.964,342.95,273.927,342.95z M271.615,342.158c0.001,0,1.026,0.471,2.313,0.471c0.034,0,0.067,0,0.1,0
				c1.193-0.025,2.336-0.795,2.345-0.803l59.707-33.813c7.31-3.544,10.622-10.611,10.661-16.043L346.5,128.179l-2.125-3.519
				l-1.957-1.215c-2.115-1.312-4.329-2.543-6.468-3.737l-0.938-0.522c-1.375-0.767-3.076-0.755-4.44,0.032l-58.938,33.994
				c-6.631,3.519-10.744,10.083-10.731,17.138l0.233,160.778c0.006,2.841,1.448,5.43,3.863,6.928L271.615,342.158L271.615,342.158z"
				/>
		</g>
		<path opacity="0.3" fill="#0AC9E8" enable-background="new    " d="M30.578,305.005l109.393-64.192
			c3.057-1.794,4.942-5.108,4.946-8.697l1.024-112.684c0-0.045-0.714-1.164-0.714-1.164l-4.857-2.76
			c-0.62-0.475-1.46-0.528-2.135-0.137L30.017,178.056c-3.691,2.165-5.964,6.164-5.968,10.491l-0.083,111.346
			C23.966,302.797,29.553,305.746,30.578,305.005z"/>
		<g>
			<path fill="#023382" d="M337.61,282.953l-0.026-1.897c-0.003-0.278-0.3-0.444-0.538-0.301l-56.534,33.518
				c-0.118,0.07-0.189,0.197-0.188,0.333l0.033,2.288L337.61,282.953z"/>
			<path fill="#023382" d="M337.62,288.282l-0.029-1.898c-0.005-0.276-0.299-0.438-0.538-0.298l-56.533,33.519
				c-0.117,0.07-0.189,0.196-0.187,0.332l0.032,2.288L337.62,288.282z"/>
			<path fill="#023382" d="M337.626,293.132l-0.029-1.896c-0.002-0.279-0.296-0.442-0.536-0.3l-56.534,33.517
				c-0.116,0.069-0.187,0.198-0.185,0.333l0.031,2.287L337.626,293.132z"/>
			<path fill="#023382" d="M337.634,297.816l-0.026-1.898c-0.004-0.276-0.3-0.44-0.539-0.3l-56.535,33.518
				c-0.118,0.072-0.188,0.197-0.186,0.333l0.03,2.288L337.634,297.816z"/>
		</g>
		
			<linearGradient id="SVGID_27_" gradientUnits="userSpaceOnUse" x1="500.7061" y1="896.4502" x2="549.8011" y2="768.8993" gradientTransform="matrix(1 0 0 1 -196.6846 -615)">
			<stop  offset="0" style="stop-color:#9CFFDB"/>
			<stop  offset="1" style="stop-color:#60FFBC"/>
		</linearGradient>
		<path fill="url(#SVGID_27_)" d="M351.016,274.765l-57.405,33.599c-1.907,1.119-4.312-0.258-4.312-2.473V200.673
			c0-4.905,2.604-9.44,6.836-11.918l56.066-32.817c1.702-0.997,3.846,0.233,3.846,2.206v107.847
			C356.048,269.601,354.131,272.939,351.016,274.765z"/>
		
			<linearGradient id="SVGID_28_" gradientUnits="userSpaceOnUse" x1="514.1045" y1="922.6592" x2="532.0745" y2="781.4653" gradientTransform="matrix(1 0 0 1 -196.6846 -615)">
			<stop  offset="0" style="stop-color:#81F55F"/>
			<stop  offset="1" style="stop-color:#8AA3C2"/>
		</linearGradient>
		<path opacity="0.53" fill="url(#SVGID_28_)" enable-background="new    " d="M354.867,277.651l-57.405,33.596
			c-1.907,1.118-4.31-0.256-4.31-2.469V203.562c0-4.905,2.603-9.442,6.834-11.921l56.067-32.816
			c1.703-0.996,3.846,0.233,3.846,2.206v107.846C359.897,272.488,357.982,275.828,354.867,277.651z"/>
		<g>
			<g>
				<path fill="#FFFFFF" d="M264.482,204.923L264.482,204.923c-0.88-0.306-1.609-1.232-1.619-2.061l-0.136-12.575
					c-0.01-0.828,0.706-1.257,1.586-0.954l0,0c0.882,0.306,1.611,1.231,1.619,2.061l0.135,12.575
					C266.078,204.798,265.364,205.228,264.482,204.923z"/>
				<path fill="#05A795" d="M265.03,205.18c-0.192,0-0.393-0.035-0.601-0.106l0,0c-0.943-0.325-1.718-1.315-1.727-2.211
					l-0.134-12.574c-0.006-0.42,0.159-0.773,0.459-0.991c0.346-0.248,0.834-0.291,1.338-0.117c0.941,0.327,1.718,1.317,1.727,2.211
					l0.138,12.574c0.003,0.42-0.162,0.773-0.463,0.99C265.563,205.104,265.308,205.18,265.03,205.18z M263.767,189.397
					c-0.211,0-0.399,0.054-0.549,0.162c-0.217,0.156-0.332,0.413-0.328,0.728l0.137,12.575c0.007,0.755,0.698,1.63,1.51,1.909l0,0
					c0.404,0.141,0.786,0.113,1.045-0.073c0.217-0.155,0.333-0.412,0.326-0.727l-0.133-12.574c-0.009-0.755-0.702-1.63-1.512-1.911
					C264.09,189.427,263.924,189.397,263.767,189.397z"/>
			</g>
			<g>
				<path fill="#FFFFFF" d="M264.6,215.831L264.6,215.831c-0.881-0.302-1.608-1.229-1.617-2.056l-0.057-4.99
					c-0.007-0.828,0.706-1.257,1.588-0.953l0,0c0.882,0.303,1.61,1.23,1.619,2.059l0.053,4.987
					C266.195,215.709,265.482,216.138,264.6,215.831z"/>
				<path fill="#05A795" d="M265.147,216.092c-0.191,0-0.395-0.037-0.601-0.106l0,0c-0.94-0.325-1.716-1.321-1.725-2.211
					l-0.056-4.988c-0.005-0.423,0.159-0.775,0.462-0.993c0.344-0.25,0.832-0.291,1.339-0.117c0.941,0.325,1.717,1.318,1.727,2.21
					l0.054,4.99c0.004,0.421-0.161,0.771-0.46,0.991C265.683,216.018,265.425,216.092,265.147,216.092z M263.967,207.897
					c-0.212,0-0.402,0.053-0.551,0.162c-0.216,0.156-0.33,0.414-0.326,0.728l0.052,4.988c0.009,0.754,0.7,1.63,1.512,1.91l0,0
					c0.406,0.139,0.785,0.112,1.046-0.074c0.216-0.155,0.331-0.411,0.327-0.726l-0.056-4.989c-0.007-0.755-0.7-1.628-1.509-1.91
					C264.29,207.925,264.122,207.897,263.967,207.897z"/>
			</g>
		</g>
		<g>
			
				<linearGradient id="SVGID_29_" gradientUnits="userSpaceOnUse" x1="503.2754" y1="831.9512" x2="519.0088" y2="831.9512" gradientTransform="matrix(1 0 0 1 -196.6846 -615)">
				<stop  offset="0" style="stop-color:#EEEBC2;stop-opacity:0.3"/>
				<stop  offset="0.5642" style="stop-color:#F8F6C1;stop-opacity:0.4128"/>
				<stop  offset="1" style="stop-color:#FFFFC0;stop-opacity:0.5"/>
			</linearGradient>
			<path fill="url(#SVGID_29_)" stroke="#608989" stroke-width="0.6756" stroke-miterlimit="10" d="M322.174,213.595l-15.133,8.371
				c-0.192,0.106-0.429-0.032-0.434-0.255l-0.017-1.145c0-0.11,0.058-0.209,0.152-0.261l15.133-8.368
				c0.193-0.107,0.431,0.029,0.435,0.252l0.014,1.146C322.326,213.445,322.269,213.542,322.174,213.595z"/>
			
				<linearGradient id="SVGID_30_" gradientUnits="userSpaceOnUse" x1="514.4092" y1="806.8398" x2="543.4639" y2="806.8398" gradientTransform="matrix(1 0 0 1 -196.6846 -615)">
				<stop  offset="0" style="stop-color:#EEEBC2;stop-opacity:0.3"/>
				<stop  offset="0.5642" style="stop-color:#F8F6C1;stop-opacity:0.4128"/>
				<stop  offset="1" style="stop-color:#FFFFC0;stop-opacity:0.5"/>
			</linearGradient>
			<path fill="url(#SVGID_30_)" stroke="#608989" stroke-width="0.6756" stroke-miterlimit="10" d="M346.628,185.485l-28.435,15.726
				c-0.194,0.107-0.433-0.03-0.435-0.251l-0.034-2.504c-0.001-0.107,0.059-0.208,0.151-0.259l28.436-15.728
				c0.193-0.106,0.432,0.031,0.435,0.253l0.033,2.505C346.78,185.333,346.723,185.432,346.628,185.485z"/>
			
				<linearGradient id="SVGID_31_" gradientUnits="userSpaceOnUse" x1="503.3232" y1="831.5664" x2="532.9912" y2="831.5664" gradientTransform="matrix(1 0 0 1 -196.6846 -615)">
				<stop  offset="0" style="stop-color:#EEEBC2;stop-opacity:0.3"/>
				<stop  offset="0.5642" style="stop-color:#F8F6C1;stop-opacity:0.4128"/>
				<stop  offset="1" style="stop-color:#FFFFC0;stop-opacity:0.5"/>
			</linearGradient>
			<path fill="url(#SVGID_31_)" stroke="#608989" stroke-width="0.6756" stroke-miterlimit="10" d="M336.157,209.358l-29.07,16.078
				c-0.192,0.105-0.43-0.033-0.434-0.255l-0.015-1.146c-0.003-0.109,0.055-0.209,0.15-0.26l29.067-16.077
				c0.194-0.106,0.43,0.031,0.436,0.254l0.015,1.146C336.309,209.205,336.251,209.307,336.157,209.358z"/>
			
				<linearGradient id="SVGID_32_" gradientUnits="userSpaceOnUse" x1="503.624" y1="854.4941" x2="533.2939" y2="854.4941" gradientTransform="matrix(1 0 0 1 -196.6846 -615)">
				<stop  offset="0" style="stop-color:#EEEBC2;stop-opacity:0.3"/>
				<stop  offset="0.5642" style="stop-color:#F8F6C1;stop-opacity:0.4128"/>
				<stop  offset="1" style="stop-color:#FFFFC0;stop-opacity:0.5"/>
			</linearGradient>
			<path fill="url(#SVGID_32_)" stroke="#608989" stroke-width="0.6756" stroke-miterlimit="10" d="M336.458,232.285l-29.068,16.077
				c-0.194,0.108-0.43-0.03-0.433-0.254l-0.018-1.147c-0.002-0.105,0.057-0.207,0.151-0.258l29.069-16.077
				c0.193-0.106,0.431,0.029,0.434,0.254l0.016,1.146C336.61,232.134,336.552,232.233,336.458,232.285z"/>
			
				<linearGradient id="SVGID_33_" gradientUnits="userSpaceOnUse" x1="503.374" y1="834.2305" x2="549.7715" y2="834.2305" gradientTransform="matrix(1 0 0 1 -196.6846 -615)">
				<stop  offset="0" style="stop-color:#EEEBC2;stop-opacity:0.3"/>
				<stop  offset="0.5642" style="stop-color:#F8F6C1;stop-opacity:0.4128"/>
				<stop  offset="1" style="stop-color:#FFFFC0;stop-opacity:0.5"/>
			</linearGradient>
			<path fill="url(#SVGID_33_)" stroke="#608989" stroke-width="0.6756" stroke-miterlimit="10" d="M352.938,210.762l-45.71,25.281
				c-0.192,0.109-0.431-0.029-0.435-0.252l-0.104-7.834c-0.002-0.109,0.059-0.209,0.152-0.258l45.71-25.284
				c0.192-0.107,0.431,0.03,0.434,0.251l0.102,7.834C353.089,210.61,353.031,210.71,352.938,210.762z"/>
			
				<linearGradient id="SVGID_34_" gradientUnits="userSpaceOnUse" x1="504.0508" y1="890.9326" x2="519.7832" y2="890.9326" gradientTransform="matrix(1 0 0 1 -196.6846 -615)">
				<stop  offset="0" style="stop-color:#EEEBC2;stop-opacity:0.3"/>
				<stop  offset="0.5642" style="stop-color:#F8F6C1;stop-opacity:0.4128"/>
				<stop  offset="1" style="stop-color:#FFFFC0;stop-opacity:0.5"/>
			</linearGradient>
			<path fill="url(#SVGID_34_)" stroke="#608989" stroke-width="0.6756" stroke-miterlimit="10" d="M322.948,272.579l-15.132,8.369
				c-0.193,0.106-0.432-0.031-0.433-0.254l-0.018-1.146c-0.001-0.108,0.057-0.21,0.149-0.26l15.132-8.37
				c0.194-0.107,0.431,0.032,0.434,0.254l0.018,1.146C323.101,272.425,323.042,272.526,322.948,272.579z"/>
			
				<linearGradient id="SVGID_35_" gradientUnits="userSpaceOnUse" x1="504.1045" y1="889.8926" x2="550.5029" y2="889.8926" gradientTransform="matrix(1 0 0 1 -196.6846 -615)">
				<stop  offset="0" style="stop-color:#EEEBC2;stop-opacity:0.3"/>
				<stop  offset="0.5642" style="stop-color:#F8F6C1;stop-opacity:0.4128"/>
				<stop  offset="1" style="stop-color:#FFFFC0;stop-opacity:0.5"/>
			</linearGradient>
			<path fill="url(#SVGID_35_)" stroke="#608989" stroke-width="0.6756" stroke-miterlimit="10" d="M353.668,266.427l-45.71,25.279
				c-0.192,0.108-0.431-0.027-0.434-0.252l-0.104-7.835c-0.002-0.106,0.059-0.208,0.152-0.261l45.707-25.28
				c0.196-0.107,0.434,0.033,0.438,0.254l0.102,7.834C353.82,266.274,353.763,266.371,353.668,266.427z"/>
			
				<linearGradient id="SVGID_36_" gradientUnits="userSpaceOnUse" x1="503.6826" y1="867.5488" x2="533.833" y2="867.5488" gradientTransform="matrix(1 0 0 1 -196.6846 -615)">
				<stop  offset="0" style="stop-color:#EEEBC2;stop-opacity:0.3"/>
				<stop  offset="0.5642" style="stop-color:#F8F6C1;stop-opacity:0.4128"/>
				<stop  offset="1" style="stop-color:#FFFFC0;stop-opacity:0.5"/>
			</linearGradient>
			<path fill="url(#SVGID_36_)" stroke="#608989" stroke-width="0.6756" stroke-miterlimit="10" d="M336.997,253.869l-29.321,16.215
				c-0.194,0.11-0.432-0.031-0.436-0.252l-0.242-18.344c-0.001-0.107,0.061-0.208,0.153-0.259l29.319-16.218
				c0.193-0.107,0.433,0.031,0.436,0.252l0.242,18.344C337.149,253.714,337.091,253.815,336.997,253.869z"/>
			
				<linearGradient id="SVGID_37_" gradientUnits="userSpaceOnUse" x1="537.1104" y1="853.7744" x2="550.2178" y2="853.7744" gradientTransform="matrix(1 0 0 1 -196.6846 -615)">
				<stop  offset="0" style="stop-color:#EEEBC2;stop-opacity:0.3"/>
				<stop  offset="0.5642" style="stop-color:#F8F6C1;stop-opacity:0.4128"/>
				<stop  offset="1" style="stop-color:#FFFFC0;stop-opacity:0.5"/>
			</linearGradient>
			<path fill="url(#SVGID_37_)" stroke="#608989" stroke-width="0.6756" stroke-miterlimit="10" d="M353.381,244.805l-12.279,6.792
				c-0.193,0.108-0.431-0.028-0.434-0.251l-0.242-18.345c-0.001-0.107,0.06-0.206,0.152-0.257l12.279-6.793
				c0.193-0.107,0.432,0.031,0.434,0.254l0.242,18.34C353.534,244.655,353.477,244.752,353.381,244.805z"/>
		</g>
		<g>
			<path fill="#6DEDA3" d="M34.128,307.977l111.127-64.169c3.107-1.796,5.024-5.108,5.026-8.7l0.035-113.39
				c0-0.045-0.729-1.163-0.729-1.163l-3.929-2.051c-0.633-0.477-1.484-0.528-2.169-0.137L33.533,181.051
				c-3.749,2.165-6.059,6.164-6.062,10.493l-0.084,111.343C27.388,305.791,32.483,308.601,34.128,307.977z"/>
			<path fill="#05A795" d="M33.581,308.224c-0.959,0-2.375-0.537-3.663-1.427c-1.709-1.181-2.688-2.604-2.688-3.907l0.083-111.345
				c0.003-4.371,2.358-8.444,6.144-10.631l109.956-62.686c0.74-0.423,1.662-0.366,2.345,0.148l3.943,2.056l0.025,0.036
				c0.753,1.158,0.753,1.193,0.753,1.25l-0.036,113.39c-0.002,3.637-1.958,7.021-5.105,8.838L34.198,308.122l-0.012,0.006
				C34.017,308.192,33.811,308.224,33.581,308.224z M144.467,118.268c-0.309,0-0.615,0.08-0.895,0.239L33.616,181.193
				c-3.686,2.128-5.98,6.096-5.983,10.353L27.549,302.89c0,1.194,0.931,2.523,2.551,3.644c1.482,1.022,3.182,1.58,3.96,1.299
				l111.117-64.164c3.048-1.76,4.944-5.043,4.947-8.561l0.037-113.356c-0.072-0.131-0.423-0.68-0.681-1.075l-3.892-2.03
				C145.251,118.394,144.859,118.268,144.467,118.268z"/>
		</g>
		<g>
			
				<linearGradient id="SVGID_38_" gradientUnits="userSpaceOnUse" x1="242.3877" y1="799.0439" x2="333.748" y2="799.0439" gradientTransform="matrix(1 0 0 1 -196.6846 -615)">
				<stop  offset="0" style="stop-color:#19C5FF"/>
				<stop  offset="1" style="stop-color:#00A0FF;stop-opacity:0.3"/>
			</linearGradient>
			<polygon opacity="0.53" fill="url(#SVGID_38_)" enable-background="new    " points="137.063,163.676 45.826,217.034 
				45.703,204.41 136.942,151.055 			"/>
			
				<linearGradient id="SVGID_39_" gradientUnits="userSpaceOnUse" x1="242.9697" y1="854.2637" x2="334.2363" y2="854.2637" gradientTransform="matrix(1 0 0 1 -196.6846 -615)">
				<stop  offset="0" style="stop-color:#19C5FF"/>
				<stop  offset="1" style="stop-color:#00A0FF;stop-opacity:0.3"/>
			</linearGradient>
			<polygon fill="url(#SVGID_39_)" points="137.552,214.223 46.316,267.58 46.285,264.303 137.519,210.947 			"/>
			
				<linearGradient id="SVGID_40_" gradientUnits="userSpaceOnUse" x1="243.0303" y1="860.4785" x2="334.2979" y2="860.4785" gradientTransform="matrix(1 0 0 1 -196.6846 -615)">
				<stop  offset="0" style="stop-color:#19C5FF"/>
				<stop  offset="1" style="stop-color:#00A0FF;stop-opacity:0.3"/>
			</linearGradient>
			<polygon fill="url(#SVGID_40_)" points="137.613,220.44 46.377,273.797 46.346,270.52 137.583,217.161 			"/>
			
				<linearGradient id="SVGID_41_" gradientUnits="userSpaceOnUse" x1="243.0947" y1="886.2891" x2="286.377" y2="886.2891" gradientTransform="matrix(1 0 0 1 -196.6846 -615)">
				<stop  offset="0" style="stop-color:#19C5FF"/>
				<stop  offset="1" style="stop-color:#00A0FF;stop-opacity:0.3"/>
			</linearGradient>
			<polygon fill="url(#SVGID_41_)" points="89.692,265.236 46.54,290.475 46.41,277.341 89.566,252.104 			"/>
			
				<linearGradient id="SVGID_42_" gradientUnits="userSpaceOnUse" x1="291.1797" y1="858.1699" x2="334.459" y2="858.1699" gradientTransform="matrix(1 0 0 1 -196.6846 -615)">
				<stop  offset="0" style="stop-color:#19C5FF"/>
				<stop  offset="1" style="stop-color:#00A0FF;stop-opacity:0.3"/>
			</linearGradient>
			<polygon fill="url(#SVGID_42_)" points="137.775,237.117 94.622,262.354 94.495,249.223 137.649,223.984 			"/>
			
				<linearGradient id="SVGID_43_" gradientUnits="userSpaceOnUse" x1="242.7725" y1="857.1973" x2="271.1104" y2="857.1973" gradientTransform="matrix(1 0 0 1 -196.6846 -615)">
				<stop  offset="0" style="stop-color:#19C5FF"/>
				<stop  offset="1" style="stop-color:#00A0FF;stop-opacity:0.3"/>
			</linearGradient>
			<polygon fill="url(#SVGID_43_)" points="74.426,240.259 46.213,256.76 46.088,244.137 74.304,227.635 			"/>
			
				<linearGradient id="SVGID_44_" gradientUnits="userSpaceOnUse" x1="304.3203" y1="820.7705" x2="334.1318" y2="820.7705" gradientTransform="matrix(1 0 0 1 -196.6846 -615)">
				<stop  offset="0" style="stop-color:#19C5FF"/>
				<stop  offset="1" style="stop-color:#00A0FF;stop-opacity:0.3"/>
			</linearGradient>
			<polygon fill="url(#SVGID_44_)" points="137.447,203.4 107.759,220.763 107.636,208.144 137.325,190.778 			"/>
			
				<linearGradient id="SVGID_45_" gradientUnits="userSpaceOnUse" x1="277.5742" y1="838.9844" x2="298.5957" y2="838.9844" gradientTransform="matrix(1 0 0 1 -196.6846 -615)">
				<stop  offset="0" style="stop-color:#19C5FF"/>
				<stop  offset="1" style="stop-color:#00A0FF;stop-opacity:0.3"/>
			</linearGradient>
			<polygon fill="url(#SVGID_45_)" points="101.911,224.184 81.014,236.404 80.89,223.783 101.789,211.564 			"/>
			
				<linearGradient id="SVGID_46_" gradientUnits="userSpaceOnUse" x1="242.5566" y1="839.4375" x2="259.0234" y2="839.4375" gradientTransform="matrix(1 0 0 1 -196.6846 -615)">
				<stop  offset="0" style="stop-color:#19C5FF"/>
				<stop  offset="1" style="stop-color:#00A0FF;stop-opacity:0.3"/>
			</linearGradient>
			<polygon fill="url(#SVGID_46_)" points="62.339,226.951 46.015,236.496 45.872,221.923 62.198,212.379 			"/>
			
				<linearGradient id="SVGID_47_" gradientUnits="userSpaceOnUse" x1="264.5215" y1="805.5752" x2="333.8281" y2="805.5752" gradientTransform="matrix(1 0 0 1 -196.6846 -615)">
				<stop  offset="0" style="stop-color:#19C5FF"/>
				<stop  offset="1" style="stop-color:#00A0FF;stop-opacity:0.3"/>
			</linearGradient>
			<polygon fill="url(#SVGID_47_)" points="137.144,172.071 67.872,212.584 67.836,209.078 137.11,168.566 			"/>
			
				<linearGradient id="SVGID_48_" gradientUnits="userSpaceOnUse" x1="264.5664" y1="820.4434" x2="302.4951" y2="820.4434" gradientTransform="matrix(1 0 0 1 -196.6846 -615)">
				<stop  offset="0" style="stop-color:#19C5FF"/>
				<stop  offset="1" style="stop-color:#00A0FF;stop-opacity:0.3"/>
			</linearGradient>
			<polygon fill="url(#SVGID_48_)" points="105.811,196.116 67.915,218.278 67.881,214.771 105.777,192.61 			"/>
			
				<linearGradient id="SVGID_49_" gradientUnits="userSpaceOnUse" x1="264.6201" y1="825.9775" x2="302.5488" y2="825.9775" gradientTransform="matrix(1 0 0 1 -196.6846 -615)">
				<stop  offset="0" style="stop-color:#19C5FF"/>
				<stop  offset="1" style="stop-color:#00A0FF;stop-opacity:0.3"/>
			</linearGradient>
			<polygon fill="url(#SVGID_49_)" points="105.865,201.65 67.97,223.812 67.936,220.304 105.83,198.143 			"/>
		</g>
		<g>
			
				<linearGradient id="SVGID_50_" gradientUnits="userSpaceOnUse" x1="228.084" y1="777.248" x2="347.0166" y2="777.248" gradientTransform="matrix(1 0 0 1 -196.6846 -615)">
				<stop  offset="0" style="stop-color:#FFFFFF"/>
				<stop  offset="1" style="stop-color:#D1FFC0"/>
			</linearGradient>
			<path fill="url(#SVGID_50_)" d="M150.332,122.084l-0.011,13.314L31.399,204.323l0.007-9.891c0.004-4.33,2.314-8.327,6.062-10.493
				l110.007-63.508C148.744,119.697,150.335,120.614,150.332,122.084z"/>
			<path fill="#05A795" d="M31.239,204.602l0.007-10.167c0.002-4.371,2.356-8.446,6.142-10.632l110.006-63.508
				c0.649-0.374,1.422-0.374,2.069,0c0.649,0.375,1.033,1.044,1.031,1.793l-0.009,13.406l-0.08,0.047L31.239,204.602z
				 M148.426,120.333c-0.3,0-0.6,0.077-0.873,0.237L37.546,184.078c-3.688,2.131-5.979,6.099-5.981,10.354l-0.006,9.611
				l118.605-68.738l0.007-13.222c0.002-0.631-0.322-1.196-0.869-1.513C149.03,120.412,148.728,120.333,148.426,120.333z"/>
		</g>
		<g>
			
				<rect x="222.375" y="135.32" transform="matrix(0.506 0.8626 -0.8626 0.506 226.6993 -125.0757)" fill="#05A795" width="0.32" height="0.082"/>
		</g>
		<g>
			
				<rect x="103.403" y="204.307" transform="matrix(0.4958 0.8684 -0.8684 0.4958 229.6631 13.0842)" fill="#05A795" width="0.321" height="0.049"/>
		</g>
		<g>
			<path fill="#05A795" d="M298.196,153.203c-0.066,0-0.128-0.017-0.187-0.048c-0.147-0.08-0.236-0.253-0.247-0.475
				c-0.017-0.367,0.189-0.776,0.468-0.933l14.079-7.966c0.145-0.082,0.298-0.087,0.422-0.018c0.15,0.081,0.238,0.254,0.248,0.474
				c0.014,0.367-0.188,0.775-0.466,0.933l-14.081,7.966C298.355,153.181,298.275,153.203,298.196,153.203z M312.544,144.037
				c-0.025,0-0.056,0.012-0.078,0.024l-14.079,7.966c-0.172,0.097-0.313,0.396-0.301,0.639c0.005,0.124,0.045,0.191,0.078,0.21
				c0.034,0.019,0.079,0.001,0.112-0.017l14.079-7.965c0.172-0.097,0.314-0.397,0.304-0.639c-0.005-0.122-0.049-0.188-0.081-0.208
				C312.568,144.039,312.558,144.037,312.544,144.037z"/>
		</g>
		<g>
			<g>
				<path fill="#6887E0" d="M64.125,190.167c-0.131,0-0.262-0.017-0.376-0.055l-3.222-1.07c-0.296-0.098-0.369-0.29-0.159-0.431
					c0.208-0.141,0.617-0.173,0.914-0.075l3.221,1.07c0.298,0.098,0.37,0.292,0.161,0.432
					C64.536,190.122,64.333,190.167,64.125,190.167z"/>
			</g>
			<g>
				<path fill="#6887E0" d="M216.32,237.68c-0.197,0-0.394-0.001-0.59-0.002c-0.362-0.004-0.65-0.146-0.643-0.315
					c0.008-0.173,0.306-0.307,0.668-0.307c2.609,0.026,5.188-0.118,7.692-0.429c0.352-0.041,0.712,0.058,0.802,0.222
					c0.091,0.167-0.117,0.335-0.47,0.38C221.348,237.527,218.839,237.68,216.32,237.68z M207.918,237.092
					c-0.063,0-0.128-0.007-0.193-0.016c-2.594-0.373-5.068-0.914-7.353-1.609c-0.307-0.093-0.395-0.284-0.196-0.43
					c0.196-0.143,0.603-0.185,0.909-0.092c2.183,0.663,4.544,1.182,7.024,1.539c0.347,0.049,0.542,0.222,0.438,0.385
					C208.459,237.005,208.199,237.092,207.918,237.092z M230.934,235.801c-0.226,0-0.446-0.054-0.568-0.15
					c-0.18-0.15-0.076-0.34,0.234-0.426l0.124-0.035l6.702-1.885c0.313-0.088,0.713-0.038,0.899,0.108s0.084,0.335-0.228,0.425
					l-6.835,1.922C231.16,235.788,231.046,235.801,230.934,235.801z M194.208,233.367c-0.128,0-0.261-0.021-0.375-0.059l-6.503-2.16
					c-0.298-0.098-0.368-0.291-0.162-0.432c0.21-0.141,0.619-0.174,0.915-0.074l6.505,2.161c0.298,0.097,0.368,0.29,0.16,0.43
					C194.619,233.32,194.416,233.367,194.208,233.367z M244.595,231.959c-0.224,0-0.44-0.055-0.565-0.152
					c-0.187-0.146-0.083-0.338,0.228-0.426l6.829-1.92c0.312-0.088,0.714-0.039,0.9,0.107c0.185,0.148,0.084,0.339-0.226,0.424
					l-6.83,1.924C244.823,231.943,244.709,231.959,244.595,231.959z M181.199,229.047c-0.126,0-0.261-0.02-0.375-0.059l-6.503-2.16
					c-0.299-0.097-0.369-0.291-0.161-0.431c0.209-0.141,0.618-0.173,0.916-0.073l6.502,2.16c0.298,0.097,0.368,0.291,0.161,0.432
					C181.611,229,181.408,229.047,181.199,229.047z M258.256,228.115c-0.224,0-0.441-0.054-0.566-0.152
					c-0.185-0.146-0.081-0.337,0.229-0.425l6.83-1.921c0.311-0.088,0.712-0.037,0.897,0.109c0.187,0.146,0.084,0.336-0.223,0.424
					l-6.831,1.922C258.486,228.101,258.37,228.115,258.256,228.115z M168.192,224.728c-0.132,0-0.263-0.021-0.377-0.06l-6.503-2.16
					c-0.296-0.097-0.368-0.291-0.16-0.429c0.209-0.14,0.618-0.175,0.914-0.075l6.505,2.159c0.298,0.098,0.368,0.293,0.159,0.432
					C168.602,224.68,168.398,224.728,168.192,224.728z M271.919,224.272c-0.224,0-0.443-0.056-0.566-0.152
					c-0.185-0.146-0.081-0.338,0.229-0.425l6.828-1.922c0.311-0.087,0.715-0.039,0.902,0.11c0.183,0.145,0.08,0.336-0.229,0.424
					l-6.832,1.922C272.149,224.257,272.031,224.272,271.919,224.272z M285.58,220.431c-0.225,0-0.441-0.057-0.565-0.152
					c-0.184-0.148-0.082-0.338,0.229-0.426l6.828-1.921c0.312-0.087,0.715-0.038,0.901,0.109c0.185,0.146,0.082,0.337-0.227,0.421
					l-6.831,1.923C285.81,220.414,285.693,220.431,285.58,220.431z M155.184,220.406c-0.128,0-0.261-0.018-0.376-0.057l-6.505-2.162
					c-0.297-0.097-0.368-0.29-0.159-0.43c0.208-0.142,0.619-0.174,0.915-0.075l6.503,2.159c0.297,0.098,0.368,0.292,0.163,0.433
					C155.59,220.359,155.392,220.406,155.184,220.406z M142.175,216.085c-0.13,0-0.262-0.018-0.377-0.058l-6.503-2.157
					c-0.295-0.1-0.367-0.293-0.16-0.432c0.208-0.141,0.617-0.173,0.915-0.076l6.504,2.159c0.298,0.099,0.368,0.293,0.162,0.432
					C142.584,216.041,142.381,216.085,142.175,216.085z M129.166,211.766c-0.129,0-0.26-0.02-0.376-0.057l-6.502-2.16
					c-0.298-0.097-0.367-0.291-0.162-0.432c0.208-0.139,0.621-0.173,0.916-0.072l6.503,2.158c0.295,0.099,0.367,0.292,0.159,0.432
					C129.578,211.721,129.374,211.766,129.166,211.766z M116.158,207.448c-0.131,0-0.262-0.02-0.377-0.058l-6.504-2.159
					c-0.295-0.097-0.367-0.292-0.159-0.431c0.21-0.141,0.618-0.175,0.915-0.077l6.502,2.161c0.299,0.098,0.371,0.292,0.161,0.431
					C116.568,207.402,116.365,207.448,116.158,207.448z M103.151,203.128c-0.13,0-0.261-0.02-0.377-0.058l-6.503-2.158
					c-0.297-0.099-0.368-0.292-0.16-0.433c0.207-0.14,0.617-0.172,0.915-0.074l6.503,2.159c0.295,0.098,0.367,0.292,0.161,0.431
					C103.56,203.082,103.357,203.128,103.151,203.128z M90.143,198.807c-0.13,0-0.264-0.019-0.377-0.057l-6.504-2.162
					c-0.295-0.098-0.368-0.291-0.161-0.431c0.209-0.141,0.618-0.175,0.914-0.074l6.503,2.159c0.297,0.098,0.369,0.291,0.159,0.431
					C90.552,198.762,90.349,198.807,90.143,198.807z M77.133,194.487c-0.129,0-0.26-0.018-0.376-0.055l-6.503-2.16
					c-0.297-0.098-0.368-0.292-0.161-0.432c0.208-0.141,0.618-0.175,0.915-0.076l6.503,2.159c0.297,0.1,0.368,0.293,0.16,0.434
					C77.544,194.442,77.341,194.487,77.133,194.487z"/>
			</g>
			<g>
				<path fill="#6887E0" d="M299.248,216.583c-0.224,0-0.441-0.053-0.564-0.15c-0.186-0.148-0.086-0.34,0.227-0.427l3.384-0.952
					c0.311-0.087,0.712-0.039,0.898,0.11c0.187,0.144,0.085,0.335-0.226,0.424l-3.384,0.951
					C299.477,216.568,299.362,216.583,299.248,216.583z"/>
			</g>
		</g>
		<g>
			<circle opacity="0.27" fill="#66E2B6" enable-background="new    " cx="311.763" cy="211.81" r="1.819"/>
			<circle fill="#0DA1CE" cx="311.763" cy="211.809" r="1.284"/>
		</g>
		<g>
			<circle opacity="0.27" fill="#66E2B6" enable-background="new    " cx="352.246" cy="266.918" r="1.82"/>
			<circle fill="#0CD18B" cx="352.246" cy="266.918" r="1.283"/>
		</g>
		<g opacity="0.3">
			<path opacity="0.3" fill="#66E2B6" stroke="#6079F4" stroke-miterlimit="10" enable-background="new    " d="M366.87,351.67
				c0,8.079-6.546,14.623-14.626,14.623c-8.074,0-14.621-6.547-14.621-14.623c0-8.075,6.547-14.621,14.621-14.621
				C360.324,337.049,366.87,343.595,366.87,351.67z"/>
			<path opacity="0.7" fill="#19F4CA" enable-background="new    " d="M362.566,351.67c0,5.7-4.621,10.328-10.322,10.328
				s-10.318-4.628-10.318-10.328c0-5.703,4.618-10.319,10.318-10.319C357.945,341.351,362.566,345.967,362.566,351.67z"/>
		</g>
		<g>
			<circle opacity="0.27" fill="#66E2B6" enable-background="new    " cx="48.868" cy="185.444" r="4.838"/>
			<circle fill="#CE0D6E" cx="48.868" cy="185.442" r="3.416"/>
		</g>
		<g>
			<path d="M337.61,144.325l-0.026-1.897c-0.003-0.278-0.3-0.443-0.538-0.3l-56.534,33.517c-0.118,0.071-0.189,0.196-0.188,0.332
				l0.033,2.289L337.61,144.325z"/>
			<path d="M337.62,149.655l-0.029-1.896c-0.005-0.279-0.299-0.443-0.538-0.299l-56.533,33.517
				c-0.117,0.069-0.189,0.196-0.187,0.331l0.032,2.29L337.62,149.655z"/>
			<path d="M337.626,154.504l-0.029-1.897c-0.002-0.277-0.296-0.442-0.536-0.299l-56.534,33.517
				c-0.116,0.068-0.187,0.197-0.185,0.33l0.031,2.292L337.626,154.504z"/>
			<path d="M337.634,159.188l-0.026-1.896c-0.004-0.276-0.3-0.442-0.539-0.3l-56.535,33.517c-0.118,0.07-0.188,0.196-0.186,0.332
				l0.03,2.29L337.634,159.188z"/>
		</g>
		<g>
			<g>
				<path fill="#6887E0" d="M24.323,176.056c-0.13,0-0.262-0.019-0.377-0.056l-6.503-2.16c-0.298-0.099-0.369-0.292-0.16-0.431
					c0.208-0.14,0.616-0.174,0.913-0.076 M11.316,171.737c-0.131,0-0.263-0.019-0.375-0.056l-6.506-2.159
					c-0.296-0.099-0.369-0.292-0.159-0.433c0.208-0.141,0.617-0.173,0.914-0.076l6.504,2.16c0.297,0.098,0.369,0.292,0.161,0.431
					C11.725,171.69,11.521,171.737,11.316,171.737z M-1.694,167.417c-0.129,0-0.261-0.018-0.375-0.056l-6.505-2.159
					c-0.295-0.098-0.366-0.292-0.16-0.433c0.209-0.14,0.619-0.172,0.914-0.076l6.506,2.161c0.295,0.098,0.367,0.292,0.159,0.432
					C-1.284,167.371-1.487,167.417-1.694,167.417z M-14.701,163.097c-0.132,0-0.263-0.019-0.378-0.055l-6.504-2.159
					c-0.296-0.098-0.368-0.292-0.158-0.431c0.209-0.141,0.617-0.172,0.914-0.075l6.504,2.161c0.296,0.098,0.368,0.292,0.16,0.432
					C-14.292,163.051-14.494,163.097-14.701,163.097z M-27.709,158.778c-0.13,0-0.261-0.019-0.375-0.057l-6.503-2.159
					c-0.296-0.099-0.368-0.292-0.16-0.432c0.208-0.139,0.618-0.172,0.914-0.074l6.504,2.162c0.295,0.098,0.369,0.292,0.16,0.431
					C-27.299,158.732-27.504,158.778-27.709,158.778z"/>
			</g>
		</g>
		<g>
			<g>
				<path fill="#6887E0" d="M-144.357,110.214c-0.043-0.123-0.069-0.254-0.07-0.375l-0.118-6.851
					c-0.006-0.314,0.153-0.445,0.353-0.294c0.202,0.149,0.37,0.525,0.375,0.836 M-144.594,96.51
					c-0.044-0.123-0.07-0.252-0.072-0.375l-0.118-6.853c-0.006-0.313,0.153-0.444,0.353-0.294c0.202,0.149,0.37,0.525,0.375,0.837
					l0.12,6.853c0.004,0.313-0.154,0.444-0.355,0.294C-144.416,96.881-144.527,96.705-144.594,96.51z M-144.834,82.805
					c-0.042-0.123-0.07-0.251-0.072-0.373l-0.12-6.854c-0.004-0.31,0.153-0.443,0.354-0.294c0.202,0.149,0.37,0.526,0.375,0.837
					l0.12,6.854c0.004,0.312-0.154,0.443-0.356,0.293C-144.654,83.176-144.764,83.001-144.834,82.805z M-145.071,69.101
					c-0.043-0.123-0.069-0.252-0.072-0.374l-0.119-6.853c-0.005-0.312,0.152-0.444,0.354-0.295c0.201,0.151,0.37,0.526,0.375,0.84
					l0.119,6.853c0.003,0.312-0.153,0.443-0.355,0.292C-144.893,69.472-145.004,69.297-145.071,69.101z M-145.31,55.396
					c-0.044-0.122-0.07-0.252-0.071-0.373l-0.12-6.853c-0.006-0.314,0.152-0.445,0.353-0.295c0.201,0.151,0.369,0.525,0.376,0.839
					l0.118,6.852c0.005,0.312-0.152,0.444-0.354,0.293C-145.131,55.768-145.243,55.59-145.31,55.396z"/>
			</g>
		</g>
		<g>
			<g>
				<path fill="#6887E0" d="M353.391,335.331c-0.043-0.121-0.07-0.253-0.072-0.372l-0.119-6.853
					c-0.004-0.312,0.154-0.445,0.354-0.294c0.203,0.15,0.369,0.524,0.375,0.837 M353.152,321.628
					c-0.043-0.123-0.07-0.254-0.072-0.374l-0.119-6.852c-0.004-0.314,0.153-0.445,0.354-0.295c0.203,0.149,0.368,0.525,0.375,0.837
					l0.12,6.853c0.004,0.315-0.156,0.444-0.356,0.296C353.331,321.999,353.221,321.823,353.152,321.628z M352.914,307.922
					c-0.043-0.121-0.071-0.252-0.071-0.373l-0.12-6.853c-0.007-0.312,0.154-0.443,0.355-0.296c0.2,0.151,0.366,0.527,0.372,0.84
					l0.121,6.854c0.006,0.312-0.155,0.445-0.355,0.293C353.093,308.294,352.983,308.115,352.914,307.922z M352.677,294.218
					c-0.045-0.123-0.073-0.254-0.073-0.375l-0.117-6.852c-0.011-0.312,0.15-0.445,0.352-0.296c0.2,0.153,0.368,0.524,0.372,0.84
					l0.12,6.852c0.009,0.313-0.153,0.443-0.353,0.295C352.854,294.59,352.745,294.412,352.677,294.218z M352.438,280.513
					c-0.044-0.123-0.071-0.252-0.072-0.372l-0.119-6.854c-0.007-0.312,0.153-0.446,0.354-0.296c0.199,0.15,0.369,0.526,0.372,0.84
					l0.119,6.852c0.007,0.314-0.154,0.443-0.354,0.296C352.615,280.886,352.505,280.706,352.438,280.513z"/>
			</g>
		</g>
		<g>
			<circle opacity="0.27" fill="#66E2B6" enable-background="new    " cx="-56.423" cy="146.577" r="7.96"/>
			<circle fill="#0DA1CE" cx="-56.422" cy="146.576" r="5.621"/>
		</g>
		<g>
			<g>
				<path fill="#148E97" d="M355.586,357.593c0,0-1.766-2.465,0.206-5.922c1.97-3.457-0.959-5.587-0.959-5.587l2.183,0.033
					c0,0,2.5,2.378-0.105,5.628c-2.608,3.253-1.324,5.854-1.324,5.854"/>
				<circle fill="#148E97" cx="355.769" cy="357.807" r="0.633"/>
			</g>
			<g>
				<path fill="#626366" d="M353.736,350.789h-0.339v-0.75c0-0.596-0.056-1.105-0.171-1.532c-0.112-0.429-0.27-0.75-0.474-0.965
					c-0.201-0.189-0.435-0.312-0.694-0.364c-0.263-0.053-0.526-0.085-0.787-0.1c-0.037,0-0.071,0-0.108,0c-0.034,0-0.072,0-0.107,0
					c-0.046,0-0.098,0-0.151-0.009c-0.055-0.005-0.113-0.011-0.172-0.011v9.791c0,0.702,0.043,1.12,0.133,1.258
					c0.092,0.134,0.373,0.204,0.852,0.204l0.715-0.02v0.321h-3.703v-0.321h1.02v-11.249c-1.086,0.012-1.801,0.205-2.145,0.582
					c-0.348,0.369-0.519,1.184-0.519,2.432v0.731h-0.341v-4.64h0.341v0.572h6.312v-0.572h0.339V350.789L353.736,350.789z"/>
			</g>
		</g>
	</g>
</g>
<g id="Layer_2" display="none">
	<g display="inline">
		<g>
			<path fill="#138E98" d="M-60.685-6.073c0,0-3.641-5.074,0.419-12.198c4.06-7.125-1.968-11.513-1.968-11.513l4.492,0.075
				c0,0,5.149,4.898-0.222,11.592c-5.369,6.696-2.722,12.058-2.722,12.058"/>
			<circle fill="#138E98" cx="-60.313" cy="-5.635" r="1.307"/>
		</g>
		<g>
			<path fill="#626366" d="M-143.845-14.561h-0.445v-0.982c0-0.779-0.075-1.45-0.224-2.011c-0.148-0.561-0.355-0.982-0.621-1.263
				c-0.267-0.25-0.571-0.409-0.915-0.479c-0.344-0.07-0.688-0.113-1.031-0.128c-0.047,0-0.094,0-0.141,0c-0.047,0-0.094,0-0.141,0
				c-0.062,0-0.129-0.004-0.199-0.012c-0.07-0.007-0.145-0.011-0.223-0.011v12.839c0,0.92,0.059,1.47,0.176,1.649
				c0.117,0.179,0.488,0.269,1.113,0.269l0.938-0.023v0.421h-4.854v-0.421h1.336V-19.47c-1.422,0.016-2.36,0.269-2.813,0.76
				c-0.454,0.491-0.681,1.556-0.681,3.192v0.959h-0.445v-6.081h0.445v0.749h8.279v-0.749h0.445L-143.845-14.561L-143.845-14.561z"/>
			<path fill="#626366" d="M-142.884-4.294v-0.421h1.453v-12.883c0-0.89-0.059-1.425-0.176-1.604
				c-0.117-0.179-0.48-0.269-1.09-0.269l-0.375-0.023v-0.397h7.551v-0.982h0.445v5.262h-0.445c0-1.757-0.281-2.839-0.844-3.247
				c-0.562-0.408-1.682-0.611-3.354-0.611l-0.422-0.023v3.882h2.039v-2.385h0.446v5.777h-0.446c0-0.078,0-0.16,0-0.246
				s0-0.176,0-0.269c-0.016-0.593-0.121-1.134-0.316-1.625c-0.195-0.491-0.668-0.737-1.418-0.737c-0.047,0-0.094,0-0.141,0
				s-0.103,0.008-0.164,0.024v10.36c1.562,0.016,2.723-0.125,3.482-0.421c0.758-0.296,1.137-1.325,1.137-3.087v-0.819h0.445v5.73
				h-0.445V-4.29h-7.362V-4.294z"/>
			<path fill="#138E98" d="M-114.726-13.052c0,2.495-0.973,4.665-2.918,6.51c-1.945,1.845-4.213,2.767-6.801,2.767
				c-2.676,0-4.912-0.879-6.709-2.637c-1.799-1.758-2.697-3.954-2.697-6.587c0-2.512,0.98-4.66,2.944-6.444
				c1.963-1.784,4.308-2.676,7.035-2.676c2.57,0,4.737,0.879,6.501,2.637c1.762,1.759,2.645,3.911,2.645,6.458V-13.052
				L-114.726-13.052z M-116.159-12.843c0-2.27-0.824-4.271-2.475-6.003c-1.65-1.732-3.57-2.599-5.759-2.599
				c-2.275,0-4.199,0.792-5.771,2.378c-1.572,1.585-2.358,3.539-2.358,5.86c0,2.408,0.843,4.474,2.527,6.197
				c1.685,1.724,3.708,2.585,6.071,2.585c2.171,0,4.008-0.814,5.51-2.442c1.503-1.628,2.254-3.612,2.254-5.951L-116.159-12.843
				L-116.159-12.843z"/>
			<path fill="#626366" d="M-98.774-4.47c-0.031,0.021-0.062,0.043-0.094,0.059c-0.219,0.125-0.441,0.218-0.668,0.28
				c-0.228,0.062-0.504,0.094-0.833,0.094c-0.673,0-1.407-0.094-2.204-0.28c-0.798-0.188-1.611-0.445-2.439-0.772
				c-0.688-0.249-1.367-0.534-2.039-0.854c-0.674-0.319-1.307-0.643-1.9-0.971c-0.344-0.187-0.672-0.378-0.984-0.573
				c-0.313-0.194-0.602-0.377-0.868-0.549v1.427c0,0.92,0.059,1.47,0.177,1.649c0.117,0.179,0.48,0.269,1.09,0.269l0.938-0.023
				v0.421h-4.807v-0.421h1.312v-12.863c0-0.889-0.062-1.422-0.188-1.602c-0.125-0.179-0.492-0.269-1.102-0.269l-0.305-0.023v-0.421
				h2.884v1.473c0.594-0.39,1.153-0.706,1.677-0.947c0.524-0.241,1.035-0.417,1.535-0.526c0.22-0.047,0.438-0.082,0.657-0.105
				c0.22-0.023,0.446-0.035,0.681-0.035c1.876,0,3.486,0.628,4.83,1.883c1.345,1.255,2.018,2.764,2.018,4.525
				c0,1.809-0.657,3.352-1.971,4.63c-1.312,1.278-2.939,1.965-4.877,2.059c0.281,0.124,0.602,0.28,0.961,0.467
				c0.359,0.187,0.742,0.375,1.149,0.561c0.188,0.094,0.379,0.184,0.574,0.269c0.195,0.086,0.388,0.175,0.575,0.269
				c0.547,0.234,1.074,0.429,1.582,0.584c0.508,0.156,0.965,0.234,1.373,0.234c0.218,0,0.429-0.023,0.633-0.07
				c0.203-0.047,0.383-0.101,0.539-0.164l0.188,0.211C-98.712-4.528-98.743-4.493-98.774-4.47z M-110.569-9.346
				c0.812,0.608,1.59,1.068,2.332,1.38c0.743,0.312,1.428,0.468,2.053,0.468c1.531,0,2.841-0.565,3.928-1.696
				c1.086-1.13,1.629-2.475,1.629-4.034c0-1.668-0.609-3.103-1.828-4.303c-1.22-1.2-2.666-1.801-4.338-1.801
				c-0.799,0-1.518,0.148-2.158,0.444c-0.641,0.296-1.259,0.772-1.853,1.427v8.489L-110.569-9.346z"/>
			<path fill="#626366" d="M-97.931-4.294v-0.421h1.453v-12.883c0-0.89-0.059-1.425-0.176-1.604c-0.117-0.179-0.48-0.269-1.09-0.269
				l-0.375-0.023v-0.397h7.551v-0.982h0.445v5.262h-0.445c0-1.757-0.281-2.839-0.844-3.247c-0.563-0.408-1.682-0.611-3.354-0.611
				l-0.422-0.023v3.882h2.04v-2.385h0.445v5.777h-0.445c0-0.078,0-0.16,0-0.246s0-0.176,0-0.269
				c-0.017-0.593-0.122-1.134-0.317-1.625c-0.195-0.491-0.668-0.737-1.418-0.737c-0.047,0-0.094,0-0.141,0s-0.102,0.008-0.164,0.024
				v10.36c1.562,0.016,2.723-0.125,3.482-0.421c0.758-0.296,1.137-1.325,1.137-3.087v-0.819h0.445v5.73h-0.445V-4.29h-7.362V-4.294
				L-97.931-4.294z"/>
			<path fill="#626366" d="M-76.943-19.472h-1.337v12.863c0,0.92,0.06,1.47,0.176,1.649c0.117,0.179,0.481,0.269,1.092,0.269
				l0.352-0.023v0.421h-4.034v-0.421h1.126v-13.284l-3.447,9.354l-3.705-8.98v10.08c0,1.138,0.109,1.883,0.328,2.233
				c0.219,0.351,0.688,0.558,1.407,0.62v0.398h-3.799v-0.421h1.384v-12.021c0-1.091-0.105-1.804-0.317-2.14
				c-0.21-0.335-0.685-0.526-1.419-0.573v-0.444h2.768l3.611,8.676l3.189-8.676h2.626L-76.943-19.472L-76.943-19.472z"/>
			<path fill="#626366" d="M-72.065-15.075l-1.829,7.694c0,0.062-0.009,0.113-0.024,0.152c-0.016,0.039-0.023,0.082-0.023,0.128
				c-0.016,0.093-0.031,0.183-0.047,0.269c-0.016,0.086-0.031,0.168-0.047,0.246c-0.016,0.14-0.031,0.276-0.046,0.409
				c-0.017,0.133-0.024,0.261-0.024,0.386c0,0.453,0.148,0.736,0.446,0.854c0.297,0.117,0.625,0.191,0.984,0.222
				c0.048,0,0.095,0,0.142,0c0.047,0,0.094,0,0.141,0c0.078,0,0.148,0.004,0.211,0.012c0.062,0.008,0.125,0.012,0.188,0.012v0.398
				h-4.174v-0.421h0.984l3.799-15.973h0.422l4.268,13.471c0.125,0.39,0.234,0.722,0.328,0.994c0.095,0.273,0.188,0.495,0.282,0.667
				c0.155,0.328,0.328,0.55,0.517,0.667c0.188,0.117,0.437,0.184,0.75,0.199v0.398h-3.846v-0.421h1.453l-3.236-10.36h-1.619V-15.075
				z M-71.386-18.022l-0.609,2.409h1.359L-71.386-18.022z"/>
		</g>
		<g>
			<path fill="#138E98" d="M-121.884,3.721c0.911,0.002,1.756,0.394,2.536,1.173c0.784,0.785,1.177,1.732,1.177,2.843
				c0,1.111-0.393,2.059-1.177,2.843c-0.784,0.784-1.731,1.177-2.843,1.177c-0.186,0.019-0.365,0.029-0.541,0.029
				c-1.082,0-1.961-0.339-2.639-1.017c-0.365-0.365-0.646-0.767-0.841-1.206l1.257-0.812c0.122,0.361,0.33,0.687,0.621,0.98
				c0.396,0.399,0.932,0.599,1.609,0.599c0.17,0,0.348-0.012,0.533-0.037c0.706,0,1.309-0.25,1.809-0.749
				c0.5-0.5,0.749-1.103,0.749-1.809s-0.249-1.31-0.749-1.809s-1.103-0.749-1.809-0.749h0.014c-1.13-0.01-2.082-0.402-2.857-1.177
				c-0.785-0.785-1.177-1.732-1.177-2.843c0-1.111,0.392-2.059,1.177-2.844c0.785-0.784,1.732-1.176,2.844-1.176
				c1.218,0,2.277,0.572,3.18,1.717c0.365,0.365,0.645,0.768,0.84,1.207l-1.258,0.811c-0.116-0.36-0.321-0.689-0.613-0.986
				c-0.619-0.857-1.335-1.287-2.148-1.287c-0.707,0-1.311,0.25-1.81,0.75s-0.749,1.103-0.749,1.809s0.25,1.31,0.749,1.809
				C-123.501,3.468-122.795,3.719-121.884,3.721z"/>
			<path fill="#138E98" d="M-116.001,5.045h-0.959V4.086h0.959V1.199h0.959v2.887h1.918v0.959h-1.918v3.831
				c0,0.908,0.187,1.455,0.561,1.642c0.373,0.187,0.826,0.281,1.357,0.281v0.959c-0.797,0-1.475-0.187-2.036-0.561
				c-0.561-0.375-0.841-1.146-0.841-2.316V5.045z"/>
			<path fill="#138E98" d="M-106.411,11.748h-0.959v-0.475c-0.537,0.323-1.177,0.484-1.918,0.484c-0.797,0-1.475-0.187-2.036-0.561
				c-0.561-0.375-0.841-0.826-0.841-1.357V4.077h0.959V9.84c0,0.265,0.187,0.491,0.561,0.678s0.826,0.281,1.357,0.281
				c0.529,0,0.982-0.094,1.356-0.281s0.562-0.736,0.562-1.647V4.077h0.959V11.748z"/>
			<path fill="#138E98" d="M-100.657,1.209h0.958v10.549h-0.958v-0.499c-0.537,0.326-1.178,0.489-1.919,0.489
				c-0.796,0-1.476-0.187-2.038-0.561c-0.556-0.371-0.836-1.14-0.839-2.307V6.963c0.003-1.173,0.283-1.945,0.839-2.316
				c0.562-0.375,1.242-0.561,2.038-0.561c0.741,0,1.382,0.163,1.919,0.489V1.209z M-104.493,8.88
				c0.002,0.902,0.189,1.445,0.561,1.63c0.374,0.186,0.826,0.278,1.356,0.278c0.53,0,0.983-0.093,1.357-0.278
				c0.37-0.185,0.558-0.409,0.562-0.671V5.994c-0.004-0.262-0.191-0.485-0.562-0.671c-0.374-0.186-0.827-0.278-1.357-0.278
				c-0.53,0-0.982,0.093-1.356,0.278c-0.371,0.186-0.559,0.732-0.561,1.64V8.88z"/>
			<path fill="#138E98" d="M-96.822,4.086v7.672h-0.959V5.045h-0.958V4.086H-96.822z M-98.05,2.916
				c-0.141-0.141-0.211-0.31-0.211-0.508c0-0.198,0.07-0.368,0.211-0.508c0.141-0.14,0.311-0.211,0.508-0.211
				c0.199,0,0.368,0.07,0.509,0.211c0.141,0.141,0.211,0.31,0.211,0.508c0,0.198-0.07,0.368-0.211,0.508
				c-0.141,0.14-0.31,0.211-0.509,0.211C-97.739,3.127-97.909,3.057-98.05,2.916z"/>
			<path fill="#138E98" d="M-95.862,6.963c0-1.176,0.279-1.952,0.84-2.326c0.562-0.374,1.24-0.561,2.036-0.561
				c0.796,0,1.475,0.187,2.036,0.561c0.561,0.374,0.841,0.827,0.841,1.357V8.88c0,1.17-0.28,1.942-0.841,2.316
				c-0.562,0.374-1.24,0.561-2.036,0.561c-0.796,0-1.474-0.187-2.036-0.561c-0.561-0.375-0.84-0.826-0.84-1.357V6.963z
				 M-91.068,5.994c0-0.265-0.187-0.491-0.562-0.679c-0.373-0.187-0.826-0.28-1.356-0.28c-0.53,0-0.983,0.094-1.356,0.28
				c-0.375,0.188-0.562,0.736-0.562,1.647V9.84c0,0.265,0.187,0.491,0.562,0.678c0.373,0.187,0.826,0.281,1.356,0.281
				c0.53,0,0.983-0.094,1.356-0.281c0.375-0.187,0.562-0.732,0.562-1.638V5.994z"/>
		</g>
	</g>
</g>
</svg>
