<?xml version="1.0" encoding="utf-8"?>
<!-- Generator: Adobe Illustrator 23.0.4, SVG Export Plug-In . SVG Version: 6.00 Build 0)  -->
<svg version="1.1" id="Layer_1" xmlns="http://www.w3.org/2000/svg" xmlns:xlink="http://www.w3.org/1999/xlink" x="0px" y="0px"
	 viewBox="0 0 374 448" style="enable-background:new 0 0 374 448;" xml:space="preserve">
<style type="text/css">
	.st0{display:none;}
	.st1{display:inline;opacity:0.1;}
	.st2{fill:#8CF2F2;}
	.st3{fill:#05A795;}
	.st4{opacity:0.3;fill:#0AC9E8;enable-background:new    ;}
	.st5{fill:#E1E1E1;}
	.st6{fill:#F8F8F8;}
	.st7{fill:#F0F1F3;}
	.st8{fill:url(#SVGID_1_);}
	.st9{opacity:0.53;fill:url(#SVGID_2_);enable-background:new    ;}
	.st10{opacity:0.91;fill:#FFFFFF;stroke:#F3F3F3;stroke-width:1.3511;stroke-miterlimit:10;enable-background:new    ;}
	.st11{fill:#FFFFFF;}
	.st12{fill:url(#SVGID_3_);stroke:#608989;stroke-width:0.6756;stroke-miterlimit:10;}
	.st13{fill:url(#SVGID_4_);stroke:#608989;stroke-width:0.6756;stroke-miterlimit:10;}
	.st14{fill:url(#SVGID_5_);stroke:#608989;stroke-width:0.6756;stroke-miterlimit:10;}
	.st15{fill:url(#SVGID_6_);stroke:#608989;stroke-width:0.6756;stroke-miterlimit:10;}
	.st16{fill:url(#SVGID_7_);stroke:#608989;stroke-width:0.6756;stroke-miterlimit:10;}
	.st17{fill:url(#SVGID_8_);stroke:#608989;stroke-width:0.6756;stroke-miterlimit:10;}
	.st18{fill:url(#SVGID_9_);stroke:#608989;stroke-width:0.6756;stroke-miterlimit:10;}
	.st19{fill:url(#SVGID_10_);stroke:#608989;stroke-width:0.6756;stroke-miterlimit:10;}
	.st20{fill:url(#SVGID_11_);stroke:#608989;stroke-width:0.6756;stroke-miterlimit:10;}
	.st21{fill:url(#SVGID_12_);}
	.st22{opacity:0.53;fill:url(#SVGID_13_);stroke:#DD1B85;stroke-width:0.6756;stroke-miterlimit:10;enable-background:new    ;}
	.st23{fill:url(#SVGID_14_);stroke:#DD1B85;stroke-width:0.6756;stroke-miterlimit:10;}
	.st24{fill:url(#SVGID_15_);stroke:#DD1B85;stroke-width:0.6756;stroke-miterlimit:10;}
	.st25{fill:url(#SVGID_16_);stroke:#DD1B85;stroke-width:0.6756;stroke-miterlimit:10;}
	.st26{fill:url(#SVGID_17_);stroke:#DD1B85;stroke-width:0.6756;stroke-miterlimit:10;}
	.st27{fill:url(#SVGID_18_);stroke:#DD1B85;stroke-width:0.6756;stroke-miterlimit:10;}
	.st28{fill:url(#SVGID_19_);stroke:#DD1B85;stroke-width:0.6756;stroke-miterlimit:10;}
	.st29{fill:url(#SVGID_20_);stroke:#DD1B85;stroke-width:0.6756;stroke-miterlimit:10;}
	.st30{fill:url(#SVGID_21_);stroke:#DD1B85;stroke-width:0.6756;stroke-miterlimit:10;}
	.st31{fill:url(#SVGID_22_);stroke:#DD1B85;stroke-width:0.6756;stroke-miterlimit:10;}
	.st32{fill:url(#SVGID_23_);stroke:#DD1B85;stroke-width:0.6756;stroke-miterlimit:10;}
	.st33{fill:url(#SVGID_24_);stroke:#DD1B85;stroke-width:0.6756;stroke-miterlimit:10;}
	.st34{fill:url(#SVGID_25_);}
	.st35{fill:#6887E0;}
	.st36{opacity:0.27;fill:#66E2B6;enable-background:new    ;}
	.st37{fill:#0CD18B;}
	.st38{display:inline;fill:#0356DB;stroke:#231F20;stroke-miterlimit:10;}
	.st39{display:inline;}
	.st40{fill:#138E98;}
	.st41{fill:#626366;}
	.st42{fill:#E8E2E2;}
	.st43{fill:#023382;}
	.st44{fill:url(#SVGID_26_);}
	.st45{opacity:0.53;fill:url(#SVGID_27_);enable-background:new    ;}
	.st46{fill:url(#SVGID_28_);stroke:#608989;stroke-width:0.6756;stroke-miterlimit:10;}
	.st47{fill:url(#SVGID_29_);stroke:#608989;stroke-width:0.6756;stroke-miterlimit:10;}
	.st48{fill:url(#SVGID_30_);stroke:#608989;stroke-width:0.6756;stroke-miterlimit:10;}
	.st49{fill:url(#SVGID_31_);stroke:#608989;stroke-width:0.6756;stroke-miterlimit:10;}
	.st50{fill:url(#SVGID_32_);stroke:#608989;stroke-width:0.6756;stroke-miterlimit:10;}
	.st51{fill:url(#SVGID_33_);stroke:#608989;stroke-width:0.6756;stroke-miterlimit:10;}
	.st52{fill:url(#SVGID_34_);stroke:#608989;stroke-width:0.6756;stroke-miterlimit:10;}
	.st53{fill:url(#SVGID_35_);stroke:#608989;stroke-width:0.6756;stroke-miterlimit:10;}
	.st54{fill:url(#SVGID_36_);stroke:#608989;stroke-width:0.6756;stroke-miterlimit:10;}
	.st55{fill:#DCF4F0;}
	.st56{fill:url(#SVGID_37_);}
	.st57{fill:#0DA1CE;}
	.st58{opacity:0.3;}
	.st59{opacity:0.3;fill:#66E2B6;stroke:#6079F4;stroke-miterlimit:10;enable-background:new    ;}
	.st60{opacity:0.7;fill:#19F4CA;enable-background:new    ;}
	.st61{fill:#CE0D6E;}
	.st62{fill:#148E97;}
	.st63{opacity:0.5;fill:#E4E8EA;stroke:#024B68;stroke-miterlimit:10;enable-background:new    ;}
	.st64{opacity:0.5;}
	.st65{fill:none;stroke:#4D4D4D;stroke-width:2;stroke-miterlimit:10;}
	.st66{font-family:'ArialMT';}
	.st67{font-size:11.9562px;}
	.st68{fill:none;stroke:#009EFF;stroke-width:2;stroke-miterlimit:10;}
	.st69{fill:none;stroke:#009EFF;stroke-width:2;stroke-miterlimit:10;stroke-dasharray:2;}
</style>
<g id="Layer_3" class="st0">
	<g class="st1">
		<g>
			<path class="st2" d="M413.9,230.5l-53,30c0,0-1,0.7-2.2,0.7c-1.2,0-2.2-0.4-2.2-0.4l-5.9-3.6c-2.2-1.3-3.5-3.7-3.5-6.3
				l-0.2-142.7c0-6.3,3.7-12.2,9.6-15.3l52.3-30.2c1.3-0.7,2.8-0.7,4.1,0c2.2,1.2,4.4,2.4,6.6,3.8c0.6,0.4,1.2,0.7,1.8,1.1l1.9,3.2
				l0.2,145.4C423.4,220.9,420.4,227.3,413.9,230.5z"/>
			<path class="st3" d="M358.6,261.4c-1.2,0-2.1-0.4-2.2-0.5l-5.9-3.6c-2.2-1.4-3.6-3.8-3.6-6.4l-0.2-142.7c0-6.4,3.7-12.3,9.7-15.5
				l52.3-30.2c1.3-0.7,2.9-0.8,4.2,0l0.8,0.5c1.9,1.1,3.9,2.2,5.8,3.3l1.8,1.1l0,0l1.9,3.2v0l0.2,145.4c0,4.9-3,11.3-9.6,14.5
				l-53,30C360.9,260.6,359.9,261.3,358.6,261.4C358.7,261.4,358.7,261.4,358.6,261.4z M356.6,260.7c0,0,0.9,0.4,2.1,0.4
				c0,0,0.1,0,0.1,0c1.1,0,2.1-0.7,2.1-0.7l53-30c6.5-3.1,9.4-9.4,9.5-14.2l-0.2-145.4l-1.9-3.1l-1.7-1.1c-1.9-1.2-3.8-2.3-5.7-3.3
				l-0.8-0.5c-1.2-0.7-2.7-0.7-3.9,0l-52.3,30.2c-5.9,3.1-9.5,9-9.5,15.2l0.2,142.7c0,2.5,1.3,4.8,3.4,6.1L356.6,260.7L356.6,260.7z
				"/>
		</g>
		<path class="st4" d="M142.6,227.7l97.1-57c2.7-1.6,4.4-4.5,4.4-7.7L245,63c0,0-0.6-1-0.6-1l-4.3-2.5c-0.6-0.4-1.3-0.5-1.9-0.1
			L142.1,115c-3.3,1.9-5.3,5.5-5.3,9.3l-0.1,98.8C136.7,225.7,141.7,228.3,142.6,227.7z"/>
		<g>
			<path class="st5" d="M414.9,230l-54.2,30.6c-3,1.7-6.7-0.4-6.7-3.7L353.9,111c0-6.1,3.3-11.7,8.7-14.7L415.1,67
				c3.6-2,8.1,0.5,8.2,4.6l0.2,144C423.4,221.5,420.2,227,414.9,230z"/>
			<path class="st5" d="M358.5,261.4c-0.8,0-1.6-0.2-2.4-0.6c-1.4-0.8-2.2-2.2-2.2-3.8L353.7,111c0-6.1,3.4-11.8,8.8-14.8L415,66.8
				c1.8-1,3.9-1,5.7,0.1c1.7,1,2.7,2.7,2.7,4.6l0.2,144c0,6-3.3,11.6-8.6,14.6l-0.1-0.1l0.1,0.1l-54.2,30.6
				C360.1,261.2,359.3,261.4,358.5,261.4z M417.8,66.4c-0.9,0-1.8,0.2-2.6,0.7l-52.5,29.3c-5.3,3-8.7,8.6-8.7,14.6l0.2,145.9
				c0,1.5,0.8,2.8,2.1,3.6c1.4,0.8,3,0.8,4.4,0l54.2-30.6c5.2-2.9,8.5-8.4,8.5-14.3l-0.2-144c0-1.8-1-3.5-2.6-4.4
				C419.7,66.7,418.7,66.4,417.8,66.4z"/>
		</g>
		<g>
			<path class="st6" d="M421.3,213.8c0,5.8-3.1,11.1-8,14l-52.4,30.5c-2.2,1.3-4.9-0.3-4.9-2.8l-0.2-143c0-5.9,3.1-11.3,8.2-14.2
				l4.2-2.4L404,75.3l11-6.3c2.7-1.6,6.1,0.4,6.1,3.6L421.3,213.8z"/>
			<path class="st3" d="M359.2,258.8c-0.6,0-1.2-0.1-1.7-0.5c-1.1-0.6-1.7-1.7-1.7-2.9l-0.2-143c0-5.9,3.2-11.4,8.3-14.3l50.9-29.3
				c1.3-0.8,2.9-0.8,4.2,0c1.3,0.8,2.1,2.1,2.1,3.7l0.2,141.3c0,5.8-3.1,11.2-8.1,14.1l-52.4,30.5
				C360.4,258.7,359.8,258.8,359.2,258.8z M417,68.6c-0.7,0-1.4,0.2-2,0.5l-50.9,29.3c-5,2.9-8.2,8.3-8.1,14.1l0.2,143
				c0,1.1,0.6,2.1,1.6,2.7s2.1,0.6,3.1,0l52.4-30.5c4.9-2.9,8-8.2,8-13.9L421,72.5c0-1.4-0.7-2.7-2-3.4
				C418.4,68.7,417.7,68.6,417,68.6z"/>
		</g>
		<g>
			<path class="st7" d="M415.2,208.1l0-1.7c0-0.2-0.3-0.4-0.5-0.3l-50.2,29.8c-0.1,0.1-0.2,0.2-0.2,0.3l0,2L415.2,208.1z"/>
			<path class="st7" d="M415.2,212.8l0-1.7c0-0.2-0.3-0.4-0.5-0.3l-50.2,29.8c-0.1,0.1-0.2,0.2-0.2,0.3l0,2L415.2,212.8z"/>
			<path class="st7" d="M415.2,217.1l0-1.7c0-0.2-0.3-0.4-0.5-0.3l-50.2,29.8c-0.1,0.1-0.2,0.2-0.2,0.3l0,2L415.2,217.1z"/>
			<path class="st7" d="M415.2,221.3l0-1.7c0-0.2-0.3-0.4-0.5-0.3l-50.2,29.8c-0.1,0.1-0.2,0.2-0.2,0.3l0,2L415.2,221.3z"/>
		</g>
		<g>
			<path class="st7" d="M415.2,151.7l0-1.7c0-0.2-0.3-0.4-0.5-0.3l-50.2,29.8c-0.1,0.1-0.2,0.2-0.2,0.3l0,2L415.2,151.7z"/>
			<path class="st7" d="M415.2,156.4l0-1.7c0-0.2-0.3-0.4-0.5-0.3l-50.2,29.8c-0.1,0.1-0.2,0.2-0.2,0.3l0,2L415.2,156.4z"/>
			<path class="st7" d="M415.2,160.7l0-1.7c0-0.2-0.3-0.4-0.5-0.3l-50.2,29.8c-0.1,0.1-0.2,0.2-0.2,0.3l0,2L415.2,160.7z"/>
			<path class="st7" d="M415.2,164.9l0-1.7c0-0.2-0.3-0.4-0.5-0.3l-50.2,29.8c-0.1,0.1-0.2,0.2-0.2,0.3l0,2L415.2,164.9z"/>
		</g>
		
			<linearGradient id="SVGID_1_" gradientUnits="userSpaceOnUse" x1="582.0425" y1="-371.7814" x2="625.6251" y2="-258.5516" gradientTransform="matrix(1 0 0 -1 -196.6846 -165)">
			<stop  offset="0" style="stop-color:#9CFFDB"/>
			<stop  offset="1" style="stop-color:#60FFBC"/>
		</linearGradient>
		<path class="st8" d="M427.1,200.8l-51,29.8c-1.7,1-3.8-0.2-3.8-2.2v-93.4c0-4.4,2.3-8.4,6.1-10.6l49.8-29.1c1.5-0.9,3.4,0.2,3.4,2
			v95.7C431.5,196.3,429.8,199.2,427.1,200.8z"/>
		
			<linearGradient id="SVGID_2_" gradientUnits="userSpaceOnUse" x1="593.9348" y1="-395.0438" x2="609.8875" y2="-269.7019" gradientTransform="matrix(1 0 0 -1 -196.6846 -165)">
			<stop  offset="0" style="stop-color:#81F55F"/>
			<stop  offset="1" style="stop-color:#8AA3C2"/>
		</linearGradient>
		<path class="st9" d="M430.5,203.4l-51,29.8c-1.7,1-3.8-0.2-3.8-2.2v-93.4c0-4.4,2.3-8.4,6.1-10.6l49.8-29.1c1.5-0.9,3.4,0.2,3.4,2
			v95.7C435,198.8,433.3,201.8,430.5,203.4z"/>
		<path class="st10" d="M433.6,206.4l-51,29.8c-1.7,1-3.8-0.2-3.8-2.2v-93.4c0-4.4,2.3-8.4,6.1-10.6l49.8-29.1
			c1.5-0.9,3.4,0.2,3.4,2v95.7C438.1,201.8,436.4,204.8,433.6,206.4z"/>
		<g>
			<g>
				<path class="st11" d="M350.3,138.8L350.3,138.8c-0.8-0.3-1.4-1.1-1.4-1.8l-0.1-11.2c0-0.7,0.6-1.1,1.4-0.8l0,0
					c0.8,0.3,1.4,1.1,1.4,1.8l0.1,11.2C351.7,138.7,351,139.1,350.3,138.8z"/>
				<path class="st3" d="M350.7,139.1c-0.2,0-0.4,0-0.5-0.1l0,0c-0.8-0.3-1.5-1.2-1.5-2l-0.1-11.2c0-0.4,0.1-0.7,0.4-0.9
					c0.3-0.2,0.7-0.3,1.2-0.1c0.8,0.3,1.5,1.2,1.5,2l0.1,11.2c0,0.4-0.1,0.7-0.4,0.9C351.2,139,351,139.1,350.7,139.1z M349.6,125.1
					c-0.2,0-0.4,0-0.5,0.1c-0.2,0.1-0.3,0.4-0.3,0.6L349,137c0,0.7,0.6,1.4,1.3,1.7l0,0c0.4,0.1,0.7,0.1,0.9-0.1
					c0.2-0.1,0.3-0.4,0.3-0.6l-0.1-11.2c0-0.7-0.6-1.4-1.3-1.7C349.9,125.1,349.8,125.1,349.6,125.1z"/>
			</g>
			<g>
				<path class="st11" d="M350.4,148.5L350.4,148.5c-0.8-0.3-1.4-1.1-1.4-1.8l0-4.4c0-0.7,0.6-1.1,1.4-0.8l0,0
					c0.8,0.3,1.4,1.1,1.4,1.8l0,4.4C351.8,148.4,351.1,148.8,350.4,148.5z"/>
				<path class="st3" d="M350.9,148.8c-0.2,0-0.4,0-0.5-0.1l0,0c-0.8-0.3-1.5-1.2-1.5-2l0-4.4c0-0.4,0.1-0.7,0.4-0.9
					c0.3-0.2,0.7-0.3,1.2-0.1c0.8,0.3,1.5,1.2,1.5,2l0,4.4c0,0.4-0.1,0.7-0.4,0.9C351.3,148.7,351.1,148.8,350.9,148.8z
					 M349.8,141.5c-0.2,0-0.4,0-0.5,0.1c-0.2,0.1-0.3,0.4-0.3,0.6l0,4.4c0,0.7,0.6,1.4,1.3,1.7l0,0c0.4,0.1,0.7,0.1,0.9-0.1
					c0.2-0.1,0.3-0.4,0.3-0.6l0-4.4c0-0.7-0.6-1.4-1.3-1.7C350.1,141.5,349.9,141.5,349.8,141.5z"/>
			</g>
		</g>
		<g>
			
				<linearGradient id="SVGID_3_" gradientUnits="userSpaceOnUse" x1="584.3235" y1="-314.5214" x2="598.2936" y2="-314.5214" gradientTransform="matrix(1 0 0 -1 -196.6846 -165)">
				<stop  offset="0" style="stop-color:#EEEBC2;stop-opacity:0.3"/>
				<stop  offset="0.5642" style="stop-color:#F8F6C1;stop-opacity:0.4128"/>
				<stop  offset="1" style="stop-color:#FFFFC0;stop-opacity:0.5"/>
			</linearGradient>
			<path class="st12" d="M401.5,146.5L388,154c-0.2,0.1-0.4,0-0.4-0.2l0-1c0-0.1,0.1-0.2,0.1-0.2l13.4-7.4c0.2-0.1,0.4,0,0.4,0.2
				l0,1C401.6,146.4,401.6,146.5,401.5,146.5z"/>
			
				<linearGradient id="SVGID_4_" gradientUnits="userSpaceOnUse" x1="594.2106" y1="-292.228" x2="620.0016" y2="-292.228" gradientTransform="matrix(1 0 0 -1 -196.6846 -165)">
				<stop  offset="0" style="stop-color:#EEEBC2;stop-opacity:0.3"/>
				<stop  offset="0.5642" style="stop-color:#F8F6C1;stop-opacity:0.4128"/>
				<stop  offset="1" style="stop-color:#FFFFC0;stop-opacity:0.5"/>
			</linearGradient>
			<path class="st13" d="M423.2,121.6l-25.2,14c-0.2,0.1-0.4,0-0.4-0.2l0-2.2c0-0.1,0-0.2,0.1-0.2l25.2-14c0.2-0.1,0.4,0,0.4,0.2
				l0,2.2C423.3,121.5,423.3,121.5,423.2,121.6z"/>
			
				<linearGradient id="SVGID_5_" gradientUnits="userSpaceOnUse" x1="584.3646" y1="-314.1786" x2="610.7046" y2="-314.1786" gradientTransform="matrix(1 0 0 -1 -196.6846 -165)">
				<stop  offset="0" style="stop-color:#EEEBC2;stop-opacity:0.3"/>
				<stop  offset="0.5642" style="stop-color:#F8F6C1;stop-opacity:0.4128"/>
				<stop  offset="1" style="stop-color:#FFFFC0;stop-opacity:0.5"/>
			</linearGradient>
			<path class="st14" d="M413.9,142.8l-25.8,14.3c-0.2,0.1-0.4,0-0.4-0.2l0-1c0-0.1,0.1-0.2,0.1-0.2l25.8-14.3
				c0.2-0.1,0.4,0,0.4,0.2l0,1C414,142.6,414,142.7,413.9,142.8z"/>
			
				<linearGradient id="SVGID_6_" gradientUnits="userSpaceOnUse" x1="584.6306" y1="-334.534" x2="610.9726" y2="-334.534" gradientTransform="matrix(1 0 0 -1 -196.6846 -165)">
				<stop  offset="0" style="stop-color:#EEEBC2;stop-opacity:0.3"/>
				<stop  offset="0.5642" style="stop-color:#F8F6C1;stop-opacity:0.4128"/>
				<stop  offset="1" style="stop-color:#FFFFC0;stop-opacity:0.5"/>
			</linearGradient>
			<path class="st15" d="M414.2,163.1l-25.8,14.3c-0.2,0.1-0.4,0-0.4-0.2l0-1c0-0.1,0-0.2,0.1-0.2l25.8-14.3c0.2-0.1,0.4,0,0.4,0.2
				l0,1C414.3,163,414.2,163.1,414.2,163.1z"/>
			
				<linearGradient id="SVGID_7_" gradientUnits="userSpaceOnUse" x1="584.4096" y1="-316.5453" x2="625.6006" y2="-316.5453" gradientTransform="matrix(1 0 0 -1 -196.6846 -165)">
				<stop  offset="0" style="stop-color:#EEEBC2;stop-opacity:0.3"/>
				<stop  offset="0.5642" style="stop-color:#F8F6C1;stop-opacity:0.4128"/>
				<stop  offset="1" style="stop-color:#FFFFC0;stop-opacity:0.5"/>
			</linearGradient>
			<path class="st16" d="M428.8,144l-40.6,22.4c-0.2,0.1-0.4,0-0.4-0.2l-0.1-7c0-0.1,0.1-0.2,0.1-0.2l40.6-22.4
				c0.2-0.1,0.4,0,0.4,0.2l0.1,7C428.9,143.9,428.9,144,428.8,144z"/>
			
				<linearGradient id="SVGID_8_" gradientUnits="userSpaceOnUse" x1="585.0115" y1="-366.8795" x2="598.9796" y2="-366.8795" gradientTransform="matrix(1 0 0 -1 -196.6846 -165)">
				<stop  offset="0" style="stop-color:#EEEBC2;stop-opacity:0.3"/>
				<stop  offset="0.5642" style="stop-color:#F8F6C1;stop-opacity:0.4128"/>
				<stop  offset="1" style="stop-color:#FFFFC0;stop-opacity:0.5"/>
			</linearGradient>
			<path class="st17" d="M402.2,198.9l-13.4,7.4c-0.2,0.1-0.4,0-0.4-0.2l0-1c0-0.1,0-0.2,0.1-0.2l13.4-7.4c0.2-0.1,0.4,0,0.4,0.2
				l0,1C402.3,198.8,402.2,198.9,402.2,198.9z"/>
			
				<linearGradient id="SVGID_9_" gradientUnits="userSpaceOnUse" x1="585.0626" y1="-365.9565" x2="626.2526" y2="-365.9565" gradientTransform="matrix(1 0 0 -1 -196.6846 -165)">
				<stop  offset="0" style="stop-color:#EEEBC2;stop-opacity:0.3"/>
				<stop  offset="0.5642" style="stop-color:#F8F6C1;stop-opacity:0.4128"/>
				<stop  offset="1" style="stop-color:#FFFFC0;stop-opacity:0.5"/>
			</linearGradient>
			<path class="st18" d="M429.4,193.4l-40.6,22.4c-0.2,0.1-0.4,0-0.4-0.2l-0.1-7c0-0.1,0-0.2,0.1-0.2l40.6-22.4
				c0.2-0.1,0.4,0,0.4,0.2l0.1,7C429.6,193.3,429.5,193.4,429.4,193.4z"/>
			
				<linearGradient id="SVGID_10_" gradientUnits="userSpaceOnUse" x1="584.6865" y1="-346.1236" x2="611.4496" y2="-346.1236" gradientTransform="matrix(1 0 0 -1 -196.6846 -165)">
				<stop  offset="0" style="stop-color:#EEEBC2;stop-opacity:0.3"/>
				<stop  offset="0.5642" style="stop-color:#F8F6C1;stop-opacity:0.4128"/>
				<stop  offset="1" style="stop-color:#FFFFC0;stop-opacity:0.5"/>
			</linearGradient>
			<path class="st19" d="M414.6,182.3l-26,14.4c-0.2,0.1-0.4,0-0.4-0.2l-0.2-16.3c0-0.1,0.1-0.2,0.1-0.2l26-14.4
				c0.2-0.1,0.4,0,0.4,0.2l0.2,16.3C414.8,182.2,414.7,182.2,414.6,182.3z"/>
			
				<linearGradient id="SVGID_11_" gradientUnits="userSpaceOnUse" x1="614.3606" y1="-333.893" x2="625.9956" y2="-333.893" gradientTransform="matrix(1 0 0 -1 -196.6846 -165)">
				<stop  offset="0" style="stop-color:#EEEBC2;stop-opacity:0.3"/>
				<stop  offset="0.5642" style="stop-color:#F8F6C1;stop-opacity:0.4128"/>
				<stop  offset="1" style="stop-color:#FFFFC0;stop-opacity:0.5"/>
			</linearGradient>
			<path class="st20" d="M429.2,174.2l-10.9,6c-0.2,0.1-0.4,0-0.4-0.2l-0.2-16.3c0-0.1,0.1-0.2,0.1-0.2l10.9-6
				c0.2-0.1,0.4,0,0.4,0.2l0.2,16.3C429.3,174.1,429.3,174.2,429.2,174.2z"/>
		</g>
		<g>
			
				<linearGradient id="SVGID_12_" gradientUnits="userSpaceOnUse" x1="345.3308" y1="-333.8109" x2="415.4086" y2="-299.0569" gradientTransform="matrix(1 0 0 -1 -196.6846 -165)">
				<stop  offset="0" style="stop-color:#FFFFFF"/>
				<stop  offset="1" style="stop-color:#D1FFC0"/>
			</linearGradient>
			<path class="st21" d="M145.8,230.3l98.7-57c2.8-1.6,4.5-4.5,4.5-7.7l0-100.7c0,0-0.6-1-0.6-1l-3.5-1.8c-0.6-0.4-1.3-0.5-1.9-0.1
				l-97.6,55.6c-3.3,1.9-5.4,5.5-5.4,9.3l-0.1,98.8C139.8,228.4,144.3,230.9,145.8,230.3z"/>
			<path class="st3" d="M145.3,230.5c-0.9,0-2.1-0.5-3.3-1.3c-1.5-1-2.4-2.3-2.4-3.5l0.1-98.8c0-3.9,2.1-7.5,5.5-9.4l97.6-55.6
				c0.7-0.4,1.5-0.3,2.1,0.1l3.5,1.8l0,0c0.7,1,0.7,1.1,0.7,1.1l0,100.7c0,3.2-1.7,6.2-4.5,7.8l-98.7,57l0,0
				C145.7,230.5,145.5,230.5,145.3,230.5z M243.7,61.9c-0.3,0-0.6,0.1-0.8,0.2l-97.6,55.6c-3.3,1.9-5.3,5.4-5.3,9.2l-0.1,98.8
				c0,1.1,0.8,2.2,2.3,3.2c1.3,0.9,2.8,1.4,3.5,1.2l98.6-57c2.7-1.6,4.4-4.5,4.4-7.6l0-100.6c-0.1-0.1-0.4-0.6-0.6-1l-3.5-1.8
				C244.4,62,244.1,61.9,243.7,61.9z"/>
		</g>
		<g>
			<path class="st11" d="M145.9,230.2l98.5-56.8c2.8-1.6,4.5-4.5,4.5-7.7l0.1-100.4c0-1.3-1.4-2.1-2.5-1.5l-97.7,56.4
				c-3.3,1.9-5.4,5.5-5.4,9.3l-0.1,99.2C143.3,230.1,144.7,230.9,145.9,230.2z"/>
			<path class="st3" d="M145,230.6c-0.3,0-0.7-0.1-1-0.3c-0.6-0.3-1-1-1-1.7l0.1-99.2c0-3.9,2.1-7.5,5.5-9.4l97.7-56.4
				c0.6-0.3,1.3-0.3,1.8,0c0.6,0.3,0.9,0.9,0.9,1.6L249,165.7c0,3.2-1.7,6.2-4.5,7.8L146,230.4C145.7,230.5,145.4,230.6,145,230.6z
				 M247.2,63.8c-0.3,0-0.5,0.1-0.8,0.2l-97.7,56.4c-3.3,1.9-5.3,5.4-5.3,9.2l-0.1,99.2c0,0.6,0.3,1.1,0.8,1.4
				c0.5,0.3,1.1,0.3,1.6,0l98.5-56.8c2.7-1.6,4.4-4.5,4.4-7.6l0.1-100.4c0-0.6-0.3-1.1-0.8-1.3C247.8,63.8,247.5,63.8,247.2,63.8z"
				/>
		</g>
		<g>
			
				<linearGradient id="SVGID_13_" gradientUnits="userSpaceOnUse" x1="352.7286" y1="-285.3085" x2="433.8306" y2="-285.3085" gradientTransform="matrix(1 0 0 -1 -196.6846 -165)">
				<stop  offset="0" style="stop-color:#FFFFFF"/>
				<stop  offset="1" style="stop-color:#FFFFFF;stop-opacity:0.3"/>
			</linearGradient>
			<polygon class="st22" points="237.1,102.2 156.2,149.6 156,138.4 237,91 			"/>
			
				<linearGradient id="SVGID_14_" gradientUnits="userSpaceOnUse" x1="353.2446" y1="-334.327" x2="434.2656" y2="-334.327" gradientTransform="matrix(1 0 0 -1 -196.6846 -165)">
				<stop  offset="0" style="stop-color:#FFFFFF"/>
				<stop  offset="1" style="stop-color:#FFFFFF;stop-opacity:0.3"/>
			</linearGradient>
			<polygon class="st23" points="237.6,147.1 156.6,194.5 156.6,191.6 237.6,144.2 			"/>
			
				<linearGradient id="SVGID_15_" gradientUnits="userSpaceOnUse" x1="353.2986" y1="-339.845" x2="434.3186" y2="-339.845" gradientTransform="matrix(1 0 0 -1 -196.6846 -165)">
				<stop  offset="0" style="stop-color:#FFFFFF"/>
				<stop  offset="1" style="stop-color:#FFFFFF;stop-opacity:0.3"/>
			</linearGradient>
			<polygon class="st24" points="237.6,152.6 156.6,200 156.6,197.1 237.6,149.7 			"/>
			
				<linearGradient id="SVGID_16_" gradientUnits="userSpaceOnUse" x1="353.3556" y1="-362.758" x2="391.7786" y2="-362.758" gradientTransform="matrix(1 0 0 -1 -196.6846 -165)">
				<stop  offset="0" style="stop-color:#FFFFFF"/>
				<stop  offset="1" style="stop-color:#FFFFFF;stop-opacity:0.3"/>
			</linearGradient>
			<polygon class="st25" points="195.1,192.4 156.8,214.8 156.7,203.1 195,180.7 			"/>
			
				<linearGradient id="SVGID_17_" gradientUnits="userSpaceOnUse" x1="396.0396" y1="-337.7965" x2="434.4636" y2="-337.7965" gradientTransform="matrix(1 0 0 -1 -196.6846 -165)">
				<stop  offset="0" style="stop-color:#FFFFFF"/>
				<stop  offset="1" style="stop-color:#FFFFFF;stop-opacity:0.3"/>
			</linearGradient>
			<polygon class="st26" points="237.8,167.4 199.5,189.8 199.4,178.2 237.7,155.8 			"/>
			
				<linearGradient id="SVGID_18_" gradientUnits="userSpaceOnUse" x1="353.0706" y1="-336.9325" x2="378.2256" y2="-336.9325" gradientTransform="matrix(1 0 0 -1 -196.6846 -165)">
				<stop  offset="0" style="stop-color:#FFFFFF"/>
				<stop  offset="1" style="stop-color:#FFFFFF;stop-opacity:0.3"/>
			</linearGradient>
			<polygon class="st27" points="181.5,170.2 156.5,184.9 156.4,173.7 181.4,159 			"/>
			
				<linearGradient id="SVGID_19_" gradientUnits="userSpaceOnUse" x1="407.7056" y1="-304.597" x2="434.1726" y2="-304.597" gradientTransform="matrix(1 0 0 -1 -196.6846 -165)">
				<stop  offset="0" style="stop-color:#FFFFFF"/>
				<stop  offset="1" style="stop-color:#FFFFFF;stop-opacity:0.3"/>
			</linearGradient>
			<polygon class="st28" points="237.5,137.5 211.1,152.9 211,141.7 237.4,126.3 			"/>
			
				<linearGradient id="SVGID_20_" gradientUnits="userSpaceOnUse" x1="383.9646" y1="-320.764" x2="402.6236" y2="-320.764" gradientTransform="matrix(1 0 0 -1 -196.6846 -165)">
				<stop  offset="0" style="stop-color:#FFFFFF"/>
				<stop  offset="1" style="stop-color:#FFFFFF;stop-opacity:0.3"/>
			</linearGradient>
			<polygon class="st29" points="205.9,155.9 187.4,166.8 187.3,155.6 205.8,144.7 			"/>
			
				<linearGradient id="SVGID_21_" gradientUnits="userSpaceOnUse" x1="352.8786" y1="-321.167" x2="367.4956" y2="-321.167" gradientTransform="matrix(1 0 0 -1 -196.6846 -165)">
				<stop  offset="0" style="stop-color:#FFFFFF"/>
				<stop  offset="1" style="stop-color:#FFFFFF;stop-opacity:0.3"/>
			</linearGradient>
			<polygon class="st30" points="170.8,158.4 156.3,166.9 156.2,153.9 170.7,145.5 			"/>
			
				<linearGradient id="SVGID_22_" gradientUnits="userSpaceOnUse" x1="372.3766" y1="-291.1065" x2="433.9026" y2="-291.1065" gradientTransform="matrix(1 0 0 -1 -196.6846 -165)">
				<stop  offset="0" style="stop-color:#FFFFFF"/>
				<stop  offset="1" style="stop-color:#FFFFFF;stop-opacity:0.3"/>
			</linearGradient>
			<polygon class="st31" points="237.2,109.7 175.7,145.6 175.7,142.5 237.2,106.6 			"/>
			
				<linearGradient id="SVGID_23_" gradientUnits="userSpaceOnUse" x1="372.4156" y1="-304.305" x2="406.0866" y2="-304.305" gradientTransform="matrix(1 0 0 -1 -196.6846 -165)">
				<stop  offset="0" style="stop-color:#FFFFFF"/>
				<stop  offset="1" style="stop-color:#FFFFFF;stop-opacity:0.3"/>
			</linearGradient>
			<polygon class="st32" points="209.4,131 175.8,150.7 175.7,147.6 209.4,127.9 			"/>
			
				<linearGradient id="SVGID_24_" gradientUnits="userSpaceOnUse" x1="372.4636" y1="-309.217" x2="406.1346" y2="-309.217" gradientTransform="matrix(1 0 0 -1 -196.6846 -165)">
				<stop  offset="0" style="stop-color:#FFFFFF"/>
				<stop  offset="1" style="stop-color:#FFFFFF;stop-opacity:0.3"/>
			</linearGradient>
			<polygon class="st33" points="209.4,135.9 175.8,155.6 175.8,152.5 209.4,132.8 			"/>
		</g>
		<g>
			
				<linearGradient id="SVGID_25_" gradientUnits="userSpaceOnUse" x1="340.0306" y1="-265.9597" x2="445.6096" y2="-265.9597" gradientTransform="matrix(1 0 0 -1 -196.6846 -165)">
				<stop  offset="0" style="stop-color:#FFFFFF"/>
				<stop  offset="1" style="stop-color:#FBEBCC;stop-opacity:0.3"/>
			</linearGradient>
			<path class="st34" d="M248.9,65.3l0,11.8l-105.6,61.2l0-8.8c0-3.8,2.1-7.4,5.4-9.3l97.7-56.4C247.5,63.2,248.9,64,248.9,65.3z"/>
			<path class="st3" d="M143.2,138.6l0-9c0-3.9,2.1-7.5,5.5-9.4l97.7-56.4c0.6-0.3,1.3-0.3,1.8,0c0.6,0.3,0.9,0.9,0.9,1.6l0,11.9
				l-0.1,0L143.2,138.6z M247.2,63.8c-0.3,0-0.5,0.1-0.8,0.2l-97.7,56.4c-3.3,1.9-5.3,5.4-5.3,9.2l0,8.5l105.3-61l0-11.7
				c0-0.6-0.3-1.1-0.8-1.3C247.8,63.8,247.5,63.8,247.2,63.8z"/>
		</g>
		<g>
			<rect x="313" y="76.9" transform="matrix(0.8599 -0.5105 0.5105 0.8599 4.509 170.6078)" class="st3" width="0.1" height="0.3"/>
		</g>
		<g>
			
				<rect x="207.4" y="138.2" transform="matrix(0.8695 -0.4939 0.4939 0.8695 -41.2517 120.4935)" class="st3" width="0" height="0.3"/>
		</g>
		<g>
			<path class="st3" d="M380.2,92.9c-0.1,0-0.1,0-0.2,0c-0.1-0.1-0.2-0.2-0.2-0.4c0-0.3,0.2-0.7,0.4-0.8l12.5-7.1
				c0.1-0.1,0.3-0.1,0.4,0c0.1,0.1,0.2,0.2,0.2,0.4c0,0.3-0.2,0.7-0.4,0.8l-12.5,7.1C380.3,92.9,380.3,92.9,380.2,92.9z M392.9,84.8
				C392.9,84.8,392.9,84.8,392.9,84.8l-12.6,7.1c-0.2,0.1-0.3,0.4-0.3,0.6c0,0.1,0,0.2,0.1,0.2c0,0,0.1,0,0.1,0l12.5-7.1
				c0.2-0.1,0.3-0.4,0.3-0.6C393,84.9,393,84.8,392.9,84.8C392.9,84.8,392.9,84.8,392.9,84.8z"/>
		</g>
		<g>
			<g>
				<path class="st35" d="M172.4,125.7c-0.1,0-0.2,0-0.3-0.1l-2.9-0.9c-0.3-0.1-0.3-0.3-0.1-0.4c0.2-0.1,0.5-0.2,0.8-0.1l2.9,0.9
					c0.3,0.1,0.3,0.3,0.1,0.4C172.8,125.7,172.6,125.7,172.4,125.7z"/>
			</g>
			<g>
				<path class="st35" d="M307.5,167.9c-0.2,0-0.4,0-0.5,0c-0.3,0-0.6-0.1-0.6-0.3s0.3-0.3,0.6-0.3c2.3,0,4.6-0.1,6.8-0.4
					c0.3,0,0.6,0.1,0.7,0.2c0.1,0.1-0.1,0.3-0.4,0.3C312,167.8,309.7,167.9,307.5,167.9z M300,167.4c-0.1,0-0.1,0-0.2,0
					c-2.3-0.3-4.5-0.8-6.5-1.4c-0.3-0.1-0.4-0.3-0.2-0.4c0.2-0.1,0.5-0.2,0.8-0.1c1.9,0.6,4,1,6.2,1.4c0.3,0,0.5,0.2,0.4,0.3
					C300.5,167.3,300.3,167.4,300,167.4z M320.5,166.3c-0.2,0-0.4,0-0.5-0.1c-0.2-0.1-0.1-0.3,0.2-0.4l0.1,0l6-1.7
					c0.3-0.1,0.6,0,0.8,0.1c0.2,0.1,0.1,0.3-0.2,0.4l-6.1,1.7C320.7,166.2,320.6,166.3,320.5,166.3z M287.9,164.1
					c-0.1,0-0.2,0-0.3-0.1l-5.8-1.9c-0.3-0.1-0.3-0.3-0.1-0.4c0.2-0.1,0.5-0.2,0.8-0.1l5.8,1.9c0.3,0.1,0.3,0.3,0.1,0.4
					C288.2,164.1,288.1,164.1,287.9,164.1z M332.6,162.8c-0.2,0-0.4,0-0.5-0.1c-0.2-0.1-0.1-0.3,0.2-0.4l6.1-1.7
					c0.3-0.1,0.6,0,0.8,0.1c0.2,0.1,0.1,0.3-0.2,0.4l-6.1,1.7C332.8,162.8,332.7,162.8,332.6,162.8z M276.3,160.3
					c-0.1,0-0.2,0-0.3,0l-5.8-1.9c-0.3-0.1-0.3-0.3-0.1-0.4s0.5-0.2,0.8-0.1l5.8,1.9c0.3,0.1,0.3,0.3,0.1,0.4
					C276.7,160.2,276.5,160.3,276.3,160.3z M344.7,159.4c-0.2,0-0.4,0-0.5-0.1c-0.2-0.1-0.1-0.3,0.2-0.4l6.1-1.7
					c0.3-0.1,0.6,0,0.8,0.1c0.2,0.1,0.1,0.3-0.2,0.4l-6.1,1.7C344.9,159.4,344.8,159.4,344.7,159.4z M264.8,156.4
					c-0.1,0-0.2,0-0.3-0.1l-5.8-1.9c-0.3-0.1-0.3-0.3-0.1-0.4c0.2-0.1,0.5-0.2,0.8-0.1l5.8,1.9c0.3,0.1,0.3,0.3,0.1,0.4
					C265.1,156.4,265,156.4,264.8,156.4z M356.9,156c-0.2,0-0.4,0-0.5-0.1c-0.2-0.1-0.1-0.3,0.2-0.4l6.1-1.7c0.3-0.1,0.6,0,0.8,0.1
					c0.2,0.1,0.1,0.3-0.2,0.4l-6.1,1.7C357.1,156,357,156,356.9,156z M369,152.6c-0.2,0-0.4,0-0.5-0.1c-0.2-0.1-0.1-0.3,0.2-0.4
					l6.1-1.7c0.3-0.1,0.6,0,0.8,0.1c0.2,0.1,0.1,0.3-0.2,0.4l-6.1,1.7C369.2,152.6,369.1,152.6,369,152.6z M253.2,152.6
					c-0.1,0-0.2,0-0.3-0.1l-5.8-1.9c-0.3-0.1-0.3-0.3-0.1-0.4c0.2-0.1,0.5-0.2,0.8-0.1l5.8,1.9c0.3,0.1,0.3,0.3,0.1,0.4
					C253.6,152.5,253.4,152.6,253.2,152.6z M241.7,148.8c-0.1,0-0.2,0-0.3,0l-5.8-1.9c-0.3-0.1-0.3-0.3-0.1-0.4
					c0.2-0.1,0.5-0.2,0.8-0.1l5.8,1.9c0.3,0.1,0.3,0.3,0.1,0.4C242,148.7,241.9,148.8,241.7,148.8z M230.1,144.9
					c-0.1,0-0.2,0-0.3-0.1l-5.8-1.9c-0.3-0.1-0.3-0.3-0.1-0.4c0.2-0.1,0.6-0.2,0.8-0.1l5.8,1.9c0.3,0.1,0.3,0.3,0.1,0.4
					C230.5,144.9,230.3,144.9,230.1,144.9z M218.6,141.1c-0.1,0-0.2,0-0.3-0.1l-5.8-1.9c-0.3-0.1-0.3-0.3-0.1-0.4
					c0.2-0.1,0.5-0.2,0.8-0.1l5.8,1.9c0.3,0.1,0.3,0.3,0.1,0.4C219,141,218.8,141.1,218.6,141.1z M207,137.2c-0.1,0-0.2,0-0.3-0.1
					l-5.8-1.9c-0.3-0.1-0.3-0.3-0.1-0.4s0.5-0.2,0.8-0.1l5.8,1.9c0.3,0.1,0.3,0.3,0.1,0.4C207.4,137.2,207.2,137.2,207,137.2z
					 M195.5,133.4c-0.1,0-0.2,0-0.3-0.1l-5.8-1.9c-0.3-0.1-0.3-0.3-0.1-0.4c0.2-0.1,0.5-0.2,0.8-0.1l5.8,1.9
					c0.3,0.1,0.3,0.3,0.1,0.4C195.9,133.4,195.7,133.4,195.5,133.4z M183.9,129.6c-0.1,0-0.2,0-0.3-0.1l-5.8-1.9
					c-0.3-0.1-0.3-0.3-0.1-0.4c0.2-0.1,0.5-0.2,0.8-0.1l5.8,1.9c0.3,0.1,0.3,0.3,0.1,0.4C184.3,129.5,184.1,129.6,183.9,129.6z"/>
			</g>
			<g>
				<path class="st35" d="M381.1,149.2c-0.2,0-0.4,0-0.5-0.1c-0.2-0.1-0.1-0.3,0.2-0.4l3-0.8c0.3-0.1,0.6,0,0.8,0.1
					c0.2,0.1,0.1,0.3-0.2,0.4l-3,0.8C381.3,149.2,381.2,149.2,381.1,149.2z"/>
			</g>
		</g>
		<g>
			<circle class="st36" cx="392.2" cy="145" r="1.6"/>
			<circle class="st37" cx="392.2" cy="145" r="1.1"/>
		</g>
		<g>
			<circle class="st36" cx="158.9" cy="121.6" r="4.3"/>
			<circle class="st37" cx="158.9" cy="121.6" r="3"/>
		</g>
		<g>
			<path class="st7" d="M415.2,85l0-1.7c0-0.2-0.3-0.4-0.5-0.3l-50.2,29.8c-0.1,0.1-0.2,0.2-0.2,0.3l0,2L415.2,85z"/>
			<path class="st7" d="M415.2,89.8l0-1.7c0-0.2-0.3-0.4-0.5-0.3l-50.2,29.8c-0.1,0.1-0.2,0.2-0.2,0.3l0,2L415.2,89.8z"/>
			<path class="st7" d="M415.2,94.1l0-1.7c0-0.2-0.3-0.4-0.5-0.3l-50.2,29.8c-0.1,0.1-0.2,0.2-0.2,0.3l0,2L415.2,94.1z"/>
			<path class="st7" d="M415.2,98.2l0-1.7c0-0.2-0.3-0.4-0.5-0.3L364.5,126c-0.1,0.1-0.2,0.2-0.2,0.3l0,2L415.2,98.2z"/>
		</g>
		<g>
			<g>
				<path class="st35" d="M137.1,113.2c-0.1,0-0.2,0-0.3-0.1l-5.8-1.9c-0.3-0.1-0.3-0.3-0.1-0.4c0.2-0.1,0.5-0.2,0.8-0.1
					 M125.5,109.4c-0.1,0-0.2,0-0.3-0.1l-5.8-1.9c-0.3-0.1-0.3-0.3-0.1-0.4c0.2-0.1,0.5-0.2,0.8-0.1l5.8,1.9
					c0.3,0.1,0.3,0.3,0.1,0.4C125.9,109.3,125.7,109.4,125.5,109.4z M114,105.5c-0.1,0-0.2,0-0.3-0.1l-5.8-1.9
					c-0.3-0.1-0.3-0.3-0.1-0.4c0.2-0.1,0.5-0.2,0.8-0.1l5.8,1.9c0.3,0.1,0.3,0.3,0.1,0.4C114.3,105.5,114.2,105.5,114,105.5z
					 M102.4,101.7c-0.1,0-0.2,0-0.3,0l-5.8-1.9c-0.3-0.1-0.3-0.3-0.1-0.4c0.2-0.1,0.5-0.2,0.8-0.1l5.8,1.9c0.3,0.1,0.3,0.3,0.1,0.4
					C102.8,101.7,102.6,101.7,102.4,101.7z M90.9,97.9c-0.1,0-0.2,0-0.3-0.1l-5.8-1.9c-0.3-0.1-0.3-0.3-0.1-0.4
					c0.2-0.1,0.5-0.2,0.8-0.1l5.8,1.9c0.3,0.1,0.3,0.3,0.1,0.4C91.2,97.8,91.1,97.9,90.9,97.9z"/>
			</g>
		</g>
		<g>
			<circle class="st36" cx="65.4" cy="87" r="7.1"/>
			<circle class="st37" cx="65.4" cy="87" r="5"/>
		</g>
	</g>
	<rect x="-44.5" y="-32" class="st38" width="585" height="360"/>
</g>
<g id="Layer_2" class="st0">
	<g class="st39">
		<g>
			<path class="st40" d="M-60.7-6.1c0,0-3.6-5.1,0.4-12.2c4.1-7.1-2-11.5-2-11.5l4.5,0.1c0,0,5.1,4.9-0.2,11.6
				C-63.3-11.4-60.7-6.1-60.7-6.1"/>
			<circle class="st40" cx="-60.3" cy="-5.6" r="1.3"/>
		</g>
		<g>
			<path class="st41" d="M-143.8-14.6h-0.4v-1c0-0.8-0.1-1.4-0.2-2c-0.1-0.6-0.4-1-0.6-1.3c-0.3-0.2-0.6-0.4-0.9-0.5s-0.7-0.1-1-0.1
				c0,0-0.1,0-0.1,0c0,0-0.1,0-0.1,0c-0.1,0-0.1,0-0.2,0c-0.1,0-0.1,0-0.2,0v12.8c0,0.9,0.1,1.5,0.2,1.6c0.1,0.2,0.5,0.3,1.1,0.3
				l0.9,0v0.4h-4.9v-0.4h1.3v-14.8c-1.4,0-2.4,0.3-2.8,0.8c-0.5,0.5-0.7,1.6-0.7,3.2v1h-0.4v-6.1h0.4v0.7h8.3v-0.7h0.4L-143.8-14.6
				L-143.8-14.6z"/>
			<path class="st41" d="M-142.9-4.3v-0.4h1.5v-12.9c0-0.9-0.1-1.4-0.2-1.6c-0.1-0.2-0.5-0.3-1.1-0.3l-0.4,0v-0.4h7.6v-1h0.4v5.3
				h-0.4c0-1.8-0.3-2.8-0.8-3.2c-0.6-0.4-1.7-0.6-3.4-0.6l-0.4,0v3.9h2V-18h0.4v5.8h-0.4c0-0.1,0-0.2,0-0.2s0-0.2,0-0.3
				c0-0.6-0.1-1.1-0.3-1.6c-0.2-0.5-0.7-0.7-1.4-0.7c0,0-0.1,0-0.1,0s-0.1,0-0.2,0v10.4c1.6,0,2.7-0.1,3.5-0.4
				c0.8-0.3,1.1-1.3,1.1-3.1V-9h0.4v5.7h-0.4v-1L-142.9-4.3L-142.9-4.3z"/>
			<path class="st40" d="M-114.7-13.1c0,2.5-1,4.7-2.9,6.5s-4.2,2.8-6.8,2.8c-2.7,0-4.9-0.9-6.7-2.6c-1.8-1.8-2.7-4-2.7-6.6
				c0-2.5,1-4.7,2.9-6.4c2-1.8,4.3-2.7,7-2.7c2.6,0,4.7,0.9,6.5,2.6C-115.6-17.7-114.7-15.6-114.7-13.1L-114.7-13.1L-114.7-13.1z
				 M-116.2-12.8c0-2.3-0.8-4.3-2.5-6c-1.7-1.7-3.6-2.6-5.8-2.6c-2.3,0-4.2,0.8-5.8,2.4c-1.6,1.6-2.4,3.5-2.4,5.9
				c0,2.4,0.8,4.5,2.5,6.2c1.7,1.7,3.7,2.6,6.1,2.6c2.2,0,4-0.8,5.5-2.4C-116.9-8.5-116.2-10.5-116.2-12.8L-116.2-12.8L-116.2-12.8z
				"/>
			<path class="st41" d="M-98.8-4.5C-98.8-4.4-98.8-4.4-98.8-4.5c-0.3,0.2-0.5,0.3-0.8,0.3C-99.8-4.1-100-4-100.4-4
				c-0.7,0-1.4-0.1-2.2-0.3c-0.8-0.2-1.6-0.4-2.4-0.8c-0.7-0.2-1.4-0.5-2-0.9c-0.7-0.3-1.3-0.6-1.9-1c-0.3-0.2-0.7-0.4-1-0.6
				c-0.3-0.2-0.6-0.4-0.9-0.5v1.4c0,0.9,0.1,1.5,0.2,1.6c0.1,0.2,0.5,0.3,1.1,0.3l0.9,0v0.4h-4.8v-0.4h1.3v-12.9
				c0-0.9-0.1-1.4-0.2-1.6c-0.1-0.2-0.5-0.3-1.1-0.3l-0.3,0v-0.4h2.9v1.5c0.6-0.4,1.2-0.7,1.7-0.9c0.5-0.2,1-0.4,1.5-0.5
				c0.2,0,0.4-0.1,0.7-0.1c0.2,0,0.4,0,0.7,0c1.9,0,3.5,0.6,4.8,1.9c1.3,1.3,2,2.8,2,4.5c0,1.8-0.7,3.4-2,4.6
				c-1.3,1.3-2.9,2-4.9,2.1c0.3,0.1,0.6,0.3,1,0.5s0.7,0.4,1.1,0.6c0.2,0.1,0.4,0.2,0.6,0.3c0.2,0.1,0.4,0.2,0.6,0.3
				c0.5,0.2,1.1,0.4,1.6,0.6c0.5,0.2,1,0.2,1.4,0.2c0.2,0,0.4,0,0.6-0.1c0.2,0,0.4-0.1,0.5-0.2l0.2,0.2C-98.7-4.5-98.7-4.5-98.8-4.5
				z M-110.6-9.3c0.8,0.6,1.6,1.1,2.3,1.4c0.7,0.3,1.4,0.5,2.1,0.5c1.5,0,2.8-0.6,3.9-1.7c1.1-1.1,1.6-2.5,1.6-4
				c0-1.7-0.6-3.1-1.8-4.3c-1.2-1.2-2.7-1.8-4.3-1.8c-0.8,0-1.5,0.1-2.2,0.4c-0.6,0.3-1.3,0.8-1.9,1.4V-9L-110.6-9.3z"/>
			<path class="st41" d="M-97.9-4.3v-0.4h1.5v-12.9c0-0.9-0.1-1.4-0.2-1.6c-0.1-0.2-0.5-0.3-1.1-0.3l-0.4,0v-0.4h7.6v-1h0.4v5.3
				h-0.4c0-1.8-0.3-2.8-0.8-3.2c-0.6-0.4-1.7-0.6-3.4-0.6l-0.4,0v3.9h2V-18h0.4v5.8h-0.4c0-0.1,0-0.2,0-0.2s0-0.2,0-0.3
				c0-0.6-0.1-1.1-0.3-1.6s-0.7-0.7-1.4-0.7c0,0-0.1,0-0.1,0s-0.1,0-0.2,0v10.4c1.6,0,2.7-0.1,3.5-0.4c0.8-0.3,1.1-1.3,1.1-3.1V-9
				h0.4v5.7h-0.4v-1L-97.9-4.3L-97.9-4.3L-97.9-4.3z"/>
			<path class="st41" d="M-76.9-19.5h-1.3v12.9c0,0.9,0.1,1.5,0.2,1.6c0.1,0.2,0.5,0.3,1.1,0.3l0.4,0v0.4h-4v-0.4h1.1V-18L-83-8.6
				l-3.7-9v10.1c0,1.1,0.1,1.9,0.3,2.2c0.2,0.4,0.7,0.6,1.4,0.6v0.4h-3.8v-0.4h1.4v-12c0-1.1-0.1-1.8-0.3-2.1
				c-0.2-0.3-0.7-0.5-1.4-0.6v-0.4h2.8l3.6,8.7l3.2-8.7h2.6L-76.9-19.5L-76.9-19.5z"/>
			<path class="st41" d="M-72.1-15.1l-1.8,7.7c0,0.1,0,0.1,0,0.2c0,0,0,0.1,0,0.1c0,0.1,0,0.2,0,0.3s0,0.2,0,0.2c0,0.1,0,0.3,0,0.4
				c0,0.1,0,0.3,0,0.4c0,0.5,0.1,0.7,0.4,0.9c0.3,0.1,0.6,0.2,1,0.2c0,0,0.1,0,0.1,0s0.1,0,0.1,0c0.1,0,0.1,0,0.2,0
				c0.1,0,0.1,0,0.2,0v0.4h-4.2v-0.4h1l3.8-16h0.4l4.3,13.5c0.1,0.4,0.2,0.7,0.3,1c0.1,0.3,0.2,0.5,0.3,0.7c0.2,0.3,0.3,0.6,0.5,0.7
				c0.2,0.1,0.4,0.2,0.8,0.2v0.4h-3.8v-0.4h1.5l-3.2-10.4L-72.1-15.1C-72.1-15.1-72.1-15.1-72.1-15.1z M-71.4-18l-0.6,2.4h1.4
				L-71.4-18z"/>
		</g>
		<g>
			<path class="st40" d="M-121.9,3.7c0.9,0,1.8,0.4,2.5,1.2c0.8,0.8,1.2,1.7,1.2,2.8s-0.4,2.1-1.2,2.8c-0.8,0.8-1.7,1.2-2.8,1.2
				c-0.2,0-0.4,0-0.5,0c-1.1,0-2-0.3-2.6-1c-0.4-0.4-0.6-0.8-0.8-1.2l1.3-0.8c0.1,0.4,0.3,0.7,0.6,1c0.4,0.4,0.9,0.6,1.6,0.6
				c0.2,0,0.3,0,0.5,0c0.7,0,1.3-0.2,1.8-0.7c0.5-0.5,0.7-1.1,0.7-1.8s-0.2-1.3-0.7-1.8s-1.1-0.7-1.8-0.7h0c-1.1,0-2.1-0.4-2.9-1.2
				c-0.8-0.8-1.2-1.7-1.2-2.8s0.4-2.1,1.2-2.8c0.8-0.8,1.7-1.2,2.8-1.2c1.2,0,2.3,0.6,3.2,1.7c0.4,0.4,0.6,0.8,0.8,1.2l-1.3,0.8
				c-0.1-0.4-0.3-0.7-0.6-1c-0.6-0.9-1.3-1.3-2.1-1.3c-0.7,0-1.3,0.2-1.8,0.8s-0.7,1.1-0.7,1.8s0.2,1.3,0.7,1.8
				C-123.5,3.5-122.8,3.7-121.9,3.7z"/>
			<path class="st40" d="M-116,5h-1v-1h1V1.2h1v2.9h1.9v1h-1.9v3.8c0,0.9,0.2,1.5,0.6,1.6c0.4,0.2,0.8,0.3,1.4,0.3v1
				c-0.8,0-1.5-0.2-2-0.6c-0.6-0.4-0.8-1.1-0.8-2.3C-116,8.9-116,5-116,5z"/>
			<path class="st40" d="M-106.4,11.7h-1v-0.5c-0.5,0.3-1.2,0.5-1.9,0.5c-0.8,0-1.5-0.2-2-0.6c-0.6-0.4-0.8-0.8-0.8-1.4V4.1h1v5.8
				c0,0.3,0.2,0.5,0.6,0.7s0.8,0.3,1.4,0.3c0.5,0,1-0.1,1.4-0.3s0.6-0.7,0.6-1.6V4.1h1C-106.4,4.1-106.4,11.7-106.4,11.7z"/>
			<path class="st40" d="M-100.7,1.2h1v10.5h-1v-0.5c-0.5,0.3-1.2,0.5-1.9,0.5c-0.8,0-1.5-0.2-2-0.6c-0.6-0.4-0.8-1.1-0.8-2.3V7
				c0-1.2,0.3-1.9,0.8-2.3c0.6-0.4,1.2-0.6,2-0.6c0.7,0,1.4,0.2,1.9,0.5V1.2z M-104.5,8.9c0,0.9,0.2,1.4,0.6,1.6
				c0.4,0.2,0.8,0.3,1.4,0.3c0.5,0,1-0.1,1.4-0.3c0.4-0.2,0.6-0.4,0.6-0.7V6c0-0.3-0.2-0.5-0.6-0.7c-0.4-0.2-0.8-0.3-1.4-0.3
				s-1,0.1-1.4,0.3c-0.4,0.2-0.6,0.7-0.6,1.6V8.9z"/>
			<path class="st40" d="M-96.8,4.1v7.7h-1V5h-1v-1H-96.8z M-98.1,2.9c-0.1-0.1-0.2-0.3-0.2-0.5s0.1-0.4,0.2-0.5s0.3-0.2,0.5-0.2
				c0.2,0,0.4,0.1,0.5,0.2c0.1,0.1,0.2,0.3,0.2,0.5s-0.1,0.4-0.2,0.5c-0.1,0.1-0.3,0.2-0.5,0.2C-97.7,3.1-97.9,3.1-98.1,2.9z"/>
			<path class="st40" d="M-95.9,7c0-1.2,0.3-2,0.8-2.3c0.6-0.4,1.2-0.6,2-0.6c0.8,0,1.5,0.2,2,0.6c0.6,0.4,0.8,0.8,0.8,1.4v2.9
				c0,1.2-0.3,1.9-0.8,2.3c-0.6,0.4-1.2,0.6-2,0.6c-0.8,0-1.5-0.2-2-0.6c-0.6-0.4-0.8-0.8-0.8-1.4V7z M-91.1,6
				c0-0.3-0.2-0.5-0.6-0.7C-92,5.1-92.5,5-93,5c-0.5,0-1,0.1-1.4,0.3c-0.4,0.2-0.6,0.7-0.6,1.6v2.9c0,0.3,0.2,0.5,0.6,0.7
				c0.4,0.2,0.8,0.3,1.4,0.3c0.5,0,1-0.1,1.4-0.3c0.4-0.2,0.6-0.7,0.6-1.6V6z"/>
		</g>
	</g>
</g>
<g id="Layer_1_1_">
	<g>
		<g>
			<path class="st42" d="M321.5,335.1l-47.7,27c0,0-0.9,0.7-1.9,0.7c-1.1,0-1.9-0.4-1.9-0.4l-5.3-3.3c-1.9-1.2-3.2-3.3-3.2-5.6
				l-0.2-128.7c0-5.8,3.3-11,8.6-13.8l47.1-27.2c1.1-0.7,2.5-0.7,3.7,0c1.9,1.1,4,2.3,6,3.3c0.5,0.4,1.1,0.7,1.6,1.1l1.8,2.8
				l0.2,130.9C330,326.5,327.2,332.3,321.5,335.1z"/>
			<path class="st3" d="M271.7,363c-1.1,0-1.9-0.4-1.9-0.4l-5.3-3.3c-1.9-1.2-3.2-3.3-3.2-5.8l-0.2-128.7c0-5.8,3.3-11,8.8-13.8
				l47.1-27.2c1.2-0.7,2.6-0.7,3.9,0l0.7,0.4c1.8,0.9,3.5,1.9,5.3,3l1.6,1.1l0,0l1.8,3l0,0l0.2,130.9c0,4.4-2.8,10.2-8.6,13
				l-47.7,27C273.8,362.3,272.7,363,271.7,363L271.7,363z M269.9,362.3c0,0,0.9,0.4,1.9,0.4l0,0c0.9,0,1.9-0.7,1.9-0.7l47.7-27
				c5.8-2.8,8.4-8.4,8.6-12.8l-0.2-130.9l-1.8-2.8l-1.6-1.1c-1.8-1.1-3.5-2.1-5.3-3l-0.7-0.4c-1.1-0.5-2.5-0.5-3.5,0l-47.1,27.2
				c-5.3,2.8-8.6,8.1-8.6,13.7l0.2,128.7c0,2.3,1.2,4.4,3.2,5.6L269.9,362.3L269.9,362.3z"/>
		</g>
		<path class="st4" d="M35.6,313.4l142.8-83.8c4-2.3,6.5-6.7,6.5-11.4l1.4-147.1l-0.9-1.6l-6.3-3.7c-0.9-0.7-1.9-0.7-2.8-0.2
			L34.9,147.6c-4.7,2.8-7.7,8.1-7.7,13.7L27,306.7C27,310.4,34.2,314.3,35.6,313.4z"/>
		<g>
			<path class="st43" d="M322.7,315v-1.6c0-0.2-0.2-0.4-0.4-0.2L276.9,340c-0.2,0-0.2,0.2-0.2,0.4v1.8L322.7,315z"/>
			<path class="st43" d="M322.7,319.2v-1.6c0-0.2-0.2-0.4-0.4-0.2l-45.2,26.8c-0.2,0-0.2,0.2-0.2,0.4v1.8L322.7,319.2z"/>
			<path class="st43" d="M322.7,323.2v-1.6c0-0.2-0.2-0.4-0.4-0.2l-45.2,26.8c-0.2,0-0.2,0.2-0.2,0.4v1.8L322.7,323.2z"/>
			<path class="st43" d="M322.7,326.9v-1.6c0-0.2-0.2-0.4-0.4-0.2l-45.2,26.8c-0.2,0-0.2,0.2-0.2,0.4v1.8L322.7,326.9z"/>
		</g>
		
			<linearGradient id="SVGID_26_" gradientUnits="userSpaceOnUse" x1="492.4595" y1="1270.7832" x2="531.7184" y2="1168.7869" gradientTransform="matrix(1 0 0 1 -196.6846 -957)">
			<stop  offset="0" style="stop-color:#9CFFDB"/>
			<stop  offset="1" style="stop-color:#60FFBC"/>
		</linearGradient>
		<path class="st44" d="M333.4,308.5l-45.9,26.8c-1.6,0.9-3.5-0.2-3.5-1.9v-84.1c0-3.9,2.1-7.5,5.4-9.5l44.9-26.3
			c1.4-0.9,3.2,0.2,3.2,1.8v86.2C337.4,304.3,335.8,306.9,333.4,308.5z"/>
		
			<linearGradient id="SVGID_27_" gradientUnits="userSpaceOnUse" x1="503.0704" y1="1291.7264" x2="517.4401" y2="1178.8204" gradientTransform="matrix(1 0 0 1 -196.6846 -957)">
			<stop  offset="0" style="stop-color:#81F55F"/>
			<stop  offset="1" style="stop-color:#8AA3C2"/>
		</linearGradient>
		<path class="st45" d="M336.4,310.8l-45.9,26.8c-1.6,0.9-3.5-0.2-3.5-1.9v-84.1c0-3.9,2.1-7.5,5.4-9.5l44.9-26.3
			c1.4-0.9,3.2,0.2,3.2,1.8v86.2C340.4,306.5,339,309.4,336.4,310.8z"/>
		<g>
			<g>
				<path class="st11" d="M264.1,252.6L264.1,252.6c-0.7-0.2-1.2-1.1-1.2-1.6l-0.2-10c0-0.7,0.5-1.1,1.2-0.7l0,0
					c0.7,0.2,1.2,1.1,1.2,1.6l0.2,10C265.4,252.6,264.8,252.9,264.1,252.6z"/>
				<path class="st3" d="M264.7,252.7c-0.2,0-0.4,0-0.5,0l0,0c-0.7-0.2-1.4-1.1-1.4-1.8l-0.2-10c0-0.4,0.2-0.7,0.4-0.9
					c0.4-0.2,0.7-0.2,1.1-0.2c0.7,0.2,1.4,1.1,1.4,1.8l0.2,10c0,0.4-0.2,0.7-0.4,0.9C265,252.7,264.8,252.7,264.7,252.7z
					 M263.6,240.1c-0.2,0-0.4,0-0.5,0.2c-0.2,0.2-0.4,0.4-0.2,0.5l0.2,10c0,0.5,0.5,1.2,1.2,1.6l0,0c0.4,0.2,0.7,0.2,0.9,0
					c0.2-0.2,0.4-0.4,0.2-0.5l-0.2-10c0-0.5-0.5-1.2-1.2-1.6C263.8,240.1,263.6,240.1,263.6,240.1z"/>
			</g>
			<g>
				<path class="st11" d="M264.3,261.3L264.3,261.3c-0.7-0.2-1.2-1.1-1.2-1.6v-4c0-0.7,0.5-1.1,1.2-0.7l0,0c0.7,0.2,1.2,1.1,1.2,1.6
					v4C265.5,261.2,265,261.5,264.3,261.3z"/>
				<path class="st3" d="M264.7,261.5c-0.2,0-0.4,0-0.5,0l0,0c-0.7-0.2-1.4-1.1-1.4-1.8v-4c0-0.4,0.2-0.7,0.4-0.9
					c0.4-0.2,0.7-0.2,1.1-0.2c0.7,0.2,1.4,1.1,1.4,1.8v4c0,0.4-0.2,0.7-0.4,0.9C265.2,261.5,264.8,261.5,264.7,261.5z M263.8,255
					c-0.2,0-0.4,0-0.5,0.2c-0.2,0.2-0.4,0.4-0.2,0.5v4c0,0.5,0.5,1.2,1.2,1.6l0,0c0.4,0.2,0.7,0.2,0.9,0c0.2-0.2,0.4-0.4,0.2-0.5v-4
					c0-0.5-0.5-1.2-1.2-1.6C264,255,263.8,255,263.8,255z"/>
			</g>
		</g>
		<g>
			
				<linearGradient id="SVGID_28_" gradientUnits="userSpaceOnUse" x1="494.5068" y1="1219.2909" x2="507.0886" y2="1219.2909" gradientTransform="matrix(1 0 0 1 -196.6846 -957)">
				<stop  offset="0" style="stop-color:#EEEBC2;stop-opacity:0.3"/>
				<stop  offset="0.5642" style="stop-color:#F8F6C1;stop-opacity:0.4128"/>
				<stop  offset="1" style="stop-color:#FFFFC0;stop-opacity:0.5"/>
			</linearGradient>
			<path class="st46" d="M310.2,259.6l-12.1,6.7c-0.2,0-0.4,0-0.4-0.2v-0.9c0-0.2,0-0.2,0.2-0.2l12.1-6.7c0.2,0,0.4,0,0.4,0.2v0.9
				C310.4,259.4,310.4,259.4,310.2,259.6z"/>
			
				<linearGradient id="SVGID_29_" gradientUnits="userSpaceOnUse" x1="503.4231" y1="1199.1343" x2="526.6569" y2="1199.1343" gradientTransform="matrix(1 0 0 1 -196.6846 -957)">
				<stop  offset="0" style="stop-color:#EEEBC2;stop-opacity:0.3"/>
				<stop  offset="0.5642" style="stop-color:#F8F6C1;stop-opacity:0.4128"/>
				<stop  offset="1" style="stop-color:#FFFFC0;stop-opacity:0.5"/>
			</linearGradient>
			<path class="st47" d="M329.9,237l-22.8,12.6c-0.2,0-0.4,0-0.4-0.2v-1.9c0,0,0-0.2,0.2-0.2l22.8-12.6c0.2,0,0.4,0,0.4,0.2v1.9
				C329.9,237,329.9,237,329.9,237z"/>
			
				<linearGradient id="SVGID_30_" gradientUnits="userSpaceOnUse" x1="494.5453" y1="1218.8527" x2="518.2694" y2="1218.8527" gradientTransform="matrix(1 0 0 1 -196.6846 -957)">
				<stop  offset="0" style="stop-color:#EEEBC2;stop-opacity:0.3"/>
				<stop  offset="0.5642" style="stop-color:#F8F6C1;stop-opacity:0.4128"/>
				<stop  offset="1" style="stop-color:#FFFFC0;stop-opacity:0.5"/>
			</linearGradient>
			<path class="st48" d="M321.5,256.1l-23.3,12.8c-0.2,0-0.4,0-0.4-0.2v-0.9c0,0,0-0.2,0.2-0.2l23.3-12.8c0.2,0,0.4,0,0.4,0.2v0.9
				C321.6,256.1,321.5,256.1,321.5,256.1z"/>
			
				<linearGradient id="SVGID_31_" gradientUnits="userSpaceOnUse" x1="494.7859" y1="1237.2566" x2="518.5116" y2="1237.2566" gradientTransform="matrix(1 0 0 1 -196.6846 -957)">
				<stop  offset="0" style="stop-color:#EEEBC2;stop-opacity:0.3"/>
				<stop  offset="0.5642" style="stop-color:#F8F6C1;stop-opacity:0.4128"/>
				<stop  offset="1" style="stop-color:#FFFFC0;stop-opacity:0.5"/>
			</linearGradient>
			<path class="st49" d="M321.6,274.5l-23.3,12.8c-0.2,0-0.4,0-0.4-0.2v-0.9c0,0,0-0.2,0.2-0.2l23.3-12.8c0.2,0,0.4,0,0.4,0.2v0.9
				C321.8,274.3,321.8,274.5,321.6,274.5z"/>
			
				<linearGradient id="SVGID_32_" gradientUnits="userSpaceOnUse" x1="494.5861" y1="1221.0437" x2="531.6884" y2="1221.0437" gradientTransform="matrix(1 0 0 1 -196.6846 -957)">
				<stop  offset="0" style="stop-color:#EEEBC2;stop-opacity:0.3"/>
				<stop  offset="0.5642" style="stop-color:#F8F6C1;stop-opacity:0.4128"/>
				<stop  offset="1" style="stop-color:#FFFFC0;stop-opacity:0.5"/>
			</linearGradient>
			<path class="st50" d="M335,257.3l-36.6,20.2c-0.2,0-0.4,0-0.4-0.2V271c0,0,0-0.2,0.2-0.2l36.5-20.2c0.2,0,0.4,0,0.4,0.2v6.3
				V257.3z"/>
			
				<linearGradient id="SVGID_33_" gradientUnits="userSpaceOnUse" x1="495.1266" y1="1266.4398" x2="507.7076" y2="1266.4398" gradientTransform="matrix(1 0 0 1 -196.6846 -957)">
				<stop  offset="0" style="stop-color:#EEEBC2;stop-opacity:0.3"/>
				<stop  offset="0.5642" style="stop-color:#F8F6C1;stop-opacity:0.4128"/>
				<stop  offset="1" style="stop-color:#FFFFC0;stop-opacity:0.5"/>
			</linearGradient>
			<path class="st51" d="M310.9,306.7l-12.1,6.7c-0.2,0-0.4,0-0.4-0.2v-0.9c0,0,0-0.2,0.2-0.2l12.1-6.7c0.2,0,0.4,0,0.4,0.2v0.9
				C310.9,306.5,310.9,306.7,310.9,306.7z"/>
			
				<linearGradient id="SVGID_34_" gradientUnits="userSpaceOnUse" x1="495.1852" y1="1265.5635" x2="532.2882" y2="1265.5635" gradientTransform="matrix(1 0 0 1 -196.6846 -957)">
				<stop  offset="0" style="stop-color:#EEEBC2;stop-opacity:0.3"/>
				<stop  offset="0.5642" style="stop-color:#F8F6C1;stop-opacity:0.4128"/>
				<stop  offset="1" style="stop-color:#FFFFC0;stop-opacity:0.5"/>
			</linearGradient>
			<path class="st52" d="M335.5,301.8L298.9,322c-0.2,0-0.4,0-0.4-0.2v-6.3c0,0,0-0.2,0.2-0.2l36.6-20.2c0.2,0,0.4,0,0.4,0.2v6.3
				C335.7,301.6,335.5,301.6,335.5,301.8z"/>
			
				<linearGradient id="SVGID_35_" gradientUnits="userSpaceOnUse" x1="494.8346" y1="1247.634" x2="518.944" y2="1247.634" gradientTransform="matrix(1 0 0 1 -196.6846 -957)">
				<stop  offset="0" style="stop-color:#EEEBC2;stop-opacity:0.3"/>
				<stop  offset="0.5642" style="stop-color:#F8F6C1;stop-opacity:0.4128"/>
				<stop  offset="1" style="stop-color:#FFFFC0;stop-opacity:0.5"/>
			</linearGradient>
			<path class="st53" d="M322.2,291.6l-23.5,13c-0.2,0.2-0.4,0-0.4-0.2l-0.2-14.7c0,0,0-0.2,0.2-0.2l23.5-13c0.2,0,0.4,0,0.4,0.2
				l0.2,14.7C322.3,291.6,322.2,291.6,322.2,291.6z"/>
			
				<linearGradient id="SVGID_36_" gradientUnits="userSpaceOnUse" x1="521.564" y1="1236.6431" x2="532.0449" y2="1236.6431" gradientTransform="matrix(1 0 0 1 -196.6846 -957)">
				<stop  offset="0" style="stop-color:#EEEBC2;stop-opacity:0.3"/>
				<stop  offset="0.5642" style="stop-color:#F8F6C1;stop-opacity:0.4128"/>
				<stop  offset="1" style="stop-color:#FFFFC0;stop-opacity:0.5"/>
			</linearGradient>
			<path class="st54" d="M335.3,284.5l-9.8,5.4c-0.2,0-0.4,0-0.4-0.2L325,275c0,0,0-0.2,0.2-0.2l9.8-5.4c0.2,0,0.4,0,0.4,0.2
				l0.2,14.7C335.3,284.3,335.3,284.5,335.3,284.5z"/>
		</g>
		<g>
			<path class="st55" d="M40.3,317.2l145.1-83.8c4-2.3,6.5-6.7,6.5-11.4V74l-0.9-1.6l-5.1-2.6c-0.9-0.7-1.9-0.7-2.8-0.2l-143.7,82
				c-4.9,2.8-7.9,8.1-7.9,13.7l-0.2,145.3C31.4,314.4,38,318.1,40.3,317.2z"/>
			<path class="st3" d="M39.4,317.6c-1.2,0-3.2-0.7-4.7-1.9c-2.3-1.6-3.5-3.3-3.5-5.1l0.2-145.3c0-5.8,3.2-11,8.1-13.8L183,69.6
				c1.1-0.5,2.1-0.5,3,0.2l5.1,2.6l0,0c1.1,1.6,1.1,1.6,1.1,1.6v148.1c0,4.7-2.6,9.1-6.7,11.6L40.3,317.4l0,0
				C40.1,317.6,39.8,317.6,39.4,317.6z M184.2,69.6c-0.4,0-0.9,0.2-1.2,0.4L39.6,151.8c-4.7,2.8-7.9,7.9-7.9,13.5l-0.2,145.3
				c0,1.6,1.2,3.3,3.3,4.7c1.9,1.4,4.2,2.1,5.1,1.8l145.1-83.8c4-2.3,6.5-6.7,6.5-11.2V74.1c-0.2-0.2-0.5-0.9-0.9-1.4l-5.1-2.6
				C185.3,69.8,184.7,69.6,184.2,69.6z"/>
		</g>
		<g>
			
				<linearGradient id="SVGID_37_" gradientUnits="userSpaceOnUse" x1="233.3247" y1="1084.01" x2="388.6181" y2="1084.01" gradientTransform="matrix(1 0 0 1 -196.6846 -957)">
				<stop  offset="0" style="stop-color:#FFFFFF"/>
				<stop  offset="1" style="stop-color:#D1FFC0"/>
			</linearGradient>
			<path class="st56" d="M191.9,74.7V92L36.6,181.9v-13c0-5.6,3-10.9,7.9-13.7l143.5-82.9C189.8,71.5,191.9,72.7,191.9,74.7z"/>
			<path class="st3" d="M36.5,182.3V169c0-5.8,3.2-11,8.1-13.8l143.5-82.9c0.9-0.5,1.9-0.5,2.6,0c0.9,0.5,1.4,1.4,1.4,2.3V92h-0.2
				L36.5,182.3z M189.5,72.2c-0.4,0-0.7,0.2-1.2,0.4L44.7,155.5c-4.7,2.8-7.9,7.9-7.9,13.5v12.6l154.8-89.7V74.7
				c0-0.9-0.4-1.6-1.1-1.9C190.2,72.4,189.8,72.2,189.5,72.2z"/>
		</g>
		<g>
			
				<rect x="245.9" y="126.7" transform="matrix(0.8626 -0.506 0.506 0.8626 -30.3893 141.918)" class="st3" width="0.2" height="0.4"/>
		</g>
		<g>
			<polygon class="st3" points="130.8,181.8 130.8,181.8 131,182.1 131,182.1 			"/>
		</g>
		<g>
			<path class="st3" d="M291.1,211.2C291.1,211.2,291,211.2,291.1,211.2c-0.4-0.2-0.4-0.2-0.4-0.4c0-0.4,0.2-0.7,0.4-0.7l11.2-6.3
				c0.2,0,0.2,0,0.4,0c0.2,0,0.2,0.2,0.2,0.4c0,0.4-0.2,0.7-0.4,0.7l-11.2,6.3H291.1z M302.5,203.8L302.5,203.8l-11.4,6.3
				c-0.2,0-0.2,0.4-0.2,0.5c0,0.2,0,0.2,0,0.2s0,0,0.2,0l11.2-6.3C302.5,204.5,302.7,204.2,302.5,203.8
				C302.7,204,302.7,203.8,302.5,203.8L302.5,203.8z"/>
		</g>
		<g>
			<circle class="st36" cx="302" cy="258.2" r="1.4"/>
			<circle class="st57" cx="302" cy="258.2" r="1.1"/>
		</g>
		<g>
			<circle class="st36" cx="334.3" cy="302.2" r="1.4"/>
			<circle class="st37" cx="334.3" cy="302.2" r="1.1"/>
		</g>
		<g class="st58">
			<path class="st59" d="M346,370c0,6.5-5.3,11.7-11.7,11.7c-6.5,0-11.7-5.3-11.7-11.7s5.3-11.7,11.7-11.7
				C340.7,358.3,346,363.5,346,370z"/>
			<path class="st60" d="M342.7,370c0,4.6-3.7,8.2-8.2,8.2c-4.6,0-8.2-3.7-8.2-8.2c0-4.6,3.7-8.2,8.2-8.2
				C338.8,361.8,342.7,365.4,342.7,370z"/>
		</g>
		<g>
			<circle class="st36" cx="59.4" cy="157.2" r="6.3"/>
			<circle class="st61" cx="59.4" cy="157.2" r="4.4"/>
		</g>
		<g>
			<path d="M322.7,204.2v-1.6c0-0.2-0.2-0.4-0.4-0.2l-45.2,26.8c-0.2,0-0.2,0.2-0.2,0.4v1.8L322.7,204.2z"/>
			<path d="M322.7,208.4v-1.6c0-0.2-0.2-0.4-0.4-0.2l-45.2,26.8c-0.2,0-0.2,0.2-0.2,0.4v1.8L322.7,208.4z"/>
			<path d="M322.7,212.2v-1.6c0-0.2-0.2-0.4-0.4-0.2l-45.2,26.8c-0.2,0-0.2,0.2-0.2,0.4v1.8L322.7,212.2z"/>
			<path d="M322.7,215.9v-1.6c0-0.2-0.2-0.4-0.4-0.2L277.1,241c-0.2,0-0.2,0.2-0.2,0.4v1.8L322.7,215.9z"/>
		</g>
		<g>
			<g>
				<path class="st35" d="M271.7,192.6c-0.2,0-0.4,0-0.4,0l-7.2-2.5c-0.4-0.2-0.4-0.4-0.2-0.5c0.2-0.2,0.7-0.2,1.1,0 M257.3,187.9
					c-0.2,0-0.4,0-0.4,0l-7.2-2.5c-0.4-0.2-0.4-0.4-0.2-0.5c0.2-0.2,0.7-0.2,1.1,0l7.2,2.5c0.4,0.2,0.4,0.4,0.2,0.5
					C257.8,187.9,257.5,187.9,257.3,187.9z M242.9,183.2c-0.2,0-0.4,0-0.4,0l-7.2-2.5c-0.4-0.2-0.4-0.4-0.2-0.5
					c0.2-0.2,0.7-0.2,1.1,0l7.2,2.5c0.4,0.2,0.4,0.4,0.2,0.5C243.5,183,243.1,183.2,242.9,183.2z M228.6,178.4c-0.2,0-0.4,0-0.4,0
					L221,176c-0.4-0.2-0.4-0.4-0.2-0.5c0.2-0.2,0.7-0.2,1.1,0l7.2,2.5c0.4,0.2,0.4,0.4,0.2,0.5C229.1,178.2,228.9,178.4,228.6,178.4
					z M214.2,173.5c-0.2,0-0.4,0-0.4,0l-7.2-2.5c-0.4-0.2-0.4-0.4-0.2-0.5c0.2-0.2,0.7-0.2,1.1,0l7.2,2.5c0.4,0.2,0.4,0.4,0.2,0.5
					C214.7,173.5,214.5,173.5,214.2,173.5z"/>
			</g>
		</g>
		<g>
			<g>
				<path class="st35" d="M335.3,356.9c0-0.2,0-0.2,0-0.4l-0.2-5.4c0-0.2,0.2-0.4,0.4-0.2c0.2,0.2,0.4,0.4,0.4,0.7 M335.1,346
					c0-0.2,0-0.2,0-0.4l-0.2-5.4c0-0.2,0.2-0.4,0.4-0.2c0.2,0.2,0.4,0.4,0.4,0.7l0.2,5.4c0,0.2-0.2,0.4-0.4,0.2
					C335.1,346.2,335.1,346,335.1,346z M334.8,334.9c0-0.2,0-0.2,0-0.4l-0.2-5.4c0-0.2,0.2-0.4,0.4-0.2c0.2,0.2,0.4,0.4,0.4,0.7
					l0.2,5.4c0,0.2-0.2,0.4-0.4,0.2C335,335.3,335,335.1,334.8,334.9z M334.6,324.1c0-0.2,0-0.2,0-0.4l-0.2-5.4
					c0-0.2,0.2-0.4,0.4-0.2s0.4,0.4,0.4,0.7l0.2,5.4c0,0.2-0.2,0.4-0.4,0.2C334.8,324.3,334.8,324.1,334.6,324.1z M334.4,313
					c0-0.2,0-0.2,0-0.4l-0.2-5.4c0-0.2,0.2-0.4,0.4-0.2c0.2,0.2,0.4,0.4,0.4,0.7l0.2,5.4c0,0.2-0.2,0.4-0.4,0.2
					C334.6,313.4,334.6,313.2,334.4,313z"/>
			</g>
		</g>
		<g>
			<g>
				<path class="st62" d="M337.1,374.7c0,0-1.4-1.9,0.2-4.7c1.6-2.8-0.7-4.4-0.7-4.4h1.8c0,0,1.9,1.9,0,4.6
					C336,372.6,337.1,374.7,337.1,374.7"/>
				<circle class="st62" cx="337.1" cy="374.9" r="0.5"/>
			</g>
			<g>
				<path class="st41" d="M335.5,369.3h-0.4v-0.5c0-0.5,0-0.9-0.2-1.2c-0.2-0.4-0.2-0.5-0.4-0.7c-0.2-0.2-0.4-0.2-0.5-0.4
					c-0.2,0-0.4,0-0.7,0l0,0l0,0c0,0,0,0-0.2,0H333v7.9c0,0.5,0,0.9,0.2,1.1c0,0.2,0.4,0.2,0.7,0.2h0.5v0.2h-3v-0.2h0.9v-9.3
					c-0.9,0-1.4,0.2-1.8,0.5c-0.4,0.4-0.4,0.9-0.4,1.9v0.5h-0.4v-3.7h0.4v0.5h5.1v-0.5h0.4L335.5,369.3L335.5,369.3z"/>
			</g>
		</g>
		<g>
			<g>
				<g>
					<path class="st63" d="M212.3,297.8h-163V197c0-2.6,1.1-5.4,3.2-7.5c2.1-2.1,4.7-3.2,7.4-3.2h142c2.6,0,5.4,1.1,7.4,3.2
						c2.1,2.1,3.2,4.7,3.2,7.5V297.8L212.3,297.8z"/>
				</g>
				<g class="st64">
					<rect x="69.9" y="218.2" class="st11" width="15.8" height="15.8"/>
					<rect x="175.6" y="207.7" class="st11" width="15.8" height="26.5"/>
					<rect x="69.9" y="239.4" class="st11" width="15.8" height="15.8"/>
					<rect x="69.9" y="260.5" class="st11" width="15.8" height="15.8"/>
					<g>
						<line class="st65" x1="69.9" y1="210.3" x2="75.2" y2="210.3"/>
						<line class="st65" x1="80.5" y1="210.3" x2="85.7" y2="210.3"/>
						<line class="st65" x1="91.2" y1="210.3" x2="96.4" y2="210.3"/>
					</g>
					<g>
						<line class="st65" x1="175.6" y1="242" x2="191.4" y2="242"/>
						<line class="st65" x1="175.6" y1="252.6" x2="191.4" y2="252.6"/>
						<line class="st65" x1="175.6" y1="263.1" x2="191.4" y2="263.1"/>
						<line class="st65" x1="175.6" y1="273.8" x2="191.4" y2="273.8"/>
					</g>
				</g>
			</g>
			<g id="Layer_2_3_">
				<g>
					<g>
						<g>
							<path class="st62" d="M135.1,250.8c0,0-1.2-1.6,0.2-4c1.4-2.3-0.7-3.7-0.7-3.7h1.4c0,0,1.8,1.6,0,3.9
								C134.3,249.1,135.1,250.8,135.1,250.8"/>
							<circle class="st62" cx="135.3" cy="251" r="0.4"/>
						</g>
						<text transform="matrix(1.0027 0 0 1 129.0527 251.5176)" class="st41 st66 st67">T</text>
					</g>
				</g>
			</g>
			<g>
				<g>
					<g>
						
							<rect x="131.2" y="224.7" transform="matrix(0.7072 -0.707 0.707 0.7072 -120.8836 159.632)" class="st68" width="2.1" height="2.1"/>
						
							<rect x="152.7" y="246.3" transform="matrix(0.707 -0.7072 0.7072 0.707 -129.8664 181.2187)" class="st68" width="2.1" height="2.1"/>
						
							<rect x="109.9" y="246.2" transform="matrix(0.707 -0.7072 0.7072 0.707 -142.3443 150.9229)" class="st68" width="2.1" height="2.1"/>
						
							<rect x="131.3" y="267.7" transform="matrix(0.7072 -0.707 0.707 0.7072 -151.2333 172.2352)" class="st68" width="2.1" height="2.1"/>
						<line class="st69" x1="134.3" y1="227.7" x2="152" y2="245.4"/>
						<line class="st69" x1="112.9" y1="249.2" x2="130.4" y2="266.8"/>
						<line class="st69" x1="152" y1="249.2" x2="134.3" y2="266.8"/>
						<line class="st69" x1="130.4" y1="227.7" x2="112.9" y2="245.4"/>
					</g>
				</g>
			</g>
		</g>
	</g>
</g>
</svg>
