<?xml version="1.0" encoding="utf-8"?>
<!-- Generator: Adobe Illustrator 16.0.0, SVG Export Plug-In . SVG Version: 6.00 Build 0)  -->
<!DOCTYPE svg PUBLIC "-//W3C//DTD SVG 1.1//EN" "http://www.w3.org/Graphics/SVG/1.1/DTD/svg11.dtd">
<svg version="1.1" id="Layer_1" xmlns="http://www.w3.org/2000/svg" xmlns:xlink="http://www.w3.org/1999/xlink" x="0px" y="0px"
	 width="374px" height="448px" viewBox="0 0 374 448" enable-background="new 0 0 374 448" xml:space="preserve">
<g id="Layer_1_1_" display="none">
	<g display="inline" opacity="0.1">
		<g>
			<g>
				<g>
					<path fill="#0074BC" d="M256.271,318.878c0,4.901-1.871,9.804-5.609,13.538c-3.735,3.738-8.639,5.609-13.537,5.609h-99.556
						c-4.898,0-9.801-1.871-13.537-5.609c-3.74-3.734-5.609-8.637-5.609-13.538V127.425c0-4.9,1.87-9.8,5.609-13.538
						c3.736-3.738,8.639-5.609,13.537-5.609h99.556c4.898,0,9.802,1.871,13.537,5.609c3.738,3.738,5.609,8.637,5.609,13.538V318.878
						z"/>
					<rect x="126.083" y="146.567" fill="#FFFFFF" width="122.53" height="153.167"/>
					
						<line fill="none" stroke="#FFFFFF" stroke-width="0.75" stroke-miterlimit="10" x1="172.031" y1="127.425" x2="202.665" y2="127.425"/>
					
						<line fill="none" stroke="#FFFFFF" stroke-width="0.75" stroke-linecap="round" stroke-miterlimit="10" x1="179.688" y1="318.878" x2="195.007" y2="318.878"/>
				</g>
				<g>
					
						<line fill="none" stroke="#4D4D4D" stroke-width="0.75" stroke-miterlimit="10" x1="168.202" y1="280.589" x2="175.86" y2="280.589"/>
					
						<line fill="none" stroke="#4D4D4D" stroke-width="0.75" stroke-miterlimit="10" x1="183.52" y1="280.589" x2="191.176" y2="280.589"/>
					
						<line fill="none" stroke="#4D4D4D" stroke-width="0.75" stroke-miterlimit="10" x1="198.835" y1="280.589" x2="206.492" y2="280.589"/>
				</g>
			</g>
		</g>
	</g>
	<g display="inline" opacity="0.05">
		<g>
			<g>
				<g>
					<path fill="#0074BC" d="M240.477,302.333c0,4.897-1.871,9.8-5.606,13.535c-3.736,3.739-8.64,5.61-13.537,5.61h-99.556
						c-4.898,0-9.801-1.871-13.537-5.61c-3.74-3.735-5.609-8.638-5.609-13.535V110.878c0-4.9,1.869-9.8,5.609-13.537
						c3.736-3.739,8.639-5.61,13.537-5.61h99.556c4.897,0,9.801,1.871,13.537,5.61c3.735,3.737,5.606,8.637,5.606,13.537V302.333z"
						/>
					<rect x="110.287" y="130.021" fill="#FFFFFF" width="122.529" height="153.167"/>
					
						<line fill="none" stroke="#FFFFFF" stroke-width="0.75" stroke-miterlimit="10" x1="156.235" y1="110.878" x2="186.869" y2="110.878"/>
					
						<line fill="none" stroke="#FFFFFF" stroke-width="0.75" stroke-linecap="round" stroke-miterlimit="10" x1="163.894" y1="302.333" x2="179.213" y2="302.333"/>
				</g>
				<g>
					
						<line fill="none" stroke="#4D4D4D" stroke-width="0.75" stroke-miterlimit="10" x1="152.407" y1="264.041" x2="160.065" y2="264.041"/>
					
						<line fill="none" stroke="#4D4D4D" stroke-width="0.75" stroke-miterlimit="10" x1="167.724" y1="264.041" x2="175.381" y2="264.041"/>
					
						<line fill="none" stroke="#4D4D4D" stroke-width="0.75" stroke-miterlimit="10" x1="183.04" y1="264.041" x2="190.697" y2="264.041"/>
				</g>
			</g>
		</g>
	</g>
	<g display="inline">
		<g>
			<path fill="#D8E1E5" d="M223.764,243.141c0,6.252-19.008,11.326-42.472,11.326c-23.462,0-42.472-5.074-42.472-11.326
				c0-6.255,19.009-11.326,42.472-11.326C204.756,231.814,223.764,236.886,223.764,243.141z"/>
			<g>
				<g>
					
						<line fill="none" stroke="#FFFFFF" stroke-width="2" stroke-miterlimit="10" x1="174.213" y1="243.141" x2="177.045" y2="243.141"/>
					
						<line fill="none" stroke="#FFFFFF" stroke-width="2" stroke-miterlimit="10" x1="179.876" y1="243.141" x2="182.707" y2="243.141"/>
					
						<line fill="none" stroke="#FFFFFF" stroke-width="2" stroke-miterlimit="10" x1="185.54" y1="243.141" x2="188.371" y2="243.141"/>
				</g>
			</g>
			<g>
				<g>
					<path fill="none" stroke="#4D4D4D" stroke-width="2" stroke-miterlimit="10" d="M164.302,219.073
						c4.729,3.553,10.619,5.663,16.99,5.663c15.644,0,28.315-12.671,28.315-28.314"/>
					
						<line fill="none" stroke="#4D4D4D" stroke-width="2" stroke-miterlimit="10" x1="181.292" y1="220.489" x2="181.292" y2="228.982"/>
				</g>
				<polygon fill="#383B3D" points="206.775,234.646 201.111,234.646 185.54,204.916 177.045,204.916 161.472,234.646 
					155.809,234.646 171.382,193.591 181.292,196.422 191.203,193.591 				"/>
				<g>
					<polygon fill="#FFFFFF" points="155.809,234.646 151.562,244.557 158.64,234.646 					"/>
					<polygon fill="#FFFFFF" points="206.775,234.646 211.021,244.557 203.943,234.646 					"/>
				</g>
				<path fill="#4D4D4D" d="M183.295,167.521c-0.555-0.553-1.279-0.83-2.003-0.83s-1.449,0.276-2.003,0.83
					c-0.554,0.554-0.83,1.278-0.83,2.002v8.494h5.663v-8.494C184.122,168.799,183.846,168.074,183.295,167.521z"/>
				<g>
					<path fill="#0C78BA" d="M181.292,175.186c-7.037,0-12.742,5.704-12.742,12.742c0,7.038,5.705,12.742,12.742,12.742
						s12.741-5.705,12.741-12.742C194.033,180.891,188.329,175.186,181.292,175.186z M181.292,196.422
						c-4.692,0-8.494-3.802-8.494-8.495c0-4.692,3.802-8.494,8.494-8.494s8.495,3.801,8.495,8.494
						C189.787,192.62,185.984,196.422,181.292,196.422z"/>
					<circle fill="none" stroke="#4D4D4D" stroke-width="2" stroke-miterlimit="10" cx="181.292" cy="187.927" r="8.495"/>
				</g>
			</g>
		</g>
	</g>
	<g display="inline">
		<text transform="matrix(1.1569 0 0 1 182.917 592.7344)" fill="#AD6B2E" font-family="'EdwardianScriptITC'" font-size="74.4924">C</text>
		
			<text transform="matrix(1.1569 0 0 1 251.5908 592.7344)" fill="#AD6B2E" font-family="'EdwardianScriptITC'" font-size="56.8544">rew</text>
		<g>
			<g>
				<path fill="#148E97" d="M158.321,260.176c0,0-2.188-3.049,0.252-7.33c2.44-4.283-1.183-6.92-1.183-6.92l2.7,0.045
					c0,0,3.095,2.943-0.134,6.967c-3.227,4.025-1.636,7.246-1.636,7.246"/>
				<circle fill="#148E97" cx="158.545" cy="260.438" r="0.786"/>
			</g>
			<text transform="matrix(1.0027 0 0 1 147.0879 261.4434)" fill="#626366" font-family="'Occidental'" font-size="22.0759">T</text>
		</g>
	</g>
	<circle display="inline" fill="#ABCBD6" cx="181.292" cy="187.927" r="4.248"/>
</g>
<g id="Layer_3">
	<g>
		<g>
			<g>
				<polygon fill="#0EB5E2" points="256.104,102.467 202.197,102.467 171.873,153.004 256.104,153.004 				"/>
				<polygon fill="#0EB5E2" points="256.104,153.004 171.873,153.004 202.197,203.543 256.104,203.543 				"/>
				<polygon fill="#4989B8" points="286.421,153.004 256.104,102.467 225.78,153.004 256.104,203.543 				"/>
			</g>
			<g opacity="0.1">
				<polygon fill="#0EB5E2" points="233.957,102.467 180.05,102.467 149.729,153.004 233.957,153.004 				"/>
				<polygon fill="#0EB5E2" points="233.957,153.004 149.729,153.004 180.05,203.543 233.957,203.543 				"/>
				<polygon fill="#4989B8" points="264.277,153.004 233.957,102.467 203.636,153.004 233.957,203.543 				"/>
			</g>
			<g>
				<polygon fill="#88BED8" points="140.211,174.559 86.305,174.559 55.982,225.097 140.211,225.097 				"/>
				<polygon fill="#88BED8" points="140.211,225.097 55.982,225.097 86.305,275.632 140.211,275.632 				"/>
				<polygon fill="#B9DBED" points="170.532,225.097 140.211,174.559 109.889,225.097 140.211,275.632 				"/>
			</g>
			<g opacity="0.3">
				<polygon fill="#88BED8" points="144.657,202.907 90.748,202.907 60.427,253.443 144.657,253.443 				"/>
				<polygon fill="#88BED8" points="144.657,253.443 60.427,253.443 90.748,303.98 144.657,303.98 				"/>
				<polygon fill="#B9DBED" points="174.977,253.443 144.657,202.907 114.334,253.443 144.657,303.98 				"/>
			</g>
			<g>
				<polygon fill="none" stroke="#4D4D4D" stroke-width="2" stroke-miterlimit="10" points="283.056,297.187 256.104,250.016 
					202.194,250.016 175.24,297.187 202.194,344.354 256.104,344.354 				"/>
				<polyline fill="none" stroke="#4D4D4D" stroke-width="2" stroke-miterlimit="10" points="256.104,250.016 229.147,297.187 
					256.104,344.354 				"/>
				
					<line fill="none" stroke="#4D4D4D" stroke-width="2" stroke-miterlimit="10" x1="229.147" y1="297.187" x2="175.24" y2="297.187"/>
			</g>
			<g opacity="0.1">
				<polygon fill="none" stroke="#4D4D4D" stroke-width="2" stroke-miterlimit="10" points="309.146,276.445 282.193,229.277 
					228.286,229.277 201.333,276.445 228.286,323.612 282.193,323.612 				"/>
				<polyline fill="none" stroke="#4D4D4D" stroke-width="2" stroke-miterlimit="10" points="282.193,229.277 255.238,276.445 
					282.193,323.612 				"/>
				
					<line fill="none" stroke="#4D4D4D" stroke-width="2" stroke-miterlimit="10" x1="255.238" y1="276.445" x2="201.333" y2="276.445"/>
			</g>
			<g>
				
					<line fill="none" stroke="#0CE9F4" stroke-width="2" stroke-miterlimit="10" x1="219.755" y1="228.801" x2="213.016" y2="228.801"/>
				
					<line fill="none" stroke="#0CE9F4" stroke-width="2" stroke-miterlimit="10" x1="168.439" y1="184.011" x2="164.507" y2="178.538"/>
				
					<line fill="none" stroke="#0CE9F4" stroke-width="2" stroke-miterlimit="10" x1="175.654" y1="253.46" x2="172.107" y2="259.187"/>
				
					<line fill="none" stroke="#0CE9F4" stroke-width="2" stroke-miterlimit="10" x1="256.792" y1="228.801" x2="250.054" y2="228.801"/>
				
					<line fill="none" stroke="#0CE9F4" stroke-width="2" stroke-miterlimit="10" x1="166.026" y1="269.017" x2="162.478" y2="274.744"/>
				
					<line fill="none" stroke="#0CE9F4" stroke-width="2" stroke-miterlimit="10" x1="151.211" y1="291.238" x2="147.662" y2="296.967"/>
			</g>
		</g>
	</g>
	<g id="Layer_2_2_">
		<g>
			<g>
				<g>
					<path fill="#148E97" d="M198.048,235.743c0,0-2.385-3.324,0.273-7.989c2.66-4.668-1.29-7.544-1.29-7.544l2.943,0.052
						c0,0,3.374,3.206-0.146,7.595c-3.52,4.383-1.787,7.897-1.787,7.897"/>
					<circle fill="#148E97" cx="198.291" cy="236.03" r="0.857"/>
				</g>
				<text transform="matrix(1.0027 0 0 1 185.8018 237.126)" fill="#626366" font-family="'Occidental'" font-size="24.0658">T</text>
			</g>
		</g>
	</g>
</g>
<g id="Layer_2" display="none">
	<g display="inline">
		<g>
			<g>
				<path opacity="0.5" fill="#E4E8EA" stroke="#024B68" stroke-miterlimit="10" enable-background="new    " d="M700.688,295.143
					H399.618V109.244c0-5.006,1.896-10.013,5.688-13.836c3.789-3.822,8.767-5.732,13.733-5.732h262.225
					c4.975,0,9.946,1.91,13.733,5.732c3.793,3.823,5.688,8.83,5.688,13.836L700.688,295.143L700.688,295.143z"/>
				<path fill="#8DA9B7" d="M701.312,314.156c0,4.994-1.905,9.986-5.721,13.797c-3.807,3.812-8.806,5.719-13.797,5.719H418.338
					c-4.992,0-9.991-1.906-13.798-5.719c-3.812-3.811-5.717-8.803-5.717-13.797v-19.516H701.31v19.516H701.312z"/>
				<polygon fill="#46839B" points="593.977,372.703 506.158,372.703 511.037,333.672 589.098,333.672 				"/>
				<polygon fill="#46839B" points="603.735,371.389 496.4,371.389 491.521,381.146 608.613,381.146 				"/>
			</g>
			<g opacity="0.5">
				<rect x="437.854" y="148.276" fill="#FFFFFF" width="29.273" height="29.273"/>
				<rect x="633.007" y="128.76" fill="#FFFFFF" width="29.274" height="48.789"/>
				<rect x="437.854" y="187.306" fill="#FFFFFF" width="29.273" height="29.273"/>
				<rect x="437.854" y="226.338" fill="#FFFFFF" width="29.273" height="29.273"/>
				<g>
					
						<line fill="none" stroke="#4D4D4D" stroke-width="2" stroke-miterlimit="10" x1="437.854" y1="133.639" x2="447.611" y2="133.639"/>
					
						<line fill="none" stroke="#4D4D4D" stroke-width="2" stroke-miterlimit="10" x1="457.369" y1="133.639" x2="467.127" y2="133.639"/>
					
						<line fill="none" stroke="#4D4D4D" stroke-width="2" stroke-miterlimit="10" x1="476.885" y1="133.639" x2="486.642" y2="133.639"/>
				</g>
				<g>
					
						<line fill="none" stroke="#4D4D4D" stroke-width="2" stroke-miterlimit="10" x1="633.007" y1="192.185" x2="662.281" y2="192.185"/>
					
						<line fill="none" stroke="#4D4D4D" stroke-width="2" stroke-miterlimit="10" x1="633.007" y1="211.701" x2="662.281" y2="211.701"/>
					
						<line fill="none" stroke="#4D4D4D" stroke-width="2" stroke-miterlimit="10" x1="633.007" y1="231.215" x2="662.281" y2="231.215"/>
					
						<line fill="none" stroke="#4D4D4D" stroke-width="2" stroke-miterlimit="10" x1="633.007" y1="250.732" x2="662.281" y2="250.732"/>
				</g>
			</g>
			<g opacity="0.3">
				<path opacity="0.5" fill="#E4E8EA" stroke="#024B68" stroke-miterlimit="10" enable-background="new    " d="M724.877,294.656
					H389.311V87.458c0-5.579,2.115-11.16,6.347-15.421c4.224-4.26,9.768-6.389,15.308-6.389H703.23
					c5.541,0,11.085,2.129,15.306,6.389c4.229,4.261,6.343,9.842,6.343,15.421v207.198H724.877z"/>
				<path fill="#8DA9B7" d="M725.572,315.848c0,5.566-2.124,11.131-6.373,15.379c-4.241,4.248-9.813,6.373-15.378,6.373H410.178
					c-5.562,0-11.135-2.125-15.378-6.373c-4.248-4.248-6.373-9.812-6.373-15.379v-21.752h337.146L725.572,315.848L725.572,315.848z"
					/>
				<polygon fill="#46839B" points="605.94,381.104 508.06,381.104 513.498,337.6 600.504,337.6 				"/>
				<polygon fill="#46839B" points="616.817,379.639 497.185,379.639 491.746,390.514 622.254,390.514 				"/>
			</g>
		</g>
	</g>
	<g id="Layer_2_3_" display="inline">
		<g>
			<g>
				<g>
					<path fill="#148E97" d="M558.232,208.483c0,0-2.188-3.049,0.252-7.332c2.438-4.281-1.187-6.918-1.187-6.918l2.7,0.045
						c0,0,3.095,2.943-0.134,6.967c-3.229,4.023-1.64,7.246-1.64,7.246"/>
					<circle fill="#148E97" cx="558.457" cy="208.747" r="0.785"/>
				</g>
				<text transform="matrix(1.0027 0 0 1 547 209.75)" fill="#626366" font-family="'Occidental'" font-size="22.0759">T</text>
			</g>
		</g>
	</g>
	<g display="inline">
		<g>
			<g>
				
					<rect x="551.041" y="160.27" transform="matrix(-0.7069 -0.7074 0.7074 -0.7069 829.1841 668.167)" fill="none" stroke="#009EFF" stroke-width="2" stroke-miterlimit="10" width="4.001" height="4"/>
				
					<rect x="590.695" y="199.884" transform="matrix(-0.707 -0.7072 0.7072 -0.707 868.9913 763.76)" fill="none" stroke="#009EFF" stroke-width="2" stroke-miterlimit="10" width="4" height="4"/>
				
					<rect x="511.498" y="199.885" transform="matrix(-0.707 -0.7072 0.7072 -0.707 733.7984 707.7554)" fill="none" stroke="#009EFF" stroke-width="2" stroke-miterlimit="10" width="4" height="4"/>
				
					<rect x="551.097" y="239.482" transform="matrix(-0.707 -0.7072 0.7072 -0.707 773.3446 803.3719)" fill="none" stroke="#009EFF" stroke-width="2" stroke-miterlimit="10" width="4" height="4"/>
				
					<line fill="none" stroke="#009EFF" stroke-width="2" stroke-miterlimit="10" stroke-dasharray="2" x1="556.634" y1="165.827" x2="589.161" y2="198.354"/>
				
					<line fill="none" stroke="#009EFF" stroke-width="2" stroke-miterlimit="10" stroke-dasharray="2" x1="517.036" y1="205.424" x2="549.562" y2="237.951"/>
				
					<line fill="none" stroke="#009EFF" stroke-width="2" stroke-miterlimit="10" stroke-dasharray="2" x1="589.161" y1="205.424" x2="556.634" y2="237.951"/>
				
					<line fill="none" stroke="#009EFF" stroke-width="2" stroke-miterlimit="10" stroke-dasharray="2" x1="549.562" y1="165.827" x2="517.036" y2="198.354"/>
			</g>
		</g>
	</g>
</g>
</svg>
