<?xml version="1.0" encoding="utf-8"?>
  <!-- Generator: Adobe Illustrator 16.0.0, SVG Export Plug-In . SVG Version: 6.00 Build 0)  -->
<!DOCTYPE svg PUBLIC "-//W3C//DTD SVG 1.1//EN" "http://www.w3.org/Graphics/SVG/1.1/DTD/svg11.dtd">
<svg version="1.1" id="Layer_1" xmlns="http://www.w3.org/2000/svg" xmlns:xlink="http://www.w3.org/1999/xlink" x="0px" y="0px"
	 width="374px" height="448px" viewBox="0 0 374 448" enable-background="new 0 0 374 448" xml:space="preserve">
<g>
	<path class="path" stroke="#17106F" stroke-miterlimit="10" fill="none" d="M12.132,280.617V77.057c0-5.279,4.298-9.576,9.585-9.576h330.556c5.281,0,9.581,4.295,9.581,9.576v203.561
		H12.132z"/>
	<rect x="28.39" y="83.903" fill="#F4F4F4" width="317.214" height="178.626"/>
	<path class="path" stroke="#17106F" stroke-miterlimit="10" fill="#D3E7FF" d="M362.838,281.009v29.429c0,5.667-4.602,10.262-10.264,10.262H22.018c-5.671,0-10.273-4.594-10.273-10.262
		v-29.429H362.838L362.838,281.009z"/>
	<path class="path" stroke="#17106F" stroke-miterlimit="10" fill="#E5E8EC" d="M126.526,364.058c0,0,2.541-1.255,5.467-2.357c3.116-1.176,6.868-2.643,9.072-3.699
		c3.875-1.856,4.203-3.079,5.652-9.416c1.578-6.914,3.056-21.516,3.654-27.886h73.236c0.597,6.37,2.073,20.972,3.656,27.886
		c1.443,6.337,1.775,7.558,5.648,9.416c2.184,1.044,5.876,2.496,8.972,3.658l0,0c2.972,1.125,5.397,1.987,5.397,1.987
		s2.351,1.304-1.43,1.491H128.123C124.57,365.206,126.526,364.058,126.526,364.058z"/>
	<path class="path" stroke="#17106F" stroke-miterlimit="10" fill="#CDD5D7" d="M149.604,328.389c0.327-3.024,0.59-5.743,0.776-7.689h73.232c0.185,1.946,0.443,4.665,0.771,7.689H149.604z
		"/>
</g>
<g>
	<polygon fill="#D9DDE2" points="173.795,294.238 173.602,259.764 121.396,259.764 121.396,294.238 	"/>
	<path class="path" stroke="#17106F" stroke-miterlimit="10" fill="#D9DDE2" d="M133.12,270.878c0.319,1.802,2.039,3.265,3.842,3.265c1.806,0,3.014-1.463,2.696-3.265
		c-0.32-1.804-2.042-3.269-3.846-3.269C134.007,267.609,132.799,269.074,133.12,270.878z"/>
</g>
<g>
	<polygon fill="#473DB3" points="173.828,291.818 173.642,258.536 123.29,258.536 123.29,291.818 	"/>
	 
</g>
<rect x="44.827" y="144.385" fill="#E2E7E6" width="158.46" height="73.997"/>
<g>
	<rect x="246.198" y="100.879" fill="#CDD5D7" width="58.057" height="6.31"/>
	<circle fill="#CDD5D7" cx="320.029" cy="104.035" r="8.201"/>
</g>
<rect x="44.827" y="102.752" fill="#1166FB" width="28.887" height="2.563"/>
<rect x="77.222" y="102.752" fill="#1166FB" width="28.885" height="2.563"/>
<rect x="109.614" y="102.752" fill="#1166FB" width="28.884" height="2.563"/>
<rect x="142.008" y="102.752" fill="#1166FB" width="28.885" height="2.563"/>
<rect x="174.402" y="102.752" fill="#1166FB" width="28.885" height="2.563"/>
<rect x="44.827" y="111.577" fill="#1166FB" width="28.887" height="2.565"/>
<rect x="77.222" y="111.577" fill="#1166FB" width="28.885" height="2.565"/>
<rect x="109.614" y="111.577" fill="#1166FB" width="28.884" height="2.565"/>
<rect x="142.008" y="111.577" fill="#1166FB" width="28.885" height="2.565"/>
<rect x="174.402" y="111.577" fill="#1166FB" width="28.885" height="2.565"/>
<rect x="44.827" y="129.226" fill="#1166FB" width="28.887" height="2.565"/>
<rect x="77.222" y="129.226" fill="#1166FB" width="28.885" height="2.565"/>
<rect x="109.614" y="129.226" fill="#1166FB" width="28.884" height="2.565"/>
<rect x="142.008" y="129.226" fill="#1166FB" width="28.885" height="2.565"/>
<rect x="174.402" y="129.226" fill="#1166FB" width="28.885" height="2.565"/>
<g>
	<rect x="241.015" y="202.039" fill="#E2E7E6" width="87.217" height="2.564"/>
	<rect x="241.015" y="210.872" fill="#E2E7E6" width="87.217" height="2.564"/>
	<rect x="241.015" y="219.707" fill="#E2E7E6" width="87.217" height="2.564"/>
	<rect x="241.015" y="228.543" fill="#E2E7E6" width="87.217" height="2.563"/>
	<rect x="265.97" y="237.375" fill="#E2E7E6" width="62.262" height="2.563"/>
	<rect x="270.177" y="187.163" fill="#E2E7E6" width="58.055" height="6.312"/>
</g>
<g>
	<path class="path" stroke="#17106F" stroke-miterlimit="10" fill="none" stroke="#194866" stroke-miterlimit="10" d="M331.083,132.795"/>
</g>
<g>
	
		<rect x="242.389" y="80.122" transform="matrix(-0.4609 -0.8874 0.8874 -0.4609 363.7241 382.0728)" fill="#194866" width="111.037" height="0.884"/>
</g>
<g>
	<g>
		<path class="path" stroke="#17106F" stroke-miterlimit="10" fill="#FFD222" d="M307.368,38.758c0,0,3.17,3.879-8.387,13.465c-11.556,9.585-13.265,6.612-13.265,6.612l-3.062-2.224
			l-1.472-11.14l5.275-1.008l0.504,0.67c0,0,1.104,0.146,1.732-0.615c0.62-0.76,4.39-3.259,10.052-9.546
			C301.358,32.073,306.764,38.006,307.368,38.758z"/>
		<path class="path" stroke="#17106F" stroke-miterlimit="10" fill="#FFD6B7" d="M281.988,46.133c0,0-10.795-0.553-10.731-11.625c0.021-3.296-1.101-0.146-1.955,2.971
			c-0.852,3.118,0.38,12.023,5.86,15.763c5.474,3.747,7.873,4.696,10.224,3.325C287.737,55.193,281.988,46.133,281.988,46.133z"/>
		<path class="path" stroke="#17106F" stroke-miterlimit="10" fill="#FFD222" d="M290.176,48.298l-1.197-2.542l-0.54-0.99c-0.628,0.48-1.473,0.37-1.473,0.37l1.262,1.713l1.098,2.306
			l0.432,3.472L290.176,48.298z"/>
	</g>
	<path class="path" stroke="#17106F" stroke-miterlimit="10" fill="#163F59" d="M338.561,52.552l-40.634,20.76l3.532,10.312c0,0,10.682-0.46,21.394-6.031
		C333.558,72.026,338.561,52.552,338.561,52.552z"/>
	<path class="path" stroke="#17106F" stroke-miterlimit="10" fill="#FFE622" d="M329.77,63.771l14.131-12.644c0,0-6.045-20.69-11.052-25.699c-6.396-6.398-18.666-7.309-24.928,0
		c-6.261,7.311-10.247,10.635-10.247,10.635S297.904,44.643,329.77,63.771z"/>
	<path class="path" stroke="#FFD6B7" stroke-miterlimit="10" fill="#FFD6B7" d="M288.627,17.968c0,0,5.469,12.196,8.848,12.061c0.146-0.005,2.047-0.986,3.514-0.669
		c1.388,0.299,1.958,1.203,2.493,1.384c0.171,0.058,0.505,0.104,0.829,0.269c1.458,0.741,2.553-0.549,2.617-1.251
		c0.078-0.857,0.98-2.917,0.86-3.609c-0.085-0.478,0.008-0.87-0.596-1.187c-1.282-0.675-3.351-2.174-3.772-3.079
		c-1.241-2.646-1.187-8.886-7.229-9.2C294.426,12.596,288.513,17.047,288.627,17.968z"/>
	<polygon fill="#FFD222" points="306.274,30.712 309.048,32.396 309.006,24.71 307.644,24.479 	"/>
	<polygon fill="#FFD222" points="303.571,30.737 302.846,29.918 303.589,31.935 306.189,34.134 306.1,31.038 	"/>
	<path class="path" stroke="#FFD6B7" stroke-miterlimit="10" fill="#FFD6B7" d="M297.351,29.871c0,0,0.244-0.404,0.646-1.206c0.132-0.268,0.534-1.038,0.823-1.349
		c1.291-1.381,1.334-1.204,1.954-2.192c0.703-1.128,1.709-3.799,1.709-3.799s0.053,1.534,0.084,2.149
		c0.061,1.145-0.38,1.968-0.845,2.576c-2.025,2.646-1.737,2.745-2.095,2.968C299.606,29.033,299.35,29.044,297.351,29.871z"/>
	<path class="path" stroke="#FFD6B7" stroke-miterlimit="10" fill="#FFD6B7" d="M291.479,22.612c0.128,0.205,0.443,2.481,0.498,2.904c0.06,0.42,0.114,0.963,0.247,1.049
		c0.131,0.084,0.685,0.231,0.913,0.268c0.227,0.038,1.13,0.224,0.727-0.716C293.46,25.174,291.479,22.612,291.479,22.612z"/>
	<path class="path" stroke="#17106F" stroke-miterlimit="10" fill="#163F59" d="M296.096,12.084c-3.104-0.454-7.147,2.473-8.476,6.966c0,0,0.514,0.619,1.853,0.589
		c0,0,0.442-3.188,3.404-4.472c3.11-1.344,1.913,1.224,3.005,1.545c0.912,0.269,1.74,0.47,1.74,0.47l1.373,1.371l0.815-0.357
		c0,0-0.596-1.98,0.091-1.687c0.826,0.355,1.372,1.783,1.468,1.978c0.094,0.191,0.248,0.516,0.368,0.514
		c0.093,0,0.462,1.122,1.651,2.696c0.366-0.203,0.524-0.953,0.122-2.153C302.605,16.845,299.885,12.634,296.096,12.084z"/>
	<path class="path" stroke="#FFD6B7" stroke-miterlimit="10" fill="#FFD6B7" d="M299.681,16.493c0.637-0.407,1.485-0.217,1.89,0.423c0.407,0.64,0.218,1.484-0.421,1.891"/>
	<path class="path" stroke="#FFD6B7" stroke-miterlimit="10" fill="#FFD6B7" d="M294.316,25.314c0,0-1.582,0.457-1.701,0.575c-0.122,0.124-0.447,0.372-0.375,0.517
		c0.069,0.146,0.491,0.38,1.399,0.368C293.864,26.771,293.559,26.472,294.316,25.314z"/>
	
		<rect x="339.491" y="107.948" transform="matrix(-0.7676 0.6409 -0.6409 -0.7676 675.8504 -21.8603)" fill="#593446" width="4.795" height="7.305"/>
	
		<rect x="310.923" y="113.074" transform="matrix(-0.9249 0.3802 -0.3802 -0.9249 646.6124 105.7462)" fill="#593446" width="3.881" height="7.307"/>
	<path class="path" stroke="#17106F" stroke-miterlimit="10" fill="#081832" d="M347.243,114.657l-2.688,2.244l-0.683-0.818l-0.485,1.792l-6.776,5.66c0,0-0.812-1.208,3.597-5.188
		c1.134-1.023,0.623-3.295,0.623-3.295s0.146-1.015,2.047-0.519c0.495,0.128,2.44-2.536,2.44-2.536S346.919,113.438,347.243,114.657
		z"/>
	<path class="path" stroke="#17106F" stroke-miterlimit="10" fill="#163F59" d="M316.526,117.437c-0.763-7.873-1.55-24.072-2.866-28.887c-2.435-8.918-5.673-14.662-5.673-14.662
		l-9.737-0.457l12.972,45.585L316.526,117.437z"/>
	<path class="path" stroke="#17106F" stroke-miterlimit="10" fill="#081832" d="M310.121,123.325l2.291,0.607l0.915-0.531l0.782-1.688l0.532,0.921l3.028-1.761
		c-0.116-1.255-1.45-2.942-1.45-2.942s-2.368,2.299-2.833,2.09c-1.792-0.809-2.105,0.167-2.105,0.167
		S311.403,122.505,310.121,123.325z"/>
	<path class="path" stroke="#17106F" stroke-miterlimit="10" fill="#081832" d="M312.607,121.102c-0.313,0.608-0.803,1.255-1.511,1.462c-5.706,1.675-5.496,3.114-5.496,3.114l7.675-1.938
		L312.607,121.102z"/>
	<g>
		<path class="path" stroke="#FFD222" stroke-miterlimit="10" fill="#FFD222" d="M316.333,32.705l-2.476,19.751l0.987,1.1l-1.228,0.803l6.4,4.634l5.745-4.086l2.893-27.04
			c0,0,0.001-6.191-7.5-7.034C315.486,20.195,316.606,31.09,316.333,32.705z"/>
		<path class="path" stroke="#FFD6B7" stroke-miterlimit="10" fill="#FFD6B7" d="M314.327,54.172l-20.67,11.904c0,0,0.994,1.546,2.356,1.514c3.705-0.09,11.716-2.085,15.369-3.801
			c5-2.345,9.466-5.671,9.466-5.671L314.327,54.172z"/>
		<path class="path" stroke="#FFD222" stroke-miterlimit="10" fill="#FFD222" d="M322.337,55.248c0,0-5.227-1.364-7.924-2.169l0.431,0.479l-1.231,0.803l2.229,1.584l3.495,1.777
			l1.202-1.096l-0.904-0.763L322.337,55.248z"/>
		<g>
			<g>
				<path class="path" stroke="#FFD6B7" stroke-miterlimit="10" fill="#FFD6B7" d="M297.786,67.413l-2.473,1.546c0,0-1.142,0.791-2.767,1.235c-1.623,0.446-2.773-0.467-3.491-1.94
					c-0.715-1.472-0.567-2.361-0.567-2.361s1.389-1.569,2.947-0.817c1.555,0.75,5.681,0.248,5.742,0.954
					C297.236,66.74,297.786,67.413,297.786,67.413z"/>
				<polygon fill="#FFD6B7" points="289.063,65.213 286.115,66.6 283.442,68.014 283.949,68.461 285.99,67.726 289.63,68.143 
					289.44,67.165 				"/>
				<polygon fill="#FFD6B7" points="286.601,68.719 284.695,70.607 285.063,71.178 287.282,69.653 290.052,68.918 289.44,67.165 
									"/>
				<polygon fill="#FFD6B7" points="285.954,71.932 287.375,70.33 288.176,69.137 289.669,68.615 290.602,69.839 288.971,70.351 
					286.744,72.142 				"/>
				<polygon fill="#FFD6B7" points="287.828,72.982 289.874,69.703 290.959,69.407 291.646,70.208 290.186,71.336 288.499,72.913 
									"/>
			</g>
			<path class="path" stroke="#FFD6B7" stroke-miterlimit="10" fill="#FFD6B7" d="M298.421,65.266c-1.541,0.782-3.2-0.024-3.2-0.024s-4.191-1.908-5.112-1.498
				c-0.923,0.412-2.91,0.22-2.91,0.22s-0.867,0.322,0.819,1.116c1.103,0.516,2.205,0.627,2.205,0.627s2.002,1.932,2.802,2.089
				c1.648,0.323,5.344-1.65,5.344-1.65S298.616,65.163,298.421,65.266z"/>
		</g>
	</g>
	<path class="path" stroke="#17106F" stroke-miterlimit="10" fill="#194866" d="M343.882,50.616l-31.43,25.53l5.971,7.412c0,0,11.896-5.282,22.366-11.288
		C353.935,64.732,343.882,50.616,343.882,50.616z"/>
	<path class="path" stroke="#17106F" stroke-miterlimit="10" fill="#194866" d="M344.356,110.176c-3.814-6.929-10.059-21.729-13.17-25.634c-5.765-7.226-11.006-11.223-11.006-11.223
		l-9.126,3.431l29.05,36.976L344.356,110.176z"/>
	<polygon fill="#FFD6B7" points="271.408,36.688 264.07,30.717 269.453,26.586 269.724,28.569 272.413,29.55 271.336,34.088 	"/>
</g>
<g>
	<g>
		<path class="path" stroke="#17106F" stroke-miterlimit="10" fill="#B0BFDE" d="M207.49,245.197c0,0,4.392,2.644-3.431,15.885c-7.819,13.249-10.499,10.972-10.499,10.972l-3.723-1.083
			l-5.276-10.233l4.735-2.796l0.723,0.471c0,0,1.113-0.241,1.453-1.19c0.338-0.949,3.104-4.665,6.391-12.688
			C199.379,240.832,206.644,244.681,207.49,245.197z"/>
		<g>
			<path class="path" stroke="#17106F" stroke-miterlimit="10" fill="#B0BFDE" d="M203.647,247.818c0,0,3.817,3.419-6.48,14.869c-1.857,2.064-3.444,3.659-4.798,4.883
				c1.833-1.107,4.228-2.854,7.343-5.574c11.596-10.11,8.253-14,8.253-14C207.328,247.236,203.233,247.438,203.647,247.818z"/>
		</g>
		<path class="path" stroke="#17106F" stroke-miterlimit="10" fill="#FFD6B7" d="M185.564,261.097c0,0-11.192,1.714-13.18-0.936c-2.024-2.699-2.306-2.789-2.049,0.511
			c0.254,3.302,4.529,7.934,11.107,9.644c6.577,1.716,9.215,1.803,11.01-0.337C194.246,267.841,185.564,261.097,185.564,261.097z"/>
		<path class="path" stroke="#17106F" stroke-miterlimit="10" fill="#002D71" d="M195.44,365.286c0,0,2.26,2.382,3.311,0.33c2.753-5.366,5.042-19.265,5.185-25.7
			c0.204-8.902-0.883-16.657-0.883-16.657l-7.62-1.493L195.44,365.286z"/>
		<path class="path" stroke="#17106F" stroke-miterlimit="10" fill="#002D71" d="M195.832,283.656l-0.4,38.109l8.056,4.451c0,0,4.831-9.094,5.438-20.7
			C209.53,293.907,195.832,283.656,195.832,283.656z"/>
		<path class="path" stroke="#17106F" stroke-miterlimit="10" fill="#002D71" d="M195.832,283.656l17.724,41.784l3.225,4.45l12.744,33.41l2.966-0.136c0,0,0.105-21.41-4.728-29.537
			c-4.833-8.125-5.184-10.037-5.184-10.037l-10.028-41.097L195.832,283.656z"/>
		<path class="path" stroke="#17106F" stroke-miterlimit="10" fill="#647691" d="M195.449,283.749l17.877,1.379l9.875-24.098c0,0,6.297-14.54-2.905-15.647
			c-9.199-1.104-19.825-2.158-19.825-2.158S193.724,248.001,195.449,283.749z"/>
		<path class="path" stroke="#17106F" stroke-miterlimit="10" fill="#FFD6B7" d="M205.203,279.066l-22.702,2.771c0,0,1.148,2.215,2.717,2.917c3.653,1.625,10.162,2.561,13.964,2.237
			c5.445-0.472,10.726-2.035,10.726-2.035L205.203,279.066z"/>
		<path class="path" stroke="#17106F" stroke-miterlimit="10" fill="#FFD6B7" d="M212.979,223.392c0,0-8.391,11.745-6.786,14.577c1.606,2.834,2.08,2.56,2.007,5.577
			c-0.022,0.964-0.685,2.709,0,3.233c1.911,1.471,7.622-0.245,7.06-1.618c-0.66-1.615,0.59-6.196,0.59-6.196
			s6.908-5.561,4.338-10.792C219.345,226.461,213.695,222.853,212.979,223.392z"/>
		<polygon fill="#B0BFDE" points="209.357,247.257 209.495,250.378 215.269,245.898 215.345,245.129 		"/>
		<polygon fill="#B0BFDE" points="207.891,245.104 206.571,249.017 209.115,247.231 		"/>
		<path class="path" stroke="#17106F" stroke-miterlimit="10" fill="#D1DBEA" d="M194.212,260.349l-2.039-2.036l-0.861-0.767c-0.442,0.681-1.293,0.866-1.293,0.866l1.809,1.214
			l1.854,1.846l1.623,3.194L194.212,260.349z"/>
		<path class="path" stroke="#17106F" stroke-miterlimit="10" fill="#B0BFDE" d="M214.4,259.828l-9.049,17.484l0.542,1.361l-1.414,0.325l4.357,6.486l6.728-1.829l11.917-24.11
			c0,0,1.401-6.201-3.351-12.364C220.688,242.713,215.199,258.422,214.4,259.828z"/>
		<path class="path" stroke="#17106F" stroke-miterlimit="10" fill="#D1DBEA" d="M212.271,282.803c0,0-4.387-3.048-6.616-4.723l0.238,0.594l-1.414,0.325l1.523,2.229l2.638,2.843
			l1.492-0.605l-0.577-1.018L212.271,282.803z"/>
		<path class="path" stroke="#17106F" stroke-miterlimit="10" fill="#163F59" d="M199.207,365.419l-0.5,2.614h-2.667c0,0-0.146-0.372-0.374-0.372c-0.192,0-0.438,0.372-0.691,0.372
			c-0.563,0-1.186,0-1.436,0c-0.5,0-5.352,0-5.352,0s-0.121-0.55,0.025-0.74c0.075-0.094,0.522-0.267,0.819-0.349
			c1.378-0.387,5.319-1.597,6.007-2.913C195.873,362.43,199.207,365.419,199.207,365.419z"/>
		<path class="path" stroke="#17106F" stroke-miterlimit="10" fill="#194866" d="M232.51,362.946l0.498,1.14l0.217,1.258l-0.217,1.953l-1.067,0.066l-0.785-0.238l-0.555,0.321
			c0,0-3.047,0.337-4.173,0.28c-1.871-0.097-2.878-0.378-3.215-0.771c-0.184-0.216,0.717-0.537,1.009-0.559
			c1.675-0.112,3.51-1.026,3.51-1.026l1.497-1.425l0.358-1.071L232.51,362.946z"/>
	</g>
	<g>
		<path class="path" stroke="#17106F" stroke-miterlimit="10" fill="#3F3C3B" d="M214.733,223.276l1.206,0.729l1.623,1.515l1.315,0.954l1.308,1.698l-5.367-3.363
			c-1.182-0.717-2.718-0.338-3.436,0.842l-0.615,1.017l-0.251-0.155l-0.758-0.459l1.106-1.829
			C211.675,222.895,213.406,222.47,214.733,223.276z"/>
	</g>
</g>
<g>
	<g>
		<g>
			<path class="path" stroke="#FFD6B7" stroke-miterlimit="10" fill="#FFD6B7" d="M110.953,237.511c0,0-1.296,1.157,4.673,8.26c5.967,7.102,16.332,16.188,16.332,16.188l-12.377-17.554
				C119.58,244.404,114.552,237.894,110.953,237.511z"/>
			<path class="path" stroke="#FFD6B7" stroke-miterlimit="10" fill="#FFD6B7" d="M126.786,256.771c2.744,3.458,2.339,6.178,2.933,7.935c0.6,1.755,0.938,3.718,0.945,3.695
				c0.74-1.825-0.104-2.971-0.114-3.874c-0.007-0.899-0.109-0.583,0.952,0.583c0.603,0.659,0.453,2.771,0.531,4.146
				c0.069,1.188,0.406,1.704,0.406,1.704s0.433-1.783,0.441-3.645c0.013-2.245-0.411-4.672-0.587-5.188
				c-0.321-0.945-2.081-3.317-3.587-4.802C127.002,255.643,124.808,254.281,126.786,256.771z"/>
			<path class="path" stroke="#FFD6B7" stroke-miterlimit="10" fill="#FFD6B7" d="M132.086,261.99c0,0,1.486,3.127,1.538,3.841c0.032,0.497-0.194,2.864-0.194,2.864
				s-0.636-1.104-0.601-2.061C132.866,265.681,132.086,261.99,132.086,261.99z"/>
		</g>
		<path class="path" stroke="#FFD6B7" stroke-miterlimit="10" fill="#5420A1" d="M116.363,238.448c0,0-5.679-6.402-8.952-3.115c-1.857,1.864-1.367,3.955,0.381,5.863
			c3.25,3.546,7.12,7.422,7.12,7.422l7.157-2.487L116.363,238.448z"/>
	</g>
	<path class="path" stroke="#17106F" stroke-miterlimit="10" fill="#5420A1" d="M113.37,233.503l-4.381-17.949c0,0-2.354-4.547-4.128-4.302c-2.558,0.349-2.546,3.88-2.715,5.393
		c-0.34,2.989-0.643,1.514,1.677,11.91c2.114,9.503,2.878,13.446,7.411,12.657C115.458,240.476,113.37,233.503,113.37,233.503z"/>
	<path class="path" stroke="#17106F" stroke-miterlimit="10" fill="#FFD6B7" d="M49.838,261.525c0,0,19.394,0.683,18.937,0.717s-3.09-4.955-3.09-4.955l-13.173,1.919L49.838,261.525z"/>
	<polygon fill="#FFD6B7" points="55.113,261.207 53.628,257.93 45.342,259.649 41.369,261.454 50.826,261.518 	"/>
	<path class="path" stroke="#17106F" stroke-miterlimit="10" fill="#161711" d="M52.816,255.973l-1.602,0.64l-0.304,1.477l-6.719,1.242l-5.127,2.228c0,0,0.2,0.383,0.483,0.46
		c1.064,0.287,5.281-0.422,5.281-0.422s-0.702-1.055-0.284-1.406c0.414-0.353,5.622-1.222,6.893-1.331
		c2.189-0.188,2.893,0.178,2.956,0.023C54.554,258.468,52.816,255.973,52.816,255.973z"/>
	<path class="path" stroke="#17106F" stroke-miterlimit="10" fill="#194866" d="M93.083,254.373l-30.122,1.429l2.444,7.382l37.979-0.507c0,0,5.229-3.287,2.919-7.009
		C104.961,253.504,93.083,254.373,93.083,254.373z"/>
	
		<ellipse transform="matrix(0.4554 -0.8903 0.8903 0.4554 -143.4697 199.135)" fill="#282723" cx="91.037" cy="216.839" rx="9.321" ry="9.516"/>
	
		<ellipse transform="matrix(0.4554 -0.8903 0.8903 0.4554 -130.5502 198.4555)" fill="#282723" cx="96.94" cy="205.938" rx="8.924" ry="9.113"/>
	<path class="path" stroke="#17106F" stroke-miterlimit="10" fill="#282723" d="M114.397,207.397c-1.726,3.369-5.854,4.702-9.222,2.979l-0.044-3.678c-3.37-1.724-4.7-5.852-2.979-9.221
		l1.17-2.287c1.723-3.373,5.851-4.703,9.219-2.979l1.525,0.779c3.371,1.723,4.703,5.851,2.981,9.221L114.397,207.397z"/>
	<path class="path" stroke="#17106F" stroke-miterlimit="10" fill="#FFD6B7" d="M116.545,197.177c-0.295,0.557-0.634,1.107-1.024,1.647c-2.621,3.601-6.522,5.357-9.312,4.393
		c-0.989,1.732-2.162,3.144-3.282,4.285c-1.276,1.293-3.921,2.002-3.921,2.002c-1.84,2.512,4.881,10.855,5.422,10.734
		c1.151-0.255,1.309-4.63,1.014-6.101c-0.264-1.319-0.365-2.578-0.213-3.242c0.532-2.326,1.394-2.629,2.777-3.402
		c2.33-0.965,4.428,0.137,4.428,0.137c0.203,0.107,0.432,0.11,0.632,0.037c0.327-0.337,0.616-0.733,0.841-1.177l2.574-5.031
		C117.195,200.071,117.164,198.493,116.545,197.177z"/>
	<path class="path" stroke="#17106F" stroke-miterlimit="10" fill="#B0BFDE" d="M76.635,246.351c0,0,0.984,3.878,1.547,4.534c0.751,0.886,4.102,1.487,4.102,1.487
		s6.813-9.805,10.13-14.222c3.316-4.414,5.446-7.298,6.264-8.803c1.309-2.399,1.421-3.065,2.026-5.155
		c0.604-2.09,3.112-6.018,2.271-5.835c-0.945,0.2-1.813-2.569-1.786-3.832C101.201,213.831,76.635,246.351,76.635,246.351z"/>
	<path class="path" stroke="#17106F" stroke-miterlimit="10" fill="#CE6DFF" d="M107.124,210.452c0,0-1.112,7.127-1.461,8.446c-0.528,2.007-1.598,5.724-5.207,10.467
		c-3.61,4.745-4.952,5.681-7.131,9.389c-2.182,3.71-1.764,5.025-4.597,9.497c-2.218,3.499-4.526,6.399-4.526,6.399
		s-1.903-0.432-2.417-2.457c-0.511-2.027,8.758-13.028,10.903-15.891c2.146-2.864,7.017-10.236,8.079-12.466
		c1.065-2.228,3.414-10.512,3.399-11.401C104.131,210.214,106.749,210.478,107.124,210.452z"/>
	<path class="path" stroke="#17106F" stroke-miterlimit="10" fill="#854638" d="M107.311,210.134c0,0-0.354,0.201-0.687,0.237c-0.626,0.062-1.53,0.373-1.53,0.373s0.88,0.044,0.82,0.792
		c-0.074,0.921-0.778,2.706-0.778,2.706s2.453-1.435,2.507-2.279C107.754,210.433,107.311,210.134,107.311,210.134z"/>
	<path class="path" stroke="#17106F" stroke-miterlimit="10" fill="#194866" d="M99.642,249.921l-28.166-6.355c0,0-8.173-4.021-9.279-1.805c-1.596,3.193,3.297,10.572,5.231,11.736
		c3.825,2.3,1.548,0.426,17.683,4.364c14.748,3.6,20.772,5.223,23.365-0.539C110.899,251.946,99.642,249.921,99.642,249.921z"/>
	<path class="path" stroke="#17106F" stroke-miterlimit="10" fill="#CE6DFF" d="M77.882,249.878c0,0,7.009-11.777,11.046-17.115c4.04-5.338,11.093-16.125,12.053-17.416
		c0.963-1.29,1.848-3.419,1.848-3.419s0.227-4.005-1.827-5.005c-1.804-0.878-5.411-1.059-8.647-1.535
		c-2.236-0.327-14.095,20.524-14.829,21.458c-2.646,3.376-8.653,6.103-11.551,8.333c-2.304,1.77-5.019,4.82-5.019,4.82
		S72.914,244.838,77.882,249.878z"/>
	<polygon fill="#854638" points="102.198,206.4 102.662,208.611 103.203,211.892 100.74,213.524 100.51,206.645 	"/>
	<path class="path" stroke="#17106F" stroke-miterlimit="10" fill="#5420A1" d="M88.368,233.831l6.749-21.854c0,0-0.078-5.801-1.974-6.46c-2.737-0.955-4.49,2.624-5.417,4.064
		c-1.84,2.856-1.402,1.206-4.29,12.908c-2.635,10.697-2.868,13.894,0.668,14.804C87.408,238.148,88.368,233.831,88.368,233.831z"/>
	<g>
		<path class="path" stroke="#FFD6B7" stroke-miterlimit="10" fill="#FFD6B7" d="M89.154,251.179c0,0,1.596,6.935,1.927,7.538c0.33,0.6,0.84,0.685,2.035,1.618
			c1.195,0.936,1.372,1.164,2.269,1.954c0.904,0.795,0.982,0.908,0.982,0.908s-0.508,0.441-0.936,0.219
			c-0.382-0.199-1.141-0.875-1.472-1.034c-0.33-0.159,0.628,0.577,1.687,2.014c1.053,1.438,1.913,2.984,2.238,3.678
			c0.206,0.439,0.228,0.502,0.206,0.52c-0.161,0.142-0.323,0.26-0.495,0.124c-0.151-0.119-0.555-0.664-0.555-0.611
			c0.008,0.195,0.437,1.227,0.521,1.395c0.09,0.176,0.223,0.413,0.284,0.568c0.127,0.324-0.27,0.472-0.765,0.146
			c-0.006-0.007-0.297,0.08-0.455-0.01c-0.08-0.047-0.138-0.079-0.219-0.129c-0.085-0.055-0.167-0.146-0.249-0.207
			c-0.32-0.23-0.607-0.488-0.869-0.75c-0.106-0.109-0.903-1.181-0.965-1.126c-0.008,0.008,0.506,0.944,0.431,0.983
			c-0.16,0.083-0.456,0.078-0.566-0.071c-0.198-0.276-0.507-0.685-1.286-1.853c-0.86-1.287-0.953-1.631-2.425-2.962
			c-1.283-1.159-1.433-1.768-1.592-3.064c-0.539-4.472-4.262-11.303-4.441-12.61C84.265,247.109,89.154,251.179,89.154,251.179z"/>
	</g>
	<g>
		<path class="path" stroke="#17106F" stroke-miterlimit="10" fill="#5420A1" d="M87.999,230.93c0,0,0.601-1.338-3.935-0.382c-2.581,0.542-2.972-1.051-2.883,1.536
			c0.19,5.574,2.093,18.322,2.093,18.322l7.349,1.839L87.999,230.93z"/>
	</g>
</g>
<rect x="252.473" y="27.799" transform="matrix(-0.9627 -0.2706 0.2706 -0.9627 473.7935 232.396)" fill="#194866" width="0.883" height="111.487"/>
<path class="path" stroke="#FFD6B7" stroke-miterlimit="10" fill="#FFD6B7" d="M166.211,258.841c0,0.852,0.69,1.542,1.543,1.542h3.528c0.854,0,1.546-0.689,1.546-1.542l0,0
	c0-0.854-0.691-1.545-1.546-1.545h-3.528C166.901,257.296,166.211,257.986,166.211,258.841L166.211,258.841z"/>
<g>
	<path class="path" stroke="#FFD6B7" stroke-miterlimit="10" fill="#FFD6B7" d="M187.682,282.001l-1.738-1.014c0,0-2.312-3.648-3.276-3.808c-0.965-0.158-2.451-1.338-2.451-1.338
		s-0.812-0.039,0.038,1.483c0.854,1.521,0.854,1.521,0.854,1.521s0.602,2.898,1.316,3.224c0.711,0.322,5.545,1.248,5.545,1.248
		L187.682,282.001z"/>
	<path class="path" stroke="#FFD6B7" stroke-miterlimit="10" fill="#FFD6B7" d="M186.079,284.482l-2.089-0.567c0,0-1.349,0.021-2.892-0.479c-1.544-0.495-1.963-1.8-1.731-3.311
		c0.229-1.512,0.832-2.12,0.832-2.12s1.97-0.499,2.804,0.889c0.837,1.391,4.412,3.135,4.077,3.716
		C186.738,283.188,186.079,284.482,186.079,284.482z"/>
	<polygon fill="#FFD6B7" points="181.028,277.774 177.915,277.325 175.002,277.029 175.162,277.644 177.197,278.128 
		179.883,280.338 180.266,279.48 	"/>
	<polygon fill="#FFD6B7" points="177.142,279.215 174.59,279.689 174.573,280.321 177.179,280.288 179.8,281.159 180.266,279.48 	
		"/>
	<polygon fill="#FFD6B7" points="174.871,281.367 176.884,280.862 178.177,280.354 179.657,280.725 179.733,282.156 
		178.152,281.706 175.386,281.937 	"/>
	<polygon fill="#FFD6B7" points="175.797,283.15 179.227,281.672 180.257,282.004 180.368,282.979 178.585,283.1 176.373,283.444 	
		"/>
</g>
<rect x="238.989" y="133.313" transform="matrix(-0.9957 0.0925 -0.0925 -0.9957 578.4158 285.2504)" fill="#FFFFFF" width="87.217" height="45.433"/>
<g>
	<g>
		<g>
			<path fill="#138E98" d="M313.698,155.13c0,0-2.9-3.329-0.521-8.613c2.38-5.285-2.155-7.972-2.155-7.972l3.166-0.247
				c0,0,3.952,3.103,0.619,8.172c-3.329,5.071-1.108,8.667-1.108,8.667"/>
			<path fill="#138E98" d="M314.908,155.326c0.048,0.507-0.326,0.956-0.832,1.004c-0.51,0.049-0.959-0.322-1.008-0.829
				c-0.047-0.506,0.324-0.958,0.834-1.006C314.409,154.446,314.86,154.819,314.908,155.326z"/>
		</g>
		<g>
			<path  fill="#626366" d="M254.609,154.718l-0.314,0.03l-0.065-0.69c-0.053-0.549-0.15-1.017-0.293-1.401
				c-0.141-0.386-0.316-0.667-0.521-0.848c-0.204-0.158-0.432-0.25-0.675-0.276c-0.25-0.026-0.493-0.034-0.735-0.022
				c-0.033,0.004-0.067,0.007-0.101,0.01c-0.033,0.003-0.066,0.006-0.098,0.01c-0.045,0.003-0.091,0.006-0.144,0.005
				c-0.05-0.002-0.103,0-0.157,0.006l0.859,9.036c0.062,0.646,0.139,1.03,0.233,1.148c0.095,0.118,0.361,0.156,0.803,0.114
				l0.658-0.081l0.028,0.297l-3.416,0.324l-0.027-0.297l0.941-0.09l-0.988-10.384c-1,0.106-1.642,0.348-1.929,0.723
				c-0.285,0.376-0.375,1.14-0.264,2.293l0.062,0.674l-0.313,0.03l-0.406-4.278l0.314-0.03l0.049,0.526l5.825-0.553l-0.048-0.526
				l0.312-0.03L254.609,154.718L254.609,154.718z"/>
			<path  fill="#626366" d="M255.97,161.879l-0.027-0.296l1.022-0.098l-0.861-9.066c-0.061-0.625-0.137-0.999-0.231-1.117
				c-0.093-0.119-0.356-0.157-0.786-0.116l-0.265,0.007l-0.026-0.279l5.312-0.504l-0.065-0.691l0.314-0.03l0.35,3.704l-0.312,0.03
				c-0.118-1.237-0.387-1.979-0.81-2.229c-0.425-0.248-1.226-0.318-2.401-0.206l-0.298,0.012l0.258,2.732l1.437-0.136l-0.16-1.678
				l0.313-0.03l0.388,4.064l-0.314,0.03c-0.004-0.054-0.011-0.112-0.015-0.172c-0.008-0.061-0.014-0.123-0.02-0.19
				c-0.051-0.415-0.16-0.79-0.331-1.123c-0.172-0.332-0.52-0.473-1.048-0.423c-0.033,0.003-0.066,0.007-0.1,0.009
				c-0.031,0.003-0.07,0.012-0.113,0.028l0.693,7.291c1.1-0.093,1.907-0.27,2.422-0.53c0.514-0.257,0.713-1.006,0.594-2.248
				l-0.055-0.575l0.313-0.03l0.383,4.033l-0.314,0.029l-0.064-0.691L255.97,161.879L255.97,161.879z"/>
			<path  fill="#138E98" d="M275.199,153.832c0.167,1.757-0.371,3.349-1.618,4.777c-1.244,1.427-2.778,2.229-4.6,2.402
				c-1.882,0.179-3.516-0.291-4.896-1.406c-1.384-1.117-2.164-2.603-2.34-4.456c-0.168-1.767,0.379-3.345,1.641-4.731
				c1.261-1.388,2.854-2.172,4.773-2.355c1.808-0.171,3.391,0.302,4.751,1.422c1.356,1.12,2.123,2.575,2.293,4.367l-0.002-0.02
				H275.199L275.199,153.832z M274.205,154.076c-0.151-1.598-0.865-2.95-2.144-4.059c-1.277-1.109-2.687-1.59-4.227-1.444
				c-1.602,0.152-2.9,0.838-3.902,2.06c-1.001,1.22-1.424,2.648-1.267,4.282c0.159,1.694,0.892,3.092,2.192,4.191
				c1.302,1.101,2.783,1.571,4.445,1.414c1.529-0.145,2.767-0.841,3.714-2.088c0.949-1.248,1.345-2.692,1.188-4.337L274.205,154.076
				L274.205,154.076z"/>
			<path  fill="#626366" d="M286.999,158.805c-0.021,0.019-0.041,0.035-0.062,0.047c-0.145,0.103-0.295,0.183-0.45,0.242
				c-0.156,0.059-0.348,0.101-0.58,0.124c-0.474,0.044-0.997,0.026-1.57-0.051c-0.572-0.079-1.164-0.206-1.769-0.38
				c-0.501-0.129-0.997-0.286-1.489-0.465c-0.495-0.18-0.963-0.365-1.403-0.555c-0.256-0.109-0.499-0.221-0.731-0.338
				c-0.234-0.116-0.45-0.226-0.646-0.329l0.096,1.004c0.061,0.647,0.138,1.03,0.232,1.149c0.095,0.117,0.354,0.155,0.787,0.116
				l0.656-0.08l0.029,0.296l-3.384,0.322l-0.028-0.296l0.925-0.088l-0.861-9.05c-0.059-0.625-0.139-0.997-0.238-1.116
				c-0.101-0.117-0.364-0.155-0.792-0.115l-0.218,0.004l-0.027-0.296l2.028-0.193l0.102,1.037c0.392-0.314,0.763-0.573,1.114-0.779
				c0.354-0.205,0.7-0.362,1.046-0.473c0.151-0.047,0.303-0.087,0.457-0.118c0.152-0.031,0.311-0.055,0.475-0.071
				c1.321-0.125,2.496,0.209,3.526,1.003c1.028,0.793,1.604,1.81,1.722,3.05c0.12,1.272-0.238,2.403-1.078,3.389
				c-0.837,0.988-1.936,1.58-3.293,1.775c0.205,0.069,0.44,0.157,0.707,0.264c0.267,0.109,0.547,0.214,0.848,0.318
				c0.137,0.054,0.278,0.105,0.422,0.152c0.142,0.046,0.283,0.098,0.422,0.15c0.4,0.128,0.784,0.231,1.151,0.307
				c0.368,0.075,0.695,0.1,0.981,0.072c0.154-0.015,0.302-0.047,0.441-0.092c0.14-0.046,0.264-0.098,0.368-0.15l0.146,0.134
				C287.038,158.761,287.021,158.787,286.999,158.805z M278.373,156.163c0.611,0.373,1.188,0.644,1.732,0.814
				c0.544,0.17,1.035,0.234,1.477,0.193c1.077-0.103,1.963-0.589,2.651-1.457c0.688-0.868,0.98-1.851,0.877-2.948
				c-0.112-1.174-0.638-2.143-1.574-2.906c-0.94-0.763-1.997-1.089-3.175-0.978c-0.561,0.054-1.058,0.206-1.488,0.457
				c-0.431,0.251-0.833,0.628-1.209,1.128l0.569,5.974L278.373,156.163z"/>
			<path  fill="#626366" d="M287.605,158.873l-0.028-0.296l1.025-0.098l-0.862-9.066c-0.06-0.625-0.138-0.999-0.231-1.118
				s-0.356-0.156-0.784-0.115l-0.268,0.007l-0.027-0.279l5.315-0.505l-0.065-0.691l0.314-0.03l0.35,3.703l-0.313,0.03
				c-0.116-1.236-0.388-1.979-0.81-2.229c-0.424-0.249-1.225-0.318-2.401-0.206l-0.299,0.012l0.26,2.731l1.436-0.136l-0.159-1.678
				l0.312-0.03l0.387,4.064l-0.313,0.03c-0.005-0.055-0.01-0.112-0.017-0.172c-0.005-0.061-0.011-0.123-0.019-0.19
				c-0.05-0.415-0.161-0.79-0.329-1.123c-0.172-0.333-0.521-0.474-1.049-0.424c-0.031,0.003-0.065,0.007-0.1,0.01
				c-0.033,0.003-0.071,0.012-0.114,0.028l0.693,7.291c1.103-0.093,1.909-0.27,2.423-0.53c0.516-0.258,0.711-1.006,0.593-2.248
				l-0.055-0.576l0.315-0.03l0.382,4.031l-0.314,0.031l-0.065-0.691L287.605,158.873L287.605,158.873z"/>
			<path  fill="#626366" d="M301.36,146.788l-0.94,0.089l0.86,9.052c0.062,0.646,0.139,1.029,0.234,1.147
				c0.093,0.119,0.355,0.158,0.786,0.117l0.244-0.041l0.028,0.297l-2.838,0.27l-0.028-0.296l0.791-0.076L299.61,148l-1.799,6.813
				l-3.211-6.072l0.675,7.093c0.076,0.801,0.204,1.318,0.381,1.549c0.178,0.233,0.521,0.348,1.033,0.343l0.026,0.28l-2.674,0.254
				l-0.029-0.296l0.975-0.093l-0.803-8.458c-0.074-0.768-0.195-1.262-0.365-1.485c-0.172-0.221-0.518-0.325-1.038-0.308
				l-0.029-0.313l1.946-0.185l3.121,5.864l1.665-6.319l1.849-0.176l0.029,0.296L301.36,146.788z"/>
			<path  fill="#626366" d="M305.087,149.555l-0.772,5.538c0.005,0.043,0.001,0.08-0.007,0.108c-0.01,0.029-0.013,0.06-0.009,0.092
				c-0.005,0.067-0.011,0.13-0.016,0.192c-0.006,0.062-0.012,0.121-0.017,0.177c0,0.1-0.003,0.196-0.006,0.29
				c-0.001,0.094,0.003,0.187,0.011,0.272c0.031,0.318,0.154,0.509,0.371,0.571s0.452,0.093,0.707,0.09
				c0.033-0.003,0.065-0.006,0.1-0.009c0.032-0.003,0.067-0.007,0.1-0.009c0.055-0.006,0.104-0.006,0.149-0.006
				c0.044,0.002,0.088-0.001,0.134-0.005l0.024,0.281l-2.938,0.28l-0.029-0.297l0.693-0.065l1.606-11.496l0.295-0.028l3.906,9.195
				c0.115,0.267,0.214,0.492,0.298,0.678c0.084,0.186,0.164,0.335,0.242,0.449c0.131,0.22,0.269,0.365,0.408,0.436
				c0.141,0.068,0.32,0.099,0.541,0.088l0.026,0.28l-2.706,0.257l-0.028-0.296l1.023-0.097l-2.969-7.074L305.087,149.555
				L305.087,149.555z M305.367,147.437l-0.268,1.735l0.957-0.09L305.367,147.437z"/>
		</g>
	</g>
	<g>
		<path fill="#138E98" d="M271.285,166.115c0.641-0.058,1.262,0.16,1.861,0.655c0.606,0.5,0.944,1.14,1.018,1.922
			c0.075,0.782-0.138,1.475-0.638,2.078c-0.497,0.606-1.139,0.944-1.92,1.019c-0.13,0.026-0.258,0.045-0.379,0.057
			c-0.763,0.072-1.403-0.107-1.923-0.539c-0.283-0.233-0.507-0.498-0.674-0.792l0.831-0.654c0.11,0.246,0.276,0.461,0.502,0.648
			c0.304,0.255,0.696,0.359,1.172,0.314c0.119-0.012,0.245-0.032,0.374-0.06c0.497-0.048,0.904-0.264,1.223-0.648
			c0.318-0.387,0.452-0.826,0.405-1.325c-0.046-0.497-0.262-0.904-0.647-1.222c-0.387-0.32-0.827-0.454-1.323-0.407l0.011-0.001
			c-0.797,0.069-1.494-0.144-2.091-0.637c-0.604-0.5-0.943-1.141-1.018-1.923c-0.075-0.78,0.14-1.474,0.638-2.078
			c0.499-0.604,1.141-0.944,1.923-1.02c0.857-0.081,1.64,0.252,2.352,0.997c0.281,0.234,0.506,0.498,0.673,0.793l-0.831,0.654
			c-0.107-0.247-0.272-0.465-0.497-0.653c-0.494-0.563-1.027-0.817-1.599-0.762c-0.498,0.047-0.905,0.264-1.223,0.649
			c-0.32,0.383-0.455,0.825-0.408,1.322c0.049,0.498,0.264,0.906,0.649,1.223C270.129,166.044,270.645,166.175,271.285,166.115z"/>
		<path fill="#138E98" d="M275.513,166.653l-0.675,0.064l-0.065-0.675l0.676-0.064l-0.194-2.03l0.678-0.064l0.192,2.03l1.35-0.128
			l0.064,0.675l-1.349,0.128l0.255,2.696c0.062,0.64,0.228,1.013,0.503,1.12c0.275,0.105,0.602,0.143,0.975,0.107l0.065,0.675
			c-0.562,0.053-1.052-0.034-1.472-0.26c-0.419-0.225-0.671-0.75-0.747-1.572L275.513,166.653L275.513,166.653z"/>
		<path fill="#138E98" d="M282.709,170.73l-0.675,0.063l-0.03-0.335c-0.357,0.264-0.797,0.421-1.318,0.47
			c-0.56,0.053-1.05-0.033-1.472-0.259c-0.418-0.227-0.646-0.525-0.683-0.898l-0.386-4.057l0.675-0.063l0.386,4.056
			c0.018,0.187,0.165,0.333,0.441,0.44c0.273,0.105,0.6,0.143,0.974,0.107c0.371-0.036,0.686-0.133,0.935-0.288
			c0.253-0.158,0.346-0.557,0.286-1.198l-0.321-3.374l0.675-0.064L282.709,170.73L282.709,170.73z"/>
		<path fill="#138E98" d="M286.054,162.928l0.676-0.063l0.705,7.423l-0.676,0.064L286.728,170c-0.358,0.265-0.797,0.423-1.318,0.473
			c-0.562,0.052-1.051-0.033-1.471-0.26c-0.415-0.223-0.665-0.744-0.747-1.566l-0.128-1.35c-0.075-0.826,0.07-1.388,0.437-1.686
			c0.372-0.3,0.837-0.477,1.396-0.53c0.522-0.05,0.983,0.021,1.383,0.214L286.054,162.928z M283.867,168.583
			c0.062,0.634,0.23,1.005,0.504,1.11c0.275,0.105,0.602,0.14,0.974,0.104c0.374-0.036,0.686-0.131,0.937-0.287
			c0.247-0.154,0.364-0.323,0.349-0.509l-0.257-2.708c-0.021-0.185-0.167-0.329-0.439-0.435c-0.274-0.105-0.601-0.141-0.974-0.104
			c-0.373,0.035-0.685,0.131-0.936,0.286c-0.248,0.155-0.343,0.553-0.285,1.191L283.867,168.583z"/>
		<path fill="#138E98" d="M288.947,164.695l0.514,5.4l-0.675,0.064l-0.45-4.725l-0.676,0.064l-0.063-0.675L288.947,164.695
			L288.947,164.695z M288.003,163.954c-0.109-0.089-0.169-0.203-0.182-0.343c-0.013-0.139,0.024-0.263,0.114-0.372
			c0.09-0.109,0.203-0.17,0.344-0.183s0.263,0.025,0.372,0.115c0.108,0.091,0.169,0.204,0.183,0.344
			c0.014,0.139-0.025,0.262-0.116,0.37c-0.09,0.11-0.203,0.17-0.343,0.184C288.237,164.082,288.113,164.044,288.003,163.954z"/>
		<path fill="#138E98" d="M289.813,166.656c-0.079-0.828,0.067-1.395,0.438-1.694c0.37-0.299,0.834-0.476,1.396-0.53
			c0.56-0.053,1.051,0.034,1.47,0.257c0.42,0.226,0.648,0.526,0.684,0.899l0.194,2.032c0.077,0.822-0.07,1.384-0.44,1.686
			c-0.367,0.3-0.834,0.477-1.394,0.53c-0.559,0.053-1.052-0.033-1.471-0.258s-0.648-0.525-0.684-0.898L289.813,166.656z
			 M293.122,165.653c-0.018-0.186-0.164-0.333-0.439-0.44c-0.274-0.105-0.602-0.143-0.973-0.107
			c-0.373,0.036-0.686,0.133-0.936,0.289c-0.252,0.156-0.347,0.556-0.286,1.198l0.193,2.022c0.018,0.186,0.164,0.335,0.44,0.441
			c0.274,0.106,0.6,0.142,0.972,0.106c0.374-0.035,0.686-0.131,0.937-0.287c0.25-0.159,0.346-0.554,0.284-1.189L293.122,165.653z"/>
	</g>
</g>
<g>
	<g>
		<path  fill="#19BDE9" d="M142.76,282.211c0,0-2.211-3.077,0.254-7.399c2.461-4.321-1.197-6.985-1.197-6.985l2.726,0.045
			c0,0,3.126,2.971-0.136,7.031c-3.254,4.062-1.649,7.317-1.649,7.317"/>
		<circle fill="#19BDE9" cx="142.984" cy="282.477" r="0.792"/>
	</g>
	<g>
		<path  fill="#FFFFFF" d="M140.447,273.706h-0.425v-0.937c0-0.743-0.072-1.383-0.214-1.915c-0.139-0.537-0.337-0.94-0.59-1.206
			c-0.253-0.236-0.545-0.387-0.87-0.457c-0.331-0.065-0.658-0.106-0.985-0.122c-0.045,0-0.088,0-0.133,0c-0.045,0-0.09,0-0.133,0
			c-0.061,0-0.123-0.003-0.19-0.01c-0.066-0.008-0.138-0.015-0.213-0.015v12.235c0,0.878,0.055,1.401,0.167,1.57
			c0.114,0.174,0.468,0.259,1.064,0.259l0.895-0.023v0.4h-4.626v-0.4h1.273v-14.062c-1.355,0.015-2.249,0.258-2.681,0.723
			c-0.433,0.469-0.649,1.483-0.649,3.044v0.914h-0.424v-5.795h0.424v0.714h7.89v-0.714h0.425v5.796H140.447z"/>
	</g>
</g>
<rect x="150.837" y="268.168" fill="#9AC6DA" width="8.582" height="0.762"/>
<rect x="160.46" y="268.168" fill="#5FB4C9" width="8.582" height="0.762"/>
<rect x="150.837" y="275.226" fill="#9AC6DA" width="8.582" height="0.765"/>
<rect x="160.46" y="275.226" fill="#5FB4C9" width="8.582" height="0.765"/>
<rect x="150.837" y="282.287" fill="#9AC6DA" width="8.582" height="0.763"/>
<rect x="160.46" y="282.287" fill="#5FB4C9" width="8.582" height="0.763"/>
</svg>


