<?xml version="1.0" encoding="utf-8"?>
<!-- Generator: Adobe Illustrator 16.0.0, SVG Export Plug-In . SVG Version: 6.00 Build 0)  -->
<!DOCTYPE svg PUBLIC "-//W3C//DTD SVG 1.1//EN" "http://www.w3.org/Graphics/SVG/1.1/DTD/svg11.dtd">
<svg version="1.1" id="Layer_1" xmlns="http://www.w3.org/2000/svg" xmlns:xlink="http://www.w3.org/1999/xlink" x="0px" y="0px"
	 width="252px" height="122px" viewBox="3.903 1.5 252 122" enable-background="new 3.903 1.5 252 122" xml:space="preserve">
<g>
	<g>
		<g>
			<path fill="#138E98" d="M209.87,67.814c0,0-6.812-9.5,0.784-22.831c7.599-13.335-3.685-21.549-3.685-21.549l8.409,0.141
				c0,0,9.639,9.168-0.415,21.695c-10.047,12.533-5.094,22.567-5.094,22.567"/>
			<path fill="#138E98" d="M213.014,68.635c0,1.349-1.098,2.438-2.444,2.438c-1.354,0-2.446-1.09-2.446-2.438
				c0-1.346,1.094-2.441,2.446-2.441C211.918,66.193,213.014,67.289,213.014,68.635z"/>
		</g>
		<g>
			<path fill="#626366" d="M54.225,51.928h-0.834V50.09c0-1.459-0.141-2.714-0.417-3.765c-0.279-1.051-0.667-1.838-1.164-2.364
				c-0.497-0.466-1.069-0.766-1.71-0.897c-0.646-0.132-1.289-0.212-1.933-0.241c-0.087,0-0.175,0-0.263,0c-0.087,0-0.176,0-0.263,0
				c-0.118,0-0.241-0.007-0.374-0.022c-0.131-0.015-0.271-0.021-0.417-0.021v24.03c0,1.723,0.11,2.751,0.329,3.086
				c0.219,0.336,0.914,0.503,2.085,0.503l1.756-0.046v0.788h-9.084v-0.788h2.502V42.735c-2.664,0.029-4.419,0.503-5.267,1.423
				c-0.848,0.919-1.272,2.91-1.272,5.974v1.794h-0.836V40.548h0.834v1.401h15.495v-1.401h0.834L54.225,51.928L54.225,51.928z"/>
			<path fill="#626366" d="M56.024,71.144v-0.788h2.721V46.243c0-1.667-0.11-2.667-0.33-3.003c-0.218-0.335-0.899-0.503-2.04-0.503
				l-0.702-0.044v-0.744h14.133v-1.839h0.833v9.849h-0.833c0-3.289-0.528-5.314-1.581-6.078c-1.053-0.762-3.146-1.145-6.276-1.145
				l-0.791-0.044v7.266h3.817v-4.464h0.834v10.811h-0.833c0-0.146,0-0.299,0-0.459c0-0.16,0-0.328,0-0.504
				c-0.029-1.108-0.227-2.124-0.591-3.042c-0.368-0.919-1.25-1.379-2.655-1.379c-0.088,0-0.176,0-0.265,0
				c-0.087,0-0.191,0.016-0.305,0.045v19.389c2.924,0.03,5.097-0.232,6.517-0.787c1.419-0.554,2.127-2.478,2.127-5.777v-1.532h0.834
				v10.725h-0.833v-1.837L56.024,71.144L56.024,71.144z"/>
			<path fill="#138E98" d="M108.726,54.753c0,4.669-1.821,8.73-5.462,12.183c-3.642,3.453-7.885,5.181-12.727,5.181
				c-5.007,0-9.193-1.645-12.559-4.935c-3.365-3.291-5.047-7.401-5.047-12.329c0-4.702,1.837-8.722,5.51-12.062
				c3.673-3.339,8.063-5.009,13.167-5.009c4.811,0,8.867,1.646,12.168,4.937c3.298,3.291,4.95,7.319,4.95,12.085v-0.05
				L108.726,54.753L108.726,54.753z M106.044,55.143c0-4.248-1.545-7.992-4.633-11.235c-3.089-3.242-6.682-4.864-10.778-4.864
				c-4.261,0-7.859,1.483-10.804,4.45c-2.942,2.967-4.413,6.623-4.413,10.967c0,4.506,1.578,8.374,4.73,11.598
				c3.154,3.228,6.942,4.838,11.363,4.838c4.064,0,7.501-1.521,10.315-4.57c2.811-3.05,4.218-6.76,4.218-11.138L106.044,55.143
				L106.044,55.143z"/>
			<path fill="#626366" d="M138.581,70.816c-0.06,0.043-0.116,0.079-0.176,0.108c-0.408,0.234-0.827,0.408-1.251,0.526
				c-0.426,0.115-0.942,0.176-1.559,0.176c-1.259,0-2.633-0.176-4.125-0.526c-1.493-0.351-3.015-0.831-4.564-1.445
				c-1.289-0.465-2.562-1-3.818-1.598c-1.26-0.597-2.444-1.203-3.557-1.815c-0.644-0.351-1.257-0.708-1.841-1.072
				c-0.588-0.365-1.128-0.708-1.625-1.029v2.669c0,1.723,0.11,2.751,0.33,3.086s0.899,0.503,2.041,0.503l1.755-0.046v0.788h-8.998
				v-0.788h2.458V46.282c0-1.663-0.116-2.663-0.351-2.998c-0.235-0.336-0.922-0.503-2.062-0.503l-0.571-0.044v-0.788h5.398v2.757
				c1.112-0.729,2.156-1.32,3.139-1.773c0.979-0.452,1.938-0.78,2.875-0.984c0.41-0.088,0.818-0.154,1.23-0.197
				c0.412-0.044,0.834-0.066,1.273-0.066c3.511,0,6.525,1.175,9.042,3.524c2.515,2.349,3.774,5.172,3.774,8.469
				c0,3.386-1.23,6.275-3.688,8.667c-2.458,2.394-5.501,3.677-9.129,3.853c0.527,0.234,1.126,0.524,1.8,0.875
				c0.673,0.352,1.389,0.7,2.151,1.051c0.351,0.176,0.709,0.344,1.075,0.503c0.366,0.161,0.723,0.329,1.076,0.504
				c1.024,0.438,2.011,0.804,2.961,1.095c0.95,0.292,1.806,0.438,2.569,0.438c0.407,0,0.805-0.045,1.185-0.132
				s0.718-0.189,1.009-0.306l0.351,0.395C138.697,70.706,138.639,70.771,138.581,70.816z M116.505,61.689
				c1.52,1.138,2.977,1.998,4.366,2.582c1.389,0.585,2.669,0.876,3.842,0.876c2.866,0,5.318-1.057,7.351-3.173
				c2.032-2.116,3.05-4.633,3.05-7.551c0-3.122-1.14-5.807-3.423-8.054c-2.283-2.247-4.99-3.371-8.12-3.371
				c-1.492,0-2.839,0.278-4.04,0.832c-1.198,0.554-2.354,1.444-3.466,2.669v15.89L116.505,61.689z"/>
			<path fill="#626366" d="M140.159,71.144v-0.788h2.722V46.243c0-1.667-0.109-2.667-0.33-3.003c-0.219-0.335-0.9-0.503-2.04-0.503
				l-0.702-0.044v-0.744h14.134v-1.839h0.834v9.849h-0.834c0-3.289-0.528-5.314-1.581-6.078c-1.054-0.763-3.146-1.145-6.276-1.145
				l-0.789-0.044v7.266h3.818v-4.464h0.834v10.811h-0.834c0-0.146,0-0.299,0-0.459c0-0.16,0-0.328,0-0.504
				c-0.029-1.108-0.229-2.124-0.593-3.042c-0.366-0.919-1.251-1.379-2.655-1.379c-0.087,0-0.176,0-0.264,0
				c-0.089,0-0.191,0.016-0.307,0.045v19.389c2.925,0.03,5.098-0.232,6.518-0.787c1.421-0.554,2.128-2.478,2.128-5.777v-1.532h0.834
				v10.725h-0.834v-1.837L140.159,71.144L140.159,71.144z"/>
			<path fill="#626366" d="M179.442,42.736h-2.502v24.074c0,1.723,0.11,2.751,0.329,3.086s0.9,0.503,2.042,0.503l0.657-0.046v0.788
				h-7.552v-0.788h2.107v-24.86l-6.452,17.508l-6.935-16.809V65.06c0,2.13,0.204,3.522,0.615,4.18
				c0.409,0.657,1.288,1.045,2.635,1.16v0.746h-7.109v-0.788h2.589V47.859c0-2.043-0.197-3.378-0.591-4.005
				c-0.396-0.627-1.28-0.985-2.655-1.072v-0.833h5.179l6.757,16.24l5.97-16.24h4.915L179.442,42.736L179.442,42.736z"/>
			<path fill="#626366" d="M188.571,50.965l-3.424,14.401c0,0.117-0.017,0.211-0.045,0.284c-0.029,0.073-0.045,0.153-0.045,0.241
				c-0.029,0.175-0.058,0.342-0.087,0.501c-0.029,0.161-0.059,0.314-0.087,0.462c-0.028,0.262-0.059,0.518-0.087,0.765
				c-0.029,0.247-0.046,0.49-0.046,0.722c0,0.847,0.277,1.381,0.836,1.597c0.556,0.22,1.168,0.359,1.842,0.416
				c0.087,0,0.176,0,0.263,0c0.089,0,0.176,0,0.266,0c0.145,0,0.275,0.011,0.396,0.022c0.116,0.017,0.233,0.02,0.351,0.02v0.746
				h-7.811v-0.788h1.842l7.11-29.896h0.789l7.988,25.214c0.233,0.73,0.438,1.351,0.614,1.86c0.176,0.512,0.352,0.927,0.527,1.248
				c0.294,0.612,0.616,1.028,0.968,1.247c0.351,0.218,0.817,0.343,1.404,0.371v0.745h-7.199v-0.789h2.721l-6.056-19.389H188.571z
				 M189.844,45.45l-1.142,4.508h2.546L189.844,45.45z"/>
		</g>
	</g>
	<g>
		<path fill="#138E98" d="M95.329,86.146c1.706,0.004,3.288,0.736,4.746,2.194c1.469,1.468,2.202,3.241,2.202,5.321
			c0,2.079-0.734,3.851-2.202,5.319c-1.468,1.469-3.242,2.202-5.32,2.202c-0.347,0.038-0.686,0.056-1.012,0.056
			c-2.025,0-3.671-0.634-4.938-1.901c-0.685-0.685-1.207-1.438-1.573-2.256l2.352-1.517c0.228,0.675,0.616,1.285,1.164,1.834
			c0.739,0.747,1.741,1.121,3.009,1.121c0.319,0,0.653-0.022,1-0.068c1.323,0,2.449-0.467,3.386-1.402
			c0.935-0.936,1.402-2.062,1.402-3.386c0-1.322-0.467-2.45-1.402-3.386c-0.937-0.936-2.063-1.402-3.386-1.402h0.028
			c-2.118-0.017-3.9-0.752-5.35-2.202c-1.469-1.469-2.203-3.242-2.203-5.321c0-2.08,0.734-3.852,2.203-5.32
			c1.467-1.468,3.242-2.201,5.321-2.201c2.281,0,4.263,1.07,5.951,3.213c0.685,0.686,1.209,1.436,1.574,2.257l-2.352,1.518
			c-0.219-0.676-0.602-1.292-1.149-1.847c-1.159-1.606-2.5-2.408-4.022-2.408c-1.323,0-2.452,0.466-3.386,1.402
			c-0.937,0.936-1.402,2.062-1.402,3.387c0,1.322,0.466,2.448,1.402,3.385C92.303,85.671,93.624,86.143,95.329,86.146z"/>
		<path fill="#138E98" d="M106.338,88.623h-1.794v-1.795h1.794v-5.401h1.796v5.401h3.589v1.795h-3.589v7.17
			c0,1.701,0.348,2.726,1.048,3.076c0.7,0.35,1.548,0.526,2.54,0.526v1.795c-1.489,0-2.761-0.349-3.81-1.05
			c-1.05-0.7-1.577-2.146-1.577-4.334L106.338,88.623L106.338,88.623z"/>
		<path fill="#138E98" d="M124.287,101.169h-1.795v-0.888c-1.005,0.604-2.202,0.906-3.59,0.906c-1.489,0-2.761-0.349-3.812-1.05
			c-1.048-0.7-1.574-1.547-1.574-2.538V86.812h1.795v10.786c0,0.496,0.35,0.92,1.05,1.27c0.7,0.35,1.548,0.525,2.539,0.525
			s1.838-0.176,2.539-0.525c0.701-0.35,1.05-1.378,1.05-3.082v-8.974h1.795L124.287,101.169L124.287,101.169z"/>
		<path fill="#138E98" d="M135.056,81.444h1.796v19.743h-1.796v-0.934c-1.005,0.611-2.201,0.915-3.59,0.915
			c-1.49,0-2.762-0.35-3.815-1.05c-1.041-0.694-1.565-2.133-1.572-4.316v-3.59c0.007-2.195,0.53-3.641,1.572-4.334
			c1.053-0.7,2.323-1.051,3.815-1.051c1.389,0,2.585,0.306,3.59,0.916V81.444z M127.877,95.803c0.005,1.687,0.355,2.705,1.049,3.051
			c0.699,0.346,1.547,0.521,2.539,0.521c0.993,0,1.839-0.175,2.539-0.521c0.693-0.346,1.043-0.766,1.05-1.258v-7.2
			c-0.007-0.489-0.356-0.908-1.05-1.256c-0.7-0.346-1.547-0.521-2.539-0.521s-1.839,0.175-2.539,0.521
			c-0.693,0.348-1.044,1.37-1.049,3.069V95.803z"/>
		<path fill="#138E98" d="M142.236,86.828v14.359h-1.795V88.623h-1.796v-1.795H142.236z M139.938,84.64
			c-0.264-0.264-0.396-0.581-0.396-0.951s0.133-0.687,0.396-0.95s0.58-0.397,0.95-0.397c0.371,0,0.688,0.134,0.951,0.397
			c0.264,0.264,0.396,0.58,0.396,0.95s-0.132,0.688-0.396,0.951c-0.263,0.263-0.58,0.396-0.951,0.396
			C140.518,85.033,140.2,84.901,139.938,84.64z"/>
		<path fill="#138E98" d="M144.03,92.213c0-2.202,0.526-3.655,1.576-4.354c1.05-0.698,2.318-1.048,3.811-1.048
			c1.488,0,2.76,0.35,3.81,1.048c1.05,0.699,1.576,1.548,1.576,2.539v5.403c0,2.188-0.526,3.634-1.576,4.334
			c-1.05,0.701-2.318,1.05-3.81,1.05c-1.49,0-2.761-0.349-3.811-1.05c-1.05-0.7-1.576-1.547-1.576-2.539V92.213z M153.003,90.4
			c0-0.496-0.349-0.92-1.048-1.27c-0.7-0.351-1.548-0.525-2.539-0.525c-0.994,0-1.84,0.175-2.538,0.525
			c-0.7,0.35-1.05,1.377-1.05,3.082v5.383c0,0.495,0.35,0.919,1.05,1.27c0.698,0.349,1.547,0.524,2.538,0.524
			c0.992,0,1.839-0.176,2.539-0.524c0.699-0.351,1.048-1.371,1.048-3.064V90.4z"/>
	</g>
</g>
</svg>
