<?xml version="1.0" encoding="utf-8"?>
<!-- Generator: Adobe Illustrator 16.0.0, SVG Export Plug-In . SVG Version: 6.00 Build 0)  -->
<!DOCTYPE svg PUBLIC "-//W3C//DTD SVG 1.1//EN" "http://www.w3.org/Graphics/SVG/1.1/DTD/svg11.dtd">
<svg version="1.1" id="Layer_1" xmlns="http://www.w3.org/2000/svg" xmlns:xlink="http://www.w3.org/1999/xlink" x="0px" y="0px"
	 width="141.334px" height="68px" viewBox="0 0 141.334 68" enable-background="new 0 0 141.334 68" xml:space="preserve">
<g>
	<g>
		<g>
			<path fill="#138E98" d="M122.449,33.57c0,0-4.123-5.748,0.476-13.817c4.599-8.071-2.229-13.042-2.229-13.042l5.089,0.085
				c0,0,5.833,5.549-0.251,13.13c-6.082,7.585-3.084,13.658-3.084,13.658"/>
			<path fill="#138E98" d="M124.351,34.066c0,0.816-0.664,1.477-1.479,1.477c-0.819,0-1.48-0.66-1.48-1.477
				c0-0.814,0.661-1.478,1.48-1.478C123.688,32.589,124.351,33.252,124.351,34.066z"/>
		</g>
		<g>
			<path fill="#626366" d="M28.251,23.956h-0.504v-1.112c0-0.883-0.084-1.643-0.252-2.278c-0.168-0.636-0.403-1.113-0.704-1.431
				c-0.302-0.282-0.647-0.463-1.036-0.543c-0.39-0.08-0.779-0.128-1.169-0.146c-0.053,0-0.106,0-0.159,0s-0.106,0-0.159,0
				c-0.071,0-0.146-0.004-0.226-0.014c-0.08-0.009-0.164-0.013-0.252-0.013v14.543c0,1.042,0.067,1.665,0.2,1.867
				c0.132,0.203,0.553,0.305,1.262,0.305l1.062-0.027v0.478h-5.499v-0.478h1.515V18.393c-1.612,0.018-2.674,0.305-3.188,0.861
				c-0.514,0.556-0.771,1.761-0.771,3.616v1.086h-0.504v-6.887h0.504v0.848h9.377v-0.848h0.504V23.956z"/>
			<path fill="#626366" d="M29.34,35.585v-0.477h1.647V20.515c0-1.008-0.067-1.614-0.2-1.817c-0.132-0.204-0.544-0.305-1.234-0.305
				l-0.425-0.027v-0.45h8.553v-1.113h0.504v5.96h-0.504c0-1.99-0.32-3.216-0.957-3.678c-0.638-0.461-1.904-0.693-3.799-0.693
				l-0.479-0.027v4.397h2.311v-2.702h0.505v6.543h-0.505c0-0.088,0-0.181,0-0.278c0-0.097,0-0.198,0-0.305
				c-0.018-0.671-0.137-1.285-0.359-1.841c-0.222-0.556-0.756-0.834-1.607-0.834c-0.053,0-0.106,0-0.159,0
				c-0.054,0-0.116,0.009-0.186,0.027v11.734c1.771,0.019,3.086-0.141,3.944-0.477c0.859-0.335,1.289-1.5,1.289-3.496v-0.928h0.504
				v6.491h-0.503v-1.113H29.34z"/>
			<path fill="#138E98" d="M61.236,25.666c0,2.826-1.102,5.284-3.306,7.374c-2.204,2.09-4.772,3.135-7.703,3.135
				c-3.03,0-5.563-0.995-7.6-2.987c-2.037-1.991-3.055-4.479-3.055-7.461c0-2.845,1.111-5.279,3.335-7.3
				c2.223-2.021,4.88-3.032,7.969-3.032c2.911,0,5.366,0.996,7.364,2.988c1.996,1.992,2.996,4.43,2.996,7.314L61.236,25.666
				L61.236,25.666z M59.613,25.901c0-2.57-0.935-4.837-2.804-6.8c-1.87-1.962-4.044-2.943-6.523-2.943
				c-2.578,0-4.757,0.897-6.538,2.693c-1.781,1.795-2.671,4.008-2.671,6.637c0,2.727,0.954,5.068,2.863,7.019
				c1.909,1.954,4.201,2.93,6.877,2.93c2.459,0,4.54-0.922,6.243-2.767c1.701-1.845,2.553-4.091,2.553-6.741V25.901z"/>
			<path fill="#626366" d="M79.304,35.387c-0.036,0.026-0.071,0.048-0.106,0.066c-0.248,0.142-0.5,0.247-0.757,0.318
				c-0.258,0.069-0.571,0.105-0.943,0.105c-0.762,0-1.594-0.105-2.497-0.318c-0.903-0.212-1.824-0.503-2.762-0.874
				c-0.78-0.281-1.55-0.604-2.312-0.967c-0.761-0.361-1.479-0.729-2.151-1.099c-0.39-0.213-0.761-0.429-1.115-0.649
				c-0.355-0.221-0.682-0.429-0.983-0.623v1.616c0,1.042,0.067,1.665,0.199,1.867c0.133,0.203,0.545,0.305,1.236,0.305l1.062-0.027
				v0.478h-5.445v-0.478h1.488V20.539c0-1.006-0.071-1.611-0.212-1.814c-0.143-0.203-0.558-0.305-1.249-0.305l-0.346-0.026v-0.477
				h3.267v1.669c0.673-0.441,1.306-0.799,1.9-1.073c0.592-0.274,1.172-0.473,1.74-0.596c0.248-0.053,0.495-0.093,0.743-0.119
				c0.249-0.027,0.505-0.04,0.771-0.04c2.125,0,3.949,0.711,5.472,2.133c1.523,1.422,2.284,3.13,2.284,5.125
				c0,2.049-0.743,3.797-2.23,5.246c-1.488,1.448-3.33,2.225-5.526,2.331c0.319,0.142,0.682,0.317,1.089,0.53
				s0.841,0.424,1.302,0.636c0.212,0.106,0.429,0.208,0.65,0.305s0.438,0.199,0.651,0.305c0.62,0.265,1.217,0.486,1.792,0.662
				c0.575,0.177,1.093,0.265,1.555,0.265c0.247,0,0.486-0.026,0.717-0.079s0.435-0.115,0.611-0.186l0.212,0.239
				C79.375,35.32,79.34,35.36,79.304,35.387z M65.943,29.863c0.92,0.688,1.801,1.21,2.643,1.563
				c0.841,0.354,1.616,0.529,2.325,0.529c1.735,0,3.218-0.64,4.449-1.92c1.23-1.28,1.846-2.804,1.846-4.57
				c0-1.89-0.69-3.514-2.072-4.875c-1.381-1.36-3.02-2.04-4.914-2.04c-0.903,0-1.719,0.168-2.444,0.503
				c-0.726,0.335-1.426,0.874-2.099,1.616v9.617L65.943,29.863z"/>
			<path fill="#626366" d="M80.26,35.585v-0.477h1.647V20.515c0-1.008-0.066-1.614-0.199-1.817s-0.546-0.305-1.235-0.305
				l-0.425-0.027v-0.45H88.6v-1.113h0.505v5.96H88.6c0-1.99-0.319-3.216-0.956-3.678c-0.638-0.462-1.904-0.693-3.799-0.693
				l-0.478-0.027v4.397h2.311v-2.702h0.505v6.543h-0.505c0-0.088,0-0.181,0-0.278c0-0.097,0-0.198,0-0.305
				c-0.018-0.671-0.138-1.285-0.358-1.841c-0.222-0.556-0.757-0.834-1.607-0.834c-0.053,0-0.105,0-0.159,0
				c-0.053,0-0.115,0.009-0.186,0.027v11.734c1.771,0.019,3.085-0.141,3.944-0.477c0.859-0.335,1.288-1.5,1.288-3.496v-0.928h0.505
				v6.491H88.6v-1.113H80.26z"/>
			<path fill="#626366" d="M104.033,18.393h-1.514v14.57c0,1.042,0.067,1.665,0.199,1.867c0.133,0.203,0.545,0.305,1.235,0.305
				l0.398-0.027v0.478h-4.569v-0.478h1.275V20.062l-3.905,10.596l-4.196-10.172v11.418c0,1.289,0.123,2.132,0.372,2.529
				c0.247,0.397,0.778,0.632,1.594,0.702v0.45H90.62v-0.477h1.566V21.492c0-1.236-0.119-2.044-0.358-2.424
				c-0.238-0.379-0.774-0.596-1.606-0.649v-0.503h3.134l4.091,9.828l3.612-9.828h2.975V18.393L104.033,18.393z"/>
			<path fill="#626366" d="M109.558,23.373l-2.072,8.716c0,0.07-0.009,0.128-0.026,0.172s-0.027,0.093-0.027,0.146
				c-0.018,0.106-0.035,0.208-0.053,0.305c-0.018,0.098-0.035,0.19-0.053,0.278c-0.018,0.158-0.036,0.313-0.054,0.463
				c-0.018,0.15-0.026,0.297-0.026,0.438c0,0.513,0.168,0.835,0.505,0.967c0.337,0.133,0.708,0.216,1.116,0.251
				c0.052,0,0.105,0,0.158,0c0.054,0,0.106,0,0.16,0c0.089,0,0.168,0.006,0.239,0.014c0.07,0.01,0.142,0.013,0.213,0.013v0.451
				h-4.729v-0.478h1.115l4.304-18.093h0.478l4.835,15.259c0.141,0.442,0.265,0.817,0.371,1.126c0.106,0.31,0.213,0.561,0.319,0.755
				c0.177,0.371,0.372,0.623,0.585,0.755c0.212,0.133,0.495,0.208,0.85,0.225v0.451h-4.356v-0.478h1.647l-3.666-11.734H109.558z
				 M110.329,20.035l-0.69,2.728h1.54L110.329,20.035z"/>
		</g>
	</g>
	<g>
		<path fill="#138E98" d="M53.127,44.664c1.033,0.003,1.99,0.446,2.874,1.329c0.889,0.889,1.333,1.962,1.333,3.221
			s-0.444,2.331-1.333,3.221c-0.889,0.889-1.962,1.332-3.221,1.332c-0.21,0.023-0.414,0.034-0.613,0.034
			c-1.226,0-2.222-0.384-2.989-1.151c-0.414-0.414-0.731-0.869-0.952-1.365l1.423-0.92c0.138,0.409,0.373,0.778,0.704,1.11
			c0.447,0.452,1.054,0.679,1.821,0.679c0.193,0,0.395-0.014,0.604-0.041c0.8,0,1.483-0.283,2.049-0.849
			c0.566-0.566,0.849-1.249,0.849-2.05c0-0.8-0.283-1.482-0.849-2.049s-1.249-0.849-2.049-0.849h0.017
			c-1.281-0.01-2.359-0.455-3.237-1.333c-0.889-0.889-1.333-1.962-1.333-3.221c0-1.258,0.444-2.331,1.333-3.221
			c0.888-0.888,1.962-1.332,3.221-1.332c1.38,0,2.58,0.647,3.601,1.945c0.415,0.414,0.731,0.869,0.953,1.366l-1.424,0.918
			c-0.132-0.408-0.364-0.781-0.695-1.117c-0.701-0.972-1.512-1.458-2.434-1.458c-0.8,0-1.484,0.283-2.049,0.85
			c-0.566,0.565-0.849,1.248-0.849,2.049s0.283,1.483,0.849,2.049C51.296,44.377,52.095,44.662,53.127,44.664z"/>
		<path fill="#138E98" d="M59.79,46.164h-1.086v-1.087h1.086v-3.269h1.086v3.269h2.172v1.087h-2.172v4.339
			c0,1.029,0.211,1.648,0.635,1.861c0.423,0.211,0.936,0.317,1.537,0.317v1.086c-0.901,0-1.67-0.211-2.306-0.635
			s-0.953-1.299-0.953-2.623L59.79,46.164L59.79,46.164z"/>
		<path fill="#138E98" d="M70.654,53.757h-1.086v-0.538c-0.609,0.366-1.333,0.549-2.173,0.549c-0.901,0-1.67-0.211-2.306-0.635
			c-0.635-0.424-0.953-0.937-0.953-1.537v-6.528h1.086v6.528c0,0.3,0.212,0.556,0.636,0.769c0.423,0.211,0.936,0.317,1.537,0.317
			c0.601,0,1.113-0.106,1.537-0.317c0.424-0.213,0.636-0.834,0.636-1.865v-5.432h1.086L70.654,53.757L70.654,53.757z"/>
		<path fill="#138E98" d="M77.171,41.819h1.086v11.948h-1.086v-0.564c-0.608,0.37-1.333,0.554-2.172,0.554
			c-0.902,0-1.671-0.212-2.309-0.636c-0.629-0.42-0.947-1.29-0.95-2.612v-2.172c0.003-1.329,0.321-2.204,0.95-2.623
			c0.638-0.424,1.407-0.637,2.309-0.637c0.839,0,1.564,0.186,2.172,0.555V41.819z M72.826,50.509
			c0.003,1.021,0.215,1.637,0.635,1.847c0.424,0.21,0.937,0.315,1.538,0.315s1.113-0.105,1.537-0.315
			c0.42-0.21,0.632-0.463,0.636-0.761v-4.356c-0.004-0.296-0.216-0.55-0.636-0.76c-0.424-0.21-0.936-0.315-1.537-0.315
			c-0.602,0-1.113,0.105-1.538,0.315c-0.419,0.21-0.632,0.829-0.635,1.857V50.509z"/>
		<path fill="#138E98" d="M81.516,45.077v8.69h-1.087v-7.604h-1.087v-1.087H81.516z M80.126,43.753
			c-0.16-0.159-0.24-0.352-0.24-0.575c0-0.225,0.08-0.417,0.24-0.576c0.158-0.159,0.351-0.239,0.575-0.239
			c0.224,0,0.416,0.08,0.575,0.239c0.16,0.159,0.239,0.352,0.239,0.576c0,0.224-0.079,0.416-0.239,0.575
			c-0.159,0.159-0.352,0.239-0.575,0.239C80.476,43.991,80.284,43.911,80.126,43.753z"/>
		<path fill="#138E98" d="M82.602,48.337c0-1.333,0.317-2.212,0.952-2.635c0.636-0.424,1.404-0.636,2.307-0.636
			c0.9,0,1.67,0.212,2.306,0.636c0.635,0.423,0.953,0.936,0.953,1.536v3.271c0,1.324-0.318,2.199-0.953,2.623
			c-0.636,0.424-1.404,0.635-2.306,0.635s-1.671-0.211-2.307-0.635c-0.635-0.424-0.952-0.936-0.952-1.537V48.337z M88.033,47.239
			c0-0.3-0.211-0.557-0.635-0.769s-0.937-0.317-1.537-0.317c-0.602,0-1.113,0.105-1.537,0.317s-0.636,0.834-0.636,1.866v3.258
			c0,0.3,0.212,0.557,0.636,0.769s0.937,0.317,1.537,0.317s1.113-0.105,1.537-0.317s0.635-0.83,0.635-1.854V47.239z"/>
	</g>
</g>
</svg>
