<?xml version="1.0" encoding="utf-8"?>
<!-- Generator: Adobe Illustrator 16.0.0, SVG Export Plug-In . SVG Version: 6.00 Build 0)  -->
<!DOCTYPE svg PUBLIC "-//W3C//DTD SVG 1.1//EN" "http://www.w3.org/Graphics/SVG/1.1/DTD/svg11.dtd">
<svg version="1.1" id="Layer_1" xmlns="http://www.w3.org/2000/svg" xmlns:xlink="http://www.w3.org/1999/xlink" x="0px" y="0px"
	 width="259.805px" height="125px" viewBox="0 0 259.805 125" enable-background="new 0 0 259.805 125" xml:space="preserve">
<g>
	<g>
		<g>
			<path fill="#138E98" d="M237.151,69.646c0,0-9.09-12.677,1.048-30.466c10.138-17.794-4.917-28.755-4.917-28.755l11.219,0.187
				c0,0,12.863,12.235-0.552,28.952c-13.408,16.723-6.798,30.113-6.798,30.113"/>
			<path fill="#138E98" d="M241.345,70.742c0,1.8-1.465,3.253-3.261,3.253c-1.809,0-3.267-1.453-3.267-3.253
				c0-1.797,1.461-3.259,3.267-3.259C239.883,67.483,241.345,68.945,241.345,70.742z"/>
		</g>
		<g>
			<path fill="#626366" d="M29.45,48.446h-1.113v-2.452c0-1.946-0.188-3.623-0.557-5.023c-0.371-1.402-0.889-2.453-1.554-3.155
				c-0.663-0.622-1.426-1.021-2.282-1.197c-0.862-0.176-1.721-0.282-2.58-0.322c-0.117,0-0.234,0-0.351,0c-0.117,0-0.235,0-0.351,0
				c-0.157,0-0.322-0.008-0.499-0.028c-0.175-0.021-0.362-0.029-0.556-0.029v32.067c0,2.298,0.146,3.671,0.439,4.118
				c0.292,0.447,1.22,0.672,2.782,0.672l2.344-0.062v1.053H13.05v-1.053h3.341V36.179c-3.555,0.039-5.897,0.673-7.029,1.898
				c-1.131,1.227-1.698,3.885-1.698,7.974v2.394H6.549V33.26h1.112v1.87h20.678v-1.87h1.112L29.45,48.446L29.45,48.446z"/>
			<path fill="#626366" d="M31.85,74.09v-1.053h3.631V40.861c0-2.224-0.147-3.559-0.44-4.008c-0.292-0.449-1.2-0.672-2.722-0.672
				l-0.938-0.059V35.13h18.86v-2.455h1.112v13.143h-1.112c0-4.389-0.704-7.091-2.109-8.11c-1.406-1.017-4.198-1.528-8.375-1.528
				l-1.054-0.059v9.697h5.093v-5.958h1.112v14.427h-1.111c0-0.194,0-0.398,0-0.613c0-0.214,0-0.438,0-0.673
				c-0.039-1.479-0.303-2.833-0.79-4.058c-0.491-1.227-1.668-1.841-3.543-1.841c-0.118,0-0.235,0-0.354,0
				c-0.115,0-0.254,0.02-0.407,0.06v25.875c3.902,0.04,6.802-0.311,8.697-1.052c1.894-0.739,2.839-3.306,2.839-7.709v-2.044h1.112
				v14.31h-1.11v-2.451L31.85,74.09L31.85,74.09z"/>
			<path fill="#138E98" d="M102.178,52.217c0,6.231-2.429,11.651-7.287,16.259c-4.861,4.606-10.522,6.912-16.985,6.912
				c-6.681,0-12.266-2.196-16.759-6.586c-4.49-4.39-6.734-9.875-6.734-16.451c0-6.275,2.451-11.639,7.353-16.096
				c4.901-4.457,10.76-6.686,17.572-6.686c6.419,0,11.832,2.196,16.238,6.588c4.4,4.392,6.604,9.768,6.604,16.127v-0.067
				L102.178,52.217L102.178,52.217z M98.6,52.737c0-5.668-2.062-10.665-6.183-14.994c-4.122-4.325-8.916-6.49-14.383-6.49
				c-5.687,0-10.488,1.979-14.417,5.939c-3.927,3.958-5.888,8.838-5.888,14.635c0,6.013,2.105,11.174,6.311,15.477
				c4.208,4.309,9.265,6.456,15.163,6.456c5.424,0,10.011-2.031,13.764-6.101c3.751-4.068,5.629-9.02,5.629-14.861L98.6,52.737
				L98.6,52.737z"/>
			<path fill="#626366" d="M142.021,73.652c-0.08,0.057-0.157,0.104-0.236,0.145c-0.546,0.313-1.104,0.546-1.669,0.702
				c-0.568,0.154-1.259,0.235-2.08,0.235c-1.68,0-3.516-0.235-5.507-0.703c-1.99-0.467-4.021-1.109-6.088-1.929
				c-1.72-0.621-3.418-1.335-5.095-2.132c-1.682-0.797-3.261-1.606-4.746-2.421c-0.859-0.469-1.678-0.947-2.457-1.433
				c-0.785-0.487-1.507-0.945-2.169-1.375v3.563c0,2.299,0.147,3.672,0.439,4.119c0.293,0.445,1.201,0.671,2.725,0.671l2.343-0.062
				v1.05h-12.008v-1.05h3.281V40.912c0-2.217-0.155-3.552-0.468-4c-0.314-0.448-1.231-0.671-2.752-0.671l-0.762-0.059V35.13h7.205
				v3.679c1.483-0.974,2.877-1.762,4.188-2.366c1.308-0.603,2.586-1.042,3.836-1.313c0.546-0.117,1.092-0.206,1.641-0.264
				c0.549-0.058,1.113-0.088,1.699-0.088c4.686,0,8.708,1.568,12.065,4.703c3.356,3.135,5.036,6.902,5.036,11.302
				c0,4.519-1.641,8.374-4.921,11.565c-3.28,3.194-7.341,4.907-12.182,5.142c0.704,0.312,1.504,0.7,2.401,1.166
				c0.899,0.471,1.854,0.936,2.872,1.404c0.469,0.234,0.945,0.459,1.434,0.672c0.488,0.214,0.966,0.438,1.436,0.672
				c1.367,0.583,2.684,1.07,3.951,1.461c1.267,0.389,2.407,0.584,3.428,0.584c0.543,0,1.073-0.062,1.581-0.175
				c0.507-0.118,0.958-0.257,1.347-0.409l0.469,0.524C142.173,73.506,142.096,73.594,142.021,73.652z M112.558,61.473
				c2.028,1.519,3.972,2.666,5.826,3.445c1.855,0.78,3.562,1.171,5.127,1.171c3.824,0,7.097-1.412,9.81-4.235
				c2.713-2.824,4.07-6.182,4.07-10.075c0-4.167-1.521-7.749-4.568-10.748c-3.046-2.999-6.658-4.499-10.836-4.499
				c-1.99,0-3.789,0.371-5.39,1.11c-1.6,0.739-3.142,1.927-4.626,3.563v21.204L112.558,61.473z"/>
			<path fill="#626366" d="M144.124,74.09v-1.053h3.632V40.861c0-2.224-0.146-3.559-0.439-4.008
				c-0.291-0.449-1.202-0.672-2.722-0.672l-0.939-0.059V35.13h18.862v-2.455h1.112v13.143h-1.112c0-4.389-0.705-7.091-2.109-8.11
				c-1.405-1.019-4.199-1.528-8.375-1.528l-1.055-0.059v9.697h5.095v-5.958h1.114v14.427h-1.114c0-0.194,0-0.398,0-0.613
				c0-0.214,0-0.438,0-0.673c-0.039-1.479-0.306-2.833-0.788-4.058c-0.491-1.227-1.671-1.841-3.546-1.841c-0.115,0-0.234,0-0.353,0
				c-0.115,0-0.254,0.02-0.408,0.06v25.875c3.904,0.04,6.804-0.311,8.699-1.052c1.896-0.739,2.838-3.306,2.838-7.709v-2.044h1.114
				v14.31h-1.114v-2.451L144.124,74.09L144.124,74.09z"/>
			<path fill="#626366" d="M196.544,36.181h-3.338v32.125c0,2.298,0.148,3.671,0.439,4.118c0.293,0.447,1.202,0.672,2.724,0.672
				l0.878-0.062v1.053h-10.075v-1.053h2.812V39.861l-8.612,23.363l-9.254-22.43v25.175c0,2.844,0.273,4.701,0.821,5.578
				c0.546,0.878,1.718,1.394,3.516,1.55v0.994h-9.487v-1.053h3.455v-30.02c0-2.727-0.263-4.507-0.788-5.345
				c-0.527-0.837-1.709-1.315-3.544-1.432v-1.11H173l9.019,21.671l7.966-21.671h6.56V36.181L196.544,36.181z"/>
			<path fill="#626366" d="M208.726,47.162l-4.567,19.218c0,0.155-0.021,0.282-0.061,0.381c-0.041,0.095-0.059,0.202-0.059,0.32
				c-0.039,0.232-0.08,0.455-0.118,0.668c-0.038,0.214-0.077,0.42-0.115,0.615c-0.039,0.351-0.079,0.692-0.117,1.022
				c-0.038,0.329-0.06,0.654-0.06,0.961c0,1.131,0.371,1.843,1.116,2.133c0.741,0.291,1.558,0.478,2.456,0.554
				c0.118,0,0.233,0,0.352,0c0.117,0,0.235,0,0.354,0c0.192,0,0.367,0.014,0.526,0.03c0.155,0.022,0.313,0.026,0.469,0.026v0.996
				h-10.424v-1.053h2.459l9.487-39.895h1.053l10.662,33.647c0.312,0.976,0.583,1.803,0.819,2.484
				c0.234,0.682,0.469,1.236,0.703,1.664c0.392,0.817,0.821,1.372,1.292,1.664c0.469,0.292,1.089,0.458,1.872,0.496v0.994h-9.606
				v-1.053h3.633l-8.082-25.875H208.726z M210.425,39.803l-1.522,6.016h3.397L210.425,39.803z"/>
		</g>
	</g>
	<g>
		<path fill="#138E98" d="M84.3,94.108c2.278,0.006,4.389,0.982,6.334,2.927c1.96,1.961,2.939,4.326,2.939,7.104
			c0,2.773-0.98,5.136-2.939,7.094c-1.959,1.964-4.326,2.94-7.099,2.94c-0.463,0.052-0.915,0.074-1.351,0.074
			c-2.702,0-4.9-0.844-6.589-2.536c-0.914-0.914-1.611-1.919-2.1-3.011l3.139-2.024c0.304,0.901,0.822,1.716,1.553,2.447
			c0.986,0.999,2.324,1.496,4.016,1.496c0.425,0,0.872-0.03,1.334-0.09c1.765,0,3.269-0.623,4.519-1.871
			c1.248-1.25,1.87-2.753,1.87-4.52c0-1.765-0.623-3.27-1.87-4.519c-1.25-1.248-2.754-1.869-4.519-1.869h0.038
			c-2.827-0.024-5.206-1.004-7.14-2.94c-1.96-1.957-2.94-4.326-2.94-7.101c0-2.773,0.979-5.14,2.94-7.1
			c1.958-1.96,4.326-2.939,7.101-2.939c3.043,0,5.688,1.43,7.94,4.289c0.915,0.917,1.613,1.917,2.101,3.013l-3.139,2.024
			c-0.292-0.902-0.803-1.724-1.534-2.465c-1.547-2.142-3.336-3.214-5.367-3.214c-1.766,0-3.271,0.624-4.518,1.873
			c-1.25,1.248-1.871,2.75-1.871,4.519c0,1.764,0.622,3.267,1.871,4.516C80.263,93.475,82.026,94.104,84.3,94.108z"/>
		<path fill="#138E98" d="M98.991,97.413h-2.396v-2.396h2.396V87.81h2.398v7.208h4.79v2.396h-4.79v9.57
			c0,2.27,0.464,3.635,1.398,4.104c0.935,0.467,2.066,0.702,3.39,0.702v2.397c-1.988,0-3.686-0.467-5.084-1.401
			c-1.402-0.935-2.104-2.864-2.104-5.784L98.991,97.413L98.991,97.413z"/>
		<path fill="#138E98" d="M122.944,114.156h-2.396v-1.186c-1.341,0.807-2.938,1.211-4.791,1.211c-1.987,0-3.685-0.467-5.087-1.402
			c-1.398-0.935-2.102-2.063-2.102-3.389V94.998h2.396v14.393c0,0.661,0.467,1.226,1.401,1.694c0.934,0.466,2.065,0.701,3.389,0.701
			c1.322,0,2.453-0.235,3.387-0.701c0.935-0.469,1.402-1.839,1.402-4.114V94.998h2.396L122.944,114.156L122.944,114.156z"/>
		<path fill="#138E98" d="M137.314,87.836h2.396v26.346h-2.396v-1.246c-1.341,0.815-2.937,1.221-4.789,1.221
			c-1.989,0-3.687-0.466-5.092-1.401c-1.387-0.925-2.087-2.847-2.097-5.761v-4.788c0.01-2.93,0.707-4.859,2.097-5.784
			c1.406-0.936,3.101-1.404,5.092-1.404c1.853,0,3.448,0.409,4.789,1.224V87.836z M127.735,106.994
			c0.007,2.252,0.474,3.611,1.4,4.071c0.933,0.461,2.064,0.695,3.388,0.695c1.326,0,2.455-0.234,3.387-0.695
			c0.926-0.46,1.393-1.02,1.401-1.677V99.78c-0.009-0.654-0.476-1.213-1.401-1.677c-0.932-0.461-2.062-0.695-3.387-0.695
			c-1.323,0-2.455,0.234-3.388,0.695c-0.925,0.464-1.394,1.829-1.4,4.096V106.994z"/>
		<path fill="#138E98" d="M146.896,95.018v19.164h-2.395V97.413h-2.398v-2.396H146.896z M143.827,92.098
			c-0.351-0.351-0.526-0.771-0.526-1.268c0-0.493,0.176-0.916,0.526-1.267c0.354-0.354,0.775-0.533,1.27-0.533
			c0.495,0,0.918,0.179,1.269,0.533c0.353,0.351,0.528,0.773,0.528,1.267c0,0.496-0.176,0.917-0.528,1.268
			c-0.351,0.353-0.773,0.53-1.269,0.53C144.603,92.625,144.18,92.449,143.827,92.098z"/>
		<path fill="#138E98" d="M149.289,102.206c0-2.939,0.703-4.879,2.103-5.814c1.401-0.928,3.094-1.396,5.087-1.396
			c1.985,0,3.682,0.469,5.082,1.396c1.401,0.936,2.104,2.067,2.104,3.392v7.21c0,2.92-0.702,4.848-2.104,5.782
			c-1.4,0.936-3.093,1.401-5.082,1.401c-1.987,0-3.686-0.466-5.087-1.401c-1.399-0.935-2.103-2.064-2.103-3.387V102.206z
			 M161.264,99.786c0-0.661-0.466-1.228-1.396-1.694c-0.935-0.466-2.069-0.701-3.389-0.701c-1.326,0-2.455,0.235-3.389,0.701
			c-0.935,0.467-1.401,1.839-1.401,4.114v7.183c0,0.659,0.467,1.228,1.401,1.693c0.934,0.466,2.063,0.7,3.389,0.7
			c1.322,0,2.454-0.234,3.389-0.7c0.931-0.466,1.396-1.831,1.396-4.089V99.786z"/>
	</g>
</g>
</svg>
