<?xml version="1.0" encoding="utf-8"?>
<!-- Generator: Adobe Illustrator 16.0.0, SVG Export Plug-In . SVG Version: 6.00 Build 0)  -->
<!DOCTYPE svg PUBLIC "-//W3C//DTD SVG 1.1//EN" "http://www.w3.org/Graphics/SVG/1.1/DTD/svg11.dtd">
<svg version="1.1" id="Layer_1" xmlns="http://www.w3.org/2000/svg" xmlns:xlink="http://www.w3.org/1999/xlink" x="0px" y="0px"
	 width="374px" height="448px" viewBox="0 0 374 448" enable-background="new 0 0 374 448" xml:space="preserve">
<g opacity="0.1">
	<g>
		<g>
			<g>
				<path fill="#0074BC" d="M-116.356,318.878c0,4.901-1.871,9.804-5.609,13.538c-3.735,3.738-8.638,5.609-13.537,5.609h-99.556
					c-4.898,0-9.801-1.871-13.537-5.609c-3.74-3.734-5.609-8.637-5.609-13.538V127.425c0-4.9,1.87-9.8,5.609-13.538
					c3.736-3.738,8.639-5.609,13.537-5.609h99.556c4.899,0,9.802,1.871,13.537,5.609c3.738,3.738,5.609,8.637,5.609,13.538V318.878
					L-116.356,318.878z"/>
				<rect x="-246.545" y="146.567" fill="#FFFFFF" width="122.531" height="153.167"/>
				
					<line fill="none" stroke="#FFFFFF" stroke-width="0.75" stroke-miterlimit="10" x1="-200.597" y1="127.425" x2="-169.963" y2="127.425"/>
				
					<line fill="none" stroke="#FFFFFF" stroke-width="0.75" stroke-linecap="round" stroke-miterlimit="10" x1="-192.939" y1="318.878" x2="-177.621" y2="318.878"/>
			</g>
			<g>
				
					<line fill="none" stroke="#4D4D4D" stroke-width="0.75" stroke-miterlimit="10" x1="-204.426" y1="280.589" x2="-196.768" y2="280.589"/>
				
					<line fill="none" stroke="#4D4D4D" stroke-width="0.75" stroke-miterlimit="10" x1="-189.108" y1="280.589" x2="-181.452" y2="280.589"/>
				
					<line fill="none" stroke="#4D4D4D" stroke-width="0.75" stroke-miterlimit="10" x1="-173.793" y1="280.589" x2="-166.136" y2="280.589"/>
			</g>
		</g>
	</g>
</g>
<g opacity="0.05">
	<g>
		<g>
			<g>
				<path fill="#0074BC" d="M-132.151,302.333c0,4.897-1.871,9.8-5.609,13.535c-3.736,3.739-8.638,5.61-13.537,5.61h-99.556
					c-4.898,0-9.801-1.871-13.537-5.61c-3.74-3.735-5.609-8.638-5.609-13.535V110.878c0-4.9,1.869-9.8,5.609-13.537
					c3.736-3.739,8.639-5.61,13.537-5.61h99.556c4.899,0,9.801,1.871,13.537,5.61c3.738,3.737,5.609,8.637,5.609,13.537V302.333z"/>
				<rect x="-262.341" y="130.021" fill="#FFFFFF" width="122.529" height="153.167"/>
				
					<line fill="none" stroke="#FFFFFF" stroke-width="0.75" stroke-miterlimit="10" x1="-216.393" y1="110.878" x2="-185.759" y2="110.878"/>
				
					<line fill="none" stroke="#FFFFFF" stroke-width="0.75" stroke-linecap="round" stroke-miterlimit="10" x1="-208.734" y1="302.333" x2="-193.415" y2="302.333"/>
			</g>
			<g>
				
					<line fill="none" stroke="#4D4D4D" stroke-width="0.75" stroke-miterlimit="10" x1="-220.221" y1="264.041" x2="-212.562" y2="264.041"/>
				
					<line fill="none" stroke="#4D4D4D" stroke-width="0.75" stroke-miterlimit="10" x1="-204.904" y1="264.041" x2="-197.247" y2="264.041"/>
				
					<line fill="none" stroke="#4D4D4D" stroke-width="0.75" stroke-miterlimit="10" x1="-189.588" y1="264.041" x2="-181.931" y2="264.041"/>
			</g>
		</g>
	</g>
</g>
<g>
	<g>
		<path fill="#D8E1E5" d="M-148.864,243.141c0,6.252-19.008,11.326-42.472,11.326c-23.462,0-42.472-5.074-42.472-11.326
			c0-6.255,19.009-11.326,42.472-11.326C-167.872,231.814-148.864,236.886-148.864,243.141z"/>
		<g>
			<g>
				
					<line fill="none" stroke="#FFFFFF" stroke-width="2" stroke-miterlimit="10" x1="-198.415" y1="243.141" x2="-195.583" y2="243.141"/>
				
					<line fill="none" stroke="#FFFFFF" stroke-width="2" stroke-miterlimit="10" x1="-192.752" y1="243.141" x2="-189.921" y2="243.141"/>
				
					<line fill="none" stroke="#FFFFFF" stroke-width="2" stroke-miterlimit="10" x1="-187.088" y1="243.141" x2="-184.257" y2="243.141"/>
			</g>
		</g>
		<g>
			<g>
				<path fill="none" stroke="#4D4D4D" stroke-width="2" stroke-miterlimit="10" d="M-208.326,219.073
					c4.729,3.553,10.619,5.663,16.99,5.663c15.644,0,28.315-12.671,28.315-28.314"/>
				
					<line fill="none" stroke="#4D4D4D" stroke-width="2" stroke-miterlimit="10" x1="-191.336" y1="220.489" x2="-191.336" y2="228.982"/>
			</g>
			<polygon fill="#383B3D" points="-165.853,234.646 -171.516,234.646 -187.088,204.916 -195.583,204.916 -211.156,234.646 
				-216.819,234.646 -201.246,193.591 -191.336,196.422 -181.425,193.591 			"/>
			<g>
				<polygon fill="#FFFFFF" points="-216.819,234.646 -221.066,244.557 -213.988,234.646 				"/>
				<polygon fill="#FFFFFF" points="-165.853,234.646 -161.606,244.557 -168.685,234.646 				"/>
			</g>
			<path fill="#4D4D4D" d="M-189.333,167.521c-0.555-0.553-1.279-0.83-2.003-0.83s-1.449,0.276-2.003,0.83
				c-0.554,0.554-0.83,1.278-0.83,2.002v8.494h5.663v-8.494C-188.506,168.799-188.782,168.074-189.333,167.521z"/>
			<g>
				<path fill="#0C78BA" d="M-191.336,175.186c-7.037,0-12.742,5.704-12.742,12.742c0,7.038,5.705,12.742,12.742,12.742
					s12.741-5.705,12.741-12.742C-178.595,180.891-184.299,175.186-191.336,175.186z M-191.336,196.422
					c-4.692,0-8.494-3.802-8.494-8.495c0-4.692,3.802-8.494,8.494-8.494s8.495,3.801,8.495,8.494
					C-182.841,192.62-186.644,196.422-191.336,196.422z"/>
				<circle fill="none" stroke="#4D4D4D" stroke-width="2" stroke-miterlimit="10" cx="-191.335" cy="187.927" r="8.495"/>
			</g>
		</g>
	</g>
</g>
<g>
	
		<text transform="matrix(1.1569 0 0 1 -189.7109 592.7344)" fill="#AD6B2E" font-family="'EdwardianScriptITC'" font-size="74.4924">C</text>
	
		<text transform="matrix(1.1569 0 0 1 -121.0371 592.7344)" fill="#AD6B2E" font-family="'EdwardianScriptITC'" font-size="56.8544">rew</text>
	<g>
		<g>
			<path fill="#148E97" d="M-214.307,260.176c0,0-2.188-3.049,0.252-7.33c2.44-4.283-1.183-6.92-1.183-6.92l2.7,0.045
				c0,0,3.095,2.943-0.134,6.967c-3.227,4.025-1.636,7.246-1.636,7.246"/>
			<circle fill="#148E97" cx="-214.083" cy="260.438" r="0.786"/>
		</g>
		<text transform="matrix(1.0027 0 0 1 -225.5396 261.4434)" fill="#626366" font-family="'Occidental'" font-size="22.0759">T</text>
	</g>
</g>
<g>
	<g>
		<g>
			<g>
				<g>
					<g>
						<path fill="#FFFFFF" d="M-204.553,269.01l1.489,1.402c-0.015-0.01,0.217-0.193,0.401-0.578
							c0.189-0.375,0.53-0.841,0.662-1.393c0.088-0.268,0.176-0.533,0.258-0.783c0.033-0.26,0.064-0.502,0.091-0.71
							c0.051-0.415,0.086-0.692,0.086-0.692l-1.646-1.174c0,0-0.026,0.264-0.066,0.656c-0.021,0.197-0.044,0.428-0.07,0.674
							c-0.074,0.236-0.152,0.488-0.23,0.74c-0.114,0.522-0.43,0.961-0.604,1.314C-204.349,268.83-204.567,269-204.553,269.01z"/>
						<path fill="#FFFFFF" d="M-209.998,271.619l1.122,1.652c0,0,0.307,0.008,0.713-0.058c0.413-0.063,0.979-0.071,1.504-0.296
							c0.266-0.089,0.533-0.178,0.782-0.261c0.231-0.13,0.446-0.248,0.631-0.353c0.371-0.203,0.616-0.344,0.606-0.356l-1.387-1.503
							c0.009,0.015-0.222,0.144-0.571,0.33c-0.174,0.095-0.377,0.205-0.595,0.322c-0.236,0.074-0.488,0.153-0.74,0.232
							c-0.496,0.202-1.033,0.195-1.425,0.248C-209.759,271.632-209.998,271.619-209.998,271.619z"/>
						<path fill="#FFFFFF" d="M-215.922,271.619v1.777c0,0,0.28-0.002,0.701-0.004c0.446-0.009,1.042-0.021,1.637-0.031
							c1.19-0.022,2.38-0.045,2.38-0.045l-0.721-1.697H-215.922z"/>
						<rect x="-222.47" y="271.619" fill="#FFFFFF" width="4.395" height="1.777"/>
						<path fill="#FFFFFF" d="M-228.704,271.619l-0.564,1.715c0,0,1.19,0.023,2.38,0.046c0.609,0.015,1.183,0.021,1.58,0.017
							c0.412,0,0.687,0,0.687,0v-1.776L-228.704,271.619L-228.704,271.619z"/>
						<path fill="#FFFFFF" d="M-234.658,270.85l-1.344,1.535c0,0,0.062,0.035,0.169,0.096c0.112,0.049,0.252,0.168,0.456,0.226
							c0.405,0.104,0.922,0.367,1.478,0.426c0.559,0.062,1.093,0.159,1.557,0.144c0.446,0.01,0.744,0.016,0.744,0.016l0.965-1.67
							c0,0-0.247,0-0.616,0c-0.355,0.023-0.897-0.057-1.419-0.104c-0.527-0.043-1.015-0.281-1.399-0.373
							c-0.193-0.051-0.324-0.162-0.43-0.207C-234.6,270.881-234.658,270.85-234.658,270.85z"/>
						<path fill="#FFFFFF" d="M-238.096,265.891l-1.622,1.219c0.014-0.004,0.004,0.283,0.117,0.687
							c0.066,0.201,0.143,0.435,0.225,0.685c0.079,0.252,0.161,0.521,0.318,0.76c0.27,0.494,0.533,0.994,0.837,1.299
							c0.271,0.325,0.451,0.543,0.451,0.543l1.452-1.443c0,0-0.168-0.203-0.42-0.51c-0.285-0.283-0.526-0.755-0.774-1.222
							c-0.146-0.224-0.217-0.479-0.287-0.718c-0.074-0.236-0.142-0.457-0.201-0.646
							C-238.099,266.16-238.083,265.889-238.096,265.891z"/>
					</g>
				</g>
				<g>
					<g>
						<polygon fill="#FFFFFF" points="-238.178,259.886 -239.926,260.146 -239.847,264.855 -238.178,263.893 						"/>
						<rect x="-239.955" y="253.482" fill="#FFFFFF" width="1.777" height="4.396"/>
						<path fill="#FFFFFF" d="M-238.178,247.105l-1.743-0.306c0,0-0.017,1.167-0.034,2.334c0,1.101,0,2.198,0,2.198h1.777V247.105z"
							/>
						<path fill="#FFFFFF" d="M-238.069,241.089l-1.614-1.231c0,0-0.034,0.276-0.086,0.691c-0.076,0.402-0.058,1.008-0.074,1.592
							c-0.02,1.178-0.04,2.354-0.04,2.354l1.705,0.649c0,0,0-1.002,0-2.002c0.005-0.504-0.021-0.992,0.042-1.396
							C-238.096,241.352-238.069,241.089-238.069,241.089z"/>
						<path fill="#FFFFFF" d="M-234.423,236.268l-1.33-1.547c0,0-0.246,0.137-0.615,0.342c-0.396,0.168-0.783,0.601-1.232,0.938
							c-0.394,0.399-0.743,0.853-1,1.185c-0.206,0.369-0.343,0.615-0.343,0.615l1.537,1.344c0,0,0.126-0.231,0.315-0.58
							c0.239-0.312,0.564-0.733,0.932-1.108c0.422-0.315,0.782-0.722,1.157-0.872C-234.655,236.395-234.423,236.268-234.423,236.268
							z"/>
						<path fill="#FFFFFF" d="M-228.455,235.625l-0.512-1.721c0,0-1.19,0.022-2.38,0.046c-0.59,0.019-1.202,0.007-1.625,0.048
							c-0.416,0.052-0.693,0.086-0.693,0.086l1.217,1.622c0,0,0.263-0.026,0.657-0.065c0.388-0.031,0.867-0.01,1.364-0.016
							C-229.44,235.625-228.455,235.625-228.455,235.625z"/>
						<path fill="#FFFFFF" d="M-222.193,235.625v-1.777c0,0-1.099,0-2.198,0c-0.549,0-1.099,0-1.511,0
							c-0.442,0.008-0.736,0.012-0.736,0.012l0.111,1.767L-222.193,235.625L-222.193,235.625z"/>
					</g>
				</g>
				<g>
					<g>
						<rect x="-220.041" y="233.848" fill="#FFFFFF" width="4.396" height="1.777"/>
						<polygon fill="#FFFFFF" points="-209.749,235.625 -208.575,233.979 -213.336,233.887 -213.691,235.625 						"/>
						<path fill="#FFFFFF" d="M-204.383,238.439l1.502-1.388c0,0-0.181-0.218-0.451-0.544c-0.242-0.354-0.687-0.706-1.125-1.062
							c-0.425-0.375-0.966-0.576-1.321-0.805c-0.182-0.109-0.362-0.134-0.474-0.183c-0.117-0.038-0.184-0.062-0.184-0.062
							l-1.286,1.58c0,0,0.063,0.02,0.173,0.053c0.106,0.045,0.277,0.062,0.448,0.164c0.333,0.211,0.846,0.393,1.244,0.742
							c0.411,0.332,0.828,0.66,1.052,0.992C-204.551,238.236-204.383,238.439-204.383,238.439z"/>
						<path fill="#FFFFFF" d="M-203.211,244.375l1.689-0.785c0,0-0.02-1.176-0.04-2.354c-0.019-0.584-0.124-1.117-0.165-1.539
							c-0.094-0.406-0.201-0.67-0.201-0.67l-1.585,1.275c0,0,0.097,0.249,0.177,0.635c0.03,0.391,0.115,0.931,0.124,1.436
							C-203.211,243.374-203.211,244.375-203.211,244.375z"/>
						<path fill="#FFFFFF" d="M-203.211,250.486h1.777c0,0-0.005-1.118-0.01-2.236c-0.02-1.178-0.04-2.355-0.04-2.355l-1.728,0.44
							L-203.211,250.486L-203.211,250.486z"/>
						<rect x="-203.211" y="252.639" fill="#FFFFFF" width="1.777" height="4.396"/>
						<polygon fill="#FFFFFF" points="-203.211,263.121 -201.526,263.949 -201.448,259.241 -203.211,259.115 						"/>
					</g>
				</g>
			</g>
		</g>
	</g>
</g>
<circle fill="#ABCBD6" cx="-191.336" cy="187.927" r="4.248"/>
<g>
	<g>
		<g>
			<path opacity="0.5" fill="#E4E8EA" stroke="#024B68" stroke-miterlimit="10" enable-background="new    " d="M308.081,285.818
				H48.872v-160.05c0-4.311,1.633-8.621,4.898-11.912c3.262-3.291,7.545-4.936,11.824-4.936h225.763
				c4.281,0,8.563,1.645,11.824,4.936c3.266,3.291,4.897,7.602,4.897,11.912v160.05H308.081z"/>
			<path fill="#8DA9B7" d="M308.617,302.188c0,4.3-1.639,8.598-4.922,11.879c-3.277,3.282-7.582,4.924-11.879,4.924H64.99
				c-4.298,0-8.602-1.642-11.879-4.924c-3.282-3.281-4.922-7.579-4.922-11.879v-16.802h260.428V302.188L308.617,302.188z"/>
			<polygon fill="#46839B" points="216.208,352.594 140.599,352.594 144.8,318.99 212.008,318.99 			"/>
			<polygon fill="#46839B" points="224.609,351.462 132.198,351.462 127.999,359.863 228.808,359.863 			"/>
		</g>
		<g opacity="0.5">
			<rect x="81.793" y="159.373" fill="#FFFFFF" width="25.203" height="25.203"/>
			<rect x="249.811" y="142.57" fill="#FFFFFF" width="25.203" height="42.005"/>
			<rect x="81.793" y="192.976" fill="#FFFFFF" width="25.203" height="25.203"/>
			<rect x="81.793" y="226.58" fill="#FFFFFF" width="25.203" height="25.203"/>
			<g>
				
					<line fill="none" stroke="#4D4D4D" stroke-width="2" stroke-miterlimit="10" x1="81.793" y1="146.771" x2="90.193" y2="146.771"/>
				
					<line fill="none" stroke="#4D4D4D" stroke-width="2" stroke-miterlimit="10" x1="98.595" y1="146.771" x2="106.996" y2="146.771"/>
				
					<line fill="none" stroke="#4D4D4D" stroke-width="2" stroke-miterlimit="10" x1="115.396" y1="146.771" x2="123.797" y2="146.771"/>
			</g>
			<g>
				
					<line fill="none" stroke="#4D4D4D" stroke-width="2" stroke-miterlimit="10" x1="249.811" y1="197.176" x2="275.014" y2="197.176"/>
				
					<line fill="none" stroke="#4D4D4D" stroke-width="2" stroke-miterlimit="10" x1="249.811" y1="213.979" x2="275.014" y2="213.979"/>
				
					<line fill="none" stroke="#4D4D4D" stroke-width="2" stroke-miterlimit="10" x1="249.811" y1="230.779" x2="275.014" y2="230.779"/>
				
					<line fill="none" stroke="#4D4D4D" stroke-width="2" stroke-miterlimit="10" x1="249.811" y1="247.583" x2="275.014" y2="247.583"/>
			</g>
		</g>
		<g opacity="0.3">
			<path opacity="0.5" fill="#E4E8EA" stroke="#024B68" stroke-miterlimit="10" enable-background="new    " d="M328.906,285.399H40
				V107.011c0-4.804,1.821-9.608,5.462-13.277c3.637-3.668,8.41-5.501,13.179-5.501h251.628c4.771,0,9.544,1.833,13.179,5.501
				c3.641,3.668,5.461,8.473,5.461,13.277v178.388H328.906z"/>
			<path fill="#8DA9B7" d="M329.505,303.644c0,4.793-1.828,9.584-5.486,13.241c-3.652,3.657-8.449,5.486-13.24,5.486H57.965
				c-4.791,0-9.586-1.829-13.24-5.486c-3.657-3.657-5.487-8.447-5.487-13.241v-18.727h290.268L329.505,303.644L329.505,303.644z"/>
			<polygon fill="#46839B" points="226.508,359.826 142.237,359.826 146.919,322.371 221.827,322.371 			"/>
			<polygon fill="#46839B" points="235.872,358.565 132.874,358.565 128.191,367.928 240.553,367.928 			"/>
		</g>
	</g>
</g>
<g id="Layer_2_3_">
	<g>
		<g>
			<g>
				<path fill="#148E97" d="M185.433,211.208c0,0-1.884-2.625,0.217-6.312c2.1-3.686-1.019-5.956-1.019-5.956l2.325,0.039
					c0,0,2.664,2.534-0.116,5.999c-2.778,3.463-1.409,6.238-1.409,6.238"/>
				<circle fill="#148E97" cx="185.626" cy="211.435" r="0.676"/>
			</g>
			<text transform="matrix(1.0027 0 0 1 175.7627 212.2998)" fill="#626366" font-family="'Occidental'" font-size="19.0063">T</text>
		</g>
	</g>
</g>
<g>
	<g>
		<g>
			
				<rect x="179.28" y="169.716" transform="matrix(-0.707 -0.7072 0.7072 -0.707 187.7149 420.6516)" fill="none" stroke="#009EFF" stroke-width="2" stroke-miterlimit="10" width="3.444" height="3.444"/>
			
				<rect x="213.382" y="203.807" transform="matrix(-0.7072 -0.707 0.707 -0.7072 221.9053 502.9608)" fill="none" stroke="#009EFF" stroke-width="2" stroke-miterlimit="10" width="3.444" height="3.444"/>
			
				<rect x="145.199" y="203.807" transform="matrix(-0.7072 -0.707 0.707 -0.7072 105.5038 454.7525)" fill="none" stroke="#009EFF" stroke-width="2" stroke-miterlimit="10" width="3.444" height="3.444"/>
			
				<rect x="179.291" y="237.899" transform="matrix(-0.707 -0.7072 0.7072 -0.707 139.5416 537.0494)" fill="none" stroke="#009EFF" stroke-width="2" stroke-miterlimit="10" width="3.444" height="3.443"/>
			
				<line fill="none" stroke="#009EFF" stroke-width="2" stroke-miterlimit="10" stroke-dasharray="2" x1="184.057" y1="174.483" x2="212.062" y2="202.487"/>
			
				<line fill="none" stroke="#009EFF" stroke-width="2" stroke-miterlimit="10" stroke-dasharray="2" x1="149.965" y1="208.574" x2="177.97" y2="236.579"/>
			
				<line fill="none" stroke="#009EFF" stroke-width="2" stroke-miterlimit="10" stroke-dasharray="2" x1="212.062" y1="208.574" x2="184.057" y2="236.579"/>
			
				<line fill="none" stroke="#009EFF" stroke-width="2" stroke-miterlimit="10" stroke-dasharray="2" x1="177.97" y1="174.483" x2="149.965" y2="202.487"/>
		</g>
	</g>
</g>
<g>
	<g>
		<g>
			<polygon fill="#0EB5E2" points="649.568,102.467 600.119,102.467 572.304,148.826 649.568,148.826 			"/>
			<polygon fill="#0EB5E2" points="649.568,148.826 572.304,148.826 600.119,195.185 649.568,195.185 			"/>
			<polygon fill="#4989B8" points="677.381,148.826 649.568,102.467 621.753,148.826 649.568,195.185 			"/>
		</g>
		<g opacity="0.1">
			<polygon fill="#0EB5E2" points="629.254,102.467 579.805,102.467 551.99,148.826 629.254,148.826 			"/>
			<polygon fill="#0EB5E2" points="629.254,148.826 551.99,148.826 579.805,195.185 629.254,195.185 			"/>
			<polygon fill="#4989B8" points="657.066,148.826 629.254,102.467 601.438,148.826 629.254,195.185 			"/>
		</g>
		<g>
			<polygon fill="#88BED8" points="543.259,168.598 493.809,168.598 465.995,214.957 543.259,214.957 			"/>
			<polygon fill="#88BED8" points="543.259,214.957 465.995,214.957 493.809,261.314 543.259,261.314 			"/>
			<polygon fill="#B9DBED" points="571.073,214.957 543.259,168.598 515.444,214.957 543.259,261.314 			"/>
		</g>
		<g opacity="0.3">
			<polygon fill="#88BED8" points="547.337,194.602 497.886,194.602 470.073,240.96 547.337,240.96 			"/>
			<polygon fill="#88BED8" points="547.337,240.96 470.073,240.96 497.886,287.318 547.337,287.318 			"/>
			<polygon fill="#B9DBED" points="575.15,240.96 547.337,194.602 519.521,240.96 547.337,287.318 			"/>
		</g>
		<g>
			<polygon fill="none" stroke="#4D4D4D" stroke-width="2" stroke-miterlimit="10" points="674.292,281.086 649.567,237.816 
				600.117,237.816 575.392,281.086 600.117,324.354 649.567,324.354 			"/>
			<polyline fill="none" stroke="#4D4D4D" stroke-width="2" stroke-miterlimit="10" points="649.567,237.816 624.842,281.086 
				649.567,324.354 			"/>
			
				<line fill="none" stroke="#4D4D4D" stroke-width="2" stroke-miterlimit="10" x1="624.842" y1="281.086" x2="575.392" y2="281.086"/>
		</g>
		<g opacity="0.1">
			<polygon fill="none" stroke="#4D4D4D" stroke-width="2" stroke-miterlimit="10" points="698.227,262.061 673.502,218.791 
				624.052,218.791 599.327,262.061 624.052,305.327 673.502,305.327 			"/>
			<polyline fill="none" stroke="#4D4D4D" stroke-width="2" stroke-miterlimit="10" points="673.502,218.791 648.776,262.061 
				673.502,305.327 			"/>
			
				<line fill="none" stroke="#4D4D4D" stroke-width="2" stroke-miterlimit="10" x1="648.776" y1="262.061" x2="599.327" y2="262.061"/>
		</g>
		<g>
			
				<line fill="none" stroke="#0CE9F4" stroke-width="2" stroke-miterlimit="10" x1="616.225" y1="218.354" x2="610.044" y2="218.354"/>
			
				<line fill="none" stroke="#0CE9F4" stroke-width="2" stroke-miterlimit="10" x1="569.153" y1="177.269" x2="565.547" y2="172.248"/>
			
				<line fill="none" stroke="#0CE9F4" stroke-width="2" stroke-miterlimit="10" x1="575.771" y1="240.975" x2="572.518" y2="246.229"/>
			<line fill="none" stroke="#0CE9F4" stroke-width="2" stroke-miterlimit="10" x1="650.2" y1="218.354" x2="644.02" y2="218.354"/>
			
				<line fill="none" stroke="#0CE9F4" stroke-width="2" stroke-miterlimit="10" x1="566.939" y1="255.245" x2="563.684" y2="260.5"/>
			
				<line fill="none" stroke="#0CE9F4" stroke-width="2" stroke-miterlimit="10" x1="553.349" y1="275.63" x2="550.094" y2="280.886"/>
		</g>
	</g>
</g>
<g id="Layer_2_2_">
	<g>
		<g>
			<g>
				<path fill="#148E97" d="M596.312,224.723c0,0-2.188-3.049,0.253-7.33c2.439-4.281-1.185-6.92-1.185-6.92l2.699,0.047
					c0,0,3.096,2.941-0.133,6.967c-3.228,4.021-1.64,7.246-1.64,7.246"/>
				<circle fill="#148E97" cx="596.538" cy="224.987" r="0.786"/>
			</g>
			<text transform="matrix(1.0027 0 0 1 585.0801 225.9912)" fill="#626366" font-family="'Occidental'" font-size="22.0759">T</text>
		</g>
	</g>
</g>
</svg>
