<?xml version="1.0" encoding="utf-8"?>
<!-- Generator: Adobe Illustrator 16.0.0, SVG Export Plug-In . SVG Version: 6.00 Build 0)  -->
<!DOCTYPE svg PUBLIC "-//W3C//DTD SVG 1.1//EN" "http://www.w3.org/Graphics/SVG/1.1/DTD/svg11.dtd">
<svg version="1.1" id="Layer_1" xmlns="http://www.w3.org/2000/svg" xmlns:xlink="http://www.w3.org/1999/xlink" x="0px" y="0px"
	 width="374px" height="448px" viewBox="0 0 374 448" enable-background="new 0 0 374 448" xml:space="preserve">
<g opacity="0.1">
	<g>
		<g>
			<g>
				<path fill="#0074BC" d="M-506.356,318.878c0,4.901-1.871,9.803-5.609,13.538c-3.735,3.739-8.638,5.609-13.537,5.609h-99.556
					c-4.898,0-9.801-1.87-13.537-5.609c-3.74-3.735-5.609-8.637-5.609-13.538V127.425c0-4.9,1.87-9.8,5.609-13.538
					c3.736-3.738,8.639-5.609,13.537-5.609h99.556c4.899,0,9.802,1.871,13.537,5.609c3.738,3.738,5.609,8.637,5.609,13.538V318.878z
					"/>
				<rect x="-636.545" y="146.567" fill="#FFFFFF" width="122.531" height="153.167"/>
				
					<line fill="none" stroke="#FFFFFF" stroke-width="0.75" stroke-miterlimit="10" x1="-590.597" y1="127.425" x2="-559.963" y2="127.425"/>
				
					<line fill="none" stroke="#FFFFFF" stroke-width="0.75" stroke-linecap="round" stroke-miterlimit="10" x1="-582.939" y1="318.878" x2="-567.621" y2="318.878"/>
			</g>
			<g>
				
					<line fill="none" stroke="#4D4D4D" stroke-width="0.75" stroke-miterlimit="10" x1="-594.426" y1="280.589" x2="-586.768" y2="280.589"/>
				
					<line fill="none" stroke="#4D4D4D" stroke-width="0.75" stroke-miterlimit="10" x1="-579.108" y1="280.589" x2="-571.452" y2="280.589"/>
				
					<line fill="none" stroke="#4D4D4D" stroke-width="0.75" stroke-miterlimit="10" x1="-563.793" y1="280.589" x2="-556.136" y2="280.589"/>
			</g>
		</g>
	</g>
</g>
<g opacity="0.05">
	<g>
		<g>
			<g>
				<path fill="#0074BC" d="M-522.151,302.333c0,4.898-1.871,9.8-5.609,13.535c-3.736,3.739-8.638,5.609-13.537,5.609h-99.556
					c-4.898,0-9.801-1.87-13.537-5.609c-3.74-3.735-5.609-8.637-5.609-13.535V110.878c0-4.9,1.869-9.8,5.609-13.537
					c3.736-3.739,8.639-5.61,13.537-5.61h99.556c4.899,0,9.801,1.871,13.537,5.61c3.738,3.737,5.609,8.637,5.609,13.537V302.333z"/>
				<rect x="-652.341" y="130.021" fill="#FFFFFF" width="122.529" height="153.167"/>
				
					<line fill="none" stroke="#FFFFFF" stroke-width="0.75" stroke-miterlimit="10" x1="-606.393" y1="110.878" x2="-575.759" y2="110.878"/>
				
					<line fill="none" stroke="#FFFFFF" stroke-width="0.75" stroke-linecap="round" stroke-miterlimit="10" x1="-598.734" y1="302.333" x2="-583.415" y2="302.333"/>
			</g>
			<g>
				
					<line fill="none" stroke="#4D4D4D" stroke-width="0.75" stroke-miterlimit="10" x1="-610.221" y1="264.041" x2="-602.562" y2="264.041"/>
				
					<line fill="none" stroke="#4D4D4D" stroke-width="0.75" stroke-miterlimit="10" x1="-594.904" y1="264.041" x2="-587.247" y2="264.041"/>
				
					<line fill="none" stroke="#4D4D4D" stroke-width="0.75" stroke-miterlimit="10" x1="-579.588" y1="264.041" x2="-571.931" y2="264.041"/>
			</g>
		</g>
	</g>
</g>
<g>
	<g>
		<path fill="#D8E1E5" d="M-538.864,243.141c0,6.252-19.008,11.326-42.472,11.326c-23.462,0-42.472-5.074-42.472-11.326
			c0-6.255,19.009-11.326,42.472-11.326C-557.872,231.814-538.864,236.886-538.864,243.141z"/>
		<g>
			<g>
				
					<line fill="none" stroke="#FFFFFF" stroke-width="2" stroke-miterlimit="10" x1="-588.415" y1="243.141" x2="-585.583" y2="243.141"/>
				
					<line fill="none" stroke="#FFFFFF" stroke-width="2" stroke-miterlimit="10" x1="-582.752" y1="243.141" x2="-579.921" y2="243.141"/>
				
					<line fill="none" stroke="#FFFFFF" stroke-width="2" stroke-miterlimit="10" x1="-577.088" y1="243.141" x2="-574.257" y2="243.141"/>
			</g>
		</g>
		<g>
			<g>
				<path fill="none" stroke="#4D4D4D" stroke-width="2" stroke-miterlimit="10" d="M-598.326,219.073
					c4.729,3.553,10.619,5.663,16.99,5.663c15.644,0,28.315-12.671,28.315-28.314"/>
				
					<line fill="none" stroke="#4D4D4D" stroke-width="2" stroke-miterlimit="10" x1="-581.336" y1="220.489" x2="-581.336" y2="228.982"/>
			</g>
			<polygon fill="#383B3D" points="-555.853,234.646 -561.516,234.646 -577.088,204.916 -585.583,204.916 -601.156,234.646 
				-606.819,234.646 -591.246,193.591 -581.336,196.422 -571.425,193.591 			"/>
			<g>
				<polygon fill="#FFFFFF" points="-606.819,234.646 -611.066,244.557 -603.988,234.646 				"/>
				<polygon fill="#FFFFFF" points="-555.853,234.646 -551.606,244.557 -558.685,234.646 				"/>
			</g>
			<path fill="#4D4D4D" d="M-579.333,167.521c-0.555-0.553-1.279-0.83-2.003-0.83s-1.449,0.276-2.003,0.83
				c-0.554,0.554-0.83,1.278-0.83,2.002v8.494h5.663v-8.494C-578.506,168.799-578.782,168.074-579.333,167.521z"/>
			<g>
				<path fill="#0C78BA" d="M-581.336,175.186c-7.037,0-12.742,5.704-12.742,12.742c0,7.038,5.705,12.742,12.742,12.742
					s12.741-5.705,12.741-12.742C-568.595,180.891-574.299,175.186-581.336,175.186z M-581.336,196.422
					c-4.692,0-8.494-3.802-8.494-8.495c0-4.692,3.802-8.494,8.494-8.494s8.495,3.801,8.495,8.494
					C-572.841,192.62-576.644,196.422-581.336,196.422z"/>
				<circle fill="none" stroke="#4D4D4D" stroke-width="2" stroke-miterlimit="10" cx="-581.335" cy="187.927" r="8.495"/>
			</g>
		</g>
	</g>
</g>
<g>
	
		<text transform="matrix(1.1569 0 0 1 -579.7119 592.7344)" fill="#AD6B2E" font-family="'EdwardianScriptITC'" font-size="74.4924">C</text>
	
		<text transform="matrix(1.1569 0 0 1 -511.0371 592.7344)" fill="#AD6B2E" font-family="'EdwardianScriptITC'" font-size="56.8544">rew</text>
	<g>
		<g>
			<path fill="#148E97" d="M-604.307,260.176c0,0-2.188-3.049,0.252-7.33c2.44-4.283-1.183-6.92-1.183-6.92l2.7,0.045
				c0,0,3.095,2.943-0.134,6.967c-3.227,4.025-1.636,7.246-1.636,7.246"/>
			<circle fill="#148E97" cx="-604.083" cy="260.438" r="0.786"/>
		</g>
		<text transform="matrix(1.0027 0 0 1 -615.5396 261.4434)" fill="#626366" font-family="'Occidental'" font-size="22.0759">T</text>
	</g>
</g>
<g>
	<g>
		<g>
			<g>
				<g>
					<g>
						<path fill="#FFFFFF" d="M-594.553,269.01l1.489,1.402c-0.015-0.01,0.217-0.193,0.401-0.578
							c0.189-0.375,0.53-0.841,0.662-1.393c0.088-0.268,0.176-0.533,0.258-0.783c0.033-0.26,0.064-0.502,0.091-0.71
							c0.051-0.415,0.086-0.692,0.086-0.692l-1.646-1.174c0,0-0.026,0.264-0.066,0.656c-0.021,0.197-0.044,0.428-0.07,0.674
							c-0.074,0.236-0.152,0.488-0.23,0.74c-0.114,0.522-0.43,0.961-0.604,1.314C-594.349,268.83-594.567,269-594.553,269.01z"/>
						<path fill="#FFFFFF" d="M-599.998,271.619l1.122,1.652c0,0,0.307,0.008,0.713-0.058c0.413-0.063,0.979-0.071,1.504-0.296
							c0.266-0.089,0.533-0.178,0.782-0.261c0.231-0.13,0.446-0.248,0.631-0.353c0.371-0.203,0.616-0.344,0.606-0.356l-1.387-1.503
							c0.009,0.015-0.222,0.144-0.571,0.33c-0.174,0.095-0.377,0.205-0.595,0.322c-0.236,0.074-0.488,0.153-0.74,0.232
							c-0.496,0.202-1.033,0.195-1.425,0.248C-599.759,271.632-599.998,271.619-599.998,271.619z"/>
						<path fill="#FFFFFF" d="M-605.922,271.619v1.777c0,0,0.28-0.002,0.701-0.004c0.446-0.009,1.042-0.021,1.637-0.031
							c1.19-0.022,2.38-0.045,2.38-0.045l-0.721-1.697H-605.922z"/>
						<rect x="-612.47" y="271.619" fill="#FFFFFF" width="4.395" height="1.777"/>
						<path fill="#FFFFFF" d="M-618.704,271.619l-0.564,1.715c0,0,1.19,0.023,2.38,0.046c0.609,0.015,1.183,0.021,1.58,0.017
							c0.412,0,0.687,0,0.687,0v-1.776L-618.704,271.619L-618.704,271.619z"/>
						<path fill="#FFFFFF" d="M-624.658,270.85l-1.344,1.535c0,0,0.062,0.035,0.169,0.096c0.112,0.049,0.252,0.168,0.456,0.226
							c0.405,0.104,0.922,0.367,1.478,0.426c0.559,0.062,1.093,0.159,1.557,0.144c0.446,0.01,0.744,0.016,0.744,0.016l0.965-1.67
							c0,0-0.247,0-0.616,0c-0.355,0.023-0.897-0.057-1.419-0.104c-0.527-0.043-1.015-0.281-1.399-0.373
							c-0.193-0.051-0.324-0.162-0.43-0.207C-624.6,270.881-624.658,270.85-624.658,270.85z"/>
						<path fill="#FFFFFF" d="M-628.096,265.891l-1.622,1.219c0.014-0.004,0.004,0.283,0.117,0.687
							c0.066,0.201,0.143,0.435,0.225,0.685c0.079,0.252,0.161,0.521,0.318,0.76c0.27,0.494,0.533,0.994,0.837,1.299
							c0.271,0.325,0.451,0.543,0.451,0.543l1.452-1.443c0,0-0.168-0.203-0.42-0.51c-0.285-0.283-0.526-0.755-0.774-1.222
							c-0.145-0.224-0.217-0.479-0.287-0.718c-0.074-0.236-0.142-0.457-0.201-0.646
							C-628.099,266.16-628.083,265.889-628.096,265.891z"/>
					</g>
				</g>
				<g>
					<g>
						<polygon fill="#FFFFFF" points="-628.178,259.886 -629.926,260.146 -629.847,264.855 -628.178,263.893 						"/>
						<rect x="-629.955" y="253.482" fill="#FFFFFF" width="1.777" height="4.396"/>
						<path fill="#FFFFFF" d="M-628.178,247.105l-1.743-0.306c0,0-0.017,1.167-0.034,2.334c0,1.101,0,2.198,0,2.198h1.777V247.105z"
							/>
						<path fill="#FFFFFF" d="M-628.069,241.089l-1.614-1.231c0,0-0.034,0.276-0.086,0.691c-0.076,0.402-0.058,1.008-0.074,1.592
							c-0.02,1.178-0.04,2.354-0.04,2.354l1.705,0.649c0,0,0-1.002,0-2.002c0.005-0.504-0.02-0.992,0.042-1.396
							C-628.096,241.352-628.069,241.089-628.069,241.089z"/>
						<path fill="#FFFFFF" d="M-624.423,236.268l-1.33-1.547c0,0-0.246,0.137-0.615,0.342c-0.396,0.168-0.783,0.601-1.232,0.938
							c-0.394,0.399-0.743,0.853-1,1.185c-0.206,0.369-0.343,0.615-0.343,0.615l1.537,1.344c0,0,0.126-0.231,0.315-0.58
							c0.239-0.312,0.564-0.733,0.932-1.108c0.422-0.315,0.782-0.722,1.157-0.872C-624.655,236.395-624.423,236.268-624.423,236.268
							z"/>
						<path fill="#FFFFFF" d="M-618.455,235.625l-0.512-1.721c0,0-1.19,0.022-2.38,0.046c-0.59,0.019-1.202,0.007-1.625,0.048
							c-0.416,0.052-0.693,0.086-0.693,0.086l1.217,1.622c0,0,0.263-0.026,0.657-0.065c0.388-0.031,0.867-0.01,1.364-0.016
							C-619.44,235.625-618.455,235.625-618.455,235.625z"/>
						<path fill="#FFFFFF" d="M-612.193,235.625v-1.777c0,0-1.099,0-2.198,0c-0.549,0-1.099,0-1.511,0
							c-0.442,0.008-0.736,0.012-0.736,0.012l0.111,1.767L-612.193,235.625L-612.193,235.625z"/>
					</g>
				</g>
				<g>
					<g>
						<rect x="-610.041" y="233.848" fill="#FFFFFF" width="4.396" height="1.777"/>
						<polygon fill="#FFFFFF" points="-599.749,235.625 -598.575,233.979 -603.336,233.887 -603.691,235.625 						"/>
						<path fill="#FFFFFF" d="M-594.383,238.439l1.502-1.388c0,0-0.181-0.218-0.451-0.544c-0.242-0.354-0.687-0.706-1.125-1.062
							c-0.425-0.375-0.966-0.576-1.321-0.805c-0.182-0.109-0.362-0.134-0.474-0.183c-0.117-0.038-0.184-0.062-0.184-0.062
							l-1.286,1.58c0,0,0.063,0.02,0.173,0.053c0.106,0.045,0.277,0.062,0.448,0.164c0.333,0.211,0.846,0.393,1.244,0.742
							c0.411,0.332,0.828,0.66,1.052,0.992C-594.551,238.236-594.383,238.439-594.383,238.439z"/>
						<path fill="#FFFFFF" d="M-593.211,244.375l1.689-0.785c0,0-0.02-1.176-0.04-2.354c-0.019-0.584-0.124-1.117-0.165-1.539
							c-0.094-0.406-0.201-0.67-0.201-0.67l-1.585,1.275c0,0,0.097,0.249,0.177,0.635c0.03,0.391,0.115,0.931,0.124,1.436
							C-593.211,243.374-593.211,244.375-593.211,244.375z"/>
						<path fill="#FFFFFF" d="M-593.211,250.486h1.777c0,0-0.005-1.118-0.01-2.236c-0.02-1.178-0.04-2.355-0.04-2.355l-1.728,0.44
							L-593.211,250.486L-593.211,250.486z"/>
						<rect x="-593.211" y="252.639" fill="#FFFFFF" width="1.777" height="4.396"/>
						<polygon fill="#FFFFFF" points="-593.211,263.121 -591.526,263.949 -591.448,259.241 -593.211,259.115 						"/>
					</g>
				</g>
			</g>
		</g>
	</g>
</g>
<circle fill="#ABCBD6" cx="-581.336" cy="187.927" r="4.248"/>
<g>
	<g>
		<g>
			<path opacity="0.5" fill="#E4E8EA" stroke="#024B68" stroke-miterlimit="10" enable-background="new    " d="M-61.939,295.143
				H-363.01V109.244c0-5.006,1.896-10.013,5.689-13.836c3.789-3.822,8.764-5.732,13.733-5.732h262.225
				c4.972,0,9.946,1.91,13.733,5.732c3.793,3.823,5.69,8.83,5.69,13.836L-61.939,295.143L-61.939,295.143z"/>
			<path fill="#8DA9B7" d="M-61.316,314.156c0,4.994-1.905,9.985-5.718,13.797c-3.807,3.812-8.806,5.719-13.797,5.719H-344.29
				c-4.992,0-9.991-1.906-13.798-5.719c-3.812-3.812-5.717-8.803-5.717-13.797v-19.516h302.488L-61.316,314.156L-61.316,314.156z"/>
			<polygon fill="#46839B" points="-168.651,372.703 -256.47,372.703 -251.591,333.672 -173.53,333.672 			"/>
			<polygon fill="#46839B" points="-158.893,371.389 -266.228,371.389 -271.106,381.146 -154.015,381.146 			"/>
		</g>
		<g opacity="0.5">
			<rect x="-324.774" y="148.276" fill="#FFFFFF" width="29.273" height="29.273"/>
			<rect x="-129.621" y="128.76" fill="#FFFFFF" width="29.274" height="48.789"/>
			<rect x="-324.774" y="187.306" fill="#FFFFFF" width="29.273" height="29.273"/>
			<rect x="-324.774" y="226.338" fill="#FFFFFF" width="29.273" height="29.273"/>
			<g>
				
					<line fill="none" stroke="#4D4D4D" stroke-width="2" stroke-miterlimit="10" x1="-324.774" y1="133.639" x2="-315.017" y2="133.639"/>
				
					<line fill="none" stroke="#4D4D4D" stroke-width="2" stroke-miterlimit="10" x1="-305.259" y1="133.639" x2="-295.501" y2="133.639"/>
				
					<line fill="none" stroke="#4D4D4D" stroke-width="2" stroke-miterlimit="10" x1="-285.743" y1="133.639" x2="-275.986" y2="133.639"/>
			</g>
			<g>
				
					<line fill="none" stroke="#4D4D4D" stroke-width="2" stroke-miterlimit="10" x1="-129.621" y1="192.185" x2="-100.347" y2="192.185"/>
				
					<line fill="none" stroke="#4D4D4D" stroke-width="2" stroke-miterlimit="10" x1="-129.621" y1="211.701" x2="-100.347" y2="211.701"/>
				
					<line fill="none" stroke="#4D4D4D" stroke-width="2" stroke-miterlimit="10" x1="-129.621" y1="231.215" x2="-100.347" y2="231.215"/>
				
					<line fill="none" stroke="#4D4D4D" stroke-width="2" stroke-miterlimit="10" x1="-129.621" y1="250.732" x2="-100.347" y2="250.732"/>
			</g>
		</g>
		<g opacity="0.3">
			<path opacity="0.5" fill="#E4E8EA" stroke="#024B68" stroke-miterlimit="10" enable-background="new    " d="M-37.751,294.656
				h-335.566V87.458c0-5.579,2.115-11.16,6.344-15.421c4.224-4.26,9.768-6.389,15.308-6.389h292.267
				c5.541,0,11.085,2.129,15.306,6.389c4.229,4.261,6.343,9.842,6.343,15.421v207.198H-37.751z"/>
			<path fill="#8DA9B7" d="M-37.056,315.848c0,5.566-2.124,11.131-6.373,15.379c-4.241,4.248-9.813,6.373-15.378,6.373H-352.45
				c-5.564,0-11.135-2.125-15.378-6.373c-4.248-4.248-6.373-9.812-6.373-15.379v-21.752h337.146L-37.056,315.848L-37.056,315.848z"
				/>
			<polygon fill="#46839B" points="-156.688,381.104 -254.568,381.104 -249.13,337.6 -162.124,337.6 			"/>
			<polygon fill="#46839B" points="-145.811,379.639 -265.443,379.639 -270.882,390.514 -140.374,390.514 			"/>
		</g>
	</g>
</g>
<g id="Layer_2_3_">
	<g>
		<g>
			<g>
				<path fill="#148E97" d="M-204.396,208.483c0,0-2.188-3.049,0.252-7.332c2.439-4.281-1.184-6.918-1.184-6.918l2.7,0.045
					c0,0,3.095,2.943-0.134,6.967c-3.227,4.023-1.637,7.246-1.637,7.246"/>
				<circle fill="#148E97" cx="-204.171" cy="208.747" r="0.785"/>
			</g>
			<text transform="matrix(1.0027 0 0 1 -215.6284 209.75)" fill="#626366" font-family="'Occidental'" font-size="22.0759">T</text>
		</g>
	</g>
</g>
<g>
	<g>
		<g>
			
				<rect x="-211.525" y="160.277" transform="matrix(-0.707 -0.7072 0.7072 -0.707 -472.4253 128.8453)" fill="none" stroke="#009EFF" stroke-width="2" stroke-miterlimit="10" width="4" height="4"/>
			
				<rect x="-171.929" y="199.889" transform="matrix(-0.7072 -0.707 0.707 -0.7072 -432.8419 224.5117)" fill="none" stroke="#009EFF" stroke-width="2" stroke-miterlimit="10" width="4" height="4"/>
			
				<rect x="-251.125" y="199.889" transform="matrix(-0.7072 -0.707 0.707 -0.7072 -568.0432 168.5163)" fill="none" stroke="#009EFF" stroke-width="2" stroke-miterlimit="10" width="4" height="4"/>
			
				<rect x="-211.526" y="239.487" transform="matrix(-0.7071 -0.7071 0.7071 -0.7071 -528.4405 264.0854)" fill="none" stroke="#009EFF" stroke-width="2" stroke-miterlimit="10" width="4" height="4"/>
			
				<line fill="none" stroke="#009EFF" stroke-width="2" stroke-miterlimit="10" stroke-dasharray="2" x1="-205.994" y1="165.827" x2="-173.467" y2="198.354"/>
			
				<line fill="none" stroke="#009EFF" stroke-width="2" stroke-miterlimit="10" stroke-dasharray="2" x1="-245.592" y1="205.424" x2="-213.064" y2="237.951"/>
			
				<line fill="none" stroke="#009EFF" stroke-width="2" stroke-miterlimit="10" stroke-dasharray="2" x1="-173.467" y1="205.424" x2="-205.994" y2="237.951"/>
			
				<line fill="none" stroke="#009EFF" stroke-width="2" stroke-miterlimit="10" stroke-dasharray="2" x1="-213.064" y1="165.827" x2="-245.592" y2="198.354"/>
		</g>
	</g>
</g>
<g>
	<g>
		<g>
			<polygon fill="#0EB5E2" points="124.654,102.467 174.104,102.467 201.919,148.826 124.654,148.826 			"/>
			<polygon fill="#0EB5E2" points="124.654,148.826 201.919,148.826 174.104,195.185 124.654,195.185 			"/>
			<polygon fill="#4989B8" points="96.842,148.826 124.654,102.467 152.47,148.826 124.654,195.185 			"/>
		</g>
		<g opacity="0.1">
			<polygon fill="#0EB5E2" points="144.969,102.467 194.418,102.467 222.232,148.826 144.969,148.826 			"/>
			<polygon fill="#0EB5E2" points="144.969,148.826 222.232,148.826 194.418,195.185 144.969,195.185 			"/>
			<polygon fill="#4989B8" points="117.156,148.826 144.969,102.467 172.784,148.826 144.969,195.185 			"/>
		</g>
		<g>
			<polygon fill="#88BED8" points="230.964,168.598 280.414,168.598 308.229,214.957 230.964,214.957 			"/>
			<polygon fill="#88BED8" points="230.964,214.957 308.229,214.957 280.414,261.314 230.964,261.314 			"/>
			<polygon fill="#B9DBED" points="203.148,214.957 230.964,168.598 258.777,214.957 230.964,261.314 			"/>
		</g>
		<g opacity="0.3">
			<polygon fill="#88BED8" points="226.887,194.602 276.337,194.602 304.148,240.96 226.887,240.96 			"/>
			<polygon fill="#88BED8" points="226.887,240.96 304.148,240.96 276.337,287.318 226.887,287.318 			"/>
			<polygon fill="#B9DBED" points="199.072,240.96 226.887,194.602 254.701,240.96 226.887,287.318 			"/>
		</g>
		<g>
			<polygon fill="none" stroke="#4D4D4D" stroke-width="2" stroke-miterlimit="10" points="99.931,281.086 124.655,237.816 
				174.105,237.816 198.831,281.086 174.105,324.354 124.655,324.354 			"/>
			<polyline fill="none" stroke="#4D4D4D" stroke-width="2" stroke-miterlimit="10" points="124.655,237.816 149.381,281.086 
				124.655,324.354 			"/>
			
				<line fill="none" stroke="#4D4D4D" stroke-width="2" stroke-miterlimit="10" x1="149.381" y1="281.086" x2="198.831" y2="281.086"/>
		</g>
		<g opacity="0.1">
			<polygon fill="none" stroke="#4D4D4D" stroke-width="2" stroke-miterlimit="10" points="75.996,262.061 100.721,218.791 
				150.171,218.791 174.896,262.061 150.171,305.327 100.721,305.327 			"/>
			<polyline fill="none" stroke="#4D4D4D" stroke-width="2" stroke-miterlimit="10" points="100.721,218.791 125.446,262.061 
				100.721,305.327 			"/>
			
				<line fill="none" stroke="#4D4D4D" stroke-width="2" stroke-miterlimit="10" x1="125.446" y1="262.061" x2="174.896" y2="262.061"/>
		</g>
		<g>
			
				<line fill="none" stroke="#0CE9F4" stroke-width="2" stroke-miterlimit="10" x1="157.998" y1="218.354" x2="164.179" y2="218.354"/>
			
				<line fill="none" stroke="#0CE9F4" stroke-width="2" stroke-miterlimit="10" x1="205.068" y1="177.269" x2="208.676" y2="172.248"/>
			
				<line fill="none" stroke="#0CE9F4" stroke-width="2" stroke-miterlimit="10" x1="198.45" y1="240.975" x2="201.705" y2="246.229"/>
			
				<line fill="none" stroke="#0CE9F4" stroke-width="2" stroke-miterlimit="10" x1="124.022" y1="218.354" x2="130.203" y2="218.354"/>
			
				<line fill="none" stroke="#0CE9F4" stroke-width="2" stroke-miterlimit="10" x1="207.283" y1="255.245" x2="210.539" y2="260.5"/>
			
				<line fill="none" stroke="#0CE9F4" stroke-width="2" stroke-miterlimit="10" x1="220.874" y1="275.63" x2="224.129" y2="280.886"/>
		</g>
	</g>
</g>
<g id="Layer_2_2_">
	<g>
		<g>
			<g>
				<path fill="#148E97" d="M186.038,224.723c0,0-2.188-3.049,0.252-7.33c2.44-4.281-1.184-6.92-1.184-6.92l2.699,0.047
					c0,0,3.096,2.941-0.133,6.967c-3.227,4.021-1.639,7.246-1.639,7.246"/>
				<circle fill="#148E97" cx="186.263" cy="224.987" r="0.786"/>
			</g>
			<text transform="matrix(1.0027 0 0 1 174.8052 225.9912)" fill="#626366" font-family="'Occidental'" font-size="22.0759">T</text>
		</g>
	</g>
</g>
</svg>
