<?xml version="1.0" encoding="utf-8"?>
<!-- Generator: Adobe Illustrator 16.0.0, SVG Export Plug-In . SVG Version: 6.00 Build 0)  -->
<!DOCTYPE svg PUBLIC "-//W3C//DTD SVG 1.1//EN" "http://www.w3.org/Graphics/SVG/1.1/DTD/svg11.dtd">
<svg version="1.1" id="Layer_1" xmlns="http://www.w3.org/2000/svg" xmlns:xlink="http://www.w3.org/1999/xlink" x="0px" y="0px"
	 width="75px" height="75px" viewBox="0 0 75 75" enable-background="new 0 0 75 75" xml:space="preserve">
<g>
	<path fill="#3D35EB" d="M56.233,51.797c-7.216-5.799-9.232-2.947-12.507,0.326c-2.286,2.285-8.07-2.49-13.064-7.484
		c-4.996-4.995-9.77-10.778-7.484-13.064c3.274-3.273,6.124-5.292,0.324-12.506c-5.8-7.218-9.665-1.677-12.836,1.495
		c-3.661,3.66-0.193,17.301,13.287,30.783c13.484,13.482,27.124,16.948,30.784,13.29C57.907,61.464,63.45,57.6,56.233,51.797z"/>
	<g>
		<g>
			<g>
				<g>
					<g>
						<g>
							<path fill="none" d="M61.24,20.438c0,0-0.016,0.271-0.036,0.679c-0.005,0.102-0.011,0.212-0.017,0.328
								c-0.018,0.115-0.037,0.235-0.057,0.361s-0.039,0.255-0.059,0.388l-0.029,0.198l-0.053,0.196
								c-0.071,0.261-0.13,0.526-0.2,0.769c-0.089,0.238-0.169,0.46-0.24,0.65c-0.06,0.194-0.144,0.342-0.194,0.449
								c-0.052,0.106-0.081,0.167-0.081,0.167l4.016,1.938c0,0,0.043-0.091,0.117-0.246c0.074-0.157,0.189-0.377,0.285-0.659
								c0.102-0.278,0.221-0.604,0.349-0.954c0.106-0.355,0.198-0.742,0.298-1.126l0.071-0.287c0.016-0.098,0.032-0.194,0.047-0.291
								c0.029-0.193,0.059-0.383,0.087-0.565c0.027-0.185,0.054-0.361,0.078-0.529c0.015-0.171,0.021-0.33,0.03-0.479
								c0.028-0.591,0.047-0.987,0.047-0.987H61.24L61.24,20.438z"/>
						</g>
						<g>
							<path fill="#564FEE" d="M63.187,21.645c0,0-0.026,0.174-0.067,0.436c-0.02,0.131-0.043,0.283-0.067,0.446
								c-0.014,0.081-0.025,0.166-0.039,0.251c-0.021,0.085-0.043,0.17-0.064,0.256c-0.09,0.341-0.169,0.685-0.247,0.938
								c-0.091,0.248-0.151,0.414-0.151,0.414l0.419,0.149c0,0,0.062-0.171,0.157-0.43c0.081-0.262,0.163-0.618,0.257-0.973
								c0.022-0.089,0.045-0.177,0.066-0.264c0.015-0.091,0.027-0.178,0.041-0.263c0.026-0.169,0.05-0.328,0.07-0.464
								c0.042-0.271,0.068-0.452,0.068-0.452L63.187,21.645z"/>
						</g>
						<polygon fill="#564FEE" points="63.234,20.655 63.681,20.663 63.65,21.249 63.205,21.219 						"/>
						<path fill="#564FEE" d="M62.402,24.777l0.413,0.167c0,0-0.012,0.034-0.031,0.086c-0.02,0.051-0.04,0.121-0.075,0.187
							c-0.063,0.132-0.127,0.263-0.127,0.263l-0.405-0.186c0,0,0.062-0.127,0.123-0.254c0.033-0.062,0.054-0.13,0.072-0.18
							S62.402,24.777,62.402,24.777z"/>
					</g>
				</g>
				<g>
					<g>
						<g>
							<path fill="none" d="M60.274,24.624c0,0-0.029,0.062-0.08,0.168c-0.052,0.106-0.117,0.264-0.231,0.433
								c-0.104,0.174-0.228,0.377-0.358,0.595c-0.153,0.203-0.314,0.421-0.477,0.638c-0.075,0.113-0.171,0.211-0.261,0.309
								c-0.091,0.1-0.18,0.196-0.265,0.29c-0.162,0.197-0.344,0.351-0.495,0.487c-0.149,0.137-0.275,0.251-0.362,0.332
								c-0.091,0.075-0.148,0.112-0.148,0.112l2.782,3.484c0,0,0.081-0.057,0.215-0.166c0.128-0.116,0.312-0.282,0.532-0.481
								c0.22-0.199,0.479-0.428,0.721-0.71c0.126-0.138,0.254-0.279,0.386-0.424c0.131-0.145,0.266-0.289,0.38-0.451
								c0.237-0.317,0.477-0.632,0.692-0.934c0.192-0.318,0.374-0.613,0.527-0.866c0.161-0.251,0.263-0.478,0.34-0.633
								c0.075-0.156,0.118-0.245,0.118-0.245L60.274,24.624z"/>
						</g>
						<g>
							<path fill="#564FEE" d="M61.504,26.554c0,0-0.092,0.151-0.229,0.377c-0.152,0.216-0.368,0.495-0.578,0.778
								c-0.099,0.146-0.224,0.272-0.334,0.396c-0.111,0.121-0.216,0.236-0.304,0.334c-0.089,0.098-0.163,0.179-0.216,0.236
								c-0.054,0.055-0.088,0.083-0.088,0.083l0.313,0.317c0,0,0.035-0.029,0.092-0.085c0.054-0.06,0.131-0.144,0.223-0.246
								c0.093-0.102,0.2-0.22,0.315-0.347c0.116-0.128,0.243-0.259,0.347-0.41c0.219-0.294,0.441-0.585,0.6-0.809
								c0.144-0.234,0.238-0.391,0.238-0.391L61.504,26.554z"/>
						</g>
						<path fill="#564FEE" d="M61.985,25.69l0.398,0.201c0,0-0.063,0.132-0.127,0.264c-0.029,0.067-0.073,0.129-0.1,0.176
							c-0.028,0.047-0.047,0.078-0.047,0.078l-0.388-0.221c0,0,0.018-0.029,0.045-0.075c0.025-0.045,0.068-0.103,0.097-0.168
							C61.925,25.818,61.985,25.69,61.985,25.69z"/>
						<polygon fill="#564FEE" points="59.442,29.038 59.743,29.367 59.31,29.761 59.025,29.417 						"/>
					</g>
				</g>
				<g>
					<g>
						<g>
							<path fill="none" d="M57.598,27.987c0,0-0.218,0.163-0.543,0.406c-0.163,0.123-0.375,0.231-0.589,0.368
								c-0.109,0.063-0.217,0.142-0.337,0.199s-0.241,0.115-0.364,0.173c-0.122,0.06-0.243,0.118-0.363,0.178
								c-0.119,0.06-0.247,0.093-0.365,0.14c-0.239,0.082-0.458,0.177-0.652,0.232c-0.393,0.101-0.655,0.167-0.655,0.167
								l0.988,4.348c0,0,0.384-0.1,0.96-0.248c0.285-0.083,0.608-0.213,0.958-0.337c0.173-0.069,0.357-0.124,0.533-0.208
								c0.177-0.084,0.355-0.17,0.534-0.255c0.179-0.087,0.356-0.173,0.531-0.258c0.175-0.088,0.333-0.196,0.495-0.289
								c0.314-0.196,0.618-0.364,0.858-0.538c0.476-0.355,0.792-0.593,0.792-0.593L57.598,27.987z"/>
						</g>
						<g>
							<path fill="#564FEE" d="M57.869,30.258c0,0-0.151,0.091-0.377,0.229c-0.113,0.068-0.242,0.152-0.388,0.231
								c-0.149,0.071-0.308,0.147-0.467,0.225c-0.158,0.077-0.317,0.152-0.466,0.225c-0.15,0.067-0.3,0.112-0.423,0.16
								c-0.248,0.091-0.413,0.151-0.413,0.151l0.144,0.423c0,0,0.171-0.063,0.429-0.157c0.128-0.05,0.282-0.098,0.438-0.167
								c0.155-0.074,0.319-0.154,0.484-0.233c0.166-0.079,0.33-0.158,0.485-0.233c0.15-0.082,0.284-0.169,0.402-0.24
								c0.235-0.142,0.391-0.238,0.391-0.238L57.869,30.258z"/>
						</g>
						<polygon fill="#564FEE" points="58.674,29.684 58.946,30.038 58.478,30.389 58.223,30.021 						"/>
						<polygon fill="#564FEE" points="54.936,31.609 55.065,32.036 54.497,32.183 54.39,31.749 						"/>
					</g>
				</g>
				<g>
					<g>
						<g>
							<path fill="none" d="M53.729,29.851c0,0-0.064,0.018-0.179,0.048c-0.117,0.022-0.284,0.042-0.485,0.074
								c-0.102,0.016-0.209,0.032-0.325,0.05c-0.057,0.01-0.116,0.019-0.176,0.028c-0.062,0.002-0.124,0.006-0.188,0.009
								c-0.254,0.013-0.526,0.027-0.797,0.041c-0.271-0.014-0.543-0.028-0.797-0.041c-0.063-0.003-0.126-0.007-0.188-0.009
								c-0.061-0.01-0.119-0.018-0.177-0.028c-0.115-0.017-0.224-0.034-0.324-0.05c-0.2-0.032-0.368-0.052-0.485-0.074
								c-0.113-0.03-0.18-0.048-0.18-0.048l-0.988,4.348c0,0,0.097,0.024,0.265,0.066c0.17,0.033,0.415,0.068,0.71,0.115
								c0.146,0.021,0.305,0.045,0.474,0.07c0.084,0.013,0.171,0.024,0.259,0.036c0.09,0.006,0.18,0.011,0.272,0.017
								c0.37,0.019,0.765,0.036,1.159,0.057c0.396-0.021,0.79-0.038,1.159-0.057c0.094-0.006,0.184-0.011,0.273-0.017
								c0.088-0.012,0.175-0.023,0.259-0.036c0.168-0.025,0.328-0.05,0.475-0.07c0.293-0.047,0.538-0.082,0.709-0.115
								c0.168-0.042,0.264-0.066,0.264-0.066L53.729,29.851z"/>
						</g>
						<g>
							<path fill="#564FEE" d="M52.986,32.016c0,0-0.043,0.007-0.119,0.018c-0.077,0.018-0.187,0.02-0.318,0.026
								c-0.265,0.014-0.616,0.03-0.97,0.049c-0.353-0.019-0.703-0.035-0.969-0.049c-0.131-0.007-0.241-0.009-0.316-0.025
								c-0.077-0.012-0.12-0.019-0.12-0.019l-0.054,0.442c0,0,0.045,0.007,0.125,0.021c0.078,0.016,0.193,0.018,0.33,0.025
								c0.273,0.014,0.64,0.032,1.004,0.05c0.367-0.018,0.732-0.036,1.007-0.05c0.137-0.008,0.251-0.011,0.329-0.027
								c0.08-0.012,0.124-0.019,0.124-0.019L52.986,32.016z"/>
						</g>
						<path fill="#564FEE" d="M53.964,31.859l0.09,0.437c0,0-0.034,0.01-0.089,0.019c-0.055,0.008-0.127,0.019-0.199,0.03
							c-0.146,0.021-0.29,0.043-0.29,0.043l-0.068-0.439c0,0,0.139-0.021,0.278-0.042c0.069-0.012,0.14-0.021,0.192-0.03
							C53.93,31.869,53.964,31.859,53.964,31.859z"/>
						<path fill="#564FEE" d="M49.758,31.949l-0.068,0.439c0,0-0.146-0.021-0.29-0.043c-0.073-0.012-0.145-0.022-0.199-0.031
							c-0.055-0.007-0.089-0.017-0.089-0.017l0.09-0.437c0,0,0.034,0.009,0.086,0.017c0.053,0.007,0.123,0.018,0.192,0.028
							C49.618,31.929,49.758,31.949,49.758,31.949z"/>
					</g>
				</g>
				<g>
					<g>
						<g>
							<path fill="none" d="M49.429,29.851c0,0-0.262-0.066-0.655-0.167c-0.195-0.056-0.413-0.15-0.651-0.232
								c-0.118-0.047-0.246-0.08-0.366-0.14c-0.119-0.059-0.241-0.118-0.362-0.178c-0.123-0.058-0.245-0.115-0.366-0.173
								c-0.118-0.058-0.226-0.136-0.336-0.199c-0.214-0.137-0.427-0.245-0.589-0.368c-0.325-0.243-0.542-0.406-0.542-0.406
								l-2.782,3.485c0,0,0.316,0.237,0.792,0.593c0.24,0.174,0.545,0.342,0.859,0.538c0.162,0.093,0.319,0.201,0.495,0.289
								c0.175,0.085,0.353,0.171,0.531,0.258c0.178,0.085,0.358,0.171,0.533,0.255c0.177,0.084,0.36,0.14,0.534,0.208
								c0.349,0.124,0.673,0.254,0.957,0.337c0.576,0.148,0.96,0.248,0.96,0.248L49.429,29.851z"/>
						</g>
						<g>
							<path fill="#564FEE" d="M47.824,31.479c0,0-0.166-0.061-0.413-0.151c-0.125-0.048-0.272-0.094-0.423-0.16
								c-0.149-0.071-0.308-0.147-0.467-0.225c-0.158-0.076-0.317-0.153-0.466-0.225c-0.146-0.078-0.274-0.164-0.389-0.231
								c-0.227-0.138-0.376-0.229-0.376-0.229l-0.241,0.376c0,0,0.156,0.095,0.391,0.237c0.118,0.069,0.253,0.158,0.403,0.239
								c0.155,0.075,0.319,0.155,0.484,0.233c0.165,0.079,0.33,0.159,0.484,0.233c0.156,0.068,0.309,0.117,0.438,0.167
								c0.259,0.094,0.431,0.157,0.431,0.157L47.824,31.479z"/>
						</g>
						<polygon fill="#564FEE" points="48.773,31.751 48.668,32.185 48.101,32.039 48.229,31.61 						"/>
						<polygon fill="#564FEE" points="44.94,30.025 44.687,30.393 44.217,30.042 44.488,29.688 						"/>
					</g>
				</g>
				<g>
					<g>
						<g>
							<path fill="none" d="M45.561,27.987c0,0-0.057-0.037-0.148-0.112c-0.087-0.081-0.213-0.195-0.362-0.332
								c-0.151-0.137-0.333-0.289-0.496-0.486c-0.085-0.095-0.173-0.191-0.263-0.29c-0.092-0.098-0.187-0.195-0.262-0.309
								c-0.162-0.218-0.324-0.436-0.476-0.639c-0.131-0.217-0.254-0.421-0.359-0.595c-0.114-0.168-0.18-0.325-0.231-0.433
								c-0.05-0.105-0.08-0.167-0.08-0.167l-4.016,1.938c0,0,0.043,0.089,0.118,0.245c0.077,0.155,0.178,0.382,0.339,0.633
								c0.155,0.253,0.335,0.55,0.528,0.865c0.215,0.303,0.455,0.617,0.693,0.935c0.113,0.162,0.249,0.307,0.378,0.451
								c0.132,0.144,0.261,0.286,0.386,0.424c0.242,0.281,0.502,0.51,0.723,0.711c0.22,0.198,0.402,0.364,0.531,0.479
								c0.133,0.11,0.214,0.167,0.214,0.167L45.561,27.987z"/>
						</g>
						<g>
							<path fill="#564FEE" d="M43.402,28.759c0,0-0.033-0.027-0.088-0.083c-0.052-0.057-0.125-0.138-0.216-0.235
								c-0.088-0.099-0.192-0.213-0.303-0.334c-0.111-0.124-0.235-0.249-0.335-0.396c-0.209-0.283-0.424-0.562-0.577-0.778
								c-0.138-0.226-0.229-0.377-0.229-0.377l-0.38,0.234c0,0,0.096,0.157,0.238,0.391c0.158,0.225,0.382,0.515,0.6,0.81
								c0.104,0.15,0.232,0.281,0.347,0.409c0.115,0.127,0.224,0.245,0.316,0.347c0.092,0.102,0.169,0.187,0.223,0.245
								c0.058,0.057,0.092,0.086,0.092,0.086L43.402,28.759z"/>
						</g>
						<polygon fill="#564FEE" points="44.138,29.423 43.854,29.766 43.42,29.373 43.721,29.043 						"/>
						<path fill="#564FEE" d="M41.439,26.194l-0.388,0.221c0,0-0.08-0.122-0.146-0.253c-0.064-0.132-0.129-0.263-0.129-0.263
							l0.398-0.202c0,0,0.062,0.127,0.123,0.253C41.361,26.077,41.439,26.194,41.439,26.194z"/>
					</g>
				</g>
				<g>
					<g>
						<g>
							<path fill="none" d="M42.883,24.624c0,0-0.029-0.061-0.08-0.167c-0.05-0.106-0.135-0.254-0.196-0.449
								c-0.068-0.19-0.15-0.412-0.238-0.65c-0.071-0.242-0.13-0.508-0.202-0.769l-0.051-0.196l-0.031-0.198
								c-0.019-0.133-0.038-0.262-0.057-0.388c-0.02-0.126-0.039-0.246-0.059-0.361c-0.005-0.116-0.01-0.227-0.016-0.328
								c-0.021-0.407-0.036-0.679-0.036-0.679h-4.46c0,0,0.021,0.396,0.049,0.987c0.01,0.148,0.015,0.308,0.028,0.477
								c0.025,0.17,0.052,0.347,0.078,0.53c0.028,0.184,0.058,0.373,0.088,0.565c0.016,0.097,0.031,0.193,0.047,0.291l0.072,0.288
								c0.099,0.384,0.19,0.77,0.298,1.125c0.128,0.351,0.246,0.677,0.349,0.955c0.095,0.282,0.211,0.502,0.283,0.659
								c0.075,0.155,0.119,0.245,0.119,0.245L42.883,24.624z"/>
						</g>
						<g>
							<path fill="#564FEE" d="M40.608,24.386c0,0-0.061-0.165-0.151-0.413c-0.078-0.253-0.156-0.597-0.248-0.937
								c-0.021-0.085-0.043-0.172-0.064-0.256c-0.012-0.086-0.025-0.17-0.038-0.252c-0.024-0.164-0.048-0.315-0.068-0.446
								c-0.04-0.261-0.066-0.437-0.066-0.437l-0.443,0.046c0,0,0.027,0.181,0.068,0.452c0.021,0.136,0.045,0.295,0.071,0.464
								c0.013,0.085,0.025,0.173,0.039,0.262c0.022,0.088,0.045,0.176,0.068,0.265c0.092,0.354,0.175,0.712,0.256,0.974
								c0.095,0.257,0.158,0.43,0.158,0.43L40.608,24.386z"/>
						</g>
						<path fill="#564FEE" d="M40.982,25.301l-0.403,0.187c0,0-0.063-0.132-0.127-0.265c-0.034-0.064-0.058-0.135-0.077-0.187
							c-0.018-0.051-0.031-0.085-0.031-0.085l0.414-0.167c0,0,0.013,0.033,0.03,0.082c0.019,0.051,0.041,0.117,0.074,0.181
							C40.922,25.173,40.982,25.301,40.982,25.301z"/>
						<polygon fill="#564FEE" points="39.952,21.226 39.508,21.256 39.479,20.671 39.924,20.662 						"/>
					</g>
				</g>
				<g>
					<g>
						<g>
							<path fill="none" d="M41.917,20.438c0,0,0.015-0.271,0.036-0.678c0.006-0.102,0.011-0.212,0.016-0.328
								c0.02-0.115,0.039-0.236,0.059-0.361c0.019-0.126,0.038-0.256,0.057-0.388l0.031-0.199l0.051-0.195
								c0.072-0.261,0.131-0.526,0.202-0.77c0.088-0.237,0.17-0.459,0.238-0.649c0.062-0.194,0.146-0.343,0.196-0.45
								c0.051-0.105,0.08-0.167,0.08-0.167l-4.015-1.938c0,0-0.044,0.09-0.119,0.246c-0.072,0.157-0.188,0.377-0.283,0.659
								c-0.103,0.279-0.221,0.604-0.349,0.955c-0.107,0.354-0.199,0.74-0.298,1.124l-0.072,0.289
								c-0.016,0.097-0.031,0.194-0.047,0.29c-0.03,0.192-0.06,0.382-0.088,0.565c-0.026,0.185-0.053,0.361-0.078,0.529
								c-0.014,0.17-0.019,0.33-0.028,0.478c-0.028,0.593-0.049,0.987-0.049,0.987H41.917z"/>
						</g>
						<g>
							<path fill="#564FEE" d="M39.972,19.234c0,0,0.026-0.175,0.066-0.436c0.02-0.131,0.044-0.284,0.068-0.446
								c0.013-0.082,0.026-0.166,0.038-0.253c0.021-0.084,0.043-0.169,0.064-0.255c0.091-0.34,0.17-0.685,0.247-0.937
								c0.092-0.248,0.152-0.414,0.152-0.414l-0.419-0.15c0,0-0.063,0.172-0.158,0.43c-0.081,0.262-0.163,0.619-0.256,0.974
								c-0.023,0.089-0.045,0.177-0.067,0.264c-0.014,0.089-0.027,0.178-0.04,0.263c-0.026,0.169-0.051,0.328-0.071,0.464
								c-0.041,0.271-0.068,0.452-0.068,0.452L39.972,19.234z"/>
						</g>
						<polygon fill="#564FEE" points="39.924,20.222 39.479,20.214 39.508,19.63 39.952,19.659 						"/>
						<path fill="#564FEE" d="M40.755,16.101l-0.413-0.166c0,0,0.013-0.034,0.031-0.086c0.02-0.052,0.041-0.122,0.075-0.187
							c0.063-0.133,0.128-0.265,0.128-0.265l0.404,0.187c0,0-0.062,0.127-0.122,0.253c-0.033,0.063-0.054,0.131-0.073,0.181
							C40.769,16.067,40.755,16.101,40.755,16.101z"/>
					</g>
				</g>
				<g>
					<g>
						<g>
							<path fill="none" d="M42.883,16.253c0,0,0.03-0.062,0.08-0.168c0.052-0.106,0.118-0.263,0.232-0.432
								c0.104-0.174,0.228-0.377,0.358-0.595c0.151-0.203,0.313-0.421,0.476-0.638c0.075-0.113,0.171-0.211,0.262-0.309
								c0.09-0.1,0.179-0.197,0.264-0.291c0.162-0.196,0.345-0.351,0.495-0.486c0.15-0.138,0.275-0.253,0.362-0.333
								c0.092-0.074,0.148-0.112,0.148-0.112l-2.781-3.484c0,0-0.081,0.058-0.215,0.168c-0.129,0.115-0.312,0.281-0.532,0.48
								c-0.22,0.198-0.48,0.428-0.723,0.71c-0.124,0.138-0.254,0.279-0.385,0.423c-0.13,0.146-0.265,0.29-0.379,0.452
								c-0.237,0.315-0.478,0.632-0.693,0.934c-0.192,0.316-0.373,0.613-0.527,0.866c-0.161,0.25-0.263,0.477-0.339,0.632
								c-0.076,0.157-0.118,0.246-0.118,0.246L42.883,16.253z"/>
						</g>
						<g>
							<path fill="#564FEE" d="M41.654,14.323c0,0,0.091-0.149,0.228-0.376c0.153-0.216,0.367-0.495,0.578-0.779
								c0.1-0.146,0.224-0.272,0.334-0.395c0.111-0.122,0.215-0.236,0.304-0.334c0.09-0.099,0.163-0.18,0.215-0.237
								c0.055-0.055,0.088-0.083,0.088-0.083l-0.312-0.317c0,0-0.036,0.029-0.092,0.086c-0.054,0.06-0.131,0.145-0.224,0.246
								c-0.093,0.101-0.2,0.22-0.316,0.347c-0.114,0.127-0.242,0.259-0.347,0.409c-0.218,0.295-0.441,0.584-0.599,0.81
								c-0.143,0.233-0.238,0.391-0.238,0.391L41.654,14.323z"/>
						</g>
						<path fill="#564FEE" d="M41.172,15.188l-0.397-0.202c0,0,0.062-0.131,0.126-0.263c0.03-0.068,0.073-0.128,0.1-0.176
							c0.029-0.046,0.048-0.077,0.048-0.077l0.389,0.22c0,0-0.02,0.03-0.047,0.075c-0.026,0.046-0.067,0.104-0.096,0.168
							C41.234,15.061,41.172,15.188,41.172,15.188z"/>
						<polygon fill="#564FEE" points="43.716,11.84 43.414,11.511 43.848,11.117 44.133,11.459 						"/>
					</g>
				</g>
				<g>
					<g>
						<g>
							<path fill="none" d="M45.561,12.89c0,0,0.217-0.163,0.542-0.406c0.162-0.122,0.376-0.23,0.589-0.367
								c0.11-0.062,0.217-0.142,0.336-0.199c0.121-0.058,0.243-0.115,0.366-0.173c0.121-0.061,0.243-0.119,0.362-0.178
								c0.119-0.06,0.247-0.092,0.366-0.139c0.238-0.083,0.456-0.178,0.651-0.233c0.394-0.101,0.655-0.167,0.655-0.167L48.44,6.68
								c0,0-0.384,0.099-0.96,0.248c-0.285,0.083-0.608,0.212-0.957,0.338c-0.174,0.066-0.357,0.123-0.534,0.208
								c-0.176,0.084-0.355,0.169-0.534,0.255c-0.178,0.086-0.355,0.173-0.531,0.257c-0.175,0.088-0.334,0.195-0.494,0.289
								c-0.314,0.196-0.619,0.365-0.859,0.539c-0.476,0.355-0.792,0.592-0.792,0.592L45.561,12.89z"/>
						</g>
						<g>
							<path fill="#564FEE" d="M45.288,10.62c0,0,0.15-0.092,0.378-0.229c0.113-0.066,0.241-0.152,0.388-0.23
								c0.148-0.072,0.308-0.148,0.466-0.225c0.158-0.077,0.317-0.153,0.467-0.225c0.151-0.068,0.298-0.112,0.422-0.161
								c0.248-0.09,0.414-0.151,0.414-0.151l-0.144-0.422c0,0-0.172,0.062-0.43,0.157c-0.129,0.051-0.281,0.097-0.438,0.167
								c-0.155,0.074-0.32,0.153-0.484,0.232c-0.166,0.08-0.329,0.159-0.484,0.234c-0.151,0.082-0.284,0.17-0.403,0.24
								c-0.234,0.143-0.391,0.236-0.391,0.236L45.288,10.62z"/>
						</g>
						<polygon fill="#564FEE" points="44.483,11.194 44.212,10.84 44.681,10.489 44.935,10.855 						"/>
						<polygon fill="#564FEE" points="48.221,9.269 48.094,8.842 48.66,8.695 48.768,9.129 						"/>
					</g>
				</g>
				<g>
					<g>
						<g>
							<path fill="none" d="M49.429,11.027c0,0,0.065-0.018,0.18-0.048c0.116-0.022,0.284-0.043,0.485-0.074
								c0.1-0.016,0.209-0.032,0.323-0.051c0.058-0.009,0.117-0.018,0.179-0.028c0.06-0.002,0.122-0.005,0.187-0.007
								c0.255-0.013,0.525-0.028,0.797-0.043c0.271,0.015,0.542,0.03,0.796,0.043c0.064,0.002,0.128,0.005,0.188,0.007
								c0.061,0.011,0.119,0.02,0.177,0.028c0.115,0.019,0.225,0.036,0.324,0.051c0.201,0.031,0.369,0.052,0.485,0.074
								c0.114,0.03,0.179,0.048,0.179,0.048l0.989-4.348c0,0-0.096-0.024-0.264-0.067c-0.172-0.032-0.417-0.067-0.71-0.113
								c-0.146-0.022-0.306-0.047-0.474-0.071c-0.084-0.013-0.172-0.024-0.26-0.037c-0.089-0.005-0.179-0.01-0.273-0.015
								c-0.368-0.02-0.763-0.039-1.158-0.058c-0.395,0.019-0.789,0.038-1.16,0.058c-0.092,0.005-0.183,0.01-0.272,0.015
								c-0.088,0.013-0.174,0.024-0.259,0.037c-0.168,0.024-0.327,0.049-0.474,0.071c-0.294,0.047-0.539,0.081-0.709,0.113
								C48.537,6.655,48.44,6.68,48.44,6.68L49.429,11.027z"/>
						</g>
						<g>
							<path fill="#564FEE" d="M50.171,8.862c0,0,0.044-0.006,0.12-0.019c0.075-0.015,0.186-0.018,0.317-0.025
								c0.265-0.013,0.616-0.031,0.969-0.048c0.353,0.017,0.705,0.035,0.969,0.048c0.133,0.008,0.242,0.01,0.318,0.025
								c0.076,0.012,0.12,0.019,0.12,0.019l0.053-0.442c0,0-0.045-0.007-0.123-0.02c-0.08-0.016-0.194-0.02-0.331-0.026
								c-0.274-0.013-0.64-0.031-1.006-0.051c-0.365,0.02-0.73,0.038-1.005,0.051c-0.137,0.007-0.251,0.012-0.33,0.027
								c-0.079,0.012-0.125,0.019-0.125,0.019L50.171,8.862z"/>
						</g>
						<path fill="#564FEE" d="M49.194,9.019l-0.092-0.437c0,0,0.036-0.011,0.091-0.018c0.055-0.009,0.126-0.02,0.199-0.03
							c0.144-0.023,0.289-0.045,0.289-0.045l0.069,0.44c0,0-0.14,0.021-0.279,0.043c-0.069,0.01-0.139,0.021-0.191,0.028
							S49.194,9.019,49.194,9.019z"/>
						<path fill="#564FEE" d="M53.399,8.929l0.069-0.44c0,0,0.145,0.022,0.289,0.045c0.072,0.01,0.146,0.022,0.199,0.03
							c0.055,0.007,0.09,0.018,0.09,0.018l-0.09,0.437c0,0-0.035-0.011-0.087-0.017c-0.052-0.008-0.122-0.02-0.192-0.029
							C53.538,8.95,53.399,8.929,53.399,8.929z"/>
					</g>
				</g>
				<g>
					<g>
						<g>
							<path fill="none" d="M53.729,11.027c0,0,0.263,0.066,0.655,0.167c0.194,0.056,0.413,0.15,0.652,0.232
								c0.117,0.048,0.246,0.08,0.365,0.14c0.119,0.058,0.241,0.117,0.363,0.177c0.122,0.059,0.244,0.116,0.364,0.174
								s0.228,0.136,0.337,0.199c0.214,0.137,0.427,0.245,0.589,0.366c0.325,0.244,0.543,0.407,0.543,0.407l2.781-3.484
								c0,0-0.317-0.236-0.792-0.592c-0.24-0.175-0.544-0.343-0.859-0.539c-0.161-0.093-0.32-0.201-0.494-0.289
								c-0.175-0.085-0.354-0.171-0.531-0.257c-0.18-0.086-0.357-0.171-0.534-0.255c-0.176-0.085-0.36-0.142-0.533-0.208
								c-0.351-0.126-0.674-0.255-0.959-0.338c-0.575-0.149-0.959-0.248-0.959-0.248L53.729,11.027z"/>
						</g>
						<g>
							<path fill="#564FEE" d="M55.334,9.397c0,0,0.165,0.062,0.413,0.152c0.124,0.048,0.271,0.093,0.423,0.16
								c0.148,0.07,0.308,0.148,0.466,0.225c0.159,0.076,0.317,0.152,0.467,0.224c0.145,0.079,0.274,0.164,0.388,0.23
								c0.227,0.138,0.377,0.23,0.377,0.23l0.24-0.376c0,0-0.155-0.095-0.391-0.238c-0.117-0.068-0.251-0.157-0.402-0.239
								c-0.154-0.074-0.32-0.154-0.484-0.233c-0.165-0.08-0.33-0.158-0.484-0.232c-0.157-0.069-0.311-0.117-0.439-0.167
								c-0.257-0.095-0.429-0.157-0.429-0.157L55.334,9.397z"/>
						</g>
						<polygon fill="#564FEE" points="54.383,9.127 54.489,8.694 55.058,8.839 54.93,9.267 						"/>
						<polygon fill="#564FEE" points="58.217,10.852 58.471,10.485 58.941,10.836 58.669,11.188 						"/>
					</g>
				</g>
				<g>
					<g>
						<g>
							<path fill="none" d="M57.598,12.89c0,0,0.057,0.038,0.147,0.113c0.087,0.08,0.213,0.194,0.362,0.332
								c0.152,0.136,0.333,0.29,0.495,0.486c0.085,0.094,0.175,0.191,0.265,0.291c0.091,0.098,0.186,0.195,0.261,0.309
								c0.162,0.218,0.323,0.435,0.477,0.638c0.131,0.218,0.254,0.421,0.358,0.596c0.114,0.168,0.18,0.324,0.231,0.431
								c0.051,0.107,0.08,0.168,0.08,0.168l4.016-1.937c0,0-0.043-0.089-0.117-0.246c-0.077-0.155-0.179-0.382-0.34-0.632
								c-0.154-0.253-0.335-0.55-0.527-0.866c-0.216-0.302-0.455-0.617-0.693-0.934c-0.113-0.162-0.249-0.307-0.38-0.452
								c-0.131-0.144-0.259-0.285-0.385-0.423c-0.242-0.281-0.501-0.512-0.722-0.71c-0.22-0.199-0.403-0.365-0.531-0.48
								c-0.134-0.11-0.215-0.167-0.215-0.167L57.598,12.89z"/>
						</g>
						<g>
							<path fill="#564FEE" d="M59.755,12.118c0,0,0.033,0.028,0.087,0.083c0.054,0.057,0.127,0.139,0.216,0.236
								s0.192,0.212,0.304,0.335c0.11,0.122,0.235,0.248,0.335,0.395c0.209,0.284,0.425,0.563,0.578,0.779
								c0.137,0.226,0.229,0.376,0.229,0.376l0.379-0.234c0,0-0.095-0.157-0.237-0.391c-0.159-0.225-0.382-0.515-0.6-0.809
								c-0.104-0.151-0.232-0.282-0.349-0.41c-0.115-0.126-0.223-0.245-0.314-0.346c-0.093-0.102-0.169-0.187-0.224-0.246
								c-0.056-0.057-0.093-0.086-0.093-0.086L59.755,12.118z"/>
						</g>
						<polygon fill="#564FEE" points="59.02,11.455 59.305,11.112 59.738,11.506 59.438,11.835 						"/>
						<path fill="#564FEE" d="M61.718,14.683l0.388-0.221c0,0,0.08,0.123,0.147,0.253c0.063,0.132,0.126,0.264,0.126,0.264
							l-0.396,0.202c0,0-0.061-0.127-0.122-0.254C61.796,14.802,61.718,14.683,61.718,14.683z"/>
					</g>
				</g>
				<g>
					<g>
						<g>
							<path fill="none" d="M60.274,16.253c0,0,0.029,0.062,0.081,0.167c0.051,0.107,0.135,0.256,0.194,0.45
								c0.071,0.19,0.151,0.412,0.24,0.649c0.07,0.243,0.129,0.509,0.2,0.77l0.053,0.195l0.029,0.199
								c0.02,0.132,0.039,0.262,0.059,0.388c0.02,0.125,0.039,0.247,0.057,0.361c0.006,0.116,0.012,0.227,0.017,0.328
								c0.021,0.408,0.036,0.678,0.036,0.678h4.459c0,0-0.019-0.395-0.047-0.987c-0.009-0.147-0.016-0.308-0.03-0.477
								c-0.024-0.168-0.051-0.346-0.078-0.529c-0.028-0.185-0.058-0.374-0.087-0.566c-0.015-0.096-0.031-0.193-0.047-0.29
								L65.339,17.3c-0.1-0.384-0.191-0.77-0.298-1.124c-0.128-0.35-0.247-0.676-0.349-0.955c-0.096-0.282-0.211-0.501-0.285-0.659
								c-0.075-0.155-0.117-0.245-0.117-0.245L60.274,16.253z"/>
						</g>
						<g>
							<path fill="#564FEE" d="M62.549,16.492c0,0,0.061,0.165,0.152,0.413c0.078,0.252,0.156,0.598,0.247,0.938
								c0.021,0.086,0.044,0.17,0.064,0.254c0.014,0.086,0.025,0.17,0.039,0.252c0.024,0.164,0.048,0.316,0.067,0.447
								c0.041,0.261,0.067,0.437,0.067,0.437l0.443-0.046c0,0-0.027-0.182-0.069-0.453c-0.02-0.136-0.044-0.293-0.07-0.463
								c-0.013-0.086-0.026-0.174-0.04-0.262c-0.022-0.087-0.043-0.176-0.067-0.266c-0.094-0.353-0.176-0.711-0.257-0.973
								c-0.095-0.258-0.157-0.43-0.157-0.43L62.549,16.492z"/>
						</g>
						<path fill="#564FEE" d="M62.174,15.577l0.405-0.186c0,0,0.063,0.132,0.127,0.264c0.034,0.064,0.056,0.135,0.076,0.186
							c0.019,0.052,0.03,0.087,0.03,0.087l-0.414,0.167c0,0-0.011-0.034-0.029-0.083c-0.02-0.051-0.039-0.118-0.073-0.18
							C62.234,15.704,62.174,15.577,62.174,15.577z"/>
						<polygon fill="#564FEE" points="63.204,19.652 63.65,19.622 63.68,20.207 63.234,20.215 						"/>
					</g>
				</g>
			</g>
		</g>
	</g>
	<g>
		<g>
			<path fill="#128D96" d="M55.786,27.343c0,0-2.207-3.078,0.254-7.396c2.462-4.319-1.192-6.98-1.192-6.98l2.723,0.046
				c0,0,3.123,2.969-0.134,7.028c-3.255,4.061-1.65,7.31-1.65,7.31"/>
			<path fill="#128D96" d="M56.804,27.609c0,0.437-0.354,0.788-0.791,0.788c-0.439,0-0.794-0.352-0.794-0.788
				s0.355-0.792,0.794-0.792C56.449,26.817,56.804,27.173,56.804,27.609z"/>
		</g>
		<g>
			<path fill="#B9B9BA" d="M53.231,18.386h-0.438v-0.963c0-0.764-0.073-1.423-0.219-1.973c-0.146-0.551-0.348-0.964-0.61-1.239
				c-0.26-0.244-0.56-0.4-0.896-0.47c-0.339-0.068-0.676-0.11-1.013-0.126c-0.047,0-0.093,0-0.139,0s-0.092,0-0.137,0
				c-0.062,0-0.128-0.004-0.197-0.012c-0.068-0.008-0.142-0.011-0.218-0.011v12.593c0,0.903,0.057,1.441,0.172,1.618
				c0.115,0.174,0.479,0.263,1.094,0.263l0.92-0.023v0.413H46.79v-0.413h1.313V13.568c-1.397,0.015-2.316,0.264-2.761,0.746
				c-0.444,0.48-0.666,1.524-0.666,3.131v0.941h-0.438v-5.965h0.436v0.734h8.121v-0.734h0.437V18.386L53.231,18.386z"/>
		</g>
	</g>
</g>
</svg>
