<?xml version="1.0" encoding="utf-8"?>
<!-- Generator: Adobe Illustrator 16.0.0, SVG Export Plug-In . SVG Version: 6.00 Build 0)  -->
<!DOCTYPE svg PUBLIC "-//W3C//DTD SVG 1.1//EN" "http://www.w3.org/Graphics/SVG/1.1/DTD/svg11.dtd">
<svg version="1.1" id="Layer_1" xmlns="http://www.w3.org/2000/svg" xmlns:xlink="http://www.w3.org/1999/xlink" x="0px" y="0px"
	 width="60px" height="60px" viewBox="0 0 60 60" enable-background="new 0 0 60 60" xml:space="preserve">
<g>
	<g>
		<path fill="#3D35EB" d="M45.624,21.211c-13.156,0-13.175,13.107-13.175,13.174c0,0-0.901,13.124,13.175,13.124
			c0,0,11.74,0.671,11.74-9.132h-6.029c0,0,0.201,3.688-5.51,3.688c0,0-6.028,0.401-6.028-5.963h17.769
			C57.563,36.105,59.521,21.211,45.624,21.211z M39.729,31.516c0,0,0.734-5.275,6.026-5.275c5.312,0,5.229,5.275,5.229,5.275H39.729
			z M24.668,28.143c0,0,5.227-0.384,5.227-6.526c0-6.129-4.274-9.135-9.702-9.135H2.341v34.314h17.851
			c0,0,10.904,0.335,10.904-10.135C31.097,36.659,31.565,28.143,24.668,28.143z M10.208,18.574h9.985c0,0,2.421,0,2.421,3.574
			c0,3.573-1.42,4.092-3.04,4.092h-9.366V18.574z M19.692,40.699h-9.485v-9.186h9.985c0,0,3.625-0.033,3.607,4.725
			C23.799,40.249,21.11,40.666,19.692,40.699z M38.242,14.5v4.224h14.163V14.5H38.242z"/>
	</g>
</g>
</svg>
