<?xml version="1.0" encoding="utf-8"?>
<!-- Generator: Adobe Illustrator 16.0.0, SVG Export Plug-In . SVG Version: 6.00 Build 0)  -->
<!DOCTYPE svg PUBLIC "-//W3C//DTD SVG 1.1//EN" "http://www.w3.org/Graphics/SVG/1.1/DTD/svg11.dtd">
<svg version="1.1" id="Layer_1" xmlns="http://www.w3.org/2000/svg" xmlns:xlink="http://www.w3.org/1999/xlink" x="0px" y="0px"
	 width="60px" height="60px" viewBox="0 0 60 60" enable-background="new 0 0 60 60" xml:space="preserve">
<g>
	<g>
		<path fill="#3D35EB" d="M47.333,33.744v12.82h-7.43V34.603c0-3.002-1.076-5.053-3.765-5.053c-2.053,0-3.273,1.381-3.812,2.718
			c-0.197,0.479-0.245,1.141-0.245,1.813v12.483h-7.434c0,0,0.099-20.258,0-22.353h7.434v3.166
			c-0.017,0.026-0.037,0.049-0.052,0.073h0.052v-0.073c0.986-1.519,2.749-3.692,6.697-3.692
			C43.669,23.685,47.333,26.88,47.333,33.744L47.333,33.744z M16.874,13.436c-2.542,0-4.207,1.669-4.207,3.862
			c0,2.146,1.615,3.862,4.108,3.862h0.048c2.592,0,4.203-1.717,4.203-3.862C20.979,15.104,19.417,13.436,16.874,13.436
			L16.874,13.436z M13.107,46.564h7.431V24.21h-7.431V46.564z"/>
	</g>
</g>
</svg>
