<?xml version="1.0" encoding="utf-8"?>
<!-- Generator: Adobe Illustrator 16.0.0, SVG Export Plug-In . SVG Version: 6.00 Build 0)  -->
<!DOCTYPE svg PUBLIC "-//W3C//DTD SVG 1.1//EN" "http://www.w3.org/Graphics/SVG/1.1/DTD/svg11.dtd">
<svg version="1.1" id="Layer_1" xmlns="http://www.w3.org/2000/svg" xmlns:xlink="http://www.w3.org/1999/xlink" x="0px" y="0px"
	 width="60px" height="60px" viewBox="0 0 60 60" enable-background="new 0 0 60 60" xml:space="preserve">
<g>
	<path fill="#6E6EF9" d="M50.781,48.454l-13.45-6.466l-0.103-29.309c0-0.685,0.713-1.135,1.329-0.84l12.753,6.132
		c0.32,0.154,0.524,0.479,0.524,0.835v28.984C51.835,48.333,51.269,48.689,50.781,48.454z"/>
	<path fill="#5B5BEF" d="M37.331,41.989L22.775,34.99l14.012-23.072c0.248-0.408,0.767-0.561,1.194-0.354l12.93,6.217
		c0.496,0.237,0.676,0.85,0.39,1.318L37.331,41.989z"/>
	<path fill="#4E4EF4" d="M37.331,41.989L22.775,34.99L9.432,13.263c-0.371-0.605,0.274-1.322,0.916-1.014l12.427,5.976
		L37.331,41.989z"/>
	<path fill="#3D35EB" d="M21.721,48.454l-13.14-6.319c-0.256-0.121-0.416-0.378-0.416-0.661V12.332c0-0.524,0.549-0.869,1.021-0.642
		l13.589,6.535v29.568C22.775,48.333,22.209,48.689,21.721,48.454z"/>
</g>
</svg>
