<?xml version="1.0" encoding="utf-8"?>
<!-- Generator: Adobe Illustrator 16.0.0, SVG Export Plug-In . SVG Version: 6.00 Build 0)  -->
<!DOCTYPE svg PUBLIC "-//W3C//DTD SVG 1.1//EN" "http://www.w3.org/Graphics/SVG/1.1/DTD/svg11.dtd">
<svg version="1.1" id="Layer_1" xmlns="http://www.w3.org/2000/svg" xmlns:xlink="http://www.w3.org/1999/xlink" x="0px" y="0px"
	 width="75px" height="75px" viewBox="0 0 75 75" enable-background="new 0 0 75 75" xml:space="preserve">
<g>
	<g>
		<g>
			<path fill="#3D35EB" d="M65.753,53.041v-2.584V34.949V19.441c0-1.419-1.165-2.584-2.587-2.584H11.477
				c-1.422,0-2.589,1.158-2.589,2.584v15.508v15.508v2.584l-6.458,7.754c0,2.137,1.735,3.875,3.874,3.875h62.033
				c2.14,0,3.874-1.74,3.874-3.875L65.753,53.041z M42.493,63.383H32.155c-0.359,0-0.646-0.287-0.646-0.646s0.287-0.648,0.646-0.648
				h10.338c0.354,0,0.647,0.289,0.647,0.648C43.132,63.096,42.848,63.383,42.493,63.383z M26.666,60.799l1.973-2.367h17.364
				l1.972,2.367H26.666z M62.112,48.471c0,1.246-1.015,2.256-2.253,2.256H14.78c-1.239,0-2.253-1.018-2.253-2.256V21.433
				c0-1.247,1.015-2.256,2.253-2.256h45.08c1.238,0,2.253,1.016,2.253,2.256V48.471z"/>
		</g>
	</g>
	<g>
		<path fill="#BCC1C6" d="M72.571,20.412l-1.719-0.331c-2.552-0.49-3.721-3.472-2.185-5.565l1.08-1.471l-2.331-2.331l-1.449,0.982
			c-2.149,1.457-5.086,0.176-5.481-2.391L60.208,7.5h-3.297l-0.427,2.221c-0.479,2.495-3.354,3.685-5.458,2.26l-1.872-1.268
			l-2.33,2.331l1.079,1.471c1.535,2.095,0.367,5.075-2.185,5.565L44,20.412v3.296l1.804,0.278c2.567,0.396,3.848,3.33,2.391,5.481
			l-0.982,1.449l2.331,2.331l1.471-1.08c2.096-1.536,5.075-0.367,5.565,2.184l0.332,1.72h3.297l0.195-1.269
			c0.403-2.624,3.447-3.884,5.588-2.314l1.034,0.76l2.332-2.331l-0.983-1.449c-1.456-2.149-0.176-5.085,2.392-5.48l1.803-0.278
			v-3.297H72.571z"/>
		<g>
			<circle fill="#FFFFFF" cx="58.286" cy="21.785" r="4.762"/>
			<path fill="#ECEFF0" d="M58.286,27.737c-3.282,0-5.953-2.67-5.953-5.952c0-3.283,2.671-5.952,5.953-5.952
				c3.281,0,5.952,2.669,5.952,5.952C64.238,25.067,61.567,27.737,58.286,27.737z M58.286,18.214c-1.969,0-3.571,1.603-3.571,3.572
				c0,1.969,1.603,3.571,3.571,3.571c1.968,0,3.57-1.603,3.57-3.571C61.856,19.816,60.254,18.214,58.286,18.214z"/>
		</g>
	</g>
</g>
</svg>
