<?xml version="1.0" encoding="utf-8"?>
<!-- Generator: Adobe Illustrator 16.0.0, SVG Export Plug-In . SVG Version: 6.00 Build 0)  -->
<!DOCTYPE svg PUBLIC "-//W3C//DTD SVG 1.1//EN" "http://www.w3.org/Graphics/SVG/1.1/DTD/svg11.dtd">
<svg version="1.1" id="Layer_1" xmlns="http://www.w3.org/2000/svg" xmlns:xlink="http://www.w3.org/1999/xlink" x="0px" y="0px"
	 width="75px" height="75px" viewBox="0 0 75 75" enable-background="new 0 0 75 75" xml:space="preserve">
<g>
	<g>
		<g>
			<g>
				<g>
					<g>
						<g>
							<g>
								<g>
									<path fill="none" d="M48.042,32.815c0,0-0.017,0.296-0.04,0.741c-0.006,0.111-0.012,0.232-0.018,0.359
										c-0.021,0.126-0.041,0.258-0.063,0.395c-0.021,0.137-0.042,0.279-0.063,0.423l-0.032,0.218l-0.057,0.214
										c-0.078,0.285-0.142,0.575-0.22,0.84c-0.096,0.26-0.186,0.502-0.262,0.711c-0.065,0.213-0.158,0.375-0.213,0.492
										c-0.057,0.117-0.089,0.183-0.089,0.183l4.391,2.119c0,0,0.048-0.098,0.129-0.27c0.08-0.171,0.207-0.411,0.312-0.72
										c0.11-0.306,0.241-0.661,0.38-1.044c0.117-0.388,0.217-0.811,0.326-1.23l0.078-0.315c0.018-0.106,0.034-0.212,0.052-0.318
										c0.032-0.21,0.063-0.418,0.095-0.619c0.03-0.201,0.059-0.395,0.086-0.579c0.016-0.185,0.021-0.36,0.032-0.522
										c0.031-0.647,0.051-1.078,0.051-1.078L48.042,32.815L48.042,32.815z"/>
								</g>
								<g>
									<path fill="#564FEE" d="M50.169,34.133c0,0-0.029,0.19-0.073,0.476c-0.021,0.143-0.047,0.309-0.074,0.488
										c-0.014,0.089-0.027,0.182-0.042,0.275c-0.022,0.092-0.047,0.186-0.071,0.279c-0.098,0.372-0.185,0.748-0.27,1.023
										c-0.1,0.272-0.166,0.454-0.166,0.454l0.459,0.165c0,0,0.068-0.188,0.171-0.47c0.089-0.287,0.179-0.677,0.281-1.064
										c0.024-0.097,0.049-0.194,0.073-0.289c0.016-0.098,0.03-0.194,0.044-0.286c0.028-0.186,0.056-0.359,0.077-0.507
										c0.046-0.297,0.075-0.495,0.075-0.495L50.169,34.133z"/>
								</g>
								<polygon fill="#564FEE" points="50.221,33.051 50.709,33.061 50.676,33.7 50.189,33.667 								"/>
								<path fill="#564FEE" d="M49.312,37.559l0.452,0.182c0,0-0.014,0.037-0.033,0.095c-0.021,0.055-0.045,0.132-0.083,0.202
									c-0.069,0.146-0.139,0.29-0.139,0.29l-0.443-0.204c0,0,0.067-0.139,0.134-0.277c0.037-0.068,0.059-0.143,0.079-0.196
									C49.298,37.595,49.312,37.559,49.312,37.559z"/>
							</g>
						</g>
						<g>
							<g>
								<g>
									<path fill="none" d="M46.985,37.391c0,0-0.032,0.067-0.088,0.183c-0.057,0.117-0.128,0.288-0.253,0.473
										c-0.114,0.19-0.248,0.412-0.393,0.65c-0.165,0.222-0.344,0.46-0.521,0.697c-0.082,0.125-0.187,0.23-0.285,0.338
										c-0.099,0.108-0.195,0.214-0.288,0.316c-0.178,0.216-0.377,0.384-0.542,0.533c-0.164,0.149-0.301,0.275-0.396,0.363
										c-0.1,0.082-0.162,0.123-0.162,0.123l3.042,3.81c0,0,0.089-0.062,0.235-0.183c0.14-0.127,0.341-0.309,0.581-0.525
										c0.24-0.218,0.524-0.469,0.789-0.777c0.137-0.15,0.277-0.305,0.421-0.463c0.143-0.157,0.29-0.316,0.415-0.493
										c0.26-0.347,0.521-0.691,0.757-1.021c0.211-0.347,0.409-0.67,0.577-0.946c0.176-0.274,0.287-0.521,0.371-0.692
										c0.082-0.17,0.129-0.268,0.129-0.268L46.985,37.391z"/>
								</g>
								<g>
									<path fill="#564FEE" d="M48.33,39.501c0,0-0.1,0.164-0.25,0.411c-0.167,0.236-0.402,0.542-0.632,0.852
										c-0.109,0.16-0.244,0.298-0.366,0.432c-0.121,0.134-0.234,0.259-0.332,0.365c-0.097,0.107-0.178,0.197-0.235,0.259
										c-0.059,0.06-0.096,0.091-0.096,0.091l0.342,0.348c0,0,0.039-0.032,0.101-0.094c0.059-0.065,0.143-0.157,0.244-0.269
										s0.219-0.241,0.345-0.38s0.266-0.282,0.38-0.447c0.237-0.322,0.481-0.64,0.655-0.885c0.155-0.257,0.26-0.428,0.26-0.428
										L48.33,39.501z"/>
								</g>
								<path fill="#564FEE" d="M48.856,38.557l0.435,0.22c0,0-0.069,0.145-0.139,0.289c-0.031,0.073-0.079,0.14-0.108,0.191
									c-0.031,0.051-0.052,0.085-0.052,0.085l-0.424-0.24c0,0,0.02-0.033,0.049-0.082c0.028-0.051,0.075-0.113,0.105-0.185
									C48.789,38.695,48.856,38.557,48.856,38.557z"/>
								<polygon fill="#564FEE" points="46.075,42.217 46.404,42.576 45.931,43.007 45.619,42.632 								"/>
							</g>
						</g>
						<g>
							<g>
								<g>
									<path fill="none" d="M44.058,41.068c0,0-0.237,0.179-0.593,0.444c-0.178,0.133-0.41,0.252-0.644,0.401
										c-0.12,0.069-0.237,0.154-0.368,0.219c-0.132,0.062-0.265,0.126-0.399,0.189c-0.132,0.064-0.266,0.129-0.396,0.193
										c-0.131,0.065-0.271,0.102-0.4,0.152c-0.262,0.09-0.5,0.193-0.713,0.254c-0.43,0.11-0.717,0.184-0.717,0.184l1.08,4.754
										c0,0,0.42-0.109,1.051-0.271c0.312-0.091,0.664-0.233,1.047-0.37c0.188-0.074,0.391-0.135,0.583-0.227
										s0.388-0.186,0.584-0.278c0.194-0.095,0.39-0.189,0.581-0.282c0.19-0.096,0.364-0.213,0.541-0.315
										c0.344-0.215,0.677-0.399,0.938-0.589c0.52-0.389,0.866-0.648,0.866-0.648L44.058,41.068z"/>
								</g>
								<g>
									<path fill="#564FEE" d="M44.355,43.55c0,0-0.165,0.101-0.412,0.251c-0.124,0.073-0.266,0.166-0.424,0.252
										c-0.163,0.078-0.337,0.162-0.511,0.246c-0.173,0.084-0.347,0.168-0.51,0.245c-0.165,0.074-0.326,0.123-0.462,0.176
										c-0.271,0.1-0.452,0.166-0.452,0.166l0.157,0.461c0,0,0.188-0.069,0.47-0.172c0.14-0.054,0.308-0.106,0.479-0.183
										c0.169-0.081,0.35-0.168,0.529-0.254c0.182-0.087,0.36-0.174,0.53-0.256c0.164-0.09,0.311-0.186,0.44-0.262
										c0.256-0.156,0.427-0.261,0.427-0.261L44.355,43.55z"/>
								</g>
								<polygon fill="#564FEE" points="45.235,42.923 45.533,43.311 45.021,43.693 44.742,43.291 								"/>
								<polygon fill="#564FEE" points="41.148,45.028 41.289,45.494 40.668,45.654 40.552,45.181 								"/>
							</g>
						</g>
						<g>
							<g>
								<g>
									<path fill="none" d="M39.828,43.105c0,0-0.07,0.019-0.195,0.052c-0.128,0.023-0.312,0.047-0.531,0.081
										c-0.109,0.017-0.229,0.035-0.354,0.055c-0.062,0.011-0.127,0.021-0.193,0.031c-0.066,0.003-0.135,0.006-0.205,0.009
										c-0.277,0.014-0.575,0.029-0.871,0.046c-0.297-0.017-0.594-0.032-0.871-0.046c-0.07-0.004-0.139-0.006-0.205-0.009
										c-0.066-0.011-0.131-0.021-0.194-0.031c-0.125-0.019-0.244-0.038-0.354-0.055c-0.22-0.034-0.403-0.058-0.531-0.081
										c-0.125-0.033-0.196-0.052-0.196-0.052l-1.08,4.754c0,0,0.104,0.026,0.289,0.072c0.186,0.036,0.453,0.074,0.775,0.125
										c0.16,0.023,0.334,0.049,0.519,0.076c0.092,0.014,0.187,0.028,0.282,0.042c0.099,0.005,0.197,0.011,0.299,0.017
										c0.404,0.021,0.836,0.041,1.268,0.062c0.431-0.021,0.863-0.042,1.268-0.062c0.102-0.006,0.2-0.012,0.299-0.017
										c0.096-0.014,0.19-0.028,0.283-0.042c0.183-0.027,0.357-0.053,0.519-0.076c0.319-0.051,0.589-0.089,0.773-0.125
										c0.185-0.046,0.289-0.072,0.289-0.072L39.828,43.105z"/>
								</g>
								<g>
									<path fill="#564FEE" d="M39.017,45.472c0,0-0.047,0.007-0.131,0.02c-0.082,0.019-0.203,0.021-0.348,0.029
										c-0.288,0.015-0.674,0.033-1.059,0.053c-0.386-0.02-0.771-0.038-1.06-0.053c-0.145-0.007-0.265-0.01-0.348-0.028
										c-0.084-0.013-0.131-0.02-0.131-0.02l-0.059,0.483c0,0,0.05,0.008,0.137,0.021c0.086,0.018,0.211,0.021,0.361,0.028
										c0.299,0.015,0.698,0.035,1.099,0.056c0.399-0.021,0.8-0.041,1.099-0.056c0.15-0.008,0.275-0.012,0.361-0.029
										c0.087-0.013,0.136-0.021,0.136-0.021L39.017,45.472z"/>
								</g>
								<path fill="#564FEE" d="M40.085,45.302l0.1,0.478c0,0-0.038,0.011-0.098,0.019c-0.061,0.009-0.139,0.021-0.219,0.034
									c-0.158,0.024-0.316,0.047-0.316,0.047l-0.075-0.48c0,0,0.152-0.023,0.305-0.047c0.076-0.012,0.152-0.023,0.21-0.032
									C40.049,45.312,40.085,45.302,40.085,45.302z"/>
								<path fill="#564FEE" d="M35.486,45.399l-0.075,0.481c0,0-0.157-0.024-0.316-0.049c-0.079-0.012-0.157-0.023-0.217-0.033
									c-0.061-0.008-0.099-0.019-0.099-0.019l0.099-0.478c0,0,0.038,0.011,0.095,0.018c0.058,0.009,0.134,0.021,0.21,0.032
									C35.335,45.376,35.486,45.399,35.486,45.399z"/>
							</g>
						</g>
						<g>
							<g>
								<g>
									<path fill="none" d="M35.127,43.105c0,0-0.286-0.073-0.716-0.184c-0.214-0.061-0.452-0.164-0.714-0.254
										c-0.128-0.051-0.269-0.087-0.399-0.152c-0.131-0.063-0.264-0.129-0.396-0.193c-0.134-0.063-0.268-0.128-0.399-0.189
										c-0.13-0.064-0.247-0.149-0.367-0.219c-0.234-0.149-0.467-0.269-0.645-0.401c-0.355-0.266-0.593-0.444-0.593-0.444
										l-3.042,3.81c0,0,0.347,0.26,0.867,0.648c0.262,0.19,0.595,0.374,0.939,0.589c0.175,0.102,0.35,0.22,0.54,0.315
										c0.191,0.093,0.386,0.188,0.581,0.282c0.196,0.093,0.392,0.187,0.584,0.278s0.394,0.152,0.583,0.227
										c0.383,0.137,0.735,0.279,1.048,0.37c0.629,0.162,1.049,0.271,1.049,0.271L35.127,43.105z"/>
								</g>
								<g>
									<path fill="#564FEE" d="M33.373,44.887c0,0-0.182-0.067-0.452-0.166c-0.136-0.053-0.297-0.103-0.463-0.176
										c-0.162-0.077-0.336-0.161-0.51-0.245s-0.347-0.167-0.51-0.245c-0.158-0.086-0.3-0.18-0.424-0.253
										c-0.248-0.15-0.412-0.25-0.412-0.25l-0.264,0.41c0,0,0.171,0.104,0.428,0.26c0.129,0.076,0.275,0.173,0.44,0.262
										c0.169,0.082,0.35,0.169,0.529,0.256c0.181,0.087,0.361,0.173,0.529,0.254c0.172,0.076,0.34,0.129,0.479,0.183
										c0.282,0.104,0.471,0.173,0.471,0.173L33.373,44.887z"/>
								</g>
								<polygon fill="#564FEE" points="34.411,45.183 34.295,45.656 33.675,45.498 33.814,45.03 								"/>
								<polygon fill="#564FEE" points="30.22,43.297 29.942,43.697 29.429,43.314 29.726,42.928 								"/>
							</g>
						</g>
						<g>
							<g>
								<g>
									<path fill="none" d="M30.897,41.068c0,0-0.062-0.041-0.162-0.123c-0.096-0.088-0.233-0.214-0.396-0.363
										c-0.165-0.148-0.364-0.317-0.541-0.532c-0.094-0.103-0.19-0.209-0.288-0.317c-0.1-0.107-0.203-0.213-0.286-0.338
										c-0.177-0.236-0.354-0.476-0.521-0.697c-0.144-0.238-0.277-0.459-0.394-0.65c-0.124-0.184-0.195-0.355-0.252-0.473
										c-0.056-0.116-0.088-0.183-0.088-0.183l-4.391,2.119c0,0,0.048,0.098,0.13,0.268c0.083,0.17,0.194,0.418,0.37,0.691
										c0.169,0.277,0.366,0.602,0.577,0.947c0.235,0.331,0.498,0.675,0.758,1.021c0.125,0.178,0.272,0.336,0.415,0.493
										s0.284,0.313,0.42,0.463c0.266,0.309,0.549,0.56,0.79,0.776c0.24,0.219,0.44,0.399,0.582,0.526
										c0.146,0.12,0.233,0.183,0.233,0.183L30.897,41.068z"/>
								</g>
								<g>
									<path fill="#564FEE" d="M28.538,41.912c0,0-0.036-0.031-0.096-0.091c-0.058-0.062-0.138-0.151-0.235-0.259
										c-0.098-0.106-0.21-0.231-0.332-0.365c-0.121-0.135-0.257-0.271-0.366-0.432c-0.229-0.31-0.464-0.615-0.632-0.852
										c-0.149-0.246-0.25-0.411-0.25-0.411l-0.415,0.256c0,0,0.104,0.171,0.261,0.427c0.173,0.246,0.417,0.562,0.656,0.885
										c0.113,0.166,0.254,0.309,0.379,0.447c0.126,0.14,0.244,0.27,0.346,0.38c0.101,0.111,0.185,0.203,0.243,0.268
										c0.062,0.062,0.101,0.095,0.101,0.095L28.538,41.912z"/>
								</g>
								<polygon fill="#564FEE" points="29.342,42.637 29.03,43.013 28.558,42.582 28.885,42.222 								"/>
								<path fill="#564FEE" d="M26.392,39.108l-0.424,0.24c0,0-0.088-0.134-0.161-0.276c-0.069-0.145-0.14-0.288-0.14-0.288
									l0.436-0.221c0,0,0.067,0.139,0.134,0.277C26.307,38.979,26.392,39.108,26.392,39.108z"/>
							</g>
						</g>
						<g>
							<g>
								<g>
									<path fill="none" d="M27.971,37.391c0,0-0.032-0.066-0.089-0.183c-0.055-0.117-0.147-0.278-0.213-0.492
										c-0.077-0.208-0.166-0.451-0.262-0.711c-0.077-0.266-0.142-0.556-0.221-0.84l-0.057-0.214l-0.032-0.218
										c-0.021-0.144-0.043-0.286-0.063-0.423c-0.021-0.137-0.043-0.269-0.062-0.395c-0.007-0.128-0.013-0.248-0.018-0.359
										c-0.024-0.445-0.04-0.741-0.04-0.741h-4.875c0,0,0.021,0.432,0.052,1.079c0.01,0.162,0.016,0.338,0.031,0.522
										c0.027,0.184,0.056,0.378,0.086,0.579c0.031,0.201,0.062,0.409,0.096,0.618c0.017,0.105,0.034,0.211,0.052,0.318
										l0.077,0.315c0.109,0.419,0.21,0.842,0.326,1.23c0.141,0.382,0.27,0.738,0.382,1.044c0.103,0.308,0.229,0.548,0.311,0.72
										c0.082,0.172,0.129,0.269,0.129,0.269L27.971,37.391z"/>
								</g>
								<g>
									<path fill="#564FEE" d="M25.483,37.13c0,0-0.065-0.181-0.166-0.453c-0.086-0.276-0.171-0.652-0.271-1.024
										c-0.023-0.094-0.048-0.186-0.07-0.278c-0.015-0.094-0.028-0.187-0.042-0.276c-0.027-0.179-0.053-0.345-0.075-0.488
										c-0.043-0.286-0.072-0.477-0.072-0.477l-0.485,0.05c0,0,0.029,0.198,0.075,0.495c0.022,0.148,0.049,0.321,0.078,0.506
										c0.014,0.093,0.028,0.189,0.043,0.286c0.024,0.096,0.049,0.193,0.073,0.29c0.102,0.387,0.192,0.778,0.281,1.064
										c0.104,0.282,0.172,0.471,0.172,0.471L25.483,37.13z"/>
								</g>
								<path fill="#564FEE" d="M25.894,38.13l-0.442,0.204c0,0-0.069-0.145-0.14-0.289c-0.037-0.07-0.062-0.147-0.083-0.203
									c-0.021-0.057-0.034-0.095-0.034-0.095l0.452-0.182c0,0,0.014,0.037,0.033,0.091c0.021,0.054,0.044,0.128,0.081,0.196
									C25.827,37.991,25.894,38.13,25.894,38.13z"/>
								<polygon fill="#564FEE" points="24.767,33.674 24.279,33.708 24.248,33.069 24.734,33.059 								"/>
							</g>
						</g>
						<g>
							<g>
								<g>
									<path fill="none" d="M26.914,32.815c0,0,0.016-0.297,0.04-0.742c0.005-0.111,0.011-0.231,0.018-0.359
										c0.02-0.125,0.041-0.258,0.062-0.395c0.021-0.137,0.042-0.279,0.063-0.423l0.032-0.218l0.057-0.214
										c0.079-0.285,0.144-0.574,0.221-0.841c0.096-0.26,0.185-0.502,0.262-0.711c0.065-0.213,0.158-0.374,0.213-0.491
										c0.057-0.116,0.089-0.183,0.089-0.183L23.58,26.12c0,0-0.048,0.098-0.129,0.269c-0.081,0.171-0.208,0.412-0.311,0.721
										c-0.112,0.305-0.241,0.661-0.382,1.043c-0.116,0.388-0.217,0.811-0.326,1.23l-0.077,0.315
										c-0.018,0.106-0.035,0.212-0.052,0.317c-0.033,0.211-0.064,0.418-0.096,0.618c-0.03,0.201-0.059,0.396-0.086,0.58
										c-0.016,0.185-0.021,0.36-0.031,0.522c-0.031,0.647-0.052,1.08-0.052,1.08H26.914z"/>
								</g>
								<g>
									<path fill="#564FEE" d="M24.787,31.498c0,0,0.029-0.19,0.072-0.477c0.021-0.143,0.048-0.31,0.075-0.488
										c0.014-0.09,0.027-0.182,0.042-0.276c0.022-0.092,0.047-0.185,0.07-0.278c0.099-0.373,0.185-0.749,0.271-1.025
										c0.099-0.271,0.165-0.452,0.165-0.452l-0.458-0.165c0,0-0.068,0.187-0.172,0.47c-0.089,0.286-0.18,0.677-0.281,1.064
										c-0.024,0.097-0.049,0.194-0.072,0.289c-0.016,0.097-0.03,0.193-0.044,0.286c-0.029,0.185-0.056,0.358-0.078,0.507
										c-0.046,0.297-0.074,0.495-0.074,0.495L24.787,31.498z"/>
								</g>
								<polygon fill="#564FEE" points="24.734,32.578 24.247,32.569 24.279,31.93 24.766,31.962 								"/>
								<path fill="#564FEE" d="M25.644,28.071l-0.452-0.183c0,0,0.014-0.037,0.034-0.094c0.022-0.056,0.045-0.132,0.082-0.204
									c0.07-0.144,0.14-0.288,0.14-0.288l0.442,0.203c0,0-0.067,0.139-0.134,0.277c-0.036,0.068-0.059,0.143-0.079,0.197
									C25.657,28.035,25.644,28.071,25.644,28.071z"/>
							</g>
						</g>
						<g>
							<g>
								<g>
									<path fill="none" d="M27.971,28.238c0,0,0.031-0.067,0.087-0.184c0.057-0.116,0.129-0.287,0.254-0.472
										c0.114-0.19,0.248-0.412,0.393-0.649c0.165-0.224,0.343-0.461,0.52-0.698c0.083-0.124,0.187-0.23,0.286-0.338
										c0.098-0.108,0.194-0.214,0.288-0.317c0.178-0.216,0.376-0.384,0.542-0.532c0.164-0.15,0.3-0.277,0.396-0.364
										c0.101-0.082,0.162-0.123,0.162-0.123l-3.041-3.81c0,0-0.089,0.062-0.234,0.183c-0.142,0.127-0.342,0.309-0.583,0.526
										c-0.24,0.217-0.523,0.468-0.789,0.776c-0.136,0.151-0.277,0.305-0.42,0.463c-0.144,0.158-0.291,0.316-0.416,0.494
										c-0.26,0.345-0.521,0.69-0.757,1.021c-0.21,0.346-0.408,0.67-0.577,0.947c-0.176,0.273-0.287,0.521-0.37,0.691
										c-0.083,0.171-0.13,0.269-0.13,0.269L27.971,28.238z"/>
								</g>
								<g>
									<path fill="#564FEE" d="M26.627,26.128c0,0,0.099-0.165,0.249-0.412c0.166-0.236,0.402-0.542,0.631-0.851
										c0.109-0.16,0.245-0.298,0.366-0.432c0.121-0.134,0.235-0.259,0.332-0.365c0.098-0.107,0.178-0.197,0.235-0.259
										c0.059-0.061,0.097-0.091,0.097-0.091l-0.343-0.348c0,0-0.038,0.032-0.1,0.094c-0.059,0.064-0.144,0.157-0.245,0.268
										c-0.102,0.111-0.218,0.241-0.344,0.379c-0.126,0.14-0.267,0.283-0.38,0.448c-0.238,0.321-0.482,0.639-0.656,0.884
										c-0.155,0.256-0.26,0.427-0.26,0.427L26.627,26.128z"/>
								</g>
								<path fill="#564FEE" d="M26.1,27.072l-0.436-0.22c0,0,0.07-0.144,0.14-0.289c0.03-0.074,0.078-0.139,0.107-0.191
									c0.032-0.051,0.053-0.085,0.053-0.085l0.424,0.241c0,0-0.021,0.033-0.05,0.082c-0.029,0.05-0.074,0.113-0.105,0.184
									C26.167,26.934,26.1,27.072,26.1,27.072z"/>
								<polygon fill="#564FEE" points="28.88,23.412 28.551,23.053 29.024,22.623 29.336,22.997 								"/>
							</g>
						</g>
						<g>
							<g>
								<g>
									<path fill="none" d="M30.897,24.561c0,0,0.237-0.178,0.593-0.444c0.178-0.133,0.41-0.251,0.645-0.401
										c0.12-0.069,0.236-0.154,0.367-0.218c0.132-0.063,0.266-0.126,0.399-0.19c0.133-0.064,0.266-0.129,0.396-0.193
										c0.131-0.066,0.271-0.102,0.399-0.152c0.262-0.09,0.5-0.194,0.714-0.255c0.43-0.11,0.716-0.183,0.716-0.183l-1.08-4.753
										c0,0-0.42,0.108-1.05,0.271c-0.312,0.092-0.664,0.232-1.047,0.37c-0.189,0.074-0.391,0.135-0.583,0.227
										c-0.192,0.092-0.389,0.186-0.585,0.279c-0.194,0.095-0.389,0.189-0.581,0.282c-0.19,0.096-0.364,0.213-0.54,0.315
										c-0.344,0.214-0.677,0.398-0.938,0.589c-0.521,0.388-0.867,0.647-0.867,0.647L30.897,24.561z"/>
								</g>
								<g>
									<path fill="#564FEE" d="M30.601,22.079c0,0,0.164-0.1,0.411-0.25c0.125-0.074,0.266-0.167,0.425-0.253
										c0.163-0.078,0.336-0.162,0.511-0.246c0.172-0.083,0.346-0.167,0.509-0.246c0.166-0.073,0.327-0.122,0.462-0.175
										c0.271-0.099,0.452-0.166,0.452-0.166l-0.157-0.462c0,0-0.188,0.069-0.469,0.173c-0.141,0.054-0.309,0.105-0.48,0.182
										c-0.169,0.081-0.349,0.168-0.529,0.255c-0.18,0.087-0.359,0.174-0.529,0.255c-0.165,0.089-0.311,0.186-0.44,0.263
										c-0.257,0.156-0.427,0.259-0.427,0.259L30.601,22.079z"/>
								</g>
								<polygon fill="#564FEE" points="29.72,22.706 29.423,22.319 29.936,21.936 30.213,22.337 								"/>
								<polygon fill="#564FEE" points="33.807,20.602 33.666,20.134 34.287,19.975 34.404,20.448 								"/>
							</g>
						</g>
						<g>
							<g>
								<g>
									<path fill="none" d="M35.127,22.524c0,0,0.07-0.019,0.196-0.053c0.128-0.024,0.312-0.045,0.53-0.081
										c0.11-0.018,0.229-0.035,0.354-0.055c0.063-0.01,0.128-0.021,0.194-0.031c0.065-0.003,0.135-0.006,0.205-0.008
										c0.277-0.015,0.574-0.03,0.87-0.046c0.297,0.016,0.594,0.031,0.872,0.046c0.069,0.002,0.139,0.005,0.205,0.008
										c0.066,0.01,0.131,0.021,0.193,0.031c0.126,0.02,0.245,0.038,0.354,0.055c0.219,0.035,0.403,0.057,0.53,0.081
										c0.125,0.034,0.196,0.053,0.196,0.053l1.081-4.754c0,0-0.105-0.026-0.289-0.072c-0.187-0.036-0.454-0.075-0.775-0.125
										c-0.16-0.024-0.335-0.05-0.519-0.078c-0.092-0.013-0.187-0.027-0.283-0.041c-0.098-0.005-0.197-0.011-0.299-0.017
										c-0.404-0.021-0.835-0.042-1.268-0.062c-0.432,0.02-0.863,0.042-1.268,0.062c-0.101,0.006-0.2,0.011-0.298,0.017
										c-0.097,0.014-0.191,0.027-0.283,0.041c-0.184,0.027-0.357,0.054-0.519,0.078c-0.32,0.051-0.589,0.089-0.774,0.125
										c-0.185,0.046-0.289,0.072-0.289,0.072L35.127,22.524z"/>
								</g>
								<g>
									<path fill="#564FEE" d="M35.939,20.157c0,0,0.047-0.007,0.131-0.02c0.082-0.017,0.203-0.021,0.347-0.028
										c0.289-0.015,0.675-0.034,1.06-0.054c0.386,0.02,0.771,0.039,1.059,0.054c0.145,0.007,0.265,0.009,0.349,0.027
										c0.083,0.013,0.131,0.021,0.131,0.021l0.058-0.484c0,0-0.049-0.007-0.136-0.021c-0.087-0.018-0.211-0.021-0.361-0.029
										c-0.299-0.015-0.699-0.036-1.099-0.055c-0.4,0.02-0.8,0.04-1.1,0.055c-0.15,0.007-0.274,0.011-0.361,0.029
										c-0.086,0.013-0.136,0.021-0.136,0.021L35.939,20.157z"/>
								</g>
								<path fill="#564FEE" d="M34.87,20.328l-0.099-0.478c0,0,0.038-0.011,0.098-0.019c0.06-0.01,0.139-0.021,0.218-0.034
									c0.158-0.024,0.317-0.048,0.317-0.048l0.075,0.481c0,0-0.152,0.023-0.305,0.046c-0.076,0.012-0.153,0.023-0.21,0.031
									C34.907,20.316,34.87,20.328,34.87,20.328z"/>
								<path fill="#564FEE" d="M39.469,20.23l0.075-0.482c0,0,0.158,0.024,0.316,0.049c0.079,0.011,0.157,0.024,0.218,0.033
									c0.06,0.008,0.099,0.019,0.099,0.019l-0.099,0.478c0,0-0.037-0.011-0.096-0.018c-0.057-0.008-0.133-0.02-0.209-0.032
									C39.621,20.253,39.469,20.23,39.469,20.23z"/>
							</g>
						</g>
						<g>
							<g>
								<g>
									<path fill="none" d="M39.828,22.524c0,0,0.287,0.073,0.717,0.183c0.213,0.061,0.451,0.165,0.713,0.254
										c0.129,0.052,0.27,0.087,0.4,0.152c0.13,0.064,0.264,0.129,0.396,0.194c0.135,0.064,0.268,0.127,0.399,0.189
										c0.131,0.064,0.248,0.149,0.368,0.218c0.233,0.149,0.466,0.268,0.644,0.401c0.355,0.267,0.593,0.444,0.593,0.444
										l3.042-3.81c0,0-0.347-0.259-0.866-0.647c-0.263-0.191-0.595-0.375-0.939-0.589c-0.176-0.102-0.35-0.22-0.54-0.315
										c-0.191-0.093-0.387-0.188-0.582-0.282c-0.195-0.093-0.391-0.187-0.584-0.279c-0.191-0.092-0.394-0.153-0.582-0.227
										c-0.384-0.137-0.736-0.278-1.048-0.37c-0.63-0.162-1.05-0.271-1.05-0.271L39.828,22.524z"/>
								</g>
								<g>
									<path fill="#564FEE" d="M41.583,20.743c0,0,0.181,0.067,0.452,0.166c0.135,0.052,0.297,0.102,0.463,0.175
										c0.162,0.078,0.335,0.162,0.509,0.246s0.348,0.167,0.51,0.246c0.159,0.086,0.3,0.179,0.424,0.252
										c0.248,0.151,0.413,0.251,0.413,0.251l0.264-0.411c0,0-0.172-0.104-0.428-0.26c-0.129-0.076-0.276-0.172-0.44-0.262
										c-0.17-0.081-0.35-0.168-0.53-0.255c-0.18-0.086-0.36-0.174-0.529-0.255c-0.172-0.075-0.34-0.128-0.479-0.182
										c-0.283-0.103-0.471-0.172-0.471-0.172L41.583,20.743z"/>
								</g>
								<polygon fill="#564FEE" points="40.544,20.446 40.661,19.973 41.281,20.132 41.142,20.599 								"/>
								<polygon fill="#564FEE" points="44.736,22.332 45.014,21.932 45.527,22.315 45.23,22.701 								"/>
							</g>
						</g>
						<g>
							<g>
								<g>
									<path fill="none" d="M44.058,24.561c0,0,0.062,0.041,0.163,0.124c0.096,0.088,0.232,0.213,0.396,0.364
										c0.166,0.148,0.364,0.316,0.542,0.532c0.094,0.103,0.19,0.209,0.288,0.318c0.1,0.106,0.203,0.213,0.285,0.337
										c0.177,0.237,0.355,0.475,0.521,0.698c0.145,0.238,0.278,0.459,0.394,0.649c0.124,0.185,0.196,0.356,0.252,0.472
										c0.056,0.117,0.088,0.184,0.088,0.184l4.391-2.118c0,0-0.048-0.098-0.129-0.269c-0.084-0.169-0.195-0.417-0.371-0.691
										c-0.169-0.277-0.366-0.601-0.577-0.947c-0.235-0.33-0.498-0.675-0.757-1.021c-0.124-0.178-0.273-0.335-0.415-0.494
										c-0.143-0.157-0.285-0.312-0.421-0.463c-0.265-0.308-0.549-0.56-0.789-0.777c-0.241-0.217-0.44-0.398-0.582-0.525
										c-0.146-0.121-0.234-0.183-0.234-0.183L44.058,24.561z"/>
								</g>
								<g>
									<path fill="#564FEE" d="M46.416,23.717c0,0,0.037,0.031,0.097,0.09c0.058,0.062,0.139,0.152,0.235,0.259
										c0.098,0.107,0.211,0.231,0.333,0.365c0.12,0.135,0.257,0.272,0.365,0.432c0.229,0.31,0.465,0.615,0.632,0.851
										c0.15,0.247,0.25,0.412,0.25,0.412l0.415-0.256c0,0-0.104-0.171-0.26-0.428c-0.173-0.244-0.418-0.562-0.656-0.883
										c-0.114-0.166-0.254-0.309-0.38-0.448c-0.127-0.139-0.243-0.269-0.345-0.38s-0.185-0.203-0.244-0.268
										c-0.062-0.062-0.101-0.094-0.101-0.094L46.416,23.717z"/>
								</g>
								<polygon fill="#564FEE" points="45.613,22.992 45.926,22.616 46.398,23.047 46.07,23.407 								"/>
								<path fill="#564FEE" d="M48.563,26.521l0.424-0.241c0.001,0,0.088,0.134,0.161,0.276c0.069,0.144,0.139,0.288,0.139,0.288
									l-0.435,0.221c0,0-0.067-0.139-0.134-0.278C48.649,26.65,48.563,26.521,48.563,26.521z"/>
							</g>
						</g>
						<g>
							<g>
								<g>
									<path fill="none" d="M46.985,28.238c0,0,0.032,0.067,0.089,0.183c0.055,0.117,0.147,0.278,0.213,0.491
										c0.076,0.208,0.166,0.451,0.262,0.711c0.078,0.267,0.142,0.556,0.22,0.841l0.057,0.214l0.032,0.218
										c0.021,0.144,0.043,0.286,0.063,0.423c0.022,0.137,0.043,0.27,0.063,0.395c0.006,0.128,0.012,0.249,0.018,0.359
										c0.023,0.445,0.04,0.742,0.04,0.742h4.874c0,0-0.02-0.432-0.051-1.08c-0.01-0.162-0.017-0.337-0.032-0.522
										c-0.027-0.184-0.056-0.378-0.086-0.579c-0.031-0.201-0.062-0.407-0.095-0.618c-0.018-0.105-0.034-0.211-0.052-0.318
										l-0.078-0.315c-0.109-0.42-0.209-0.841-0.326-1.231c-0.14-0.381-0.27-0.738-0.381-1.043
										c-0.104-0.309-0.23-0.549-0.312-0.721c-0.082-0.17-0.128-0.269-0.128-0.269L46.985,28.238z"/>
								</g>
								<g>
									<path fill="#564FEE" d="M49.473,28.499c0,0,0.065,0.181,0.165,0.453c0.086,0.275,0.172,0.652,0.271,1.024
										c0.024,0.094,0.048,0.188,0.071,0.279c0.015,0.094,0.028,0.186,0.042,0.275c0.027,0.179,0.053,0.345,0.074,0.488
										c0.044,0.286,0.073,0.477,0.073,0.477l0.485-0.049c0,0-0.03-0.198-0.075-0.495c-0.022-0.148-0.049-0.321-0.078-0.507
										c-0.014-0.093-0.028-0.189-0.043-0.286c-0.024-0.096-0.049-0.192-0.074-0.289c-0.102-0.387-0.191-0.778-0.281-1.064
										c-0.103-0.282-0.171-0.47-0.171-0.47L49.473,28.499z"/>
								</g>
								<path fill="#564FEE" d="M49.062,27.5l0.442-0.204c0,0,0.069,0.145,0.139,0.289c0.037,0.07,0.062,0.147,0.083,0.203
									s0.034,0.094,0.034,0.094l-0.452,0.182c0,0-0.013-0.036-0.033-0.091c-0.021-0.054-0.044-0.128-0.08-0.196
									C49.129,27.639,49.062,27.5,49.062,27.5z"/>
								<polygon fill="#564FEE" points="50.189,31.955 50.676,31.922 50.708,32.561 50.221,32.57 								"/>
							</g>
						</g>
					</g>
				</g>
			</g>
			<g>
				<g>
					<path fill="#3D35EB" d="M42.078,40.363c0,0-2.414-3.365,0.278-8.087c2.69-4.723-1.305-7.633-1.305-7.633l2.977,0.051
						c0,0,3.415,3.247-0.146,7.685c-3.56,4.439-1.805,7.992-1.805,7.992"/>
					<path fill="#3D35EB" d="M43.191,40.654c0,0.477-0.389,0.862-0.865,0.862c-0.48,0-0.867-0.386-0.867-0.862
						c0-0.478,0.387-0.865,0.867-0.865C42.804,39.789,43.191,40.177,43.191,40.654z"/>
				</g>
				<g>
					<path fill="#3D35EB" d="M39.285,30.569h-0.479v-1.052c0-0.836-0.081-1.557-0.238-2.157c-0.159-0.603-0.382-1.053-0.668-1.355
						c-0.284-0.267-0.612-0.438-0.98-0.514c-0.37-0.075-0.737-0.122-1.107-0.139c-0.05,0-0.1,0-0.15,0s-0.102,0-0.15,0
						c-0.067,0-0.139-0.003-0.215-0.012c-0.074-0.009-0.155-0.012-0.238-0.012v13.769c0,0.988,0.062,1.577,0.188,1.769
						s0.524,0.289,1.194,0.289l1.007-0.026v0.451h-5.205v-0.451h1.435V25.303c-1.526,0.017-2.531,0.289-3.019,0.815
						c-0.485,0.527-0.729,1.668-0.729,3.423v1.029h-0.479v-6.521h0.478v0.803h8.879v-0.803h0.478V30.569L39.285,30.569z"/>
				</g>
			</g>
		</g>
	</g>
	<g>
		<g>
			<path fill="#3D35EB" d="M37.487,8.039c-13.02,0-23.618,10.598-23.618,23.618c0,1.482,0.136,2.977,0.42,4.434
				c0.013,0.087,0.062,0.347,0.161,0.791c0.358,1.594,0.889,3.163,1.581,4.657c2.545,5.991,8.141,15.194,20.419,25.052
				c0.309,0.247,0.68,0.37,1.05,0.37s0.74-0.123,1.05-0.37c12.267-9.857,17.875-19.061,20.419-25.052
				c0.692-1.494,1.223-3.051,1.581-4.657c0.1-0.444,0.148-0.704,0.161-0.791c0.271-1.457,0.42-2.952,0.42-4.434
				C61.106,18.637,50.508,8.039,37.487,8.039z M57.4,35.511c0,0.024-0.013,0.05-0.013,0.074c-0.013,0.062-0.049,0.247-0.111,0.531
				c0,0.013,0,0.013,0,0.025c-0.308,1.383-0.766,2.73-1.371,4.027c-0.013,0.013-0.013,0.037-0.024,0.05
				c-2.31,5.472-7.375,13.822-18.394,22.927C26.469,54.04,21.404,45.689,19.095,40.218c-0.013-0.013-0.013-0.037-0.024-0.05
				c-0.594-1.284-1.051-2.644-1.372-4.027c0-0.013,0-0.013,0-0.025c-0.074-0.284-0.099-0.469-0.111-0.531
				c0-0.024-0.012-0.05-0.012-0.086c-0.247-1.272-0.37-2.557-0.37-3.854c0-11.179,9.104-20.283,20.282-20.283
				c11.18,0,20.283,9.104,20.283,20.283C57.771,32.954,57.647,34.251,57.4,35.511z"/>
		</g>
	</g>
</g>
</svg>
