<?xml version="1.0" encoding="utf-8"?>
<!-- Generator: Adobe Illustrator 16.0.0, SVG Export Plug-In . SVG Version: 6.00 Build 0)  -->
<!DOCTYPE svg PUBLIC "-//W3C//DTD SVG 1.1//EN" "http://www.w3.org/Graphics/SVG/1.1/DTD/svg11.dtd">
<svg version="1.1" id="Layer_1" xmlns="http://www.w3.org/2000/svg" xmlns:xlink="http://www.w3.org/1999/xlink" x="0px" y="0px"
	 width="75px" height="75px" viewBox="0 0 75 75" enable-background="new 0 0 75 75" xml:space="preserve">
<g>
	<g>
		<g>
			<path fill="#3D35EB" d="M21.062,30.79h-4.631C17.214,20.126,26.141,11.688,37,11.688c8.594,0,16.371,5.412,19.352,13.469
				c0.448,1.214,1.796,1.834,3.011,1.386c1.213-0.449,1.833-1.797,1.384-3.011c-1.775-4.803-4.932-8.912-9.125-11.883
				C47.331,8.608,42.275,7.001,37,7.001c-6.763,0-13.119,2.634-17.898,7.414c-4.719,4.718-7.343,10.972-7.41,17.634
				C8.891,33.673,7,36.701,7,40.165v7.969c0,5.171,4.205,9.375,9.375,9.375h4.688c1.295,0,2.344-1.049,2.344-2.344V33.134
				C23.406,31.839,22.357,30.79,21.062,30.79z"/>
			<path fill="#3D35EB" d="M57.625,30.79h-4.688c-1.294,0-2.344,1.049-2.344,2.344v16.055v5.977v2.461
				c0,1.293-1.051,2.344-2.344,2.344h-7.148v0.073c-0.801-1.44-2.338-2.417-4.102-2.417c-2.589,0-4.688,2.099-4.688,4.688
				s2.099,4.688,4.688,4.688c1.764,0,3.301-0.977,4.102-2.417v0.073h7.148c3.877,0,7.031-3.154,7.031-7.031v-0.117h2.344
				c5.171,0,9.375-4.204,9.375-9.375v-7.969C67,34.996,62.796,30.79,57.625,30.79z"/>
		</g>
	</g>
</g>
</svg>
